<svg xmlns="http://www.w3.org/2000/svg" xmlns:xlink="http://www.w3.org/1999/xlink" viewBox="0 0 645 612">
  <defs>
    <style>
      .cls-1 {
        fill: url(#linear-gradient);
      }

      .cls-2 {
        fill: #a85400;
      }

      .cls-3 {
        fill: url(#linear-gradient-2);
      }

      .cls-4 {
        fill: #bc5e00;
        opacity: 0.12;
      }

      .cls-5 {
        fill: url(#linear-gradient-3);
      }

      .cls-6 {
        fill: url(#linear-gradient-4);
      }

      .cls-7 {
        fill: url(#linear-gradient-5);
      }

      .cls-8 {
        fill: url(#linear-gradient-6);
      }

      .cls-9 {
        fill: #fffb7b;
        opacity: 0.8;
      }

      .cls-10 {
        fill: #fffccc;
      }

      .cls-10, .cls-13, .cls-26, .cls-37, .cls-48 {
        opacity: 0.47;
      }

      .cls-11, .cls-17, .cls-25, .cls-28, .cls-36, .cls-39, .cls-47, .cls-50 {
        opacity: 0.81;
      }

      .cls-11 {
        fill: url(#radial-gradient);
      }

      .cls-12 {
        fill: #fffda9;
        opacity: 0.22;
      }

      .cls-13 {
        fill: url(#radial-gradient-2);
      }

      .cls-14 {
        fill: url(#radial-gradient-3);
      }

      .cls-15, .cls-16 {
        fill: #fff;
      }

      .cls-15 {
        opacity: 0.3;
      }

      .cls-17 {
        fill: url(#radial-gradient-4);
      }

      .cls-18, .cls-29, .cls-40, .cls-51 {
        opacity: 0.51;
      }

      .cls-18 {
        fill: url(#linear-gradient-7);
      }

      .cls-19 {
        fill: url(#linear-gradient-8);
      }

      .cls-20 {
        fill: url(#linear-gradient-9);
      }

      .cls-21 {
        fill: url(#linear-gradient-10);
      }

      .cls-22 {
        fill: url(#linear-gradient-11);
      }

      .cls-23 {
        fill: url(#linear-gradient-12);
      }

      .cls-24 {
        fill: url(#linear-gradient-13);
      }

      .cls-25 {
        fill: url(#radial-gradient-5);
      }

      .cls-26 {
        fill: url(#radial-gradient-6);
      }

      .cls-27 {
        fill: url(#radial-gradient-7);
      }

      .cls-28 {
        fill: url(#radial-gradient-8);
      }

      .cls-29 {
        fill: url(#linear-gradient-14);
      }

      .cls-30 {
        fill: url(#linear-gradient-15);
      }

      .cls-31 {
        fill: url(#linear-gradient-16);
      }

      .cls-32 {
        fill: url(#linear-gradient-17);
      }

      .cls-33 {
        fill: url(#linear-gradient-18);
      }

      .cls-34 {
        fill: url(#linear-gradient-19);
      }

      .cls-35 {
        fill: url(#linear-gradient-20);
      }

      .cls-36 {
        fill: url(#radial-gradient-9);
      }

      .cls-37 {
        fill: url(#radial-gradient-10);
      }

      .cls-38 {
        fill: url(#radial-gradient-11);
      }

      .cls-39 {
        fill: url(#radial-gradient-12);
      }

      .cls-40 {
        fill: url(#linear-gradient-21);
      }

      .cls-41 {
        fill: url(#linear-gradient-22);
      }

      .cls-42 {
        fill: url(#linear-gradient-23);
      }

      .cls-43 {
        fill: url(#linear-gradient-24);
      }

      .cls-44 {
        fill: url(#linear-gradient-25);
      }

      .cls-45 {
        fill: url(#linear-gradient-26);
      }

      .cls-46 {
        fill: url(#linear-gradient-27);
      }

      .cls-47 {
        fill: url(#radial-gradient-13);
      }

      .cls-48 {
        fill: url(#radial-gradient-14);
      }

      .cls-49 {
        fill: url(#radial-gradient-15);
      }

      .cls-50 {
        fill: url(#radial-gradient-16);
      }
    </style>
    <linearGradient id="linear-gradient" x1="174.82" y1="355.69" x2="582.51" y2="355.69" gradientUnits="userSpaceOnUse">
      <stop offset="0" stop-color="#db9200"/>
      <stop offset="1" stop-color="#a85400"/>
    </linearGradient>
    <linearGradient id="linear-gradient-2" x1="321.92" y1="235.81" x2="436.13" y2="378.82" gradientUnits="userSpaceOnUse">
      <stop offset="0" stop-color="#fcee2a"/>
      <stop offset="1" stop-color="#e69d00"/>
    </linearGradient>
    <linearGradient id="linear-gradient-3" x1="364.39" y1="214.85" x2="390.39" y2="381.85" gradientUnits="userSpaceOnUse">
      <stop offset="0" stop-color="#fcff6e"/>
      <stop offset="0.99" stop-color="#d17700"/>
    </linearGradient>
    <linearGradient id="linear-gradient-4" x1="420.47" y1="361.78" x2="325.19" y2="230.97" gradientUnits="userSpaceOnUse">
      <stop offset="0" stop-color="#fae647"/>
      <stop offset="1" stop-color="#c46500"/>
    </linearGradient>
    <linearGradient id="linear-gradient-5" x1="379.19" y1="272.14" x2="390.87" y2="332.77" gradientUnits="userSpaceOnUse">
      <stop offset="0" stop-color="#fcee2a"/>
      <stop offset="1" stop-color="#e69d00"/>
    </linearGradient>
    <linearGradient id="linear-gradient-6" x1="971.69" y1="687.98" x2="1065.39" y2="687.98" gradientTransform="translate(1073.92 -719.48) rotate(90.08)" gradientUnits="userSpaceOnUse">
      <stop offset="0" stop-color="#fffb7b"/>
      <stop offset="0.51" stop-color="#e69d00"/>
      <stop offset="1" stop-color="#a85400"/>
    </linearGradient>
    <radialGradient id="radial-gradient" cx="1040.79" cy="582.3" r="12.44" gradientTransform="translate(132.48 -956.59) rotate(53.74)" gradientUnits="userSpaceOnUse">
      <stop offset="0" stop-color="#fff"/>
      <stop offset="1" stop-color="#fffccc"/>
    </radialGradient>
    <radialGradient id="radial-gradient-2" cx="564.42" cy="451.56" r="10.93" gradientTransform="translate(92.32 -252.54) rotate(16.75)" gradientUnits="userSpaceOnUse">
      <stop offset="0" stop-color="#fff"/>
      <stop offset="0.99" stop-color="#fced92"/>
    </radialGradient>
    <radialGradient id="radial-gradient-3" cx="565.3" cy="451.24" r="5.45" gradientTransform="translate(92.32 -252.54) rotate(16.75)" gradientUnits="userSpaceOnUse">
      <stop offset="0" stop-color="#fff"/>
      <stop offset="1" stop-color="#fffdb6"/>
    </radialGradient>
    <radialGradient id="radial-gradient-4" cx="781.25" cy="381.15" r="7.4" gradientTransform="translate(-200.1 -415.08) rotate(24.25)" xlink:href="#radial-gradient"/>
    <linearGradient id="linear-gradient-7" x1="406.76" y1="277" x2="545.35" y2="277" gradientUnits="userSpaceOnUse">
      <stop offset="0.01" stop-color="#662900"/>
      <stop offset="1" stop-color="#c46500"/>
    </linearGradient>
    <linearGradient id="linear-gradient-8" x1="146.16" y1="261.66" x2="553.85" y2="261.66" xlink:href="#linear-gradient"/>
    <linearGradient id="linear-gradient-9" x1="293.25" y1="141.79" x2="407.46" y2="284.8" xlink:href="#linear-gradient-2"/>
    <linearGradient id="linear-gradient-10" x1="335.73" y1="120.82" x2="361.73" y2="287.82" xlink:href="#linear-gradient-3"/>
    <linearGradient id="linear-gradient-11" x1="391.81" y1="267.75" x2="296.52" y2="136.94" xlink:href="#linear-gradient-4"/>
    <linearGradient id="linear-gradient-12" x1="350.52" y1="178.11" x2="362.21" y2="238.74" xlink:href="#linear-gradient-5"/>
    <linearGradient id="linear-gradient-13" x1="877.7" y1="716.78" x2="971.4" y2="716.78" xlink:href="#linear-gradient-6"/>
    <radialGradient id="radial-gradient-5" cx="935.26" cy="583.52" r="12.44" xlink:href="#radial-gradient"/>
    <radialGradient id="radial-gradient-6" cx="456.3" cy="405.33" r="10.93" xlink:href="#radial-gradient-2"/>
    <radialGradient id="radial-gradient-7" cx="457.18" cy="405.02" r="5.45" xlink:href="#radial-gradient-3"/>
    <radialGradient id="radial-gradient-8" cx="688.79" cy="330.25" r="7.4" gradientTransform="translate(-200.1 -415.08) rotate(24.25)" xlink:href="#radial-gradient"/>
    <linearGradient id="linear-gradient-14" x1="467.24" y1="270.99" x2="554.73" y2="378.48" xlink:href="#linear-gradient-7"/>
    <linearGradient id="linear-gradient-15" x1="213" y1="176.27" x2="620.69" y2="176.27" xlink:href="#linear-gradient"/>
    <linearGradient id="linear-gradient-16" x1="360.1" y1="56.4" x2="474.31" y2="199.41" xlink:href="#linear-gradient-2"/>
    <linearGradient id="linear-gradient-17" x1="402.57" y1="35.43" x2="428.57" y2="202.43" xlink:href="#linear-gradient-3"/>
    <linearGradient id="linear-gradient-18" x1="458.65" y1="182.37" x2="363.37" y2="51.56" xlink:href="#linear-gradient-4"/>
    <linearGradient id="linear-gradient-19" x1="417.36" y1="92.73" x2="429.05" y2="153.36" xlink:href="#linear-gradient-5"/>
    <linearGradient id="linear-gradient-20" x1="792.22" y1="650.05" x2="885.92" y2="650.05" xlink:href="#linear-gradient-6"/>
    <radialGradient id="radial-gradient-9" cx="918.69" cy="445.39" r="12.44" xlink:href="#radial-gradient"/>
    <radialGradient id="radial-gradient-10" cx="526.17" cy="285.05" r="10.93" xlink:href="#radial-gradient-2"/>
    <radialGradient id="radial-gradient-11" cx="527.05" cy="284.73" r="5.45" xlink:href="#radial-gradient-3"/>
    <radialGradient id="radial-gradient-12" cx="742.38" cy="201.86" r="7.4" gradientTransform="translate(-200.1 -415.08) rotate(24.25)" xlink:href="#radial-gradient"/>
    <linearGradient id="linear-gradient-21" x1="405.63" y1="328.01" x2="508.12" y2="328.01" xlink:href="#linear-gradient-7"/>
    <linearGradient id="linear-gradient-22" x1="278.58" y1="305.48" x2="276.01" y2="553.69" xlink:href="#linear-gradient"/>
    <linearGradient id="linear-gradient-23" x1="188.2" y1="250.42" x2="294.78" y2="549.88" gradientTransform="translate(523.83 31.72) rotate(69.51)" xlink:href="#linear-gradient-2"/>
    <linearGradient id="linear-gradient-24" x1="151.35" y1="242.71" x2="326.45" y2="543.36" xlink:href="#linear-gradient-3"/>
    <linearGradient id="linear-gradient-25" x1="342.03" y1="485.86" x2="138.72" y2="306.91" xlink:href="#linear-gradient-4"/>
    <linearGradient id="linear-gradient-26" x1="220.61" y1="377.81" x2="306.16" y2="446.39" xlink:href="#linear-gradient-5"/>
    <linearGradient id="linear-gradient-27" x1="199.03" y1="371.48" x2="260.53" y2="404.98" gradientTransform="matrix(1, 0, 0, 1, 0, 0)" xlink:href="#linear-gradient-6"/>
    <radialGradient id="radial-gradient-13" cx="663.5" cy="318.73" r="17.3" gradientTransform="translate(-401.59 -224.42) rotate(13.66)" xlink:href="#radial-gradient"/>
    <radialGradient id="radial-gradient-14" cx="335.51" cy="486" r="13.48" gradientTransform="matrix(1, 0, 0, 1, 0, 0)" xlink:href="#radial-gradient-2"/>
    <radialGradient id="radial-gradient-15" cx="336.59" cy="485.61" r="6.72" gradientTransform="matrix(1, 0, 0, 1, 0, 0)" xlink:href="#radial-gradient-3"/>
    <radialGradient id="radial-gradient-16" cx="599.51" cy="294.57" r="7.4" gradientTransform="translate(-326.79 -70.22) rotate(7.5)" xlink:href="#radial-gradient"/>
  </defs>
  <g id="Layer_4_copy_9" data-name="Layer 4 copy 9">
    <g>
      <path class="cls-1" d="M378.67,446.32c-112.58,0-203.85-40.58-203.85-90.63V308.85c29.83-33.6,117.67-43.8,203.85-43.8,81.67,0,171.31,14.82,203.84,45.66v45C582.51,405.74,491.25,446.32,378.67,446.32Z"/>
      <path class="cls-2" d="M187.2,387a4.18,4.18,0,0,0,.28-1.64q-1-35.5-2.06-71c-.14-5.14-8.14-5.16-8,0l1.74,60.21A65.16,65.16,0,0,0,187.2,387Z"/>
      <path class="cls-2" d="M194.2,394.3a96.78,96.78,0,0,0,8.57,7.22c-.09-.58-.12-1.18-.17-1.72a560.9,560.9,0,0,1-2.17-59c.08-5.15-7.92-5.15-8,0q-.42,26.6,1.68,53.12S194.19,394.29,194.2,394.3Z"/>
      <path class="cls-2" d="M219.6,412.37c-1.23-18.59-1.6-37.43-1.12-56.05.13-5.15-7.87-5.15-8,0-.44,17.15-.17,34,.83,51.12C212.26,408.22,217.07,410.94,219.6,412.37Z"/>
      <path class="cls-2" d="M237.91,421.24V366.32c0-5.15-8-5.16-8,0v51.33C232.69,418.94,235.15,420.05,237.91,421.24Z"/>
      <path class="cls-2" d="M250.59,426.25c2.51.84,5.35,1.81,7.91,2.66,0-.82.07-1.82.09-2.59q.69-26.49.24-53c-.08-5.14-8.08-5.16-8,0Q251.28,399.78,250.59,426.25Z"/>
      <path class="cls-2" d="M279,434.76l-.09-53.44c0-5.15-8-5.16-8,0l.09,51.33C273.59,433.37,276.27,434.07,279,434.76Z"/>
      <path class="cls-2" d="M297.91,438.9q-.35-26.29-.68-52.58c-.06-5.14-8.06-5.16-8,0,.22,16.87.46,34.11.67,51C292.55,437.94,295.22,438.4,297.91,438.9Z"/>
      <path class="cls-2" d="M309.35,440.94c2.66.42,5.21.81,8,1.2.09-1.62.08-4.23.08-4.52q0-3,0-6,0-6.48,0-12.95.06-13.44.39-26.88c.13-5.15-7.87-5.15-8,0q-.37,15.93-.41,31.86,0,8,.07,15.94C309.42,439.88,309.35,440.67,309.35,440.94Z"/>
      <path class="cls-2" d="M336.7,444.4a490.43,490.43,0,0,1,1.64-49.09c.43-5.13-7.57-5.1-8,0-1.33,15.89-1.92,32.33-1.68,48.26C331.3,443.83,334,444.13,336.7,444.4Z"/>
      <path class="cls-2" d="M356.75,445.74l.54-49.92c0-5.15-8-5.15-8,0-.18,16.4-.36,33.13-.53,49.53C351.58,445.53,354,445.66,356.75,445.74Z"/>
      <path class="cls-2" d="M381,446.32a337.49,337.49,0,0,1,.73-50c.45-5.13-7.56-5.1-8,0a338.45,338.45,0,0,0-.71,49.94Z"/>
      <path class="cls-2" d="M402,445.73c-.16-16.7-.19-33.21-.06-49.91.05-5.15-7.95-5.15-8,0-.13,16.68-.1,33.56.06,50.25C394.71,446,399.4,445.86,402,445.73Z"/>
      <path class="cls-2" d="M425.55,443.91q-1-25,0-50.08c.21-5.15-7.79-5.14-8,0-.68,16.89-.65,33.95.06,50.84C420.16,444.44,422.87,444.18,425.55,443.91Z"/>
      <path class="cls-2" d="M445.9,441.27c-1-16.34-1.53-32.58-1.66-48.95,0-5.14-8-5.16-8,0q.19,25.07,1.74,50.08C438.75,442.33,444,441.57,445.9,441.27Z"/>
      <path class="cls-2" d="M465.39,437.73c-1.15-16-1.89-32.39-2.19-48.41-.09-5.14-8.09-5.16-8,0,.31,16.63,1.1,33.38,2.33,50C460.21,438.78,462.85,438.25,465.39,437.73Z"/>
      <path class="cls-2" d="M489.12,431.87c-1.25-15.66-3.34-31.4-2.69-47.05.21-5.15-7.79-5.14-8,0-.68,16.36,1.63,32.86,2.86,49.19C481.38,434,486.61,432.57,489.12,431.87Z"/>
      <path class="cls-2" d="M509.33,425.26a355.36,355.36,0,0,1-1.5-46.94c.18-5.15-7.82-5.15-8,0A358,358,0,0,0,501.65,428C504.24,427.09,506.67,426.23,509.33,425.26Z"/>
      <path class="cls-2" d="M520.75,420.68c.33-.11,5.58-2.51,7.86-3.59-.57-15.56-1.15-31.21-1.73-46.77-.19-5.13-8.19-5.16-8,0q.92,24.51,1.82,49C520.72,419.71,520.7,420.23,520.75,420.68Z"/>
      <path class="cls-2" d="M540.93,410.55c.07,0,6.32-3.79,7.88-4.93-.38-13.89-.75-27.9-1.13-41.79-.14-5.14-8.14-5.16-8,0C540.09,379,540.81,410.18,540.93,410.55Z"/>
      <path class="cls-2" d="M558.4,398.48c2.37-2,5.37-4.78,7.47-6.86-1.12-14-2-27.78-2.6-41.79-.23-5.13-8.23-5.16-8,0q1,22.53,2.85,45C558.21,396,558.28,397,558.4,398.48Z"/>
      <g>
        <ellipse class="cls-3" cx="378.73" cy="306.95" rx="201.25" ry="90.63"/>
        <path class="cls-4" d="M501.82,235.25c-13.87-3.31-26.8.61-28.16,11.9a13.28,13.28,0,0,1-6.33,9.61c-6.47,4-16.67,8.11-25.54,8.56a15.72,15.72,0,0,0-9.92,4.15c-13.5,12.41-36.44,24.58-53.37,29.93a36.49,36.49,0,0,0-16.72,10.73c-10.89,12.57-28.49,23.6-43.51,26.73a25.54,25.54,0,0,0-13.06,7.2c-6.14,6.27-17.06,9.94-29.57,11a27,27,0,0,1-7.12-.35c-17.85-3.16-32.37-1.48-41,12,36.88,18.9,90.95,30.84,151.22,30.84C489.88,397.59,580,357,580,307,580,277.78,549.37,251.83,501.82,235.25Zm6.24,109.14c-9.57,5.85-20.33,9.41-30.89,13-5.58,1.9-11.12,3.92-16.75,5.66a76.86,76.86,0,0,1-7.6,2.07c-2.21.44-4.68.38-6.76,1.27-3.83,1.63-7.16-4-3.3-5.64,4.21-1.79,8.95-2,13.36-3.23,5.29-1.53,10.48-3.39,15.69-5.19,11.22-3.88,22.75-7.34,32.95-13.58C508.36,336.55,511.64,342.2,508.06,344.39Z"/>
        <path class="cls-5" d="M378.73,400.09c-54.1,0-105-9.51-143.33-26.77C196.44,355.77,175,332.2,175,307s21.46-48.82,60.42-66.36c38.33-17.26,89.23-26.77,143.33-26.77s105,9.51,143.33,26.77c39,17.54,60.42,41.11,60.42,66.36S561,355.77,522.06,373.32C483.74,390.58,432.83,400.09,378.73,400.09Zm0-181.27c-53.41,0-103.58,9.35-141.28,26.33C200.39,261.84,180,283.79,180,307s20.41,45.12,57.47,61.81c37.7,17,87.87,26.33,141.28,26.33S482.32,385.74,520,368.76c37.06-16.69,57.47-38.64,57.47-61.81s-20.41-45.11-57.47-61.8C482.32,228.17,432.14,218.82,378.73,218.82Z"/>
        <path class="cls-6" d="M377.55,372.4c-42.48,0-82.47-7-112.6-19.74-31-13.08-48-30.77-48-49.81s17-36.73,48-49.81c30.13-12.73,70.12-19.74,112.6-19.74s82.47,7,112.6,19.74c31,13.08,48,30.77,48,49.81s-17.06,36.73-48,49.81C460,365.39,420,372.4,377.55,372.4Zm0-132.93c-41.57,0-80.6,6.82-109.9,19.19-28.47,12-44.15,27.72-44.15,44.19S239.18,335,267.65,347c29.3,12.38,68.33,19.2,109.9,19.2s80.6-6.82,109.9-19.2c28.46-12,44.14-27.71,44.14-44.18s-15.68-32.16-44.14-44.19C458.15,246.29,419.12,239.47,377.55,239.47Z"/>
        <path class="cls-7" d="M437.24,338.34c16.53-2.15,32.05-7.75,41.45-17,5.85.47,12.08,2.9,19.49.93,7.6-2,15.1-21.63,8.38-25.74-6-3.66-11.36-2.35-20.41-2.87a34.14,34.14,0,0,0-8.3-12.77c-9.85-9.86-28-16.46-46.2-16.94a65.16,65.16,0,0,0-44,15.06c-5.12,4.25-9.14,9-13.18,13.72-1.8,2.1-18.21,23.92-35.53,22.72-13.9-1-21.21-9.35-19.79-16.94,2.33-12.43,19.9-18,34.27-17.79,11.25.18,22-5.31,23.39-12.44,1.54-7.73-6.82-13.9-17.94-15-30.3-2.85-60.64,6.63-74.08,25.37-.54.74-11.44-2.27-16.23,0-7.52,3.59-11.3,18-6.86,25,2.18,3.44,10.24,2.85,16.81,3.25,2.38,10.23,9.78,19.76,21.91,26.66,11.26,6.4,27,9.61,42.05,9.58,19.2,0,33.87-4.15,46.39-14.23,9.72-7.82,25.29-31.25,37.31-35,8.94-2.76,22.2.15,20.81,8.25-.84,4.86-6.43,8.48-15.08,9.53-26.45,3.44-21.3,30,5.31,26.52Z"/>
        <path class="cls-8" d="M256.88,296c0-7.2,3.5-15.54,9.74-18.52,4.31-2.07,11.21-1.14,15.34-.59l.87.12c13.93-18.19,44.45-28.33,76.57-25.31,13.29,1.25,22.08,8.44,20.42,16.76-1.56,7.88-13.43,14.12-26.46,13.91-13.94-.22-29.14,5.31-31.2,16.31-1.23,6.6,5,14.28,17.19,15.13,4.19.29,15.69-1.18,31.86-21.07l.58-.71.63-.74a107.25,107.25,0,0,1,12.76-13.2,69,69,0,0,1,46.61-15.79c19.28.5,38.4,7.49,48.69,17.79a35.87,35.87,0,0,1,8.15,12c1.44,0,2.8.05,4.12.05,5.54,0,10.77.05,16,3.27,5.54,3.38,2.81,12.52,1.84,15.24s-4.5,11.33-11.14,13.09c-6.33,1.68-12,.7-16.49-.1h0a6,6,0,0,0-4.77,1.26c-9.36,7.54-23.46,12.83-40.27,15h0c-13.94,1.82-22.85-3.61-25.5-9.79-3.48-8.15,2.6-17.84,18.82-20,7.3-.89,12.06-3.9,12.78-8.08.51-2.93-1.17-5.22-4.71-6.49a19.59,19.59,0,0,0-11.65-.16c-6.83,2.11-16.14,12.72-23.62,21.24-4.64,5.28-9,10.27-12.68,13.21-12.61,10.16-28.14,14.91-48.85,15-16.75,0-32.87-3.65-44.22-10.09-11.62-6.61-19.52-15.9-22.38-26.27l-1.54,0c-5.82-.17-13.06-.38-15.47-4.19A15.54,15.54,0,0,1,256.88,296ZM374,266.52c0-5.84-6.35-10.67-15.63-11.54-29.88-2.81-58.33,7-70.79,24.34-1.14,1.6-4.15,1.19-7.06.8s-8-1.07-10-.12c-6,2.88-10.35,16.31-6,23.2,1,1.54,4,1.8,10.13,2,1.41,0,2.83.08,4.18.16l2.35.15.3,1.29c2.36,10.2,9.85,19.33,21.08,25.71,10.21,5.81,24.75,9.12,39.89,9.09,18.82,0,32.37-4.21,43.93-13.51,3.4-2.74,7.68-7.63,12.22-12.8,8.66-9.86,17.62-20.06,26.09-22.67a30,30,0,0,1,17.86.27c5.42,1.95,8.12,5.43,7.4,9.57-1,5.6-7.64,9.81-17.42,11-12.52,1.63-17.13,9.4-14.31,16,1.9,4.45,7.71,8.71,18.29,7.34,17.14-2.24,31.18-8,39.53-16.19h0a3.11,3.11,0,0,1,2.42-.88l.63.05c1.94.16,3.84.49,5.67.81,4.06.71,7.89,1.38,12.08.27,1.8-.48,5.53-4.22,7.86-10.75s1.56-11.19-.4-12.39c-3.51-2.14-6.39-2.15-11.64-2.17-2,0-4.29,0-6.86-.17l-.18.05a2,2,0,0,1-2.45-1.38h0a32.75,32.75,0,0,0-8-12.28c-9.31-9.32-26.48-15.64-43.73-16.09a61.38,61.38,0,0,0-41.32,14.32,104.21,104.21,0,0,0-12.34,12.78l-.63.74-.53.65c-13.09,16.11-25.91,23.85-38.08,23-16-1.12-24-10.4-22.4-18.75,2.43-13,20.62-19.54,37.34-19.27,9.8.15,19.11-4.87,20.32-11A8,8,0,0,0,374,266.52Z"/>
      </g>
      <g>
        <path class="cls-9" d="M338.22,215.64c-37.48,3.18-82.46,12.9-116.17,31.57C202.49,258,223.43,277,242.26,265.05c12.71-8,34.59-16.9,47.6-20.63A257.92,257.92,0,0,1,342.24,235C364.8,233.51,360.52,213.74,338.22,215.64Z"/>
        <polygon class="cls-10" points="264.4 248.52 252.83 224.76 267.7 208.22 291.87 210.22 305.57 228.49 290.77 250.39 264.4 248.52"/>
        <polygon class="cls-11" points="275.19 238.89 264.5 229.08 271.05 217.13 283.87 216.55 292.03 224.22 289.04 234.54 275.19 238.89"/>
        <polygon class="cls-12" points="513.18 355.56 497.38 358.28 487.12 345.95 492.67 330.9 508.47 328.18 518.73 340.51 513.18 355.56"/>
        <polygon class="cls-13" points="503.25 353.87 493.14 348.71 492.56 337.37 502.08 331.2 512.19 336.36 512.78 347.7 503.25 353.87"/>
        <polygon class="cls-14" points="505.94 347.63 500.31 347.09 497.97 341.94 501.26 337.34 506.89 337.89 509.23 343.03 505.94 347.63"/>
        <polygon class="cls-15" points="255.89 286.27 276.31 226.35 206.28 228.55 275.78 221.62 249.37 176.05 280.97 220.38 326.53 195.72 283.68 224.62 330.98 269.97 280.43 228.64 255.89 286.27"/>
        <polygon class="cls-16" points="257.13 282.23 277.62 225.39 218.87 227.72 277.28 222.2 253.87 182.88 280.15 221.81 320.03 199.55 281.61 224.77 324.29 264.06 280.03 226.71 257.13 282.23"/>
        <polygon class="cls-10" points="353.18 268.44 340.5 259.71 341.72 244.35 355.63 237.73 368.32 246.47 367.1 261.82 353.18 268.44"/>
        <polygon class="cls-17" points="357.91 260.53 350.43 258.8 348.19 251.46 353.43 245.85 360.91 247.58 363.14 254.92 357.91 260.53"/>
        <polygon class="cls-15" points="361.54 291.3 354.61 254.52 320.26 274.92 352.96 252.24 320.29 225.36 355.27 250.1 370.43 221.33 357.9 251.49 396.07 261.15 357.39 254.5 361.54 291.3"/>
        <polygon class="cls-16" points="361.01 288.86 355 253.65 323.57 272.49 353.9 252.1 323.89 228.39 355.27 251.07 368.4 225.8 356.88 252.17 390.27 259.96 356.63 253.63 361.01 288.86"/>
      </g>
    </g>
    <path class="cls-18" d="M560.71,277c0,13.38-8.58,25.93-23.54,36.71a9.17,9.17,0,0,0-2,2c-3.23,4.29-5.7,6.45-10.72,8a23.11,23.11,0,0,0-3.94,1.57C488.68,341.55,441.32,350,386.93,350c-96,0-173.77-32.68-173.77-73s77.8-73,173.77-73c79.15,0,145.93,24.66,166.92,55.06C558.31,265.52,560.71,269.93,560.71,277Z"/>
    <g id="Layer_4_copy_9-2" data-name="Layer 4 copy 9">
      <path class="cls-19" d="M350,352.29c-112.58,0-203.84-40.58-203.84-90.63V214.82C176,181.22,263.83,171,350,171c81.67,0,171.32,14.82,203.85,45.66v45C553.85,311.71,462.58,352.29,350,352.29Z"/>
      <g id="Layer_5_copy_9" data-name="Layer 5 copy 9">
        <path class="cls-2" d="M158.53,292.94a4,4,0,0,0,.28-1.64q-1-35.51-2.05-71c-.15-5.14-8.15-5.16-8,0l1.74,60.21A64.63,64.63,0,0,0,158.53,292.94Z"/>
        <path class="cls-2" d="M165.53,300.27a96.78,96.78,0,0,0,8.57,7.22c-.09-.57-.12-1.18-.16-1.72a560.9,560.9,0,0,1-2.18-59c.09-5.15-7.91-5.15-8,0q-.42,26.6,1.69,53.12S165.52,300.26,165.53,300.27Z"/>
        <path class="cls-2" d="M190.93,318.34c-1.22-18.58-1.6-37.43-1.12-56,.14-5.15-7.86-5.14-8,0-.44,17.15-.17,34,.83,51.12C183.6,314.19,188.4,316.91,190.93,318.34Z"/>
        <path class="cls-2" d="M209.24,327.21V272.29c0-5.15-8-5.16-8,0v51.33C204,324.92,206.49,326,209.24,327.21Z"/>
        <path class="cls-2" d="M221.92,332.22l7.92,2.66c0-.82.06-1.82.08-2.58q.69-26.51.25-53c-.09-5.14-8.09-5.16-8,0Q222.61,305.75,221.92,332.22Z"/>
        <path class="cls-2" d="M250.3,340.73l-.1-53.44c0-5.15-8-5.16-8,0l.09,51.33C244.92,339.34,247.6,340,250.3,340.73Z"/>
        <path class="cls-2" d="M269.24,344.87q-.33-26.3-.67-52.58c-.07-5.14-8.07-5.16-8,0,.21,16.87.45,34.11.67,51C263.88,343.91,266.55,344.37,269.24,344.87Z"/>
        <path class="cls-2" d="M280.68,346.92c2.67.41,5.22.8,8,1.19.1-1.62.09-4.23.08-4.51,0-2,0-4,0-6q0-6.47,0-12.94.07-13.46.4-26.89c.12-5.15-7.88-5.15-8,0q-.37,15.93-.42,31.86,0,8,.07,15.94C280.75,345.85,280.69,346.64,280.68,346.92Z"/>
        <path class="cls-2" d="M308,350.37a490.14,490.14,0,0,1,1.65-49.08c.43-5.13-7.57-5.11-8,0-1.33,15.88-1.92,32.32-1.69,48.25C302.63,349.8,305.28,350.1,308,350.37Z"/>
        <path class="cls-2" d="M328.08,351.71l.54-49.92c.05-5.15-7.95-5.15-8,0-.18,16.4-.35,33.13-.53,49.53C322.91,351.5,325.37,351.64,328.08,351.71Z"/>
        <path class="cls-2" d="M352.34,352.29a336.13,336.13,0,0,1,.72-50c.45-5.13-7.55-5.1-8,0a339.82,339.82,0,0,0-.7,49.94Z"/>
        <path class="cls-2" d="M373.33,351.7c-.16-16.7-.18-33.2-.05-49.91,0-5.15-8-5.15-8,0-.13,16.69-.1,33.56.06,50.25C366,352,370.73,351.83,373.33,351.7Z"/>
        <path class="cls-2" d="M396.88,349.88q-1-25,0-50.08c.2-5.15-7.8-5.14-8,0-.69,16.89-.66,33.95.05,50.84C391.49,350.41,394.2,350.15,396.88,349.88Z"/>
        <path class="cls-2" d="M417.23,347.25c-1-16.35-1.53-32.58-1.65-49,0-5.14-8-5.16-8,0q.19,25.07,1.73,50.08C410.08,348.3,415.31,347.54,417.23,347.25Z"/>
        <path class="cls-2" d="M436.73,343.7c-1.15-16-1.9-32.39-2.19-48.41-.09-5.14-8.1-5.15-8,0,.3,16.64,1.1,33.38,2.33,50C431.54,344.75,434.19,344.22,436.73,343.7Z"/>
        <path class="cls-2" d="M460.46,337.85c-1.26-15.67-3.35-31.41-2.7-47.06.21-5.15-7.79-5.14-8,0-.68,16.36,1.64,32.86,2.86,49.2Z"/>
        <path class="cls-2" d="M480.66,331.23a353.65,353.65,0,0,1-1.49-46.94c.17-5.15-7.83-5.14-8,0A356.55,356.55,0,0,0,473,334C475.58,333.06,478,332.2,480.66,331.23Z"/>
        <path class="cls-2" d="M492.08,326.65c.34-.11,5.59-2.51,7.87-3.59-.58-15.56-1.16-31.21-1.73-46.77-.19-5.13-8.2-5.16-8,0q.9,24.51,1.82,49C492.05,325.68,492,326.2,492.08,326.65Z"/>
        <path class="cls-2" d="M512.27,316.52c.06,0,6.31-3.79,7.87-4.92-.37-13.9-.75-27.91-1.13-41.8-.14-5.14-8.14-5.16-8,0C511.42,285,512.14,316.15,512.27,316.52Z"/>
        <path class="cls-2" d="M529.73,304.46c2.38-2,5.37-4.79,7.47-6.87-1.12-14-2-27.78-2.6-41.79-.22-5.13-8.22-5.16-8,0q1,22.53,2.85,45C529.55,302,529.62,303,529.73,304.46Z"/>
      </g>
      <ellipse class="cls-20" cx="350.07" cy="212.92" rx="201.25" ry="90.63"/>
      <path class="cls-4" d="M473.15,141.22c-13.87-3.31-26.8.61-28.15,11.91a13.32,13.32,0,0,1-6.34,9.6c-6.47,4-16.66,8.11-25.54,8.56a15.74,15.74,0,0,0-9.92,4.15c-13.49,12.41-36.44,24.58-53.37,29.93a36.54,36.54,0,0,0-16.72,10.73c-10.89,12.57-28.48,23.6-43.51,26.73a25.55,25.55,0,0,0-13.05,7.2c-6.14,6.27-17.07,9.94-29.57,11a27.05,27.05,0,0,1-7.13-.35c-17.84-3.16-32.37-1.48-41,12,36.89,18.9,91,30.84,151.23,30.84,111.14,0,201.25-40.58,201.25-90.64C551.32,183.75,520.7,157.8,473.15,141.22Zm6.24,109.14c-9.56,5.85-20.33,9.41-30.88,13-5.58,1.9-11.12,3.92-16.75,5.66a74.39,74.39,0,0,1-7.61,2.07c-2.21.44-4.67.38-6.76,1.27-3.83,1.63-7.15-4-3.3-5.64,4.22-1.79,9-2,13.36-3.23,5.3-1.52,10.48-3.39,15.69-5.19,11.22-3.88,22.75-7.34,32.95-13.58C479.69,242.52,483,248.17,479.39,250.36Z"/>
      <path class="cls-21" d="M350.07,306.06c-54.11,0-105-9.51-143.34-26.77-39-17.54-60.41-41.11-60.41-66.37s21.45-48.82,60.41-66.36c38.33-17.26,89.23-26.77,143.34-26.77s105,9.51,143.33,26.77c39,17.54,60.42,41.11,60.42,66.36s-21.46,48.83-60.42,66.37C455.07,296.55,404.17,306.06,350.07,306.06Zm0-181.27c-53.41,0-103.59,9.35-141.28,26.33-37.06,16.69-57.47,38.64-57.47,61.8s20.41,45.12,57.47,61.81c37.69,17,87.87,26.33,141.28,26.33s103.58-9.35,141.28-26.33c37.06-16.69,57.47-38.64,57.47-61.81s-20.41-45.11-57.47-61.8C453.65,134.14,403.48,124.79,350.07,124.79Z"/>
      <path class="cls-22" d="M348.88,278.37c-42.48,0-82.47-7-112.6-19.74-31-13.08-48-30.77-48-49.81s17.05-36.73,48-49.81c30.13-12.73,70.12-19.74,112.6-19.74s82.47,7,112.6,19.74c31,13.08,48,30.77,48,49.81s-17.05,36.73-48,49.81C431.35,271.36,391.36,278.37,348.88,278.37Zm0-132.93c-41.57,0-80.6,6.82-109.9,19.2-28.47,12-44.14,27.71-44.14,44.18S210.51,241,239,253c29.3,12.38,68.33,19.2,109.9,19.2s80.6-6.82,109.9-19.2c28.47-12,44.15-27.71,44.15-44.18s-15.68-32.16-44.15-44.18C429.48,152.26,390.45,145.44,348.88,145.44Z"/>
      <g>
        <path class="cls-23" d="M408.57,244.32c16.54-2.16,32.06-7.75,41.46-17,5.84.48,12.07,2.9,19.49.93,7.6-2,15.09-21.63,8.37-25.73-6-3.67-11.35-2.35-20.4-2.88a34.26,34.26,0,0,0-8.3-12.77c-9.85-9.86-28-16.46-46.21-16.94A65.23,65.23,0,0,0,359,185c-5.12,4.25-9.14,9-13.17,13.72-1.8,2.1-18.21,23.92-35.53,22.72-13.91-1-21.21-9.35-19.79-16.94,2.32-12.42,19.89-18,34.26-17.79,11.25.18,22-5.31,23.4-12.44,1.53-7.73-6.83-13.9-17.95-15-30.3-2.85-60.64,6.63-74.08,25.37-.53.74-11.43-2.27-16.23,0-7.51,3.59-11.3,18-6.85,25,2.18,3.45,10.24,2.85,16.81,3.25,2.37,10.23,9.77,19.76,21.9,26.66,11.27,6.4,27,9.62,42.06,9.58,19.19,0,33.87-4.15,46.38-14.23,9.72-7.82,25.29-31.25,37.31-35,8.94-2.76,22.21.15,20.81,8.25-.84,4.86-6.43,8.48-15.08,9.53-26.44,3.44-21.3,30,5.31,26.53Z"/>
        <path class="cls-24" d="M228.21,202c0-7.21,3.51-15.55,9.74-18.53,4.32-2.07,11.22-1.14,15.34-.59l.87.12c13.93-18.19,44.45-28.33,76.57-25.31,13.3,1.25,22.09,8.45,20.43,16.76-1.57,7.88-13.44,14.12-26.46,13.91-13.95-.22-29.14,5.31-31.2,16.31-1.23,6.6,5,14.28,17.18,15.13,4.2.29,15.69-1.18,31.86-21.07.26-.32.46-.57.59-.71l.63-.74a105.76,105.76,0,0,1,12.76-13.19,69,69,0,0,1,46.6-15.8c19.29.51,38.4,7.49,48.69,17.79a36.16,36.16,0,0,1,8.16,12c1.44,0,2.79.05,4.11.05,5.54,0,10.77,0,16,3.27,5.54,3.38,2.81,12.52,1.84,15.24s-4.51,11.33-11.14,13.09c-6.34,1.68-12,.7-16.49-.09h0a6,6,0,0,0-4.78,1.26c-9.36,7.54-23.45,12.83-40.26,15h0c-13.95,1.82-22.86-3.61-25.5-9.79-3.49-8.15,2.59-17.84,18.81-19.95,7.31-.89,12.07-3.9,12.79-8.08.51-2.93-1.17-5.22-4.72-6.49a19.59,19.59,0,0,0-11.65-.16c-6.83,2.11-16.14,12.72-23.62,21.24-4.64,5.28-9,10.27-12.67,13.21-12.62,10.16-28.14,14.91-48.85,15-16.76,0-32.88-3.64-44.22-10.09-11.63-6.61-19.53-15.9-22.39-26.27l-1.54-.05c-5.81-.17-13-.38-15.46-4.19A15.5,15.5,0,0,1,228.21,202Zm117.15-29.51c0-5.84-6.35-10.67-15.63-11.54-29.89-2.81-58.33,7-70.79,24.35-1.15,1.59-4.16,1.19-7.07.8s-8-1.08-10-.13c-6,2.88-10.34,16.31-6,23.2,1,1.54,4,1.8,10.12,2,1.42,0,2.83.08,4.19.17l2.34.14.3,1.29c2.37,10.2,9.85,19.33,21.08,25.72,10.22,5.8,24.76,9.11,39.89,9.08,18.82,0,32.37-4.21,43.93-13.51,3.4-2.74,7.69-7.62,12.23-12.79,8.66-9.87,17.61-20.07,26.09-22.68a30,30,0,0,1,17.85.27c5.42,1.95,8.12,5.43,7.41,9.57-1,5.6-7.64,9.81-17.42,11-12.52,1.63-17.13,9.4-14.32,16,1.91,4.45,7.71,8.71,18.29,7.34,17.14-2.23,31.18-8,39.53-16.19h0a3.13,3.13,0,0,1,2.43-.88l.63.05c1.93.16,3.83.49,5.67.81,4.05.71,7.88,1.38,12.08.27,1.79-.47,5.53-4.22,7.85-10.75s1.57-11.19-.4-12.39c-3.5-2.14-6.39-2.15-11.63-2.17-2,0-4.29,0-6.87-.17l-.18.06a2,2,0,0,1-2.45-1.39h0a32.63,32.63,0,0,0-8-12.28c-9.31-9.32-26.47-15.63-43.72-16.09a61.39,61.39,0,0,0-41.33,14.32,103.47,103.47,0,0,0-12.33,12.79l-.63.73-.54.65c-13.09,16.11-25.9,23.85-38.08,23-16-1.12-24-10.4-22.39-18.75,2.43-13,20.62-19.54,37.33-19.27,9.8.15,19.11-4.87,20.33-11A8.85,8.85,0,0,0,345.36,172.49Z"/>
      </g>
      <g>
        <path class="cls-9" d="M309.56,121.61c-37.49,3.18-82.47,12.9-116.18,31.57C173.83,164,194.76,182.92,213.6,171c12.71-8,34.59-16.9,47.59-20.63A258.73,258.73,0,0,1,313.57,141C336.13,139.48,331.85,119.71,309.56,121.61Z"/>
        <polygon class="cls-10" points="201.01 164.16 189.44 140.39 204.3 123.85 228.47 125.85 242.17 144.12 227.37 166.02 201.01 164.16"/>
        <polygon class="cls-25" points="211.8 154.53 201.1 144.71 207.66 132.76 220.47 132.18 228.64 139.85 225.64 150.17 211.8 154.53"/>
        <polygon class="cls-12" points="422.97 280.14 407.16 282.86 396.9 270.52 402.45 255.47 418.26 252.75 428.52 265.08 422.97 280.14"/>
        <polygon class="cls-26" points="413.04 278.44 402.93 273.28 402.34 261.94 411.87 255.77 421.98 260.93 422.56 272.27 413.04 278.44"/>
        <polygon class="cls-27" points="415.72 272.21 410.1 271.66 407.75 266.51 411.04 261.91 416.67 262.46 419.01 267.61 415.72 272.21"/>
        <polygon class="cls-15" points="192.49 201.91 212.92 141.99 142.89 144.18 212.39 137.25 185.97 91.68 217.57 136.02 263.14 111.35 220.29 140.25 267.59 185.6 217.03 144.27 192.49 201.91"/>
        <polygon class="cls-16" points="193.74 197.87 214.22 141.03 155.47 143.35 213.89 137.84 190.47 98.52 216.76 137.45 256.64 115.18 218.22 140.41 260.9 179.69 216.63 142.35 193.74 197.87"/>
        <polygon class="cls-10" points="289.79 184.08 277.1 175.34 278.32 159.98 292.24 153.36 304.92 162.1 303.7 177.46 289.79 184.08"/>
        <polygon class="cls-28" points="294.51 176.16 287.04 174.43 284.8 167.09 290.04 161.48 297.51 163.21 299.75 170.56 294.51 176.16"/>
        <polygon class="cls-15" points="298.15 206.94 291.22 170.16 256.87 190.55 289.57 167.88 256.9 140.99 291.88 165.73 307.04 136.96 294.5 167.12 332.68 176.79 294 170.14 298.15 206.94"/>
        <polygon class="cls-16" points="297.61 204.49 291.61 169.28 260.18 188.13 290.51 167.74 260.5 144.03 291.87 166.71 305.01 141.43 293.48 167.8 326.88 175.6 293.24 169.26 297.61 204.49"/>
      </g>
    </g>
    <g id="Layer_4_copy_9-3" data-name="Layer 4 copy 9">
      <path class="cls-29" d="M583.57,200c0,13.38-8.57,25.93-23.53,36.71-.77.55-5.66,6-6.22,6.7,0,1.93,0,6.48,0,15.65,12.77,10.14,20,18.39,24.74,29.52,3.11,7.31,9.35,25.85-5.25,46.29-1.08.33-35.27-3.69-48.77-14.4a22.11,22.11,0,0,1-8.37-16.56c-.29-8.15-.63-15.58-.42-26.09a9.23,9.23,0,0,0-10.88-9.24c-28,5.07-52.91,9.63-96.95,9.63C312,278.2,236,240.31,236,200s77.8-73,173.77-73S583.57,159.67,583.57,200Z"/>
      <path class="cls-30" d="M416.85,266.91C304.27,266.91,213,226.33,213,176.27V129.44c29.83-33.61,117.67-43.8,203.85-43.8,81.66,0,171.31,14.82,203.84,45.65v45C620.69,226.33,529.43,266.91,416.85,266.91Z"/>
      <g id="Layer_5_copy_9-2" data-name="Layer 5 copy 9">
        <path class="cls-2" d="M225.38,207.56a4.21,4.21,0,0,0,.28-1.64q-1-35.5-2.06-71c-.15-5.14-8.15-5.16-8,0l1.74,60.21A65.3,65.3,0,0,0,225.38,207.56Z"/>
        <path class="cls-2" d="M232.37,214.89a99.77,99.77,0,0,0,8.57,7.21c-.08-.57-.11-1.17-.16-1.71a561,561,0,0,1-2.17-59c.08-5.15-7.92-5.15-8,0q-.42,26.6,1.68,53.11S232.37,214.88,232.37,214.89Z"/>
        <path class="cls-2" d="M257.77,233c-1.22-18.58-1.59-37.43-1.11-56,.13-5.15-7.87-5.15-8,0-.44,17.15-.17,34,.83,51.12C250.44,228.8,255.25,231.52,257.77,233Z"/>
        <path class="cls-2" d="M276.09,241.83V186.91c0-5.15-8-5.16-8,0v51.33C270.87,239.53,273.33,240.64,276.09,241.83Z"/>
        <path class="cls-2" d="M288.77,246.83c2.51.84,5.35,1.82,7.91,2.66,0-.81.07-1.82.09-2.58q.68-26.49.24-53c-.08-5.15-8.08-5.16-8,0Q289.46,220.37,288.77,246.83Z"/>
        <path class="cls-2" d="M317.14,255.34l-.09-53.43c0-5.15-8-5.16-8,0l.09,51.33C311.77,254,314.44,254.66,317.14,255.34Z"/>
        <path class="cls-2" d="M336.09,259.48q-.34-26.28-.68-52.57c-.06-5.15-8.06-5.16-8,0,.22,16.87.45,34.1.67,51C330.73,258.52,333.39,259,336.09,259.48Z"/>
        <path class="cls-2" d="M347.53,261.53c2.66.42,5.21.8,8,1.2.09-1.63.08-4.23.08-4.52q0-3,0-6,0-6.48,0-13,.06-13.44.39-26.88c.12-5.15-7.88-5.15-8,0q-.37,15.93-.41,31.86,0,8,.07,15.93C347.6,260.47,347.53,261.26,347.53,261.53Z"/>
        <path class="cls-2" d="M374.88,265a490.23,490.23,0,0,1,1.64-49.08c.43-5.13-7.57-5.1-8,0-1.33,15.88-1.92,32.32-1.68,48.26C369.48,264.41,372.13,264.72,374.88,265Z"/>
        <path class="cls-2" d="M394.93,266.32q.27-25,.53-49.92c.06-5.14-7.94-5.15-8,0-.17,16.41-.35,33.14-.53,49.54C389.75,266.11,392.21,266.25,394.93,266.32Z"/>
        <path class="cls-2" d="M419.18,266.91a338.83,338.83,0,0,1,.72-50c.46-5.13-7.55-5.1-8,0a339.69,339.69,0,0,0-.7,49.93C412.76,266.89,417.77,266.91,419.18,266.91Z"/>
        <path class="cls-2" d="M440.18,266.32c-.16-16.71-.19-33.21-.06-49.91,0-5.15-8-5.16-8,0-.13,16.68-.1,33.56.06,50.24C432.89,266.62,437.58,266.44,440.18,266.32Z"/>
        <path class="cls-2" d="M463.72,264.5q-1-25,0-50.09c.21-5.15-7.79-5.14-8,0-.69,16.9-.65,34,.06,50.85C458.33,265,461.05,264.77,463.72,264.5Z"/>
        <path class="cls-2" d="M484.08,261.86c-1-16.34-1.53-32.58-1.66-49,0-5.15-8-5.16-8,0q.19,25.05,1.74,50.08C476.93,262.92,482.16,262.15,484.08,261.86Z"/>
        <path class="cls-2" d="M503.57,258.32c-1.15-16-1.9-32.4-2.19-48.41-.09-5.14-8.09-5.16-8,0,.31,16.63,1.1,33.38,2.33,50C498.39,259.36,501,258.84,503.57,258.32Z"/>
        <path class="cls-2" d="M527.3,252.46c-1.25-15.66-3.34-31.4-2.7-47.05.22-5.15-7.78-5.14-8,0-.67,16.36,1.64,32.86,2.87,49.19C519.56,254.58,524.78,253.16,527.3,252.46Z"/>
        <path class="cls-2" d="M547.51,245.84A353.6,353.6,0,0,1,546,198.9c.18-5.15-7.82-5.14-8,0a356.5,356.5,0,0,0,1.82,49.66C542.42,247.67,544.84,246.82,547.51,245.84Z"/>
        <path class="cls-2" d="M558.93,241.26c.33-.1,5.58-2.5,7.86-3.59-.57-15.55-1.15-31.21-1.73-46.76-.19-5.14-8.19-5.16-8,0q.91,24.5,1.82,49C558.89,240.29,558.88,240.81,558.93,241.26Z"/>
        <path class="cls-2" d="M579.11,231.14c.06,0,6.32-3.8,7.88-4.93-.38-13.89-.76-27.9-1.13-41.8-.14-5.14-8.14-5.16-8,0C578.27,199.58,579,230.76,579.11,231.14Z"/>
        <path class="cls-2" d="M596.58,219.07c2.37-2,5.37-4.78,7.47-6.87-1.12-14-2-27.78-2.6-41.79-.23-5.13-8.23-5.15-8,0q1,22.54,2.85,45C596.39,216.59,596.46,217.62,596.58,219.07Z"/>
      </g>
      <ellipse class="cls-31" cx="416.91" cy="127.54" rx="201.25" ry="90.63"/>
      <path class="cls-4" d="M540,55.84c-13.87-3.32-26.8.61-28.16,11.9a13.3,13.3,0,0,1-6.33,9.6c-6.48,4-16.67,8.11-25.54,8.56a15.83,15.83,0,0,0-9.92,4.15c-13.5,12.42-36.44,24.59-53.37,29.93A36.51,36.51,0,0,0,400,130.72c-10.89,12.56-28.49,23.59-43.51,26.73a25.54,25.54,0,0,0-13.06,7.2c-6.14,6.27-17.07,9.94-29.57,11a27.48,27.48,0,0,1-7.13-.35c-17.84-3.16-32.36-1.49-41,12,36.88,18.9,90.95,30.83,151.22,30.83,111.15,0,201.25-40.57,201.25-90.63C618.16,98.36,587.54,72.41,540,55.84ZM546.23,165c-9.56,5.85-20.32,9.4-30.88,13-5.58,1.89-11.12,3.91-16.75,5.66a76.86,76.86,0,0,1-7.6,2.07c-2.22.44-4.68.38-6.77,1.27-3.82,1.63-7.15-4-3.29-5.64,4.21-1.8,8.95-2,13.35-3.23,5.3-1.53,10.49-3.39,15.69-5.19,11.23-3.88,22.76-7.35,33-13.58C546.54,157.13,549.81,162.79,546.23,165Z"/>
      <path class="cls-32" d="M416.91,220.67c-54.1,0-105-9.5-143.33-26.76-39-17.55-60.42-41.12-60.42-66.37s21.46-48.82,60.42-66.37c38.33-17.26,89.23-26.76,143.33-26.76s105,9.5,143.33,26.76c39,17.55,60.42,41.12,60.42,66.37s-21.46,48.82-60.42,66.37C521.92,211.17,471,220.67,416.91,220.67Zm0-181.26c-53.41,0-103.58,9.35-141.28,26.32-37.06,16.69-57.47,38.64-57.47,61.81s20.41,45.12,57.47,61.81c37.7,17,87.87,26.32,141.28,26.32s103.58-9.35,141.28-26.32c37.06-16.69,57.47-38.64,57.47-61.81s-20.41-45.12-57.47-61.81C520.49,48.76,470.32,39.41,416.91,39.41Z"/>
      <path class="cls-33" d="M415.72,193c-42.48,0-82.46-7-112.6-19.74-31-13.08-48-30.77-48-49.8s17.05-36.73,48-49.81c30.14-12.73,70.12-19.74,112.6-19.74s82.47,7,112.6,19.74c31,13.08,48,30.77,48,49.81s-17.05,36.72-48,49.8C498.19,186,458.2,193,415.72,193Zm0-132.92c-41.57,0-80.6,6.81-109.9,19.19-28.46,12-44.14,27.72-44.14,44.19s15.68,32.16,44.14,44.18c29.3,12.38,68.33,19.19,109.9,19.19s80.6-6.81,109.9-19.19c28.47-12,44.15-27.72,44.15-44.18s-15.68-32.16-44.15-44.19C496.32,66.87,457.29,60.06,415.72,60.06Z"/>
      <g>
        <path class="cls-34" d="M475.41,158.93c16.54-2.15,32.06-7.75,41.46-17,5.85.48,12.07,2.9,19.49.94,7.6-2,15.09-21.64,8.38-25.74-6-3.66-11.36-2.35-20.41-2.88A34.18,34.18,0,0,0,516,101.5c-9.85-9.86-28-16.47-46.2-16.94a65.16,65.16,0,0,0-44,15.06c-5.12,4.25-9.14,9-13.18,13.72-1.8,2.1-18.21,23.92-35.53,22.71-13.9-1-21.21-9.35-19.79-16.94,2.33-12.42,19.89-18,34.27-17.78,11.25.18,22-5.31,23.39-12.45,1.54-7.72-6.82-13.9-17.95-14.94C366.78,71.09,336.43,80.56,323,99.3c-.53.74-11.43-2.26-16.23,0-7.51,3.6-11.29,18-6.85,25,2.18,3.44,10.24,2.84,16.81,3.24,2.38,10.24,9.77,19.77,21.9,26.66,11.27,6.41,27,9.62,42.06,9.59,19.19,0,33.87-4.16,46.39-14.23,9.71-7.83,25.29-31.26,37.3-35,8.94-2.76,22.21.15,20.82,8.24-.84,4.87-6.43,8.48-15.08,9.53-26.45,3.44-21.3,30,5.3,26.53Z"/>
        <path class="cls-35" d="M295.06,116.61c0-7.21,3.5-15.54,9.74-18.53,4.31-2.06,11.21-1.14,15.33-.58l.88.11c13.92-18.18,44.45-28.32,76.57-25.3,13.29,1.25,22.08,8.44,20.42,16.75-1.57,7.88-13.44,14.13-26.46,13.92-13.94-.22-29.14,5.31-31.2,16.3-1.23,6.6,5,14.29,17.19,15.13,4.19.3,15.69-1.17,31.86-21.07l.58-.71.63-.73a107.25,107.25,0,0,1,12.76-13.2A69,69,0,0,1,470,82.91c19.28.5,38.39,7.48,48.69,17.79a35.84,35.84,0,0,1,8.15,12c1.44.05,2.8.05,4.12.06,5.53,0,10.76,0,16,3.26,5.54,3.39,2.81,12.52,1.84,15.24s-4.5,11.33-11.14,13.1c-6.34,1.68-12,.69-16.49-.1h0a6,6,0,0,0-4.77,1.25c-9.36,7.55-23.46,12.83-40.27,15h0c-13.94,1.82-22.85-3.61-25.5-9.79-3.49-8.15,2.6-17.85,18.82-20,7.3-.88,12.06-3.9,12.78-8.07.51-2.93-1.17-5.22-4.71-6.49a19.59,19.59,0,0,0-11.65-.16c-6.83,2.11-16.14,12.71-23.62,21.23-4.64,5.29-9,10.28-12.68,13.22-12.62,10.16-28.14,14.91-48.85,14.95-16.76,0-32.87-3.64-44.22-10.09-11.63-6.61-19.53-15.9-22.38-26.27l-1.54,0c-5.82-.18-13.06-.39-15.47-4.2A15.5,15.5,0,0,1,295.06,116.61ZM412.2,87.1c0-5.84-6.35-10.66-15.63-11.53-29.88-2.81-58.33,7-70.79,24.34-1.14,1.59-4.15,1.19-7.06.8s-8-1.07-10-.13c-6,2.89-10.35,16.31-6,23.2,1,1.55,4,1.8,10.13,2,1.41,0,2.83.09,4.18.17l2.35.14.3,1.29c2.36,10.21,9.85,19.34,21.08,25.72,10.21,5.81,24.75,9.12,39.89,9.09,18.82,0,32.36-4.21,43.92-13.52,3.41-2.74,7.69-7.62,12.23-12.79,8.66-9.86,17.61-20.06,26.09-22.68a30.06,30.06,0,0,1,17.85.28c5.42,2,8.13,5.43,7.41,9.57-1,5.59-7.64,9.8-17.42,11-12.52,1.63-17.13,9.4-14.31,16,1.9,4.45,7.7,8.71,18.28,7.33,17.15-2.23,31.19-8,39.54-16.19h0a3.06,3.06,0,0,1,2.42-.87l.63.05c1.93.16,3.83.49,5.67.81,4.06.71,7.89,1.38,12.08.27,1.8-.48,5.53-4.23,7.86-10.75s1.56-11.19-.41-12.39c-3.5-2.14-6.39-2.15-11.63-2.17-2,0-4.29,0-6.87-.17l-.18,0a2,2,0,0,1-2.44-1.39h0a32.62,32.62,0,0,0-8-12.27c-9.31-9.33-26.47-15.64-43.72-16.09a61.43,61.43,0,0,0-41.33,14.32A104.85,104.85,0,0,0,416,113.31l-.63.74c-.12.13-.29.35-.53.65-13.09,16.11-25.91,23.84-38.08,23-16-1.11-24-10.39-22.4-18.75,2.43-13,20.62-19.53,37.33-19.26,9.81.15,19.12-4.88,20.33-11A8,8,0,0,0,412.2,87.1Z"/>
      </g>
      <g>
        <path class="cls-9" d="M376.4,36.22c-37.48,3.19-82.47,12.91-116.17,31.57-19.56,10.83,1.38,29.75,20.21,17.85C293.15,77.61,315,68.74,328,65a258.6,258.6,0,0,1,52.38-9.44C403,54.1,398.7,34.33,376.4,36.22Z"/>
        <polygon class="cls-10" points="302.58 69.11 291.01 45.34 305.88 28.8 330.04 30.8 343.75 49.07 328.95 70.97 302.58 69.11"/>
        <polygon class="cls-36" points="313.37 59.48 302.68 49.66 309.23 37.71 322.04 37.13 330.21 44.8 327.22 55.12 313.37 59.48"/>
        <polygon class="cls-12" points="524.54 185.09 508.73 187.81 498.47 175.48 504.02 160.43 519.83 157.71 530.09 170.04 524.54 185.09"/>
        <polygon class="cls-37" points="514.61 183.39 504.5 178.23 503.92 166.9 513.44 160.72 523.55 165.89 524.13 177.22 514.61 183.39"/>
        <polygon class="cls-38" points="517.3 177.16 511.67 176.61 509.33 171.46 512.62 166.86 518.24 167.41 520.58 172.56 517.3 177.16"/>
        <polygon class="cls-15" points="294.06 106.86 314.49 46.94 244.46 49.13 313.96 42.2 287.54 -3.37 319.14 40.97 364.71 16.3 321.86 45.2 369.16 90.55 318.61 49.22 294.06 106.86"/>
        <polygon class="cls-16" points="295.31 102.82 315.8 45.98 257.04 48.31 315.46 42.79 292.04 3.47 318.33 42.4 358.21 20.14 319.79 45.36 362.47 84.65 318.21 47.3 295.31 102.82"/>
        <polygon class="cls-10" points="391.36 89.03 378.67 80.29 379.9 64.94 393.81 58.32 406.5 67.05 405.27 82.41 391.36 89.03"/>
        <polygon class="cls-39" points="396.08 81.11 388.61 79.38 386.37 72.04 391.61 66.43 399.08 68.17 401.32 75.51 396.08 81.11"/>
        <polygon class="cls-15" points="399.72 111.89 392.79 75.11 358.44 95.5 391.14 72.83 358.47 45.94 393.45 70.69 408.61 41.91 396.08 72.07 434.25 81.74 395.57 75.09 399.72 111.89"/>
        <polygon class="cls-16" points="399.18 109.44 393.18 74.24 361.75 93.08 392.08 72.69 362.07 48.98 393.45 71.66 406.58 46.39 395.06 72.75 428.45 80.55 394.81 74.21 399.18 109.44"/>
      </g>
    </g>
    <g id="Layer_41" data-name="Layer 41">
      <path class="cls-40" d="M518.88,374.72c-.28-9.08-41.55-34.73-43.76-41.51-1.65-5,2.74-36.45-4-46.28-5.15-7.46-11.89-15.08-24.3-18.36a24.75,24.75,0,0,1-12.17-7.43c-19.45-21.84-64-43.08-92.83-47-29-3.94-52.68-3.09-79,9.41-8.06,3.83,139.4,193.21,141.8,198.88s17.65,16.94,21.9,21.5c26.84-2.87,65-11.28,85.24-19.6C522,420.14,519.24,386.56,518.88,374.72Z"/>
    </g>
    <g id="Layer_2_copy_5" data-name="Layer 2 copy 5">
      <path class="cls-41" d="M346.25,248.61c63.32,44.2,102.85,141.46,73.05,221.21-35,93.57-133.18,137.54-223,107.24-21.41-7.21-53.88-26-66.37-40.65C84.61,483.2,335.27,240.94,346.25,248.61Z"/>
      <g>
        <path class="cls-2" d="M376.32,536.52c-4.37-4.64-12.46-13-17.36-16.94-3.88-3.11-9.46,3.28-5.65,6.43,4,3.34,13.39,11.66,17.33,15.84C372.71,540,373.93,538.84,376.32,536.52Z"/>
        <path class="cls-2" d="M383.22,529.35c1-1.25,3.7-4,4.62-5.29-1.22-1.29-12.17-11.91-17.38-15.27-1.77-1.14-6.56,4.76-4.85,5.92C367.82,516.21,380.63,527.16,383.22,529.35Z"/>
        <path class="cls-2" d="M396.05,513.53c.56-.88,3.18-4.64,3.78-5.47-2.67-1.88-13-10.45-18.77-13.6-4.35-2.37-8.55,3.57-4.41,6.3C381.61,504,394.58,512.47,396.05,513.53Z"/>
        <path class="cls-2" d="M409.38,492c-.28-.53-13.42-10-18.58-13.73-4-2.92-7.71,3.76-3.74,6.65,5.16,3.75,18.07,12.09,19.09,12.95C406.75,496.88,409,492.73,409.38,492Z"/>
        <path class="cls-2" d="M414.77,480.88c.3-.61,2.4-5.64,2.68-6.29a174.86,174.86,0,0,0-19-12.39c-4.31-2.46-7.53,4.74-3.22,7.2C400.55,472.41,413.7,480.31,414.77,480.88Z"/>
        <path class="cls-2" d="M423.73,456c-1.51-1.14-13-9.23-18.2-12.54-4.19-2.66-6.16,5.19-2,7.84,5.21,3.31,12.92,8.73,17.92,12.34C422,462.21,423.14,458.16,423.73,456Z"/>
        <path class="cls-2" d="M428.06,434c-5.16-2.93-12.48-6.62-17.88-9.28-4.43-2.19-6.49,5.25-2,7.44,5.28,2.61,17.22,9.34,18.65,10.14C427.25,439.88,427.77,436.2,428.06,434Z"/>
        <path class="cls-2" d="M429.41,412.49a106.17,106.17,0,0,1-16-9.58c-4-2.91-7.86,3.76-3.89,6.64A141.41,141.41,0,0,0,429.2,421C429.32,418.85,429.41,413.52,429.41,412.49Z"/>
        <path class="cls-2" d="M428.33,392.24c-5.23-3.33-9.89-6.6-14.85-10.32-4-3-7.81,3.7-3.89,6.64,5.84,4.39,13.31,9.35,19.52,13.19C429,399.89,428.64,394.22,428.33,392.24Z"/>
        <path class="cls-2" d="M360.91,550c-2.42-2.58-12.56-13.82-15.13-16.15-3.65-3.34-10.08,1.79-6.41,5.14,2.1,1.91,14,13.86,15.45,15.52C356.48,553.24,358.6,551.7,360.91,550Z"/>
        <path class="cls-2" d="M424.43,369c-3.91-2.56-7.77-5.59-12.2-8.72-4-2.85-6.6,3.68-2.7,6.74,5.05,4,16.61,12.13,17,12.23C425.87,375.9,425.18,372.35,424.43,369Z"/>
        <path class="cls-2" d="M418,346.7c-3-2.13-7-5.29-10-7.55-1.67-1.26-3.95,6.21-2.15,7.25,4.32,2.51,11.66,7.4,15.36,10.18C420.21,353.45,419.13,349.8,418,346.7Z"/>
        <path class="cls-2" d="M407.66,322.13a72.82,72.82,0,0,1-7.29-5.63c-3.71-3.3-6.08,3.56-2.15,6.57,4.63,3.55,13.6,9.95,14.82,10.8C412.1,331.51,408.76,324.15,407.66,322.13Z"/>
      </g>
      <g>
        <ellipse class="cls-42" cx="239.06" cy="393.31" rx="180.87" ry="170.77" transform="translate(-213.04 479.6) rotate(-69.51)"/>
        <path class="cls-43" d="M232.7,576a165.24,165.24,0,0,1-57.95-10.51C131.27,549.2,97.09,516,78.52,472s-19.3-93.49-2.13-139.44,50.21-82.84,93-103.88,90.46-23.72,133.94-7.48,77.65,49.44,96.22,93.47,19.31,93.49,2.14,139.44-50.21,82.84-93,103.88A172.13,172.13,0,0,1,232.7,576Zm12.72-359.51A166.21,166.21,0,0,0,172,233.83C130.47,254.22,98.44,290,81.79,334.55s-15.92,92.57,2,135.18,50.95,74.62,92.93,90.3,87.92,13.11,129.37-7.25,73.54-56.16,90.18-100.72,15.93-92.57-2.05-135.18-50.94-74.62-92.92-90.3A159.33,159.33,0,0,0,245.42,216.44Z"/>
      </g>
      <path class="cls-44" d="M233.85,539.87a130.36,130.36,0,0,1-45.74-8.27c-34.48-12.88-61.58-39.2-76.31-74.11s-15.29-74.05-1.7-110.44C138.19,271.86,218.89,232.29,290,258.86c34.48,12.88,61.58,39.2,76.31,74.11s15.29,74,1.69,110.44C345.85,502.72,291,539.87,233.85,539.87Zm10.4-281.59c-54,0-105.93,35.23-126.94,91.47-12.9,34.53-12.34,71.74,1.58,104.75s39.43,57.76,71.91,69.89a123,123,0,0,0,43.06,7.79c54,0,105.94-35.23,127-91.47,12.9-34.53,12.34-71.74-1.59-104.75s-39.43-57.76-71.91-69.89A122.69,122.69,0,0,0,244.25,258.28Z"/>
      <g>
        <path class="cls-45" d="M308,343.23a61.33,61.33,0,0,0-29.7-39.87c.82-5.63,5-11.63,1.6-18.77-3.53-7.31-37.79-14.48-44.94-8-6.39,5.78-4.09,10.94-5,19.65a76.18,76.18,0,0,0-22.28,8c-17.19,9.51-28.7,27-29.5,44.52-.8,17.3,10.24,31.63,26.34,42.3,7.42,4.92,15.77,8.78,24,12.65,3.67,1.73,41.79,17.48,39.71,34.15-1.67,13.39-16.31,20.44-29.55,19.1-21.69-2.21-31.48-19.11-31.1-33,.3-10.83-9.29-21.14-21.76-22.49-13.48-1.46-24.25,6.6-26.06,17.31-4.93,29.17,11.65,58.36,44.38,71.26,1.29.51-3.95,11,.07,15.62,6.29,7.23,31.39,10.84,43.64,6.54,6-2.1,5-9.86,5.65-16.19,17.86-2.31,34.49-9.45,46.51-21.15a56.56,56.56,0,0,0,16.68-40.51c-.09-18.48-7.3-32.6-24.91-44.62C278,380.46,237.11,365.52,230.62,354c-4.83-8.6.24-21.38,14.37-20,8.5.79,14.82,6.16,16.66,14.49,6,25.45,52.38,20.44,46.3-5.17Z"/>
        <path class="cls-46" d="M234.31,517c-12.58,0-27.14-3.34-32.36-9.34-3.61-4.15-2-10.79-1-14.76.06-.26.13-.56.2-.84-31.76-13.37-49.51-42.73-44.28-73.66,2.17-12.8,14.71-21.28,29.22-19.7,13.76,1.49,24.68,12.9,24.34,25.44-.37,13.42,9.3,28,28.5,30,11.52,1.17,24.93-4.82,26.39-16.57.5-4-2.07-15.11-36.82-30.63l-1.25-.56-1.28-.6c-7.79-3.68-15.84-7.48-23.06-12.25-18.85-12.49-28.4-28-27.63-44.84.86-18.56,13-37,31-46.91a78.17,78.17,0,0,1,21-7.88c.08-1.39.09-2.69.09-4,0-5.33.07-10.36,5.68-15.44,5.9-5.34,21.86-2.73,26.6-1.81s19.79,4.31,22.87,10.69c2.95,6.1,1.24,11.53-.14,15.88-.29.93-.58,1.83-.8,2.7a64.08,64.08,0,0,1,29.26,40.65h0c3.19,13.42-6.27,22-17.06,24.57-14.23,3.38-31.16-2.45-34.86-18.06-1.55-7-6.83-11.61-14.12-12.29-5.11-.48-9.1,1.14-11.32,4.55a11,11,0,0,0-.26,11.22c3.69,6.57,22.21,15.51,37.1,22.69,9.23,4.45,17.95,8.66,23.09,12.17,17.75,12.12,26.07,27.06,26.17,47A59.18,59.18,0,0,1,301.94,477c-11.52,11.21-27.73,18.84-45.83,21.61,0,.5-.06,1-.08,1.49-.29,5.6-.66,12.57-7.3,14.9A45.92,45.92,0,0,1,234.31,517ZM182.64,404.25c-10.19,0-18.61,6.14-20.12,15.08-4.86,28.78,12.25,56.14,42.59,68.09,2.79,1.1,2.09,4,1.41,6.8s-1.87,7.72-.21,9.62c5,5.8,28.49,9.92,40.51,5.71,2.7-.95,3.14-3.84,3.44-9.75.07-1.37.15-2.73.29-4l.25-2.26,2.25-.29c17.81-2.3,33.74-9.53,44.87-20.36a53.33,53.33,0,0,0,15.8-38.42c-.09-18.12-7.38-31.15-23.65-42.26-4.78-3.27-13.31-7.38-22.34-11.74-17.23-8.31-35-16.91-39.62-25.06a16.79,16.79,0,0,1,.45-17.19C232,333,238,330.35,245.26,331c9.77.92,17.13,7.33,19.21,16.75,2.86,12.05,16.43,16.46,27.9,13.74,7.76-1.84,15.19-7.44,12.78-17.62a58.39,58.39,0,0,0-28.31-38l-1.74-1,.29-2a35,35,0,0,1,1.41-5.46c1.23-3.91,2.4-7.6.45-11.64-.84-1.72-7.38-5.31-18.78-7.53s-19.53-1.48-21.62.42c-3.73,3.37-3.75,6.15-3.78,11.2a64.33,64.33,0,0,1-.29,6.61l-.22,2.13-2.1.41A72.59,72.59,0,0,0,209,306.79c-16.26,9-27.26,25.52-28,42.13-.86,18.57,13.15,31.87,25.05,39.75,6.86,4.55,14.73,8.26,22.33,11.84l1.29.61,1.13.51C259,414.2,272.47,426.52,271,438.24c-1.93,15.41-18.12,23.1-32.71,21.61-22.7-2.32-34.12-19.81-33.68-35.9.25-9.44-8.53-18.39-19.19-19.54A24,24,0,0,0,182.64,404.25Z"/>
      </g>
      <path class="cls-4" d="M104.7,399.05l-.84-.72a31.94,31.94,0,0,0-12.33-6c-8.39-1.6-19.69-2.58-27.43,2.87-1.88,73.33,41.57,144.4,110.65,170.21,88.35,33,192-17.79,227-111.36a196.91,196.91,0,0,0,12.14-58.85c-8.53-5-22.48-6.09-31.78-3.77-2.55.63-5.83,3.62-8.06,5l-.07.05c-2.79,1.73-5.19,4.82-8.35,5.68-14.43,3.9-40.36,7.09-55.2,0-5.2-2.49-9-3.79-14.38-5.84-17.85,15.25-54.41,12.9-67.64,4.16-3.79,2.14-4.12,4.12-6.17,7-2.4,3.36-7.21,6-15.34,4.1-8.87,15.54-41.95,14.26-45.18,3.45-17.68.72-37.64-3.4-46.51-8.52A113.42,113.42,0,0,1,104.7,399.05ZM365.34,449.9c-5.13,13.08-13.54,25.77-22,36.9-9.84,12.93-22.44,21.84-35.44,31.31-3.74,2.72-7.31-3.51-3.62-6.2,12.21-8.9,24.18-17.32,33.4-29.47,7.82-10.3,16-22.33,20.75-34.45C360.09,443.73,367,445.6,365.34,449.9Z"/>
      <g>
        <path class="cls-9" d="M207.31,219.2c-34.73,10.7-77.51,28.3-97.37,60.66-11.69,19.05,15.19,35.14,29.79,18.32,9.86-11.35,20.6-19.5,32-26.82,13.77-8.85,29-13.91,44.87-17.86C238.52,248,228.7,212.62,207.31,219.2Z"/>
        <polygon class="cls-10" points="168.72 278.07 135.8 263.44 132.01 227.62 161.14 206.43 194.06 221.06 197.85 256.88 168.72 278.07"/>
        <polygon class="cls-47" points="176.17 257.85 158.24 257.08 149.95 241.17 159.57 226.03 177.5 226.8 185.8 242.71 176.17 257.85"/>
        <polygon class="cls-12" points="352.56 497.65 334.86 506.48 318.36 495.56 319.56 475.81 337.27 466.98 353.77 477.9 352.56 497.65"/>
        <polygon class="cls-48" points="340.23 499.18 326.45 496.67 321.74 483.49 330.79 472.81 344.57 475.32 349.29 488.5 340.23 499.18"/>
        <polygon class="cls-49" points="341.19 490.86 334.35 492.21 329.75 486.96 332 480.36 338.84 479.01 343.44 484.25 341.19 490.86"/>
        <polygon class="cls-15" points="197.75 327.01 166.02 245.46 95.84 307.1 161.25 240.92 74.6 193.18 165.63 235.01 188.12 162.36 172.27 237.07 260.87 250.03 172.4 244.22 197.75 327.01"/>
        <polygon class="cls-16" points="195.47 321.63 166.55 243.28 102.4 300.1 163.35 240.21 84.18 198.61 166.04 237.25 185.37 173.52 170.22 239.07 250.32 242.64 170.27 242.53 195.47 321.63"/>
        <polygon class="cls-10" points="231.14 315.38 216.47 310.67 213.21 295.61 224.63 285.27 239.3 289.98 242.55 305.04 231.14 315.38"/>
        <polygon class="cls-50" points="233.38 306.44 225.72 306.94 221.46 300.55 224.86 293.67 232.52 293.18 236.78 299.56 233.38 306.44"/>
        <polygon class="cls-15" points="245.72 334.86 228.49 301.64 201.48 331.07 226.25 299.93 187.22 283.6 227.85 297.21 234.08 265.29 230.76 297.79 269.03 299.23 231.15 300.82 245.72 334.86"/>
        <polygon class="cls-16" points="244.51 332.68 228.62 300.69 203.95 327.79 227.12 299.53 191.54 285.47 228.13 298.15 233.42 270.16 229.99 298.73 264.21 296.57 230.17 300.2 244.51 332.68"/>
      </g>
    </g>
  </g>
</svg>
