<svg id="Layer_1" data-name="Layer 1" xmlns="http://www.w3.org/2000/svg" viewBox="0 0 28 28">
  <defs>
    <style>
      .cls-1 {
        fill: #394d5c;
      }

      .cls-2 {
        fill: #7eccca;
      }

      .cls-3 {
        fill: #5a6571;
      }

      .cls-4 {
        fill: #133441;
      }
    </style>
  </defs>
  <g id="Layer_1-2" data-name="Layer 1">
    <path class="cls-1" d="M26.08,9.75h-5a1.5,1.5,0,0,1-1.5-1.5v-5a2.5,2.5,0,0,0-2.5-2.5h-5a2.5,2.5,0,0,0-2.5,2.5v5a1.5,1.5,0,0,1-1.5,1.5h-5a2.5,2.5,0,0,0-2.5,2.5v5a2.5,2.5,0,0,0,2.5,2.5h5a1.5,1.5,0,0,1,1.5,1.5v5a2.5,2.5,0,0,0,2.5,2.5h5a2.5,2.5,0,0,0,2.5-2.5v-5a1.5,1.5,0,0,1,1.5-1.5h5a2.5,2.5,0,0,0,2.5-2.5v-5A2.5,2.5,0,0,0,26.08,9.75Z" transform="translate(-0.58 -0.75)"/>
    <path class="cls-2" d="M12.08,6.75h5a.48.48,0,0,0,.45-.29.47.47,0,0,0-.07-.53l-2.5-3a.5.5,0,0,0-.7-.06l-.06.06-2.5,3a.47.47,0,0,0-.07.53A.49.49,0,0,0,12.08,6.75Z" transform="translate(-0.58 -0.75)"/>
    <path class="cls-2" d="M6.29,11.8a.49.49,0,0,0-.53.07l-3,2.5a.49.49,0,0,0-.07.69l.07.07,3,2.5a.49.49,0,0,0,.32.12.74.74,0,0,0,.21,0,.48.48,0,0,0,.29-.5v-5A.49.49,0,0,0,6.29,11.8Z" transform="translate(-0.58 -0.75)"/>
    <path class="cls-2" d="M17.08,22.75h-5a.49.49,0,0,0-.45.29.47.47,0,0,0,.07.53l2.5,3a.49.49,0,0,0,.69.07.23.23,0,0,0,.07-.07l2.5-3a.47.47,0,0,0,.07-.53A.48.48,0,0,0,17.08,22.75Z" transform="translate(-0.58 -0.75)"/>
    <path class="cls-2" d="M26.4,14.37l-3-2.5a.47.47,0,0,0-.53-.07.51.51,0,0,0-.29.45v5a.51.51,0,0,0,.29.45.74.74,0,0,0,.21,0,.47.47,0,0,0,.32-.12l3-2.5a.49.49,0,0,0,.07-.69.23.23,0,0,0-.07-.07Z" transform="translate(-0.58 -0.75)"/>
    <circle class="cls-3" cx="14" cy="14" r="3"/>
    <path class="cls-4" d="M10.58,7.25v-5a2.6,2.6,0,0,1,.31-1.19A2.53,2.53,0,0,0,9.58,3.25v5a1.25,1.25,0,0,1-.07.43A1.49,1.49,0,0,0,10.58,7.25Z" transform="translate(-0.58 -0.75)"/>
    <path class="cls-4" d="M18.08,27.75h-5a2.5,2.5,0,0,1-2.5-2.5v-5a1.5,1.5,0,0,0-1.5-1.5h-5a2.5,2.5,0,0,1-2.5-2.5v-5a2.6,2.6,0,0,1,.31-1.19A2.53,2.53,0,0,0,.58,12.25v5a2.5,2.5,0,0,0,2.5,2.5h5a1.5,1.5,0,0,1,1.5,1.5v5a2.5,2.5,0,0,0,2.5,2.5h5a2.51,2.51,0,0,0,2.19-1.31A2.45,2.45,0,0,1,18.08,27.75Z" transform="translate(-0.58 -0.75)"/>
    <path class="cls-4" d="M27.08,18.75h-5a1.5,1.5,0,0,0-1.43,1.07,1.61,1.61,0,0,1,.43-.07h5a2.51,2.51,0,0,0,2.19-1.31A2.45,2.45,0,0,1,27.08,18.75Z" transform="translate(-0.58 -0.75)"/>
  </g>
</svg>
