<svg id="Layer_1" data-name="Layer 1" xmlns="http://www.w3.org/2000/svg" xmlns:xlink="http://www.w3.org/1999/xlink" viewBox="0 0 1984.15 2249.67">
  <defs>
    <style>
      .cls-1 {
        fill: none;
      }

      .cls-2 {
        fill: #0d0d0d;
      }

      .cls-3 {
        clip-path: url(#clip-path);
      }

      .cls-4 {
        fill: #ef4136;
      }

      .cls-5 {
        fill: #ef4236;
      }

      .cls-6 {
        fill: #ef4336;
      }

      .cls-7 {
        fill: #ef4436;
      }

      .cls-8 {
        fill: #ef4536;
      }

      .cls-9 {
        fill: #ef4637;
      }

      .cls-10 {
        fill: #f04737;
      }

      .cls-11 {
        fill: #f04837;
      }

      .cls-12 {
        fill: #f04937;
      }

      .cls-13 {
        fill: #f04a37;
      }

      .cls-14 {
        fill: #f04b37;
      }

      .cls-15 {
        fill: #f04c37;
      }

      .cls-16 {
        fill: #f04d37;
      }

      .cls-17 {
        fill: #f04e37;
      }

      .cls-18 {
        fill: #f04f37;
      }

      .cls-19 {
        fill: #f15037;
      }

      .cls-20 {
        fill: #f15137;
      }

      .cls-21 {
        fill: #f15238;
      }

      .cls-22 {
        fill: #f15338;
      }

      .cls-23 {
        fill: #f15438;
      }

      .cls-24 {
        fill: #f15538;
      }

      .cls-25 {
        fill: #f15638;
      }

      .cls-26 {
        fill: #f15738;
      }

      .cls-27 {
        fill: #f15838;
      }

      .cls-28 {
        fill: #f15938;
      }

      .cls-29 {
        fill: #f25a38;
      }

      .cls-30 {
        fill: #f25b38;
      }

      .cls-31 {
        fill: #f25c38;
      }

      .cls-32 {
        fill: #f25d39;
      }

      .cls-33 {
        fill: #f25e39;
      }

      .cls-34 {
        fill: #f25f39;
      }

      .cls-35 {
        fill: #f26039;
      }

      .cls-36 {
        fill: #f26139;
      }

      .cls-37 {
        fill: #f26239;
      }

      .cls-38 {
        fill: #f36239;
      }

      .cls-39 {
        fill: #f36339;
      }

      .cls-40 {
        fill: #f36439;
      }

      .cls-41 {
        fill: #f36539;
      }

      .cls-42 {
        fill: #f36639;
      }

      .cls-43 {
        fill: #f36739;
      }

      .cls-44 {
        fill: #f3683a;
      }

      .cls-45 {
        fill: #f3693a;
      }

      .cls-46 {
        fill: #f36a3a;
      }

      .cls-47 {
        fill: #f36b3a;
      }

      .cls-48 {
        fill: #f46c3a;
      }

      .cls-49 {
        fill: #f46d3a;
      }

      .cls-50 {
        fill: #f46e3a;
      }

      .cls-51 {
        fill: #f46f3a;
      }

      .cls-52 {
        fill: #f4703a;
      }

      .cls-53 {
        fill: #f4713a;
      }

      .cls-54 {
        fill: #f4723a;
      }

      .cls-55 {
        fill: #f4733b;
      }

      .cls-56 {
        fill: #f4743b;
      }

      .cls-57 {
        fill: #f5753b;
      }

      .cls-58 {
        fill: #f5763b;
      }

      .cls-59 {
        fill: #f5773b;
      }

      .cls-60 {
        fill: #f5783b;
      }

      .cls-61 {
        fill: #f5793b;
      }

      .cls-62 {
        fill: #f57a3b;
      }

      .cls-63 {
        fill: #f57b3b;
      }

      .cls-64 {
        fill: #f57c3b;
      }

      .cls-65 {
        fill: #f57d3b;
      }

      .cls-66 {
        fill: #f67e3c;
      }

      .cls-67 {
        fill: #f67f3c;
      }

      .cls-68 {
        fill: #f6803c;
      }

      .cls-69 {
        fill: #f6813c;
      }

      .cls-70 {
        fill: #f6823c;
      }

      .cls-71 {
        fill: #f6833c;
      }

      .cls-72 {
        fill: #f6843c;
      }

      .cls-73 {
        fill: #f6853c;
      }

      .cls-74 {
        fill: #f6863c;
      }

      .cls-75 {
        fill: #f6873c;
      }

      .cls-76 {
        fill: #f7883c;
      }

      .cls-77 {
        fill: #f7893d;
      }

      .cls-78 {
        fill: #f78a3d;
      }

      .cls-79 {
        fill: #f78b3d;
      }

      .cls-80 {
        fill: #f78c3d;
      }

      .cls-81 {
        fill: #f78d3d;
      }

      .cls-82 {
        fill: #f78e3d;
      }

      .cls-83 {
        fill: #f78f3d;
      }

      .cls-84 {
        fill: #f8903d;
      }

      .cls-85 {
        fill: #f8913d;
      }

      .cls-86 {
        fill: #f8923d;
      }

      .cls-87 {
        fill: #f8933d;
      }

      .cls-88 {
        fill: #f8943d;
      }

      .cls-89 {
        fill: #f8953e;
      }

      .cls-90 {
        fill: #f8963e;
      }

      .cls-91 {
        fill: #f8973e;
      }

      .cls-92 {
        fill: #f8983e;
      }

      .cls-93 {
        fill: #f8993e;
      }

      .cls-94 {
        fill: #f99a3e;
      }

      .cls-95 {
        fill: #f99b3e;
      }

      .cls-96 {
        fill: #f99c3e;
      }

      .cls-97 {
        fill: #f99d3e;
      }

      .cls-98 {
        fill: #f99e3e;
      }

      .cls-99 {
        fill: #f99f3e;
      }

      .cls-100 {
        fill: #f99f3f;
      }

      .cls-101 {
        fill: #f9a03f;
      }

      .cls-102 {
        fill: #f9a13f;
      }

      .cls-103 {
        fill: #f9a23f;
      }

      .cls-104 {
        fill: #faa33f;
      }

      .cls-105 {
        fill: #faa43f;
      }

      .cls-106 {
        fill: #faa53f;
      }

      .cls-107 {
        fill: #faa63f;
      }

      .cls-108 {
        fill: #faa73f;
      }

      .cls-109 {
        fill: #faa83f;
      }

      .cls-110 {
        fill: #faa93f;
      }

      .cls-111 {
        fill: #faaa3f;
      }

      .cls-112 {
        fill: #faab40;
      }

      .cls-113 {
        fill: #faac40;
      }

      .cls-114 {
        fill: #fbad40;
      }

      .cls-115 {
        fill: #fbae40;
      }

      .cls-116 {
        fill: #fbaf40;
      }

      .cls-117 {
        fill: #fbb040;
      }
    </style>
    <clipPath id="clip-path" transform="translate(-0.05 -0.01)">
      <path class="cls-1" d="M1551.67,1152.12c-28-16.46-474.23-275-474.23-275s-27.34-19-54.4-25.36V786.41c103-27.89,163.79-134,135.9-236.92S1025,385.69,922,413.59s-163.8,134-135.91,236.92A193.14,193.14,0,0,0,942.4,790.77V852.4c-24.89,5.2-59.28,18.12-103.73,47.77-23,11.58-406.72,242-406.72,242S341.44,1178.43,349.6,1297c-1.67,24.69-.52,110.32-.52,110.32s-7.69,82.33,81.23,131.72,480.81,278.23,480.81,278.23,69.16,57.64,164.66,0,508.83-297.94,508.83-297.94,47.73-39.52,49.41-93.86,0-116.9,0-116.9,19.76-113.62-82.33-156.43Zm-631-561.27a74.09,74.09,0,1,1,74.1-74.08A74.12,74.12,0,0,1,920.68,590.85ZM581.79,1246c-39.1,0-70.75-23.22-70.75-51.83s31.71-52,70.82-52,70.81,23.23,70.81,52S621,1246,581.86,1246Zm410,100.33c-119.12,0-215.71-67.83-215.71-151.49,0-71.7,71-131.63,166.32-147.32V1135a47.3,47.3,0,0,0,11.86,31.84,38.1,38.1,0,0,0,28.5,13.24c22.32,0,40.31-20.11,40.31-45v-89.94c104.3,10.64,184.48,73.51,184.48,149.7,0,83.66-96.57,151.49-215.71,151.49Z"/>
    </clipPath>
  </defs>
  <path class="cls-2" d="M924.52,2231.54,67.61,1736.7q-3.84-2.22-7.51-4.69t-7.19-5.16q-3.51-2.7-6.84-5.63t-6.45-6.06q-3.13-3.14-6-6.46T28,1701.85c-1.79-2.35-3.51-4.74-5.15-7.2s-3.19-5-4.67-7.52-2.86-5.16-4.17-7.81-2.52-5.34-3.65-8.06-2.17-5.49-3.12-8.29-1.81-5.62-2.57-8.47-1.44-5.72-2-8.62-1.06-5.81-1.45-8.73-.68-5.87-.87-8.81-.3-5.9-.3-8.85V630.22c0-3,.08-5.92.27-8.88s.47-5.9.85-8.83.86-5.86,1.43-8.77,1.24-5.78,2-8.65,1.62-5.69,2.56-8.5,2-5.57,3.11-8.31,2.35-5.44,3.65-8.09,2.7-5.27,4.17-7.84,3-5.08,4.68-7.55,3.35-4.87,5.15-7.22,3.62-4.65,5.57-6.88,4-4.39,6.06-6.49,4.25-4.12,6.45-6.08,4.5-3.83,6.85-5.64,4.75-3.53,7.21-5.18,5-3.22,7.53-4.7L924.52,18.17c2.56-1.48,5.17-2.88,7.83-4.18s5.34-2.53,8.08-3.67,5.5-2.17,8.3-3.12,5.64-1.81,8.5-2.58,5.74-1.44,8.64-2,5.82-1.06,8.76-1.45S980.5.49,983.46.3,989.37,0,992.33,0s5.91.1,8.87.29,5.89.48,8.83.87,5.85.87,8.75,1.45,5.79,1.24,8.65,2,5.69,1.63,8.49,2.58,5.57,2,8.31,3.12,5.42,2.36,8.08,3.67,5.26,2.7,7.83,4.18L1916.65,513q3.84,2.22,7.53,4.7t7.2,5.18q3.52,2.72,6.86,5.64t6.47,6.08q3.12,3.15,6,6.49t5.62,6.88q2.7,3.53,5.16,7.22t4.67,7.55q2.22,3.85,4.17,7.84c1.31,2.65,2.52,5.35,3.65,8.09s2.17,5.51,3.11,8.31,1.8,5.64,2.56,8.5,1.43,5.75,2,8.65,1,5.83,1.43,8.77.66,5.88.85,8.83.28,5.91.27,8.88v988.87q0,4.44-.27,8.87c-.19,3-.47,5.9-.85,8.84s-.86,5.86-1.43,8.76-1.24,5.79-2,8.65-1.61,5.7-2.56,8.5-2,5.58-3.11,8.32-2.34,5.43-3.65,8.09-2.69,5.27-4.17,7.84-3,5.08-4.67,7.54-3.36,4.88-5.16,7.23-3.67,4.64-5.62,6.87-4,4.39-6,6.49-4.25,4.13-6.47,6.08-4.51,3.84-6.86,5.65-4.74,3.53-7.2,5.18-5,3.21-7.53,4.7l-856.51,494.44q-3.86,2.22-7.83,4.18t-8.08,3.66q-4.11,1.71-8.31,3.13c-2.8.95-5.63,1.8-8.49,2.57s-5.74,1.43-8.65,2-5.82,1-8.75,1.45-5.88.67-8.83.87-5.91.29-8.87.29-5.92-.1-8.87-.29-5.9-.49-8.83-.87-5.86-.87-8.76-1.45-5.78-1.25-8.64-2-5.69-1.62-8.5-2.57-5.57-2-8.3-3.13-5.43-2.35-8.08-3.66-5.27-2.7-7.83-4.18Z" transform="translate(-0.05 -0.01)"/>
  <g class="cls-3">
    <g>
      <rect class="cls-4" x="341.34" y="406.29" width="10.26" height="1468.68"/>
      <rect class="cls-5" x="351.58" y="406.29" width="10.26" height="1468.68"/>
      <rect class="cls-6" x="361.84" y="406.29" width="10.26" height="1468.68"/>
      <rect class="cls-6" x="372.1" y="406.29" width="10.26" height="1468.68"/>
      <rect class="cls-7" x="382.34" y="406.29" width="10.26" height="1468.68"/>
      <rect class="cls-8" x="392.59" y="406.29" width="10.26" height="1468.68"/>
      <rect class="cls-9" x="402.85" y="406.29" width="10.26" height="1468.68"/>
      <rect class="cls-10" x="413.11" y="406.29" width="10.26" height="1468.68"/>
      <rect class="cls-11" x="423.35" y="406.29" width="10.26" height="1468.68"/>
      <rect class="cls-12" x="433.61" y="406.29" width="10.26" height="1468.68"/>
      <rect class="cls-13" x="443.87" y="406.29" width="10.26" height="1468.68"/>
      <rect class="cls-14" x="454.12" y="406.29" width="10.26" height="1468.68"/>
      <rect class="cls-14" x="464.36" y="406.29" width="10.26" height="1468.68"/>
      <rect class="cls-15" x="474.62" y="406.29" width="10.26" height="1468.68"/>
      <rect class="cls-16" x="484.88" y="406.29" width="10.26" height="1468.68"/>
      <rect class="cls-17" x="495.12" y="406.29" width="10.26" height="1468.68"/>
      <rect class="cls-18" x="505.38" y="406.29" width="10.26" height="1468.68"/>
      <rect class="cls-19" x="515.64" y="406.29" width="10.26" height="1468.68"/>
      <rect class="cls-20" x="525.89" y="406.29" width="10.26" height="1468.68"/>
      <rect class="cls-21" x="536.13" y="406.29" width="10.26" height="1468.68"/>
      <rect class="cls-22" x="546.39" y="406.29" width="10.26" height="1468.68"/>
      <rect class="cls-22" x="556.65" y="406.29" width="10.26" height="1468.68"/>
      <rect class="cls-23" x="566.91" y="406.29" width="10.26" height="1468.68"/>
      <rect class="cls-24" x="577.15" y="406.29" width="10.26" height="1468.68"/>
      <rect class="cls-25" x="587.41" y="406.29" width="10.26" height="1468.68"/>
      <rect class="cls-26" x="597.66" y="406.29" width="10.26" height="1468.68"/>
      <rect class="cls-27" x="607.9" y="406.29" width="10.26" height="1468.68"/>
      <rect class="cls-28" x="618.16" y="406.29" width="10.26" height="1468.68"/>
      <rect class="cls-29" x="628.42" y="406.29" width="10.26" height="1468.68"/>
      <rect class="cls-29" x="638.68" y="406.29" width="10.26" height="1468.68"/>
      <rect class="cls-30" x="648.92" y="406.29" width="10.26" height="1468.68"/>
      <rect class="cls-31" x="659.18" y="406.29" width="10.26" height="1468.68"/>
      <rect class="cls-32" x="669.43" y="406.29" width="10.26" height="1468.68"/>
      <rect class="cls-33" x="679.67" y="406.29" width="10.26" height="1468.68"/>
      <rect class="cls-34" x="689.93" y="406.29" width="10.26" height="1468.68"/>
      <rect class="cls-35" x="700.19" y="406.29" width="10.26" height="1468.68"/>
      <rect class="cls-36" x="710.45" y="406.29" width="10.26" height="1468.68"/>
      <rect class="cls-37" x="720.69" y="406.29" width="10.26" height="1468.68"/>
      <rect class="cls-38" x="730.95" y="406.29" width="10.26" height="1468.68"/>
      <rect class="cls-39" x="741.2" y="406.29" width="10.26" height="1468.68"/>
      <rect class="cls-40" x="751.46" y="406.29" width="10.26" height="1468.68"/>
      <rect class="cls-41" x="761.7" y="406.29" width="10.26" height="1468.68"/>
      <rect class="cls-42" x="771.96" y="406.29" width="10.26" height="1468.68"/>
      <rect class="cls-43" x="782.22" y="406.29" width="10.26" height="1468.68"/>
      <rect class="cls-44" x="792.46" y="406.29" width="10.26" height="1468.68"/>
      <rect class="cls-45" x="802.71" y="406.29" width="10.26" height="1468.68"/>
      <rect class="cls-45" x="812.97" y="406.29" width="10.26" height="1468.68"/>
      <rect class="cls-46" x="823.23" y="406.29" width="10.26" height="1468.68"/>
      <rect class="cls-47" x="833.47" y="406.29" width="10.26" height="1468.68"/>
      <rect class="cls-48" x="843.73" y="406.29" width="10.26" height="1468.68"/>
      <rect class="cls-49" x="853.99" y="406.29" width="10.26" height="1468.68"/>
      <rect class="cls-50" x="864.24" y="406.29" width="10.26" height="1468.68"/>
      <rect class="cls-51" x="874.48" y="406.29" width="10.26" height="1468.68"/>
      <rect class="cls-52" x="884.74" y="406.29" width="10.26" height="1468.68"/>
      <rect class="cls-53" x="895" y="406.29" width="10.26" height="1468.68"/>
      <rect class="cls-53" x="905.24" y="406.29" width="10.26" height="1468.68"/>
      <rect class="cls-54" x="915.5" y="406.29" width="10.26" height="1468.68"/>
      <rect class="cls-55" x="925.76" y="406.29" width="10.26" height="1468.68"/>
      <rect class="cls-56" x="936.01" y="406.29" width="10.26" height="1468.68"/>
      <rect class="cls-57" x="946.25" y="406.29" width="10.26" height="1468.68"/>
      <rect class="cls-58" x="956.51" y="406.29" width="10.26" height="1468.68"/>
      <rect class="cls-59" x="966.77" y="406.29" width="10.26" height="1468.68"/>
      <rect class="cls-60" x="977.01" y="406.29" width="10.26" height="1468.68"/>
      <rect class="cls-61" x="987.27" y="406.29" width="10.26" height="1468.68"/>
      <rect class="cls-61" x="997.53" y="406.29" width="10.26" height="1468.68"/>
      <rect class="cls-62" x="1007.78" y="406.29" width="10.26" height="1468.68"/>
      <rect class="cls-63" x="1018.02" y="406.29" width="10.26" height="1468.68"/>
      <rect class="cls-64" x="1028.28" y="406.29" width="10.26" height="1468.68"/>
      <rect class="cls-65" x="1038.54" y="406.29" width="10.26" height="1468.68"/>
      <rect class="cls-66" x="1048.8" y="406.29" width="10.26" height="1468.68"/>
      <rect class="cls-67" x="1059.04" y="406.29" width="10.26" height="1468.68"/>
      <rect class="cls-68" x="1069.3" y="406.29" width="10.26" height="1468.68"/>
      <rect class="cls-68" x="1079.55" y="406.29" width="10.26" height="1468.68"/>
      <rect class="cls-69" x="1089.79" y="406.29" width="10.26" height="1468.68"/>
      <rect class="cls-70" x="1100.05" y="406.29" width="10.26" height="1468.68"/>
      <rect class="cls-71" x="1110.31" y="406.29" width="10.26" height="1468.68"/>
      <rect class="cls-72" x="1120.57" y="406.29" width="10.26" height="1468.68"/>
      <rect class="cls-73" x="1130.81" y="406.29" width="10.26" height="1468.68"/>
      <rect class="cls-74" x="1141.07" y="406.29" width="10.26" height="1468.68"/>
      <rect class="cls-75" x="1151.32" y="406.29" width="10.26" height="1468.68"/>
      <rect class="cls-76" x="1161.58" y="406.29" width="10.26" height="1468.68"/>
      <rect class="cls-76" x="1171.82" y="406.29" width="10.26" height="1468.68"/>
      <rect class="cls-77" x="1182.08" y="406.29" width="10.26" height="1468.68"/>
      <rect class="cls-78" x="1192.34" y="406.29" width="10.26" height="1468.68"/>
      <rect class="cls-79" x="1202.58" y="406.29" width="10.26" height="1468.68"/>
      <rect class="cls-80" x="1212.84" y="406.29" width="10.26" height="1468.68"/>
      <rect class="cls-81" x="1223.09" y="406.29" width="10.26" height="1468.68"/>
      <rect class="cls-82" x="1233.35" y="406.29" width="10.26" height="1468.68"/>
      <rect class="cls-83" x="1243.59" y="406.29" width="10.26" height="1468.68"/>
      <rect class="cls-83" x="1253.85" y="406.29" width="10.26" height="1468.68"/>
      <rect class="cls-84" x="1264.11" y="406.29" width="10.26" height="1468.68"/>
      <rect class="cls-85" x="1274.36" y="406.29" width="10.26" height="1468.68"/>
      <rect class="cls-86" x="1284.61" y="406.29" width="10.26" height="1468.68"/>
      <rect class="cls-87" x="1294.86" y="406.29" width="10.26" height="1468.68"/>
      <rect class="cls-88" x="1305.12" y="406.29" width="10.26" height="1468.68"/>
      <rect class="cls-89" x="1315.36" y="406.29" width="10.26" height="1468.68"/>
      <rect class="cls-90" x="1325.62" y="406.29" width="10.26" height="1468.68"/>
      <rect class="cls-91" x="1335.88" y="406.29" width="10.26" height="1468.68"/>
      <rect class="cls-91" x="1346.13" y="406.29" width="10.26" height="1468.68"/>
      <rect class="cls-92" x="1356.37" y="406.29" width="10.26" height="1468.68"/>
      <rect class="cls-93" x="1366.63" y="406.29" width="10.26" height="1468.68"/>
      <rect class="cls-94" x="1376.89" y="406.29" width="10.26" height="1468.68"/>
      <rect class="cls-95" x="1387.13" y="406.29" width="10.26" height="1468.68"/>
      <rect class="cls-96" x="1397.39" y="406.29" width="10.26" height="1468.68"/>
      <rect class="cls-97" x="1407.65" y="406.29" width="10.26" height="1468.68"/>
      <rect class="cls-98" x="1417.9" y="406.29" width="10.26" height="1468.68"/>
      <rect class="cls-99" x="1428.14" y="406.29" width="10.26" height="1468.68"/>
      <rect class="cls-100" x="1438.4" y="406.29" width="10.26" height="1468.68"/>
      <rect class="cls-101" x="1448.66" y="406.29" width="10.26" height="1468.68"/>
      <rect class="cls-102" x="1458.92" y="406.29" width="10.26" height="1468.68"/>
      <rect class="cls-103" x="1469.16" y="406.29" width="10.26" height="1468.68"/>
      <rect class="cls-104" x="1479.42" y="406.29" width="10.26" height="1468.68"/>
      <rect class="cls-105" x="1489.67" y="406.29" width="10.26" height="1468.68"/>
      <rect class="cls-106" x="1499.91" y="406.29" width="10.26" height="1468.68"/>
      <rect class="cls-107" x="1510.17" y="406.29" width="10.26" height="1468.68"/>
      <rect class="cls-107" x="1520.43" y="406.29" width="10.26" height="1468.68"/>
      <rect class="cls-108" x="1530.69" y="406.29" width="10.26" height="1468.68"/>
      <rect class="cls-109" x="1540.93" y="406.29" width="10.26" height="1468.68"/>
      <rect class="cls-110" x="1551.19" y="406.29" width="10.26" height="1468.68"/>
      <rect class="cls-111" x="1561.44" y="406.29" width="10.26" height="1468.68"/>
      <rect class="cls-112" x="1571.7" y="406.29" width="10.26" height="1468.68"/>
      <rect class="cls-113" x="1581.94" y="406.29" width="10.26" height="1468.68"/>
      <rect class="cls-114" x="1592.2" y="406.29" width="10.26" height="1468.68"/>
      <rect class="cls-115" x="1602.46" y="406.29" width="10.26" height="1468.68"/>
      <rect class="cls-115" x="1612.7" y="406.29" width="10.26" height="1468.68"/>
      <rect class="cls-116" x="1622.96" y="406.29" width="10.26" height="1468.68"/>
      <rect class="cls-117" x="1633.21" y="406.29" width="20.5" height="1468.68"/>
    </g>
  </g>
</svg>
