
        <svg xmlns="http://www.w3.org/2000/svg" xmlns:xlink="http://www.w3.org/1999/xlink" version="1.1" width="2857.55301391673" 
        height="3211.6705936234616" viewBox="0 0 2857.55301391673 3211.6705936234616">
			
			<g transform="scale(10.583529681173074) translate(10, 10)">
				<defs id="SvgjsDefs33150"><linearGradient id="SvgjsLinearGradient33157"><stop id="SvgjsStop33158" stop-color="#ef4136" offset="0"></stop><stop id="SvgjsStop33159" stop-color="#fbb040" offset="1"></stop></linearGradient></defs><g id="SvgjsG33151" featureKey="rootContainer" transform="matrix(5.040321185115363,0,0,5.040321185115363,0.00003708692597768352,0.02103601046859279)" fill="rgb(41, 18, 71)"><path xmlns="http://www.w3.org/2000/svg" d="M23.11 55.78L1.69 43.41A3.39 3.39 0 0 1 0 40.48V15.75a3.39 3.39 0 0 1 1.69-2.94L23.11.45a3.39 3.39 0 0 1 3.39 0l21.41 12.37a3.39 3.39 0 0 1 1.69 2.94v24.72a3.39 3.39 0 0 1-1.69 2.94L26.5 55.78a3.39 3.39 0 0 1-3.39 0z"></path></g><g id="SvgjsG33152" featureKey="symbolFeature-0" transform="matrix(1.0927279563772638,0,0,1.0927279563772638,70.72951075643121,63.36294148556077)" fill="url(#SvgjsLinearGradient33157)"><g xmlns="http://www.w3.org/2000/svg"><ellipse fill="none" cx="21.772" cy="54.78" rx="4.871" ry="3.568"></ellipse><circle fill="none" cx="45.085" cy="8.181" r="5.097"></circle><path fill="none" d="M52.126,44.53v6.184c0,1.713-1.237,3.099-2.773,3.099c-0.761,0-1.468-0.353-1.957-0.911   c-0.503-0.557-0.816-1.332-0.816-2.188v-6.02c-6.555,1.08-11.441,5.203-11.441,10.136c0,5.756,6.644,10.421,14.839,10.421   s14.839-4.666,14.839-10.421C64.817,49.588,59.301,45.262,52.126,44.53z"></path><path d="M88.492,51.892c-1.926-1.133-32.623-18.917-32.623-18.917s-1.881-1.306-3.743-1.745v-4.494   c5.682-1.509,9.855-6.688,9.855-12.845c0-7.354-5.954-13.308-13.308-13.308c-7.354,0-13.308,5.954-13.308,13.308   c0,6.647,4.853,12.139,11.214,13.145v4.24c-1.712,0.357-4.078,1.247-7.136,3.286c-1.586,0.793-27.979,16.651-27.979,16.651   s-6.23,2.492-5.664,10.648c-0.113,1.699-0.036,7.589-0.036,7.589s-0.53,5.664,5.587,9.062s33.076,19.144,33.076,19.144   s4.758,3.965,11.328,0s35.002-20.503,35.002-20.503s3.285-2.719,3.398-6.457c0.113-3.738,0-8.043,0-8.043   S95.515,54.837,88.492,51.892z M45.085,13.279c-2.814,0-5.097-2.284-5.097-5.097c0-2.814,2.284-5.097,5.097-5.097   c2.814,0,5.097,2.284,5.097,5.097C50.182,10.995,47.898,13.279,45.085,13.279z M21.772,58.349c-2.69,0-4.871-1.597-4.871-3.568   c0-1.971,2.181-3.568,4.871-3.568s4.871,1.598,4.871,3.568C26.643,56.751,24.462,58.349,21.772,58.349z M49.978,65.251   c-8.195,0-14.839-4.666-14.839-10.421c0-4.933,4.886-9.056,11.441-10.136v6.02c0,0.856,0.313,1.631,0.816,2.188   c0.489,0.557,1.196,0.911,1.957,0.911c1.536,0,2.773-1.386,2.773-3.099V44.53c7.175,0.733,12.691,5.058,12.691,10.3   C64.817,60.585,58.173,65.251,49.978,65.251z"></path></g></g><g id="SvgjsG33153" featureKey="nameFeature-0" transform="matrix(0.6110995848204192,0,0,0.6110995848204192,44.5221011443664,191.15406169647832)" fill="#ffffff"><path d="M16.68 8.359000000000002 l0.019531 0.058594 c2.1875 0 4.2383 0.41016 6.1719 1.25 s3.6328 1.9727 5.0977 3.3984 l-4.4922 4.4922 c-1.8945 -1.875 -4.1406 -2.8125 -6.7383 -2.8125 c-2.6367 0 -4.8828 0.9375 -6.7383 2.8125 s-2.793 4.1211 -2.793 6.7383 c0 2.6367 0.9375 4.8828 2.793 6.7383 s4.1016 2.793 6.7383 2.793 c2.0703 0 3.9258 -0.58594 5.5469 -1.7773 s2.7734 -2.7148 3.4375 -4.5703 l-9.0039 0 l0 -6.3477 l9.0039 0 l3.6914 0 l2.8906 0 c0.21484 0.99609 0.3125 2.0508 0.3125 3.1641 c0 4.375 -1.5625 8.125 -4.6875 11.23 s-6.875 4.668 -11.25 4.668 s-8.125 -1.5625 -11.23 -4.668 s-4.668 -6.8555 -4.668 -11.23 s1.5625 -8.125 4.668 -11.25 s6.8555 -4.6875 11.23 -4.6875 z M43.560921875 29.59 l5.5664 0 l-2.7734 -6.543 z M40.982421875 35.1562 l-0.039063 -0.019531 c-0.70313 1.6016 -1.4258 3.1836 -2.1484 4.7852 l-6.7773 0 l14.277 -31.992 l14.316 31.992 l-6.7969 0 c-0.70313 -1.582 -1.4063 -3.1836 -2.1094 -4.7656 l-10.723 0 z M63.859375 7.93 l15.352 21.055 l15.352 -21.055 l0 32.07 l-6.3086 0 l0 -12.988 l-9.043 12.48 l-9.043 -12.48 l0 12.988 l-6.3086 0 l0 -32.07 z M98.533203125 8.515999999999998 l18.887 0 l0 6.2891 l-12.578 0 l0 6.3086 l9.4336 0 l0 6.2891 l-9.4336 0 l0 6.2891 l12.578 0 l0 6.3086 l-12.578 0 l-6.3086 0 l0 -31.484 z M121.1953125 40 l0 -9.4531 l0 -11.016 l0 -11.016 l6.3086 0 l4.707 0 c3.0273 0 5.625 1.0742 7.793 3.2422 s3.2422 4.7656 3.2422 7.793 s-1.0742 5.625 -3.2422 7.7734 s-4.7656 3.2227 -7.793 3.2227 l-4.707 0 l0 9.4531 l-6.3086 0 z M127.5039125 24.258 l4.707 0.019531 c1.3086 0 2.4219 -0.46875 3.3398 -1.3867 s1.3867 -2.0313 1.3867 -3.3398 c0 -1.2891 -0.46875 -2.4023 -1.3867 -3.3398 s-2.0313 -1.4063 -3.3398 -1.4063 l-4.707 0 l0 4.7266 l0 4.7266 z M161.943671875 8.359000000000002 c4.375 0 8.125 1.5625 11.25 4.6875 s4.6875 6.875 4.6875 11.25 s-1.5625 8.125 -4.6875 11.23 s-6.875 4.668 -11.25 4.668 s-8.125 -1.5625 -11.23 -4.668 s-4.668 -6.8555 -4.668 -11.23 s1.5625 -8.125 4.668 -11.25 s6.8555 -4.6875 11.23 -4.6875 z M161.943671875 14.707 c-2.6367 0 -4.8828 0.9375 -6.7383 2.8125 s-2.793 4.1211 -2.793 6.7383 c0 2.6367 0.9375 4.8828 2.793 6.7383 s4.1016 2.793 6.7383 2.793 c2.6172 0 4.8633 -0.9375 6.7383 -2.793 s2.8125 -4.1016 2.8125 -6.7383 c0 -2.6172 -0.9375 -4.8633 -2.8125 -6.7383 s-4.1211 -2.8125 -6.7383 -2.8125 z M177.9453125 8.515999999999998 l6.7773 0 l5.8008 14.844 l5.8008 -14.844 l5.8008 14.844 l5.7813 -14.844 l6.7969 0 l-12.578 32.07 l-5.8594 -15.605 l-5.7422 15.605 z M217.892578125 8.515999999999998 l18.887 0 l0 6.2891 l-12.578 0 l0 6.3086 l9.4336 0 l0 6.2891 l-9.4336 0 l0 6.2891 l12.578 0 l0 6.3086 l-12.578 0 l-6.3086 0 l0 -31.484 z M240.5546875 40 l-0.019531 -31.523 l10.234 0 c3.0273 0 6.0156 1.0547 8.1836 3.2227 s3.0469 4.1992 3.0469 7.2266 l0 0.97656 c0 2.3438 -0.66406 4.0625 -1.9922 5.9375 s-2.4414 2.4219 -4.5117 3.2031 l7.1094 10.957 l-7.6953 0 l-8.0469 -12.305 l0 12.305 l-6.3086 0 z M246.8437875 23.633 l4.5117 0.019531 c1.3086 0 1.9727 -0.33203 2.8906 -1.25 s1.25 -1.9727 1.25 -3.2813 c0 -1.2891 -0.33203 -2.1484 -1.25 -3.0859 s-2.5586 -1.2695 -3.8672 -1.2695 l-3.5352 0 l0 8.8672 z"></path></g>
			</g>
		</svg>
	