<svg id="text" xmlns="http://www.w3.org/2000/svg" viewBox="0 0 1269.92 158.38">
  <defs>
    <style>
      .cls-1 {
        fill: #fff;
      }
    </style>
  </defs>
  <path class="cls-1" d="M96.08,20.47l.1.29a74,74,0,0,1,29.93,6.06A82,82,0,0,1,150.84,43.3L129.05,65.09Q115.26,51.44,96.36,51.45A44.27,44.27,0,0,0,63.68,65.09,44.85,44.85,0,0,0,50.14,97.77a44.54,44.54,0,0,0,13.54,32.68A44.57,44.57,0,0,0,96.36,144a44.34,44.34,0,0,0,26.91-8.62,46.5,46.5,0,0,0,16.67-22.17H96.27V82.42h75.6a72.87,72.87,0,0,1,1.51,15.35q0,31.83-22.73,54.47c-15.16,15-33.35,22.64-54.57,22.64s-39.41-7.58-54.47-22.64S19,119,19,97.77s7.58-39.41,22.64-54.56S74.86,20.47,96.08,20.47Zm130.38,103h27L240,91.71l-13.55,31.73Zm-12.51,27-.18-.1c-3.42,7.77-6.92,15.44-10.43,23.21H170.47L239.72,18.39l69.44,155.16h-33c-3.41-7.67-6.82-15.44-10.23-23.11Zm111-132,74.47,102.12L473.84,18.39V173.93h-30.6v-63l-43.86,60.53-43.86-60.53v63h-30.6V18.39Zm168.18,2.84H584.7v30.5h-61v30.6h45.76v30.5H523.69v30.51h61v30.59H493.1V21.23ZM603,173.93V21.23h53.43A51.55,51.55,0,0,1,694.24,37,51.55,51.55,0,0,1,710,74.75a51.17,51.17,0,0,1-15.72,37.7,51.82,51.82,0,0,1-37.8,15.63H633.61v45.85Zm30.6-76.35,22.83.1a23,23,0,0,0,22.93-22.93,22.43,22.43,0,0,0-6.73-16.2,21.85,21.85,0,0,0-16.2-6.82H633.61V97.58Zm167-77.11q31.83,0,54.57,22.74T878,97.77q0,31.83-22.74,54.46t-54.57,22.64q-31.83,0-54.47-22.64T723.54,97.77q0-31.83,22.64-54.56t54.47-22.74Zm0,30.79A44.29,44.29,0,0,0,768,64.9a44.86,44.86,0,0,0-13.55,32.68A44.55,44.55,0,0,0,768,130.26a46.33,46.33,0,0,0,79-32.68A44.59,44.59,0,0,0,833.34,64.9a44.62,44.62,0,0,0-32.69-13.64Zm77.62-30h32.87l28.13,72,28.14-72,28.14,72,28-72h33l-61,155.54-28.42-75.68-27.85,75.68-61-155.54Zm193.75,0h91.61v30.5h-61v30.6h45.76v30.5h-45.76v30.51h61v30.59H1072V21.23Zm109.92,152.7L1181.85,21h49.63c14.69,0,29.18,5.12,39.7,15.63S1286,57,1286,71.72v4.74c0,11.37-3.22,19.7-9.67,28.8s-11.84,11.74-21.88,15.53l34.48,53.14h-37.32l-39-59.68v59.68Zm30.51-79.38,21.88.1c6.35,0,9.57-1.61,14-6.07s6.06-9.56,6.06-15.91-1.61-10.42-6.06-15-12.41-6.16-18.76-6.16h-17.15v43Z" transform="translate(-18.97 -18.39)"/>
</svg>
