<svg id="elements" xmlns="http://www.w3.org/2000/svg" xmlns:xlink="http://www.w3.org/1999/xlink" viewBox="0 0 395.23 379.29">
  <defs>
    <style>
      .cls-1 {
        fill: none;
      }

      .cls-2 {
        isolation: isolate;
      }

      .cls-3 {
        clip-path: url(#clip-path);
      }

      .cls-4 {
        fill: #858585;
      }

      .cls-5 {
        fill: #8a8a8a;
      }

      .cls-6 {
        fill: #8f8f8f;
      }

      .cls-7 {
        fill: #949494;
      }

      .cls-8 {
        fill: #999;
      }

      .cls-9 {
        fill: #9e9e9e;
      }

      .cls-10 {
        fill: #a3a3a3;
      }

      .cls-11 {
        fill: #a8a8a8;
      }

      .cls-12 {
        fill: #adadad;
      }

      .cls-13 {
        fill: #b3b3b3;
      }

      .cls-14 {
        fill: #b8b8b8;
      }

      .cls-15 {
        fill: #bdbdbd;
      }

      .cls-16 {
        fill: #c2c2c2;
      }

      .cls-17 {
        fill: #c7c7c7;
      }

      .cls-18 {
        fill: #ccc;
      }

      .cls-19 {
        fill: #d1d1d1;
      }

      .cls-20 {
        fill: #d6d6d6;
      }

      .cls-21 {
        fill: #dbdbdb;
      }

      .cls-22 {
        fill: #e0e0e0;
      }

      .cls-23 {
        fill: #e6e6e6;
      }

      .cls-24 {
        fill: #ebebeb;
      }

      .cls-25 {
        fill: #f0f0f0;
      }

      .cls-26 {
        fill: #f5f5f5;
      }

      .cls-27 {
        fill: #fafafa;
      }

      .cls-28 {
        fill: #fff;
      }

      .cls-29, .cls-31 {
        opacity: 0.7;
        mix-blend-mode: overlay;
      }

      .cls-29 {
        fill: url(#linear-gradient);
      }

      .cls-30 {
        clip-path: url(#clip-path-2);
      }

      .cls-31 {
        fill: url(#linear-gradient-2);
      }

      .cls-32 {
        fill: url(#linear-gradient-3);
      }

      .cls-33 {
        fill: url(#linear-gradient-4);
      }

      .cls-34 {
        fill: url(#linear-gradient-5);
      }

      .cls-35 {
        fill: url(#linear-gradient-6);
      }
    </style>
    <clipPath id="clip-path">
      <path class="cls-1" d="M80.2,27.44l13.43-7.81a4.26,4.26,0,0,1,1-.41,7.91,7.91,0,0,1,6.29.9c7.56,4.37,13.22,19.56,24.41,26,14,8.11,14.08-2.06,28.13,6s14,18.28,28.06,26.39,14.08-2.06,28.13,6,14,18.29,28.07,26.4,14.08-2.06,28.13,6,14,18.28,28.07,26.39c11.19,6.46,16.91-2.15,24.47,2.21L305,153.48c-7.55-4.36-13.28,4.26-24.47-2.2-14.05-8.11-14-18.29-28.07-26.4s-14.08,2.06-28.13-6-14-18.28-28.07-26.39-14.08,2.06-28.13-6S154.08,68.1,140,60,126,62.05,111.91,53.94c-11.19-6.46-16.85-21.65-24.41-26a7.87,7.87,0,0,0-6.29-.9A3.88,3.88,0,0,0,80.2,27.44Z"/>
    </clipPath>
    <linearGradient id="linear-gradient" x1="80.2" y1="86.35" x2="318.4" y2="86.35" gradientUnits="userSpaceOnUse">
      <stop offset="0" stop-color="#9f79c8"/>
      <stop offset="0.14" stop-color="#a27dca"/>
      <stop offset="0.27" stop-color="#ac88cf"/>
      <stop offset="0.4" stop-color="#bc9bd7"/>
      <stop offset="0.52" stop-color="#d1b4e3"/>
      <stop offset="0.65" stop-color="#dbc4e9"/>
      <stop offset="0.9" stop-color="#f4edf8"/>
      <stop offset="1" stop-color="#fff"/>
    </linearGradient>
    <clipPath id="clip-path-2">
      <path class="cls-1" d="M325.48,350.66l-13.42,7.8c5.55-3.23-4.87-14.39-8.19-30-2.78-13.12,8.73-8.31,8.76-20.24s-8.82-17-8.78-29,8.88-6.82,8.92-18.76-8.82-17-8.79-29,8.89-6.83,8.92-18.76-8.82-17.05-8.78-29,15.47-12,7.13-23.89a20.77,20.77,0,0,0-6.28-6.36l13.43-7.8c1.94,1.11,4,3.08,6.28,6.36,8.33,11.92-7.1,12-7.13,23.89s8.81,17,8.78,29-8.89,6.83-8.92,18.76,8.82,17.05,8.79,29-8.89,6.82-8.92,18.76,8.81,17.05,8.78,29-11.55,7.13-8.76,20.24C320.62,336.26,331,347.43,325.48,350.66Z"/>
    </clipPath>
    <linearGradient id="linear-gradient-2" x1="316.58" y1="349.01" x2="314.19" y2="149.52" xlink:href="#linear-gradient"/>
    <linearGradient id="linear-gradient-3" x1="12.86" y1="273.64" x2="286.57" y2="153.13" xlink:href="#linear-gradient"/>
    <linearGradient id="linear-gradient-4" x1="100.62" y1="141.5" x2="112.94" y2="141.5" gradientUnits="userSpaceOnUse">
      <stop offset="0" stop-color="#fff"/>
      <stop offset="0.1" stop-color="#f4edf8"/>
      <stop offset="0.35" stop-color="#dbc4e9"/>
      <stop offset="0.48" stop-color="#d1b4e3"/>
      <stop offset="0.6" stop-color="#bc9bd7"/>
      <stop offset="0.73" stop-color="#ac88cf"/>
      <stop offset="0.86" stop-color="#a27dca"/>
      <stop offset="1" stop-color="#9f79c8"/>
    </linearGradient>
    <linearGradient id="linear-gradient-5" x1="100.62" y1="260.32" x2="282.27" y2="260.32" xlink:href="#linear-gradient-4"/>
    <linearGradient id="linear-gradient-6" x1="275.14" y1="359.61" x2="148.17" y2="76.97" gradientUnits="userSpaceOnUse">
      <stop offset="0.1" stop-color="#4f087c"/>
      <stop offset="0.57" stop-color="#6d2dda"/>
      <stop offset="0.99" stop-color="#ba1dc8"/>
    </linearGradient>
  </defs>
  <g>
    <g class="cls-2">
      <g class="cls-2">
        <g class="cls-3">
          <g class="cls-2">
            <path class="cls-4" d="M80.2,27.44l13.43-7.81a4.17,4.17,0,0,1,.6-.28L80.8,27.16a3.32,3.32,0,0,0-.6.28"/>
            <path class="cls-5" d="M80.8,27.16l13.43-7.81.41-.13.6-.14L81.81,26.89a4.34,4.34,0,0,0-.6.14l-.41.13"/>
            <path class="cls-6" d="M81.81,26.89l13.43-7.81a6.43,6.43,0,0,1,.85-.12l-13.43,7.8c-.28,0-.56.07-.85.13"/>
            <path class="cls-7" d="M82.66,26.76,96.09,19l.65,0-13.43,7.8-.65,0"/>
            <path class="cls-8" d="M83.31,26.73l13.43-7.8a5,5,0,0,1,.55,0l-13.43,7.8-.55,0"/>
            <path class="cls-9" d="M83.86,26.75,97.29,19a3.91,3.91,0,0,1,.48.05L84.34,26.8l-.48-.05"/>
            <path class="cls-10" d="M84.34,26.8,97.77,19l.43.07-13.43,7.8-.43-.07"/>
            <path class="cls-11" d="M84.77,26.87l13.43-7.8a2.59,2.59,0,0,1,.4.09L85.17,27l-.4-.09"/>
            <path class="cls-12" d="M85.17,27l13.43-7.8.37.1-13.43,7.8-.37-.1"/>
            <path class="cls-13" d="M85.54,27.06,99,19.26a2.53,2.53,0,0,1,.36.12L85.9,27.18l-.36-.12"/>
            <path class="cls-14" d="M85.9,27.18l13.43-7.8.34.12L86.24,27.31l-.34-.13"/>
            <path class="cls-15" d="M86.24,27.31,99.67,19.5l.34.15-13.43,7.8-.34-.14"/>
            <path class="cls-16" d="M86.58,27.45,100,19.65l.33.15L86.91,27.61l-.33-.16"/>
            <path class="cls-17" d="M86.91,27.61l13.43-7.81.33.18-13.43,7.8-.33-.17"/>
            <path class="cls-18" d="M87.24,27.78,100.67,20l.26.14.09.05L87.59,28l-.09,0-.26-.15"/>
            <path class="cls-19" d="M87.59,28,101,20.17l.36.22L88,28.19,87.59,28"/>
            <path class="cls-20" d="M88,28.19l13.43-7.8.35.24L88.3,28.43,88,28.19"/>
            <path class="cls-21" d="M88.3,28.43l13.43-7.8.37.26-13.43,7.8-.37-.26"/>
            <path class="cls-22" d="M88.67,28.69l13.43-7.8.42.32L89.09,29l-.42-.32"/>
            <path class="cls-23" d="M89.09,29l13.43-7.8c.14.11.28.22.41.34l-13.42,7.8L89.09,29"/>
            <path class="cls-24" d="M89.51,29.35l13.42-7.8.46.4L90,29.75l-.45-.4"/>
            <path class="cls-25" d="M90,29.75,103.39,22l.49.45L90.45,30.21,90,29.75"/>
            <path class="cls-26" d="M90.45,30.21l13.43-7.81.51.51L91,30.71l-.51-.5"/>
            <path class="cls-27" d="M91,30.71l13.43-7.8c.19.19.38.39.56.59L91.53,31.31l-.57-.6"/>
            <path class="cls-28" d="M91.53,31.31,105,23.5l.62.69L92.14,32l-.61-.68"/>
            <path class="cls-28" d="M92.14,32l13.43-7.8c.24.27.47.54.7.82L92.84,32.82c-.23-.28-.46-.56-.7-.83"/>
            <path class="cls-28" d="M92.84,32.82,106.27,25l1,1.18L93.8,34c-.32-.41-.64-.8-1-1.18"/>
            <path class="cls-28" d="M93.8,34l13.43-7.81c.56.72,1.12,1.47,1.69,2.24l-13.43,7.8c-.57-.77-1.13-1.52-1.69-2.23"/>
            <path class="cls-28" d="M95.49,36.23l13.43-7.8c1.2,1.62,2.43,3.34,3.71,5.08L99.2,41.31c-1.28-1.73-2.51-3.46-3.71-5.08"/>
            <path class="cls-28" d="M99.2,41.31l13.43-7.8c.65.87,1.31,1.75,2,2.62L101.2,43.94c-.69-.87-1.35-1.75-2-2.63"/>
            <path class="cls-28" d="M101.2,43.94l13.42-7.81c.42.53.84,1.06,1.28,1.58l-13.43,7.8c-.43-.52-.86-1-1.27-1.57"/>
            <path class="cls-28" d="M102.47,45.51l13.43-7.8q.51.61,1,1.23l-13.43,7.8q-.54-.6-1-1.23"/>
            <path class="cls-28" d="M103.52,46.74,117,38.94c.31.35.63.71,1,1.05L104.47,47.8c-.32-.35-.64-.7-1-1.06"/>
            <path class="cls-27" d="M104.47,47.8,117.9,40c.29.32.58.62.88.93l-13.43,7.8c-.3-.3-.59-.61-.88-.92"/>
            <path class="cls-26" d="M105.35,48.72l13.43-7.8c.28.29.57.57.87.86l-13.43,7.8c-.3-.28-.59-.57-.87-.86"/>
            <path class="cls-25" d="M106.22,49.58l13.43-7.8.85.79-13.43,7.81c-.29-.26-.57-.53-.85-.8"/>
            <path class="cls-24" d="M107.07,50.38l13.43-7.81c.27.25.54.48.82.72l-13.43,7.8c-.28-.23-.55-.47-.82-.71"/>
            <path class="cls-23" d="M107.89,51.09l13.43-7.8.82.67-13.43,7.8-.82-.67"/>
            <path class="cls-22" d="M108.71,51.76,122.14,44l.76.58-13.43,7.8-.76-.58"/>
            <path class="cls-21" d="M109.47,52.34l13.43-7.8.78.55L110.25,52.9l-.78-.56"/>
            <path class="cls-20" d="M110.25,52.9l13.43-7.81.73.49L111,53.38l-.74-.48"/>
            <path class="cls-19" d="M111,53.38l13.42-7.8.75.46-13.43,7.8c-.25-.15-.5-.3-.74-.46"/>
            <path class="cls-18" d="M111.73,53.84,125.16,46l.18.1,1,.54-13.43,7.81-1-.55-.18-.1"/>
            <path class="cls-17" d="M112.88,54.49l13.43-7.81,1.19.62-13.43,7.8-1.19-.61"/>
            <path class="cls-16" d="M114.07,55.1l13.43-7.8c.36.18.7.34,1,.49l-13.43,7.8c-.34-.15-.68-.31-1-.49"/>
            <path class="cls-15" d="M115.11,55.59l13.43-7.8c.33.15.65.29,1,.41L116.08,56l-1-.42"/>
            <path class="cls-14" d="M116.08,56l13.43-7.81c.31.13.61.24.9.34L117,56.35l-.9-.34"/>
            <path class="cls-13" d="M117,56.35l13.43-7.81c.29.11.58.2.86.28l-13.43,7.81-.86-.28"/>
            <path class="cls-12" d="M117.84,56.63l13.43-7.81c.29.09.56.17.84.23l-13.43,7.81-.84-.23"/>
            <path class="cls-11" d="M118.68,56.86l13.43-7.81c.29.08.57.14.84.19l-13.43,7.81-.84-.19"/>
            <path class="cls-10" d="M119.52,57.05,133,49.24c.29.06.57.1.85.14l-13.43,7.81-.85-.14"/>
            <path class="cls-9" d="M120.37,57.19l13.43-7.81.93.1-13.43,7.8-.93-.09"/>
            <path class="cls-8" d="M121.3,57.28l13.43-7.8,1.08,0-13.43,7.8a9.87,9.87,0,0,1-1.08,0"/>
            <path class="cls-7" d="M122.38,57.31l13.43-7.8c.49,0,1,0,1.43-.07l-13.43,7.8c-.46,0-.93.07-1.43.07"/>
            <path class="cls-6" d="M123.81,57.24l13.43-7.8c1.48-.13,2.85-.42,4.33-.55l-13.43,7.8c-1.48.14-2.85.42-4.33.55"/>
            <path class="cls-7" d="M128.14,56.69l13.43-7.8c.46,0,.93-.07,1.42-.07l-13.43,7.8c-.49,0-1,0-1.42.07"/>
            <path class="cls-8" d="M129.56,56.62,143,48.82l1.08,0-13.43,7.81c-.37,0-.73,0-1.08,0"/>
            <path class="cls-9" d="M130.64,56.66l13.43-7.81c.31,0,.62,0,.94.1l-13.43,7.8-.94-.09"/>
            <path class="cls-10" d="M131.58,56.75,145,49c.27,0,.55.08.84.14l-13.43,7.8c-.29-.06-.57-.1-.84-.14"/>
            <path class="cls-11" d="M132.42,56.89l13.43-7.8.85.18-13.43,7.81c-.29-.07-.57-.14-.85-.19"/>
            <path class="cls-12" d="M133.27,57.08l13.43-7.81.83.23L134.1,57.31c-.28-.09-.56-.16-.83-.23"/>
            <path class="cls-13" d="M134.1,57.31l13.43-7.81.87.29L135,57.59c-.3-.1-.59-.2-.87-.28"/>
            <path class="cls-14" d="M135,57.59l13.43-7.8c.29.1.59.21.9.34l-13.43,7.8-.9-.34"/>
            <path class="cls-15" d="M135.87,57.93l13.43-7.8c.31.12.63.26,1,.41l-13.43,7.8c-.33-.15-.66-.28-1-.41"/>
            <path class="cls-16" d="M136.84,58.34l13.43-7.8c.33.15.68.31,1,.49l-13.43,7.8-1-.49"/>
            <path class="cls-17" d="M137.88,58.83,151.31,51l1.18.61-13.43,7.81-1.18-.62"/>
            <path class="cls-18" d="M139.06,59.45l13.43-7.81,1,.55.3.18-13.43,7.8L140,60l-1-.54"/>
            <path class="cls-19" d="M140.34,60.17l13.43-7.8c.43.25.86.51,1.26.77l-13.42,7.8c-.41-.26-.83-.51-1.27-.77"/>
            <path class="cls-20" d="M141.61,60.94,155,53.14c.4.25.79.51,1.16.77l-13.42,7.8-1.16-.77"/>
            <path class="cls-21" d="M142.77,61.71l13.42-7.8c.37.25.73.5,1.08.76l-13.43,7.8c-.35-.25-.7-.51-1.07-.76"/>
            <path class="cls-22" d="M143.84,62.47l13.43-7.8c.35.25.68.51,1,.77l-13.43,7.8-1-.77"/>
            <path class="cls-23" d="M144.85,63.24l13.43-7.8,1,.78L145.81,64c-.31-.27-.63-.53-1-.79"/>
            <path class="cls-24" d="M145.81,64l13.43-7.81.92.8-13.43,7.81c-.3-.27-.6-.54-.92-.8"/>
            <path class="cls-25" d="M146.73,64.83,160.16,57l.88.82-13.43,7.81-.88-.82"/>
            <path class="cls-26" d="M147.61,65.65,161,57.84l.85.84-13.43,7.8c-.28-.28-.56-.56-.85-.83"/>
            <path class="cls-27" d="M148.46,66.48l13.43-7.8c.29.29.57.59.84.88L149.3,67.37c-.27-.3-.55-.59-.84-.89"/>
            <path class="cls-28" d="M149.3,67.37l13.43-7.81c.3.33.59.65.87,1l-13.42,7.8c-.29-.32-.58-.65-.88-1"/>
            <path class="cls-28" d="M150.18,68.34l13.42-7.8c.34.37.66.75,1,1.13l-13.43,7.8-1-1.13"/>
            <path class="cls-28" d="M151.14,69.47l13.43-7.8c.47.56.92,1.13,1.37,1.7l-13.43,7.8c-.45-.57-.9-1.13-1.37-1.7"/>
            <path class="cls-28" d="M152.51,71.17l13.43-7.8c1.05,1.34,2.07,2.69,3.12,4l-13.43,7.8c-1-1.34-2.06-2.7-3.12-4"/>
            <path class="cls-28" d="M155.63,75.21l13.43-7.8c.45.56.9,1.13,1.37,1.69L157,76.91c-.47-.57-.92-1.13-1.37-1.7"/>
            <path class="cls-28" d="M157,76.91l13.43-7.81q.47.57,1,1.14L158,78l-1-1.13"/>
            <path class="cls-28" d="M158,78l13.42-7.8.88,1L158.84,79c-.3-.32-.59-.65-.87-1"/>
            <path class="cls-27" d="M158.84,79l13.43-7.8c.27.29.55.59.84.88L159.68,79.9c-.29-.3-.57-.59-.84-.89"/>
            <path class="cls-26" d="M159.68,79.9l13.43-7.81.85.84-13.43,7.8c-.29-.27-.57-.55-.85-.83"/>
            <path class="cls-25" d="M160.53,80.73,174,72.93l.88.82-13.43,7.8-.88-.82"/>
            <path class="cls-24" d="M161.41,81.55l13.43-7.8.92.8-13.43,7.8c-.32-.26-.62-.53-.92-.8"/>
            <path class="cls-23" d="M162.33,82.35l13.43-7.8,1,.78-13.43,7.81c-.33-.26-.65-.52-1-.79"/>
            <path class="cls-22" d="M163.29,83.14l13.43-7.81c.32.26.66.52,1,.77L164.3,83.91l-1-.77"/>
            <path class="cls-21" d="M164.3,83.91l13.43-7.81,1.07.77-13.42,7.8c-.37-.25-.73-.51-1.08-.76"/>
            <path class="cls-20" d="M165.38,84.67l13.42-7.8,1.17.76-13.43,7.81c-.4-.26-.79-.51-1.16-.77"/>
            <path class="cls-19" d="M166.54,85.44,180,77.63c.4.26.83.52,1.26.78l-13.43,7.8c-.43-.26-.86-.51-1.26-.77"/>
            <path class="cls-18" d="M167.8,86.21l13.43-7.8.3.17,1,.55-13.43,7.8-1-.54-.3-.18"/>
            <path class="cls-17" d="M169.08,86.93l13.43-7.8,1.18.61-13.43,7.81-1.18-.62"/>
            <path class="cls-16" d="M170.26,87.55l13.43-7.81c.36.18.71.34,1,.49L171.3,88l-1-.49"/>
            <path class="cls-15" d="M171.3,88l13.43-7.81,1,.42-13.43,7.8-1-.41"/>
            <path class="cls-14" d="M172.27,88.45l13.43-7.8.9.33-13.43,7.81-.9-.34"/>
            <path class="cls-13" d="M173.17,88.79,186.6,81c.3.11.59.2.87.29L174,89.07c-.28-.08-.57-.18-.87-.28"/>
            <path class="cls-12" d="M174,89.07l13.43-7.8.83.23-13.43,7.8c-.27-.07-.55-.14-.83-.23"/>
            <path class="cls-11" d="M174.87,89.3l13.43-7.8.85.19-13.43,7.8c-.28,0-.56-.12-.85-.19"/>
            <path class="cls-10" d="M175.72,89.49l13.43-7.8c.29,0,.57.1.84.13l-13.43,7.81c-.27,0-.55-.08-.84-.14"/>
            <path class="cls-9" d="M176.56,89.63,190,81.82c.32.05.63.08.94.1l-13.43,7.8-.94-.09"/>
            <path class="cls-8" d="M177.5,89.72l13.43-7.8A9.87,9.87,0,0,0,192,82l-13.43,7.81c-.35,0-.71,0-1.08,0"/>
            <path class="cls-7" d="M178.58,89.76,192,82c.49,0,1,0,1.42-.07L180,89.69c-.46,0-.93.06-1.42.07"/>
            <path class="cls-6" d="M180,89.69l13.43-7.81c1.48-.13,2.85-.41,4.33-.55l-13.43,7.81c-1.48.13-2.84.41-4.33.55"/>
            <path class="cls-7" d="M184.33,89.14l13.43-7.81c.46,0,.94-.06,1.43-.07l-13.43,7.81c-.49,0-1,0-1.43.07"/>
            <path class="cls-8" d="M185.76,89.07l13.43-7.81c.35,0,.71,0,1.08,0l-13.43,7.8a9.87,9.87,0,0,0-1.08,0"/>
            <path class="cls-9" d="M186.84,89.1l13.43-7.8.93.09L187.77,89.2c-.32,0-.63-.08-.93-.1"/>
            <path class="cls-10" d="M187.77,89.2l13.43-7.81c.28,0,.56.08.85.14l-13.43,7.8c-.29,0-.57-.1-.85-.13"/>
            <path class="cls-11" d="M188.62,89.33l13.43-7.8c.27,0,.55.12.84.19l-13.42,7.8-.85-.19"/>
            <path class="cls-12" d="M189.47,89.52l13.42-7.8c.27.07.55.14.84.23l-13.43,7.8-.83-.23"/>
            <path class="cls-13" d="M190.3,89.75,203.73,82c.28.08.57.18.86.28L191.16,90c-.29-.11-.58-.2-.86-.29"/>
            <path class="cls-14" d="M191.16,90l13.43-7.81.9.34-13.43,7.8-.9-.33"/>
            <path class="cls-15" d="M192.06,90.37l13.43-7.8c.32.13.64.26,1,.41L193,90.79l-1-.42"/>
            <path class="cls-16" d="M193,90.79,206.46,83c.34.15.68.32,1,.49l-13.43,7.81c-.35-.18-.7-.34-1-.49"/>
            <path class="cls-17" d="M194.07,91.28l13.43-7.81,1.19.62-13.43,7.8-1.19-.61"/>
            <path class="cls-18" d="M195.26,91.89l13.43-7.8,1,.54.3.18-13.43,7.8-.3-.17-1-.55"/>
            <path class="cls-19" d="M196.53,92.61,210,84.81c.44.26.86.51,1.27.77L197.8,93.39c-.41-.26-.83-.52-1.27-.78"/>
            <path class="cls-20" d="M197.8,93.39l13.43-7.81,1.16.77L199,94.15c-.37-.25-.76-.51-1.16-.76"/>
            <path class="cls-21" d="M199,94.15l13.43-7.8c.37.25.73.51,1.08.76L200,94.92c-.35-.26-.71-.51-1.08-.77"/>
            <path class="cls-22" d="M200,94.92l13.43-7.81,1,.77-13.43,7.81-1-.77"/>
            <path class="cls-23" d="M201.05,95.69l13.43-7.81c.33.26.65.52,1,.79L202,96.47l-1-.78"/>
            <path class="cls-24" d="M202,96.47l13.43-7.8c.31.26.62.53.91.8l-13.43,7.8c-.29-.27-.6-.53-.91-.8"/>
            <path class="cls-25" d="M202.92,97.27l13.43-7.8c.3.27.6.54.88.82l-13.42,7.8c-.29-.27-.58-.55-.89-.82"/>
            <path class="cls-26" d="M203.81,98.09l13.42-7.8c.29.27.58.55.85.83l-13.43,7.81-.84-.84"/>
            <path class="cls-27" d="M204.65,98.93l13.43-7.81.85.89-13.43,7.8c-.28-.29-.56-.59-.85-.88"/>
            <path class="cls-28" d="M205.5,99.81,218.93,92l.87,1-13.43,7.8-.87-1"/>
            <path class="cls-28" d="M206.37,100.78,219.8,93l1,1.13-13.43,7.81-1-1.14"/>
            <path class="cls-28" d="M207.34,101.92l13.43-7.81c.47.57.92,1.13,1.36,1.7l-13.43,7.81c-.44-.57-.89-1.14-1.36-1.7"/>
            <path class="cls-28" d="M208.7,103.62l13.43-7.81c1.06,1.34,2.07,2.69,3.13,4l-13.43,7.8c-1.06-1.34-2.07-2.69-3.13-4"/>
            <path class="cls-28" d="M211.83,107.65l13.43-7.8c.44.57.89,1.13,1.36,1.69l-13.43,7.81c-.47-.56-.92-1.13-1.36-1.7"/>
            <path class="cls-28" d="M213.19,109.35l13.43-7.81,1,1.14-13.43,7.8-1-1.13"/>
            <path class="cls-28" d="M214.16,110.48l13.43-7.8c.28.32.57.65.87,1L215,111.45c-.3-.32-.59-.64-.87-1"/>
            <path class="cls-27" d="M215,111.45l13.43-7.8c.28.29.56.59.85.88l-13.43,7.81-.85-.89"/>
            <path class="cls-26" d="M215.88,112.34l13.43-7.81c.27.29.55.56.84.84l-13.43,7.81-.84-.84"/>
            <path class="cls-25" d="M216.72,113.18l13.43-7.81c.29.28.58.55.89.82L217.61,114c-.31-.27-.6-.55-.89-.82"/>
            <path class="cls-24" d="M217.61,114,231,106.19c.29.27.6.54.91.8l-13.43,7.81c-.31-.27-.62-.53-.91-.8"/>
            <path class="cls-23" d="M218.52,114.8,232,107c.31.27.63.53,1,.79l-13.43,7.8-1-.78"/>
            <path class="cls-22" d="M219.48,115.58l13.43-7.8,1,.77-13.43,7.8-1-.77"/>
            <path class="cls-21" d="M220.49,116.35l13.43-7.8c.35.25.71.51,1.08.76l-13.43,7.81c-.37-.26-.73-.51-1.08-.77"/>
            <path class="cls-20" d="M221.57,117.12,235,109.31l1.16.77-13.43,7.8c-.4-.25-.78-.51-1.16-.76"/>
            <path class="cls-19" d="M222.73,117.88l13.43-7.8c.41.26.83.51,1.27.77L224,118.66c-.44-.26-.86-.52-1.27-.78"/>
            <path class="cls-18" d="M224,118.66l13.43-7.81.3.18,1,.54-13.43,7.81-1-.55-.3-.17"/>
            <path class="cls-17" d="M225.28,119.38l13.43-7.81,1.18.62L226.46,120c-.38-.19-.78-.39-1.18-.61"/>
            <path class="cls-16" d="M226.46,120l13.43-7.8c.36.17.7.34,1,.49l-13.43,7.8c-.34-.15-.68-.31-1-.49"/>
            <path class="cls-15" d="M227.5,120.48l13.43-7.8c.33.15.66.29,1,.41l-13.43,7.81-1-.42"/>
            <path class="cls-14" d="M228.47,120.9l13.43-7.81.9.34-13.43,7.8-.9-.33"/>
            <path class="cls-13" d="M229.37,121.23l13.43-7.8c.3.1.58.2.87.28l-13.43,7.81c-.29-.09-.57-.18-.87-.29"/>
            <path class="cls-12" d="M230.24,121.52l13.43-7.81c.28.09.56.17.83.23l-13.43,7.81-.83-.23"/>
            <path class="cls-11" d="M231.07,121.75l13.43-7.81c.29.08.57.14.85.19l-13.43,7.81-.85-.19"/>
            <path class="cls-10" d="M231.92,121.94l13.43-7.81c.28.06.57.1.84.14l-13.43,7.8c-.27,0-.55-.08-.84-.13"/>
            <path class="cls-9" d="M232.76,122.07l13.43-7.8.93.1-13.43,7.8c-.3,0-.61,0-.93-.1"/>
            <path class="cls-8" d="M233.69,122.17l13.43-7.8,1.09,0-13.43,7.8c-.35,0-.71,0-1.09,0"/>
            <path class="cls-7" d="M234.78,122.2l13.43-7.8c.49,0,1,0,1.42-.07l-13.43,7.8c-.46,0-.93.07-1.42.07"/>
            <path class="cls-6" d="M236.2,122.13l13.43-7.8c1.48-.13,2.85-.42,4.33-.55l-13.43,7.8c-1.48.14-2.85.42-4.33.55"/>
            <path class="cls-7" d="M240.53,121.58l13.43-7.8c.46,0,.93-.07,1.42-.07L242,121.51c-.49,0-1,0-1.42.07"/>
            <path class="cls-8" d="M242,121.51l13.43-7.8,1.09,0L243,121.55c-.38,0-.74,0-1.09,0"/>
            <path class="cls-9" d="M243,121.55l13.43-7.81c.3,0,.61.05.93.1L244,121.64l-.93-.09"/>
            <path class="cls-10" d="M244,121.64l13.43-7.8c.27,0,.55.08.84.13l-13.43,7.81c-.29-.06-.57-.1-.84-.14"/>
            <path class="cls-11" d="M244.81,121.78,258.24,114l.85.19L245.66,122c-.29-.07-.57-.14-.85-.19"/>
            <path class="cls-12" d="M245.66,122l13.43-7.81.83.23-13.43,7.81c-.28-.09-.56-.16-.83-.23"/>
            <path class="cls-13" d="M246.49,122.2l13.43-7.81c.28.09.57.18.87.29l-13.43,7.8c-.3-.1-.58-.2-.87-.28"/>
            <path class="cls-14" d="M247.36,122.48l13.43-7.8.9.33-13.43,7.81-.9-.34"/>
            <path class="cls-15" d="M248.26,122.82,261.69,115l1,.42-13.43,7.8c-.33-.15-.66-.28-1-.41"/>
            <path class="cls-16" d="M249.23,123.23l13.43-7.8c.34.15.68.31,1,.49l-13.43,7.8c-.36-.17-.7-.34-1-.49"/>
            <path class="cls-17" d="M250.27,123.72l13.43-7.8c.38.19.78.39,1.18.61l-13.43,7.81-1.18-.62"/>
            <path class="cls-18" d="M251.45,124.34l13.43-7.81,1,.55.3.18-13.43,7.8-.3-.18-1-.54"/>
            <path class="cls-19" d="M252.73,125.06l13.43-7.8c.44.25.86.51,1.27.77L254,125.83c-.41-.26-.83-.51-1.27-.77"/>
            <path class="cls-20" d="M254,125.83l13.43-7.8c.4.25.78.51,1.16.76l-13.43,7.81-1.16-.77"/>
            <path class="cls-21" d="M255.16,126.6l13.43-7.81,1.07.77-13.43,7.8c-.34-.25-.7-.51-1.07-.76"/>
            <path class="cls-22" d="M256.23,127.36l13.43-7.8c.35.25.69.51,1,.77l-13.43,7.8-1-.77"/>
            <path class="cls-23" d="M257.24,128.13l13.43-7.8,1,.78-13.43,7.81c-.31-.27-.63-.53-1-.79"/>
            <path class="cls-24" d="M258.2,128.92l13.43-7.81.92.8-13.43,7.81c-.3-.27-.6-.54-.92-.8"/>
            <path class="cls-25" d="M259.12,129.72l13.43-7.81.88.82L260,130.54c-.28-.28-.58-.55-.88-.82"/>
            <path class="cls-26" d="M260,130.54l13.43-7.81.85.84-13.43,7.8c-.28-.28-.56-.56-.85-.83"/>
            <path class="cls-27" d="M260.85,131.37l13.43-7.8c.29.29.57.59.84.88l-13.43,7.81c-.27-.3-.55-.59-.84-.89"/>
            <path class="cls-28" d="M261.69,132.26l13.43-7.81.88,1-13.43,7.8c-.29-.32-.58-.65-.88-1"/>
            <path class="cls-28" d="M262.57,133.23l13.43-7.8c.33.37.65.75,1,1.13l-13.43,7.8c-.31-.38-.63-.75-1-1.13"/>
            <path class="cls-28" d="M263.53,134.36l13.43-7.8c.47.56.93,1.13,1.37,1.7l-13.43,7.8c-.44-.57-.9-1.13-1.37-1.7"/>
            <path class="cls-28" d="M264.9,136.06l13.43-7.8c1.06,1.34,2.07,2.69,3.12,4L268,140.1c-1-1.35-2.06-2.7-3.12-4"/>
            <path class="cls-28" d="M268,140.1l13.43-7.81c.45.57.9,1.14,1.37,1.7l-13.43,7.8c-.47-.56-.92-1.12-1.37-1.69"/>
            <path class="cls-28" d="M269.39,141.79l13.43-7.8c.31.38.63.76,1,1.13l-13.42,7.81c-.33-.38-.66-.76-1-1.14"/>
            <path class="cls-28" d="M270.36,142.93l13.42-7.81c.29.33.58.65.88,1l-13.43,7.81-.87-1"/>
            <path class="cls-27" d="M271.23,143.9l13.43-7.81c.27.3.56.6.84.89l-13.42,7.8c-.29-.29-.58-.59-.85-.88"/>
            <path class="cls-26" d="M272.08,144.78,285.5,137l.85.84-13.43,7.8q-.44-.42-.84-.84"/>
            <path class="cls-25" d="M272.92,145.62l13.43-7.8.88.82-13.43,7.8-.88-.82"/>
            <path class="cls-24" d="M273.8,146.44l13.43-7.8.92.8-13.43,7.8-.92-.8"/>
            <path class="cls-23" d="M274.72,147.24l13.43-7.8,1,.78L275.68,148c-.33-.26-.65-.52-1-.79"/>
            <path class="cls-22" d="M275.68,148l13.43-7.81c.33.26.66.52,1,.77l-13.43,7.81-1-.77"/>
            <path class="cls-21" d="M276.69,148.8,290.12,141c.35.26.71.51,1.08.77l-13.43,7.8c-.37-.25-.73-.51-1.08-.76"/>
            <path class="cls-20" d="M277.77,149.56l13.43-7.8c.37.25.76.51,1.16.76l-13.43,7.81c-.4-.26-.79-.51-1.16-.77"/>
            <path class="cls-19" d="M278.93,150.33l13.43-7.81,1.26.78-13.42,7.8c-.44-.26-.86-.51-1.27-.77"/>
            <path class="cls-18" d="M280.2,151.1l13.42-7.8.31.17.56.32-13.43,7.8-.56-.31-.3-.18"/>
            <path class="cls-17" d="M281.06,151.59l13.43-7.8.72.37L281.78,152c-.24-.11-.48-.24-.72-.37"/>
            <path class="cls-16" d="M281.78,152l13.43-7.8.71.34-13.42,7.8c-.24-.1-.48-.22-.72-.34"/>
            <path class="cls-15" d="M282.5,152.3l13.42-7.8.71.3-13.43,7.8c-.23-.09-.47-.19-.7-.3"/>
            <path class="cls-14" d="M283.2,152.6l13.43-7.8.72.26-13.43,7.81-.72-.27"/>
            <path class="cls-13" d="M283.92,152.87l13.43-7.81.74.25-13.43,7.8c-.25-.07-.49-.15-.74-.24"/>
            <path class="cls-12" d="M284.66,153.11l13.43-7.8.75.2-13.43,7.81-.75-.21"/>
            <path class="cls-11" d="M285.41,153.32l13.43-7.81.82.18-13.43,7.81-.82-.18"/>
            <path class="cls-10" d="M286.23,153.5l13.43-7.81.88.15-13.43,7.8c-.29,0-.58-.08-.88-.14"/>
            <path class="cls-9" d="M287.11,153.64l13.43-7.8,1,.1-13.43,7.8c-.31,0-.63-.05-1-.1"/>
            <path class="cls-8" d="M288.07,153.74l13.43-7.8c.4,0,.78,0,1.16,0l-13.43,7.81c-.38,0-.76,0-1.16,0"/>
            <path class="cls-7" d="M289.23,153.78,302.66,146a15.11,15.11,0,0,0,1.53-.07l-13.42,7.8a15.4,15.4,0,0,1-1.54.08"/>
            <path class="cls-6" d="M290.77,153.7l13.42-7.8c.94-.09,1.84-.24,2.71-.41l-13.43,7.8a23.06,23.06,0,0,1-2.7.41"/>
            <path class="cls-5" d="M293.47,153.29l13.43-7.8c1.15-.23,2.25-.5,3.33-.71l-13.43,7.8c-1.08.22-2.18.49-3.33.71"/>
            <path class="cls-6" d="M296.8,152.58l13.43-7.8a21,21,0,0,1,2.18-.34L299,152.25a20.89,20.89,0,0,0-2.18.33"/>
            <path class="cls-7" d="M299,152.25l13.43-7.81,1.09-.06-13.43,7.81a10.09,10.09,0,0,0-1.09.06"/>
            <path class="cls-8" d="M300.07,152.19l13.43-7.81c.26,0,.53,0,.79,0l-13.43,7.8c-.26,0-.53,0-.79,0"/>
            <path class="cls-9" d="M300.86,152.21l13.43-7.8q.31,0,.63.06l-13.43,7.8-.63-.06"/>
            <path class="cls-10" d="M301.49,152.27l13.43-7.8.51.08L302,152.36c-.17,0-.34-.06-.51-.09"/>
            <path class="cls-11" d="M302,152.36l13.43-7.81.47.11-13.43,7.8-.47-.1"/>
            <path class="cls-12" d="M302.47,152.46l13.43-7.8.43.11-13.42,7.81-.44-.12"/>
            <path class="cls-13" d="M302.91,152.58l13.42-7.81.38.13-13.43,7.8-.37-.12"/>
            <path class="cls-14" d="M303.28,152.7l13.43-7.8.38.14-13.43,7.8-.38-.14"/>
            <path class="cls-15" d="M303.66,152.84l13.43-7.8.36.15L304,153l-.37-.16"/>
            <path class="cls-16" d="M304,153l13.42-7.81.35.16-13.43,7.81L304,153"/>
            <path class="cls-17" d="M304.37,153.16l13.43-7.81.34.18-13.43,7.8-.34-.17"/>
            <path class="cls-18" d="M304.71,153.33l13.43-7.8.26.15L305,153.48l-.26-.15"/>
          </g>
        </g>
      </g>
      <path class="cls-29" d="M296.74,152.6l.07,0,1-.17.21,0q.48-.08,1-.12h.13l.89-.05h.17l.69,0H301a5.51,5.51,0,0,1,.57.06l.1,0a4.54,4.54,0,0,1,.51.09l.17,0,.57.15h0l.62.21.08,0,.63.27.07,0c.22.11.45.23.67.36l13.43-7.8-.26-.15-.34-.18-.07,0-.07,0-.21-.1-.36-.15-.06,0-.08,0-.24-.09-.38-.13h0l-.4-.1-.17,0-.17,0-.13,0-.38-.06-.1,0h0l-.54-.05h-.13c-.23,0-.46,0-.69,0h-.17c-.29,0-.59,0-.89.05h-.13l-1,.12-.21,0-1,.18h-.07l-1.59.34c-.53.12-1.06.24-1.6.34l-.1,0-1.18.22-.19,0q-.58.09-1.2.15h-.2c-.44,0-.89.06-1.34.07h-.25l-.89,0h-.17l-.91-.09-.31-.05-.57-.09-.85-.19-.13,0-.72-.2-.27-.09-.61-.21-.27-.1-.78-.32-.09,0c-.3-.13-.59-.28-.89-.43l-.24-.12c-.3-.16-.59-.31-.89-.49s-.53-.31-.79-.47l-.64-.39-.61-.4c-.19-.12-.38-.24-.56-.37l-.61-.42-.49-.35-.58-.44-.46-.35-.55-.44-.43-.35-.51-.45-.42-.36-.47-.43-.42-.39-.41-.41c-.15-.14-.29-.29-.43-.43l-.33-.33-.5-.53-.28-.31c-.19-.21-.38-.41-.56-.62a3.88,3.88,0,0,1-.26-.31c-.23-.25-.44-.51-.66-.76l-.22-.27c-.41-.5-.82-1-1.21-1.5l-.16-.2c-.5-.64-1-1.27-1.47-1.91l-1.49-1.92-.08-.1-.07-.09c-.4-.51-.8-1-1.22-1.51l-.08-.1a2.09,2.09,0,0,0-.14-.17l-.65-.76c-.06-.07-.11-.14-.17-.2l-.1-.12-.55-.6-.23-.26-.06-.06-.49-.51-.29-.31,0,0c-.15-.15-.3-.29-.44-.44l-.37-.36,0,0-.43-.41-.41-.38-.05,0-.41-.36-.46-.4-.06,0-.42-.34-.48-.39-.07-.06-.45-.34-.49-.37-.1-.08-.5-.35-.47-.34-.13-.08-.56-.37-.47-.31-.15-.09-.64-.39c-.16-.1-.31-.2-.48-.29l-.3-.18-1-.55-.15-.08-.57-.29-.46-.24-.17-.08-.46-.22-.41-.19-.22-.1-.43-.18-.32-.14-.29-.1-.39-.15-.22-.08-.35-.12-.37-.12-.15,0-.41-.11-.34-.09-.08,0-.41-.09-.38-.08-.06,0-.36,0a3.21,3.21,0,0,0-.43-.07h-.05l-.22,0-.61-.06h-.27q-.39,0-.78,0h-.2c-.44,0-.87,0-1.29.07h-.12c-.72.07-1.42.17-2.12.27s-1.39.21-2.11.27h-.12c-.42,0-.85.06-1.3.07h-.19c-.26,0-.52,0-.78,0l-.27,0-.61-.06-.28,0-.42-.07-.42-.07-.37-.08-.51-.12-.32-.09-.57-.16-.37-.12-.58-.2-.38-.15-.61-.24-.43-.19-.63-.29-.46-.21-.63-.32c-.19-.1-.38-.19-.57-.3-.37-.19-.74-.4-1.13-.62l-.78-.47-.64-.39-.62-.41-.56-.36-.61-.43-.49-.35c-.2-.14-.39-.29-.58-.44l-.46-.34-.55-.45L232,107l-.51-.45-.42-.36-.46-.43-.42-.39-.42-.41-.43-.42-.33-.35c-.17-.17-.34-.34-.5-.52l-.28-.31c-.19-.2-.37-.41-.55-.61l-.27-.31-.65-.76-.23-.27c-.41-.5-.81-1-1.21-1.51l-.16-.2-1.47-1.9c-.49-.64-1-1.29-1.49-1.93l-.08-.1-.07-.09c-.39-.5-.8-1-1.21-1.51a.39.39,0,0,1-.08-.1l-.15-.17-.65-.76-.17-.2-.1-.11c-.18-.2-.36-.41-.55-.61s-.15-.17-.22-.25-.05,0-.06-.06l-.5-.52-.29-.31,0,0-.44-.44-.37-.35,0,0-.44-.4-.41-.38,0,0-.42-.36-.45-.4-.06,0-.43-.35-.47-.39-.08-.06-.45-.34-.48-.37-.11-.07-.49-.35-.48-.34-.13-.09-.56-.36-.47-.32-.15-.08c-.2-.14-.42-.27-.64-.4l-.48-.29-.3-.18-1-.54-.16-.08-.57-.3-.46-.24-.17-.08-.45-.21-.42-.2-.22-.09-.43-.19-.32-.13-.28-.11-.39-.14-.23-.09-.35-.11a2.65,2.65,0,0,0-.37-.12l-.14,0-.42-.12-.33-.09-.09,0-.41-.09-.38-.09h0l-.37-.06-.42-.07h-.06l-.22,0c-.2,0-.41-.05-.61-.06h-.26l-.78,0h-.2c-.45,0-.88,0-1.3.06h-.11c-.73.07-1.43.17-2.12.27s-1.4.2-2.12.27h-.12c-.42,0-.85.06-1.29.06h-.2q-.39,0-.78,0h-.27l-.61-.06-.27,0-.42-.07-.43-.08-.37-.08-.5-.12c-.11,0-.22-.06-.33-.09l-.57-.16L187,81.1l-.57-.2-.39-.15q-.3-.1-.6-.24l-.44-.18-.63-.29-.46-.22-.63-.32-.57-.29c-.36-.2-.74-.4-1.13-.63s-.52-.31-.78-.47l-.64-.39-.62-.4-.56-.37-.6-.42-.5-.35-.58-.44c-.15-.12-.31-.23-.45-.35l-.56-.45-.42-.34-.52-.45-.41-.36-.46-.42L174,73l-.41-.41-.44-.43-.33-.34c-.16-.18-.33-.35-.49-.52L172,71c-.18-.2-.37-.4-.54-.6l-.28-.32-.65-.76-.22-.27c-.42-.5-.82-1-1.22-1.5l-.15-.2-1.48-1.91L166,63.47l-.08-.1-.08-.1c-.39-.5-.79-1-1.21-1.5l-.08-.1a2.09,2.09,0,0,1-.14-.17l-.65-.76-.18-.2-.1-.12-.55-.61-.22-.25-.06-.06-.5-.52-.28-.3,0,0-.44-.43-.37-.37,0,0-.43-.4-.41-.39,0,0-.41-.35-.46-.41-.06,0-.42-.34-.48-.39-.08-.06c-.14-.12-.3-.23-.45-.35l-.48-.36-.1-.07-.5-.36-.48-.33-.12-.09-.56-.37-.48-.31-.14-.09-.64-.39-.48-.29-.3-.18-1-.55-.15-.08-.57-.29-.46-.24-.17-.08-.46-.22-.41-.19-.22-.1-.44-.18-.31-.13L149,50l-.39-.15-.22-.08-.36-.12-.36-.12-.15,0-.42-.11-.33-.09-.08,0-.42-.09-.37-.08h-.06l-.37-.06-.42-.07H145l-.22,0-.61-.06h-.27q-.39,0-.78,0h-.2c-.44,0-.87,0-1.29.07h-.12c-.72.06-1.42.16-2.11.26s-1.4.21-2.13.27h-.11c-.42,0-.85.06-1.3.07h-.2l-.78,0h-.26L134,49.4l-.28,0-.43-.07-.41-.07-.38-.08L132,49l-.33-.09-.56-.16-.37-.12-.58-.2-.39-.15-.6-.24-.43-.19-.64-.29-.45-.21-.63-.32-.57-.3c-.37-.19-.74-.4-1.13-.62s-.66-.4-1-.61l-.18-.12q-.36-.22-.72-.48l-.31-.22-.62-.46-.27-.21-.65-.53-.25-.19c-.29-.25-.58-.5-.86-.76l-.27-.25c-.2-.18-.41-.37-.61-.57s-.29-.29-.43-.43-.29-.28-.43-.43-.4-.41-.6-.62l-.27-.28L117,39l-.2-.24-.76-.89-.27-.32c-.37-.46-.75-.92-1.11-1.38a.27.27,0,0,0-.07-.08c-.65-.84-1.29-1.68-1.91-2.52l-.09-.12c-.62-.84-1.23-1.68-1.83-2.51L109,28.48l0-.05,0-.05c-.53-.72-1.06-1.41-1.58-2.08a.44.44,0,0,1-.08-.11l-.07-.08-.85-1.05,0,0-.22-.26-.41-.48-.07-.08-.33-.37-.24-.27,0-.05c-.18-.2-.37-.4-.56-.59h0l-.07-.07-.43-.43-.11-.1-.18-.16-.2-.19-.3-.26-.11-.1,0,0c-.13-.12-.27-.23-.41-.34l-.13-.1-.13-.1-.16-.12-.37-.26-.07-.05-.07,0-.21-.14-.36-.22-.09-.05-.26-.14-.33-.18-.1-.05-.08,0-.15-.07-.34-.15-.17-.06-.08,0-.09,0a2.53,2.53,0,0,0-.36-.12l-.23-.06-.07,0-.07,0a2.59,2.59,0,0,0-.4-.09L98,19l-.11,0h-.11a3.91,3.91,0,0,0-.48-.05h-1.2l-.3,0-.42.06-.13,0-.6.14-.41.13-.06,0a4.45,4.45,0,0,0-.54.25L80.2,27.44a4,4,0,0,1,.55-.26,4.15,4.15,0,0,1,.46-.15,5.93,5.93,0,0,1,.73-.16,3,3,0,0,1,.42-.06l.43,0h1a5.38,5.38,0,0,1,.69.07l.11,0a5.12,5.12,0,0,1,.68.14l.08,0a6.69,6.69,0,0,1,.68.22l.07,0,.66.28.08,0a7.73,7.73,0,0,1,.69.37c.22.12.44.26.66.41a.18.18,0,0,1,.07.05c.21.13.4.28.6.43l.13.09.6.49.1.09.5.45.18.16c.18.18.36.35.54.54l.07.06.62.66c.08.08.16.18.24.27l.4.44.4.47c.09.11.18.21.27.33.28.33.57.68.85,1l.15.19c.52.67,1.05,1.36,1.57,2.08l.08.11c.59.79,1.19,1.61,1.79,2.45l1.83,2.5,0,.07,0,.06c.63.84,1.26,1.68,1.92,2.52l0,0,0,0c.36.47.74.93,1.12,1.39a1.83,1.83,0,0,0,.13.16l.13.15c.25.3.5.6.76.89a1.46,1.46,0,0,0,.16.19l0,0c.29.33.59.67.89,1l0,0,.25.26c.2.21.39.42.6.63l0,0,.39.39.44.44,0,0,.58.54.26.24v0c.27.24.54.48.82.71l0,0c.07.07.16.13.24.2l.54.44.11.08.27.21.38.29.25.18.3.21.23.17.49.32.18.12.07,0c.24.16.49.31.74.46l.18.1,1,.55.16.08.57.29.46.24.17.08.46.22.41.19.22.1.43.18.32.14.28.1.39.15.23.09.35.11.37.12.14.05.43.11.32.09.09,0,.42.09.37.08,0,0,.37.06.42.07h.06l.22,0,.61.06h.26l.78,0h.2c.45,0,.88,0,1.3-.06h.12c.72-.07,1.42-.17,2.11-.27s1.4-.2,2.12-.27h.12q.63-.06,1.29-.06a1.33,1.33,0,0,1,.2,0l.78,0,.27,0,.61.06.27,0,.42.07.43.07.37.08.5.12.33.09.57.17.36.12c.19.06.39.12.58.2l.39.14.6.24.44.19.63.29.46.21.63.32.57.3c.37.19.74.4,1.13.62l.78.48.64.38.62.41.56.36.6.43.5.35.59.44.44.34c.2.15.38.31.57.46s.28.22.41.34l.53.45.4.36c.16.14.32.28.47.43l.42.39L148,66l.43.42.33.35.49.52.28.3.56.62.27.31c.22.25.43.51.65.77l.22.26c.42.5.82,1,1.22,1.51l.15.2c.5.63,1,1.27,1.48,1.91s1,1.28,1.48,1.91l.08.11.07.09,1.22,1.51.08.1.14.16.65.77.18.2.1.11.54.61.23.25.06.06c.16.18.33.35.49.52l.29.31,0,0,.44.43.37.36,0,0,.43.4.41.38.05,0,.42.37.45.39.06.05.43.35.47.39.08,0c.14.12.3.24.46.36l.47.36.1.07.5.36.48.33.12.09.56.36.48.32.14.08.64.4.48.29.3.18,1,.54.15.08.57.3.46.24.17.08.46.21.41.2.22.09.44.19.31.13.29.11.39.14.22.09.35.11.37.12.15,0c.14.05.28.08.42.12l.33.09.08,0,.42.1.37.08h.06l.37.06.42.07h.05l.22,0,.61.06h.27l.78,0h.2q.66,0,1.29-.06h.12c.72-.07,1.42-.17,2.12-.27s1.39-.2,2.12-.27h.11c.42,0,.85-.06,1.3-.06h.2l.78,0h.26l.61.06.28,0,.43.07.41.08.38.08.5.11.33.1.56.16.37.12.58.2.39.15c.19.07.4.15.6.24l.43.18.64.29.45.22.63.32.57.29c.37.2.74.4,1.13.63s.53.31.79.47l.63.39.63.4.55.37.61.42.49.35.59.44.45.35.56.45.42.34.52.45.41.36.45.42.44.4.4.4c.15.15.3.29.44.44l.33.34.5.52c.09.1.18.21.28.31l.55.61.27.31c.22.26.44.51.65.77l.23.27c.41.5.82,1,1.21,1.5l.16.2,1.48,1.92,1.47,1.9.09.11a.86.86,0,0,1,.07.1c.4.5.8,1,1.22,1.5a.86.86,0,0,0,.07.1l.15.17.65.76c0,.07.11.13.17.2l.1.11.54.61.23.25.06.07.5.52.29.3,0,0,.44.43.36.37.05,0c.13.14.28.27.42.4l.42.39,0,0,.42.36.45.4.06,0,.43.36.47.38.08.06.45.34.48.37.11.08.49.35.48.34.13.08.56.37.47.31.15.09.64.39.48.3.3.17,1,.55.15.08.57.29.46.24.17.08.46.22.41.19.22.1.43.18.32.14.29.1.39.15.22.08.35.12.37.12.15,0,.42.11.32.09.09,0,.42.09.37.08.06,0,.37.06.41.07h.06l.22,0,.61.06h.27q.39,0,.78,0h.2c.44,0,.87,0,1.29-.06h.12c.72-.07,1.42-.17,2.12-.27s1.39-.2,2.11-.27h.12c.42,0,.85-.06,1.29-.07h.2l.78,0,.27,0,.61.06.27,0,.43.07.42.07.38.09.49.11.34.09.56.16.37.12.57.21.39.14.61.24.43.19.63.29.46.21.63.32c.19.1.38.19.57.3.37.19.74.4,1.13.62l.78.48c.22.12.43.25.64.38l.63.41.55.36.61.43.49.35.59.44.45.34.55.45.43.35.52.45.41.36.45.42.43.4.41.4.44.43.33.35c.16.17.33.34.49.52l.29.31c.18.2.37.4.55.61l.27.31.65.76.22.27c.42.5.82,1,1.22,1.51l.15.2c.5.63,1,1.27,1.48,1.91l1.48,1.91a.76.76,0,0,1,.08.11l.08.09c.39.5.8,1,1.21,1.51l.08.09.15.18.64.75.18.21.1.11c.17.2.36.4.54.6l.23.26.06.06c.16.18.33.35.5.53l.29.29,0,.05.43.42.37.37,0,0,.42.39.42.39.05,0,.41.36.46.4.06,0,.43.35.47.39.08.06.45.34.48.37.11.07.49.35.48.34.13.09.55.36.48.32.15.09.63.38.49.3.3.18.56.31.33.17.24.12.15.08c.24.12.48.24.72.34h0l.09,0,.59.25.19.07.27.1.26.1.35.12.27.08.12,0,.6.17.13,0h0l.82.18h0l.56.09.3,0h0l.91.1h.17l.89,0h.25c.45,0,.9,0,1.34-.06h.2q.62-.06,1.2-.15l.19,0c.4-.06.79-.13,1.18-.21h.1l1.6-.34C295.69,152.82,296.22,152.7,296.74,152.6Z"/>
      <g class="cls-2">
        <g class="cls-30">
          <g class="cls-2">
            <path class="cls-18" d="M305,153.48l13.43-7.8.08,0-13.43,7.81-.08-.05"/>
            <path class="cls-19" d="M305.05,153.53l13.43-7.81.35.21-13.43,7.81-.35-.21"/>
            <path class="cls-20" d="M305.4,153.74l13.43-7.81.34.23L305.75,154l-.35-.23"/>
            <path class="cls-21" d="M305.75,154l13.42-7.81.36.26-13.42,7.8c-.13-.08-.25-.17-.36-.25"/>
            <path class="cls-22" d="M306.11,154.22l13.42-7.8.38.28-13.43,7.81-.37-.29"/>
            <path class="cls-23" d="M306.48,154.51l13.43-7.81.39.32-13.43,7.81-.39-.32"/>
            <path class="cls-24" d="M306.87,154.83,320.3,147c.13.12.27.23.4.36l-13.43,7.8-.4-.35"/>
            <path class="cls-25" d="M307.27,155.18l13.43-7.8q.21.18.42.39l-13.43,7.8-.42-.39"/>
            <path class="cls-26" d="M307.69,155.57l13.43-7.8c.14.13.29.27.43.42L308.12,156l-.43-.42"/>
            <path class="cls-27" d="M308.12,156l13.43-7.8.43.45-13.43,7.81c-.14-.16-.29-.31-.43-.46"/>
            <path class="cls-28" d="M308.55,156.45,322,148.64l.45.5L309,156.94l-.45-.49"/>
            <path class="cls-28" d="M309,156.94l13.43-7.8.47.55-13.43,7.8-.47-.55"/>
            <path class="cls-28" d="M309.47,157.49l13.43-7.8q.25.3.51.63L310,158.13l-.51-.64"/>
            <path class="cls-28" d="M310,158.13l13.43-7.81c.21.27.42.54.63.83L310.61,159c-.21-.29-.42-.56-.63-.82"/>
            <path class="cls-28" d="M310.61,159l13.43-7.8c.21.28.43.58.64.89a20.83,20.83,0,0,1,1.2,1.91l-13.43,7.81a22.35,22.35,0,0,0-1.2-1.92c-.21-.31-.43-.6-.64-.89"/>
            <path class="cls-28" d="M312.45,161.76,325.88,154l.16.32-13.43,7.8-.16-.31"/>
            <path class="cls-28" d="M312.61,162.07l13.43-7.8a3,3,0,0,1,.15.31l-13.42,7.8-.16-.31"/>
            <path class="cls-28" d="M312.77,162.38l13.42-7.8c.05.1.1.2.14.3l-13.42,7.8c-.05-.1-.1-.2-.14-.3"/>
            <path class="cls-28" d="M312.91,162.68l13.42-7.8c.05.1.09.2.13.29L313,163l-.12-.3"/>
            <path class="cls-27" d="M313,163l13.43-7.81c0,.09.07.18.11.26l-13.43,7.81c0-.09-.07-.17-.11-.26"/>
            <path class="cls-26" d="M313.14,163.24l13.43-7.81.09.24-13.43,7.8-.09-.23"/>
            <path class="cls-25" d="M313.23,163.47l13.43-7.8c0,.08,0,.16.08.23l-13.43,7.81c0-.08-.05-.16-.08-.24"/>
            <path class="cls-24" d="M313.31,163.71l13.43-7.81c0,.08.05.16.07.23l-13.43,7.81c0-.08-.05-.16-.07-.23"/>
            <path class="cls-23" d="M313.38,163.94l13.43-7.81c0,.08.05.15.07.23l-13.43,7.8a1.87,1.87,0,0,0-.07-.22"/>
            <path class="cls-22" d="M313.45,164.16l13.43-7.8.06.22-13.43,7.81-.06-.23"/>
            <path class="cls-21" d="M313.51,164.39l13.43-7.81a1.42,1.42,0,0,0,.05.22l-13.43,7.81a2.25,2.25,0,0,1-.05-.22"/>
            <path class="cls-20" d="M313.56,164.61,327,156.8c0,.07,0,.15,0,.22l-13.43,7.8c0-.07,0-.14,0-.21"/>
            <path class="cls-19" d="M313.6,164.82,327,157c0,.07,0,.14,0,.22L313.64,165a2.07,2.07,0,0,0,0-.22"/>
            <path class="cls-18" d="M313.64,165l13.43-7.8,0,.21-13.43,7.8,0-.21"/>
            <path class="cls-17" d="M313.67,165.25l13.43-7.8c0,.07,0,.14,0,.21l-13.43,7.8a1.49,1.49,0,0,0,0-.21"/>
            <path class="cls-16" d="M313.69,165.46l13.43-7.8c0,.07,0,.13,0,.2l-13.43,7.81c0-.07,0-.14,0-.21"/>
            <path class="cls-15" d="M313.71,165.67l13.43-7.81c0,.08,0,.15,0,.23l-13.43,7.8c0-.07,0-.15,0-.22"/>
            <path class="cls-14" d="M313.72,165.89l13.43-7.8v.23l-13.43,7.81v-.24"/>
            <path class="cls-13" d="M313.72,166.13l13.43-7.81a1.93,1.93,0,0,1,0,.24l-13.43,7.8a1.77,1.77,0,0,0,0-.23"/>
            <path class="cls-12" d="M313.71,166.36l13.43-7.8c0,.07,0,.15,0,.23l-13.43,7.8c0-.08,0-.15,0-.23"/>
            <path class="cls-11" d="M313.7,166.59l13.43-7.8,0,.22-13.43,7.81,0-.23"/>
            <path class="cls-10" d="M313.67,166.82,327.1,159c0,.1,0,.19,0,.29l-13.43,7.8a2.7,2.7,0,0,0,0-.28"/>
            <path class="cls-9" d="M313.63,167.1l13.43-7.8c0,.11-.05.22-.07.34l-13.43,7.8c0-.11.05-.22.07-.34"/>
            <path class="cls-8" d="M313.56,167.44l13.43-7.8-.09.33-13.43,7.8.09-.33"/>
            <path class="cls-7" d="M313.47,167.77,326.9,160c0,.13-.09.26-.14.39l-13.43,7.81c.05-.13.1-.27.14-.4"/>
            <path class="cls-6" d="M313.33,168.17l13.43-7.81a6,6,0,0,1-.25.58l-13.43,7.81a6,6,0,0,0,.25-.58"/>
            <path class="cls-5" d="M313.08,168.75l13.43-7.81a7.45,7.45,0,0,1-.49.87l-13.43,7.81a9.54,9.54,0,0,0,.49-.87"/>
            <path class="cls-4" d="M312.59,169.62,326,161.81c-1.61,2.48-4.58,4.52-6.54,7.57l-13.43,7.8c2-3,4.93-5.09,6.54-7.56"/>
            <path class="cls-5" d="M306.05,177.18l13.43-7.8a12.1,12.1,0,0,0-.77,1.37l-13.43,7.81a12.25,12.25,0,0,1,.77-1.38"/>
            <path class="cls-6" d="M305.28,178.56l13.43-7.81a10.25,10.25,0,0,0-.41,1l-13.43,7.8a9.06,9.06,0,0,1,.41-.95"/>
            <path class="cls-7" d="M304.87,179.51l13.43-7.8c-.1.26-.19.53-.27.8l-13.43,7.81q.12-.42.27-.81"/>
            <path class="cls-8" d="M304.6,180.32,318,172.51c-.06.21-.12.42-.17.64L304.43,181c.05-.21.11-.43.17-.63"/>
            <path class="cls-9" d="M304.43,181l13.43-7.8q-.08.3-.12.6l-13.43,7.81a6,6,0,0,1,.12-.61"/>
            <path class="cls-10" d="M304.31,181.56l13.43-7.81q-.06.3-.09.6l-13.43,7.8a5.58,5.58,0,0,1,.09-.59"/>
            <path class="cls-11" d="M304.22,182.15l13.43-7.8-.06.5-13.43,7.8.06-.5"/>
            <path class="cls-12" d="M304.16,182.65l13.43-7.8,0,.51-13.43,7.81,0-.52"/>
            <path class="cls-13" d="M304.13,183.17l13.43-7.81c0,.18,0,.36,0,.54l-13.43,7.8c0-.18,0-.36,0-.53"/>
            <path class="cls-14" d="M304.12,183.7l13.43-7.8v0c0,.25,0,.51,0,.75l-13.43,7.81c0-.25,0-.5,0-.76v0"/>
            <path class="cls-15" d="M304.13,184.49l13.43-7.81c0,.27,0,.53,0,.79l-13.43,7.8c0-.26,0-.52,0-.78"/>
            <path class="cls-16" d="M304.16,185.27l13.43-7.8.06.72L304.22,186l-.06-.73"/>
            <path class="cls-17" d="M304.22,186l13.43-7.81c0,.24.05.47.08.7l-13.43,7.8c0-.23-.06-.46-.08-.69"/>
            <path class="cls-18" d="M304.3,186.69l13.43-7.8.09.67-13.43,7.81-.09-.68"/>
            <path class="cls-19" d="M304.39,187.37l13.43-7.81.12.66L304.51,188l-.12-.65"/>
            <path class="cls-20" d="M304.51,188l13.43-7.8c0,.22.08.43.13.64l-13.43,7.81c-.05-.21-.09-.43-.13-.65"/>
            <path class="cls-21" d="M304.64,188.67l13.43-7.81c0,.22.09.44.15.65l-13.43,7.81c-.05-.22-.11-.43-.15-.65"/>
            <path class="cls-22" d="M304.79,189.32l13.43-7.81c0,.22.11.43.17.64L305,190c-.06-.22-.12-.43-.17-.64"/>
            <path class="cls-23" d="M305,190l13.43-7.81.18.64-13.43,7.81L305,190"/>
            <path class="cls-24" d="M305.14,190.6l13.43-7.81.21.64-13.43,7.81-.21-.64"/>
            <path class="cls-25" d="M305.35,191.24l13.43-7.81c.07.22.15.43.22.65l-13.43,7.8-.22-.64"/>
            <path class="cls-26" d="M305.57,191.88l13.43-7.8.25.66-13.43,7.8-.25-.66"/>
            <path class="cls-27" d="M305.82,192.54l13.43-7.8c.09.23.18.46.28.68l-13.43,7.81-.28-.69"/>
            <path class="cls-28" d="M306.1,193.23l13.43-7.81.33.77L306.43,194l-.33-.76"/>
            <path class="cls-28" d="M306.43,194l13.43-7.8c.13.31.27.61.42.92l-13.43,7.8c-.14-.3-.29-.61-.42-.92"/>
            <path class="cls-28" d="M306.85,194.91l13.43-7.8q.3.64.63,1.29l-13.43,7.81c-.22-.43-.43-.86-.63-1.3"/>
            <path class="cls-28" d="M307.48,196.21l13.43-7.81c.67,1.36,1.38,2.68,2.06,4l-13.43,7.81c-.68-1.35-1.39-2.68-2.06-4"/>
            <path class="cls-28" d="M309.54,200.24,323,192.43l.63,1.3-13.43,7.8-.63-1.29"/>
            <path class="cls-28" d="M310.17,201.53l13.43-7.8.42.92-13.43,7.8-.42-.92"/>
            <path class="cls-28" d="M310.59,202.45l13.43-7.8.33.76-13.43,7.8-.33-.76"/>
            <path class="cls-27" d="M310.92,203.21l13.43-7.8.27.69-13.43,7.8-.27-.69"/>
            <path class="cls-26" d="M311.19,203.9l13.43-7.8c.09.22.17.44.25.66l-13.43,7.8c-.08-.22-.16-.44-.25-.66"/>
            <path class="cls-25" d="M311.44,204.56l13.43-7.8c.08.21.16.43.23.64l-13.43,7.81c-.07-.22-.15-.43-.23-.65"/>
            <path class="cls-24" d="M311.67,205.21l13.43-7.81c.07.22.14.43.2.64l-13.43,7.81c-.06-.22-.13-.43-.2-.64"/>
            <path class="cls-23" d="M311.87,205.85,325.3,198c.07.22.13.43.19.65l-13.43,7.8c-.06-.22-.12-.43-.19-.64"/>
            <path class="cls-22" d="M312.06,206.49l13.43-7.8c.06.21.12.42.17.63l-13.43,7.81c-.05-.22-.11-.43-.17-.64"/>
            <path class="cls-21" d="M312.23,207.13l13.43-7.81.15.65-13.43,7.81-.15-.65"/>
            <path class="cls-20" d="M312.38,207.78,325.81,200c.05.22.09.43.13.65l-13.43,7.8c0-.21-.08-.43-.13-.64"/>
            <path class="cls-19" d="M312.51,208.42l13.43-7.8c0,.21.08.43.11.65l-13.42,7.81-.12-.66"/>
            <path class="cls-18" d="M312.63,209.08l13.42-7.81c0,.23.07.45.1.68l-13.43,7.81-.09-.68"/>
            <path class="cls-17" d="M312.72,209.76,326.15,202c0,.23.05.46.08.7l-13.43,7.8c0-.23-.05-.47-.08-.69"/>
            <path class="cls-16" d="M312.8,210.45l13.43-7.8c0,.23,0,.48,0,.72l-13.42,7.8-.06-.72"/>
            <path class="cls-15" d="M312.86,211.17l13.42-7.8c0,.26,0,.52,0,.78L312.89,212l0-.79"/>
            <path class="cls-14" d="M312.89,212l13.43-7.81c0,.25,0,.51,0,.76V205l-13.43,7.8v0c0-.26,0-.51,0-.76"/>
            <path class="cls-13" d="M312.9,212.76l13.43-7.8c0,.28,0,.55,0,.81l-13.43,7.81c0-.27,0-.54,0-.82"/>
            <path class="cls-12" d="M312.88,213.58l13.43-7.81c0,.26,0,.52,0,.76l-13.43,7.8c0-.24,0-.49,0-.75"/>
            <path class="cls-11" d="M312.84,214.33l13.43-7.8c0,.24,0,.48-.08.71L312.76,215c0-.23.06-.46.08-.71"/>
            <path class="cls-10" d="M312.76,215l13.43-7.8c0,.22-.06.44-.1.66l-13.42,7.8q0-.31.09-.66"/>
            <path class="cls-9" d="M312.67,215.7l13.42-7.8c0,.22-.08.44-.13.65l-13.43,7.81c.05-.21.1-.43.14-.66"/>
            <path class="cls-8" d="M312.53,216.36,326,208.55c0,.22-.1.43-.16.62L312.37,217c.06-.2.11-.41.16-.62"/>
            <path class="cls-7" d="M312.37,217l13.43-7.81c-.07.24-.14.46-.22.68l-13.43,7.8c.08-.21.15-.44.22-.67"/>
            <path class="cls-6" d="M312.15,217.65l13.43-7.8a7.17,7.17,0,0,1-.3.69l-13.43,7.81a6.4,6.4,0,0,0,.3-.7"/>
            <path class="cls-5" d="M311.85,219.71l13.43-7.81c-.14-1.06-.3-.78-.47-.52l-13.43,7.81a6.76,6.76,0,0,0,.47-.84"/>
            <path class="cls-4" d="M311.38,219.19l13.43-7.81c-1.64,2.56-4.24,3.26-5.88,5.82L305.5,225c1.64-2.56,4.24-3.26,5.88-5.82"/>
            <path class="cls-5" d="M305.5,225l13.43-7.81a8.35,8.35,0,0,0-.47.84L305,225.84a8.18,8.18,0,0,1,.47-.83"/>
            <path class="cls-6" d="M305,225.84l13.43-7.8c-.1.22-.2.45-.29.7l-13.43,7.8c.09-.25.19-.48.29-.7"/>
            <path class="cls-7" d="M304.74,226.54l13.43-7.8a5.84,5.84,0,0,0-.23.67l-13.43,7.81c.07-.24.15-.47.23-.68"/>
            <path class="cls-8" d="M304.51,227.22l13.43-7.81c-.06.2-.11.41-.16.62l-13.43,7.8c0-.21.1-.42.16-.61"/>
            <path class="cls-9" d="M304.35,227.83l13.43-7.8c0,.21-.09.43-.13.66l-13.43,7.8c0-.23.08-.44.13-.66"/>
            <path class="cls-10" d="M304.22,228.49l13.43-7.8c0,.21-.07.43-.1.66l-13.43,7.8c0-.23.06-.45.1-.66"/>
            <path class="cls-11" d="M304.12,229.15l13.43-7.8c0,.23-.05.46-.07.71l-13.43,7.8c0-.24,0-.48.07-.71"/>
            <path class="cls-12" d="M304.05,229.86l13.43-7.8c0,.24,0,.49-.05.75L304,230.62c0-.26,0-.52.05-.76"/>
            <path class="cls-13" d="M304,230.62l13.43-7.81c0,.27,0,.54,0,.82L304,231.43c0-.28,0-.55,0-.81"/>
            <path class="cls-14" d="M304,231.43l13.43-7.8v0c0,.26,0,.51,0,.76L304,232.24c0-.25,0-.51,0-.76v0"/>
            <path class="cls-15" d="M304,232.24l13.43-7.81c0,.27,0,.53,0,.79L304,233c0-.26,0-.52,0-.78"/>
            <path class="cls-16" d="M304,233l13.43-7.8c0,.24,0,.48.05.72l-13.43,7.8c0-.23,0-.48-.05-.72"/>
            <path class="cls-17" d="M304.08,233.74l13.43-7.8c0,.23.05.46.08.69l-13.43,7.81c0-.23-.05-.46-.08-.7"/>
            <path class="cls-18" d="M304.16,234.44l13.43-7.81c0,.23.06.46.1.68l-13.43,7.8c0-.22-.07-.44-.1-.67"/>
            <path class="cls-19" d="M304.26,235.11l13.43-7.8c0,.22.07.44.11.66l-13.43,7.8c0-.22-.08-.43-.11-.66"/>
            <path class="cls-20" d="M304.37,235.77,317.8,228c0,.21.08.43.13.64l-13.43,7.8c0-.21-.09-.42-.13-.64"/>
            <path class="cls-21" d="M304.5,236.41l13.43-7.8.15.65-13.43,7.8-.15-.65"/>
            <path class="cls-22" d="M304.65,237.06l13.43-7.8c.06.21.11.43.17.64l-13.43,7.8c-.06-.21-.11-.42-.17-.64"/>
            <path class="cls-23" d="M304.82,237.7l13.43-7.8c.06.21.12.43.19.64L305,238.34c-.07-.21-.13-.42-.19-.64"/>
            <path class="cls-24" d="M305,238.34l13.43-7.8c.06.21.13.43.2.64L305.21,239c-.07-.21-.14-.42-.2-.64"/>
            <path class="cls-25" d="M305.21,239l13.43-7.8c.08.22.15.43.23.64l-13.43,7.81-.23-.65"/>
            <path class="cls-26" d="M305.44,240.65l13.43-7.81c.08.23.16.45.25.66l-13.43,7.81c-.09-.22-.17-.44-.25-.66"/>
            <path class="cls-27" d="M305.69,240.29l13.43-7.81.27.69L306,241l-.27-.68"/>
            <path class="cls-28" d="M306,241l13.43-7.8.33.76-13.43,7.81L306,241"/>
            <path class="cls-28" d="M306.29,241.74l13.43-7.81.42.92-13.43,7.81-.42-.92"/>
            <path class="cls-28" d="M306.71,242.66l13.43-7.81.63,1.3L307.34,244l-.63-1.29"/>
            <path class="cls-28" d="M307.34,244l13.43-7.8c.68,1.35,1.39,2.68,2.06,4L309.4,248c-.67-1.36-1.38-2.68-2.06-4"/>
            <path class="cls-28" d="M309.4,248l13.43-7.81c.22.43.43.86.63,1.3L310,249.28c-.2-.43-.41-.87-.63-1.29"/>
            <path class="cls-28" d="M310,249.28l13.43-7.8c.15.3.29.61.42.92l-13.42,7.8c-.14-.31-.28-.61-.43-.92"/>
            <path class="cls-28" d="M310.46,250.2l13.42-7.8c.12.25.23.5.33.76L310.78,251c-.1-.25-.21-.51-.32-.76"/>
            <path class="cls-27" d="M310.78,251l13.43-7.8c.1.23.19.46.28.69l-13.43,7.8c-.09-.23-.18-.46-.28-.69"/>
            <path class="cls-26" d="M311.06,251.65l13.43-7.8c.08.22.17.43.25.66l-13.43,7.8c-.08-.22-.16-.44-.25-.66"/>
            <path class="cls-25" d="M311.31,252.31l13.43-7.8c.08.21.15.42.22.64L311.53,253c-.07-.22-.14-.44-.22-.65"/>
            <path class="cls-24" d="M311.53,253,325,245.15l.21.64-13.43,7.8-.21-.63"/>
            <path class="cls-23" d="M311.74,253.59l13.43-7.8.19.64-13.43,7.81c-.06-.22-.13-.43-.19-.65"/>
            <path class="cls-22" d="M311.93,254.24l13.43-7.81c.05.21.11.43.16.64l-13.43,7.8c0-.21-.1-.42-.16-.63"/>
            <path class="cls-21" d="M312.09,254.87l13.43-7.8c.06.21.11.43.15.65l-13.42,7.8c-.05-.21-.1-.43-.16-.65"/>
            <path class="cls-20" d="M312.25,255.52l13.42-7.8c.05.21.09.43.14.64l-13.43,7.81c0-.22-.09-.43-.13-.65"/>
            <path class="cls-19" d="M312.38,256.17l13.43-7.81c0,.22.07.44.11.66l-13.43,7.8c0-.22-.07-.44-.11-.65"/>
            <path class="cls-18" d="M312.49,256.82l13.43-7.8c0,.22.07.45.1.68l-13.43,7.8c0-.23-.07-.45-.1-.68"/>
            <path class="cls-17" d="M312.59,257.5,326,249.7c0,.23.05.46.07.69l-13.43,7.8c0-.23-.05-.46-.07-.69"/>
            <path class="cls-16" d="M312.66,258.19l13.43-7.8.06.72-13.43,7.81c0-.25,0-.49-.06-.73"/>
            <path class="cls-15" d="M312.72,258.92l13.43-7.81c0,.26,0,.52,0,.79l-13.43,7.8c0-.26,0-.52,0-.78"/>
            <path class="cls-14" d="M312.76,259.7l13.43-7.8c0,.25,0,.5,0,.76v0l-13.42,7.81v-.05c0-.26,0-.51,0-.76"/>
            <path class="cls-13" d="M312.77,260.51l13.42-7.81c0,.28,0,.55,0,.82l-13.43,7.8c0-.26,0-.53,0-.81"/>
            <path class="cls-12" d="M312.75,261.32l13.43-7.8c0,.26,0,.51-.05.75l-13.43,7.81c0-.25,0-.5.05-.76"/>
            <path class="cls-11" d="M312.7,262.08l13.43-7.81c0,.25,0,.48-.07.71l-13.43,7.81c0-.23.05-.47.07-.71"/>
            <path class="cls-10" d="M312.63,262.79,326.06,255c0,.23-.06.45-.1.66l-13.43,7.81c0-.22.07-.44.1-.66"/>
            <path class="cls-9" d="M312.53,263.45,326,255.64c0,.23-.08.45-.13.66l-13.43,7.8c.05-.21.09-.43.13-.65"/>
            <path class="cls-8" d="M312.4,264.1l13.43-7.8c-.05.21-.11.42-.16.62l-13.43,7.8c.05-.19.11-.4.16-.62"/>
            <path class="cls-7" d="M312.24,264.72l13.43-7.8c-.07.24-.15.46-.23.67L312,265.4c.08-.22.16-.44.23-.68"/>
            <path class="cls-6" d="M312,265.4l13.43-7.81c-.09.25-.19.48-.29.7l-13.43,7.8c.1-.22.2-.45.29-.69"/>
            <path class="cls-5" d="M311.72,266.09l13.43-7.8c-.15.3-.31.58-.47.84l-13.43,7.8a8.35,8.35,0,0,0,.47-.84"/>
            <path class="cls-4" d="M311.25,266.93l13.43-7.8c-1.64,2.56-4.25,3.26-5.89,5.82l-13.43,7.8c1.64-2.56,4.25-3.26,5.89-5.82"/>
            <path class="cls-5" d="M305.36,272.75l13.43-7.8c-.16.26-.32.54-.47.84l-13.42,7.8a8.32,8.32,0,0,1,.46-.84"/>
            <path class="cls-6" d="M304.9,273.59l13.42-7.8c-.1.22-.2.45-.29.69l-13.43,7.81a6.4,6.4,0,0,1,.3-.7"/>
            <path class="cls-7" d="M304.6,274.29,318,266.48c-.08.22-.16.44-.23.68L304.38,275a5.85,5.85,0,0,1,.22-.67"/>
            <path class="cls-8" d="M304.38,275l13.42-7.8c-.05.19-.11.4-.16.62l-13.43,7.8c.05-.22.11-.42.17-.62"/>
            <path class="cls-9" d="M304.21,275.58l13.43-7.8c0,.21-.09.43-.13.65l-13.43,7.81c0-.23.09-.45.13-.66"/>
            <path class="cls-10" d="M304.08,276.24l13.43-7.81c0,.22-.07.44-.1.66L304,276.9c0-.23.07-.45.1-.66"/>
            <path class="cls-11" d="M304,276.9l13.43-7.81c0,.23-.05.47-.07.71l-13.43,7.81c0-.25,0-.48.07-.71"/>
            <path class="cls-12" d="M303.91,277.61l13.43-7.81c0,.24,0,.5,0,.76l-13.42,7.8c0-.26,0-.51,0-.75"/>
            <path class="cls-13" d="M303.87,278.36l13.42-7.8c0,.26,0,.53,0,.81l-13.43,7.8c0-.28,0-.55,0-.81"/>
            <path class="cls-14" d="M303.85,279.17l13.43-7.8v.05c0,.25,0,.51,0,.76L303.86,280c0-.25,0-.5,0-.76v-.05"/>
            <path class="cls-15" d="M303.86,280l13.43-7.8c0,.26,0,.52,0,.78l-13.43,7.8c0-.25,0-.52,0-.78"/>
            <path class="cls-16" d="M303.89,280.76l13.43-7.8.06.72L304,281.49l-.06-.73"/>
            <path class="cls-17" d="M304,281.49l13.43-7.81c0,.24.05.47.08.7L304,282.18c0-.23-.06-.46-.08-.69"/>
            <path class="cls-18" d="M304,282.18l13.43-7.8c0,.23.06.45.09.68l-13.43,7.8-.09-.68"/>
            <path class="cls-19" d="M304.12,282.86l13.43-7.8c0,.22.07.44.12.65l-13.43,7.81-.12-.66"/>
            <path class="cls-20" d="M304.24,283.52l13.43-7.81c0,.22.08.43.13.65l-13.43,7.8c-.05-.21-.09-.43-.13-.64"/>
            <path class="cls-21" d="M304.37,284.16l13.43-7.8c0,.22.09.43.15.65l-13.43,7.8c0-.21-.11-.43-.15-.65"/>
            <path class="cls-22" d="M304.52,284.81,318,277c.05.21.11.42.17.63l-13.43,7.81c-.06-.21-.12-.42-.17-.64"/>
            <path class="cls-23" d="M304.69,285.45l13.43-7.81.18.65-13.43,7.8-.18-.64"/>
            <path class="cls-24" d="M304.87,286.09l13.43-7.8.21.64-13.43,7.8-.21-.64"/>
            <path class="cls-25" d="M305.08,286.73l13.43-7.8.22.64-13.43,7.8c-.07-.21-.15-.42-.22-.64"/>
            <path class="cls-26" d="M305.3,287.37l13.43-7.8.25.66L305.55,288c-.08-.22-.16-.44-.25-.67"/>
            <path class="cls-27" d="M305.55,288,319,280.23l.28.69-13.43,7.8c-.09-.22-.19-.45-.28-.68"/>
            <path class="cls-28" d="M305.83,288.72l13.43-7.8.33.76-13.43,7.8-.33-.76"/>
            <path class="cls-28" d="M306.16,289.48l13.43-7.8c.13.31.27.62.42.92l-13.43,7.8c-.15-.3-.29-.61-.42-.92"/>
            <path class="cls-28" d="M306.58,290.4,320,282.6c.2.44.41.87.63,1.3l-13.43,7.8c-.22-.43-.43-.86-.63-1.3"/>
            <path class="cls-28" d="M307.21,291.7l13.43-7.8c.67,1.35,1.38,2.67,2.06,4l-13.43,7.8c-.68-1.35-1.39-2.68-2.06-4"/>
            <path class="cls-28" d="M309.27,295.73l13.43-7.8.63,1.29L309.9,297l-.63-1.3"/>
            <path class="cls-28" d="M309.9,297l13.43-7.81.42.92L310.32,298l-.42-.92"/>
            <path class="cls-28" d="M310.32,298l13.43-7.81.33.77-13.43,7.8-.33-.76"/>
            <path class="cls-27" d="M310.65,298.71l13.43-7.8.27.68-13.43,7.81-.27-.69"/>
            <path class="cls-26" d="M310.92,299.4l13.43-7.81c.09.22.17.44.25.66l-13.43,7.81c-.08-.22-.16-.44-.25-.66"/>
            <path class="cls-25" d="M311.17,300.06l13.43-7.81.23.65-13.43,7.8c-.07-.21-.15-.43-.23-.64"/>
            <path class="cls-24" d="M311.4,300.7l13.43-7.8c.07.21.14.42.2.64l-13.43,7.8c-.06-.21-.13-.43-.2-.64"/>
            <path class="cls-23" d="M311.6,301.34l13.43-7.8c.07.21.13.42.19.64L311.79,302c-.06-.21-.12-.43-.19-.64"/>
            <path class="cls-22" d="M311.79,302l13.43-7.8c.06.21.11.42.17.64L312,302.62c0-.21-.11-.43-.17-.64"/>
            <path class="cls-21" d="M312,302.62l13.43-7.8.15.65-13.43,7.8-.15-.65"/>
            <path class="cls-20" d="M312.11,303.27l13.43-7.8c0,.21.09.42.13.64l-13.43,7.8c0-.21-.08-.43-.13-.64"/>
            <path class="cls-19" d="M312.24,303.91l13.43-7.8c0,.22.08.44.11.66l-13.43,7.8c0-.22-.07-.44-.11-.66"/>
            <path class="cls-18" d="M312.35,304.57l13.43-7.8c0,.22.07.45.1.67l-13.43,7.81c0-.23-.06-.46-.1-.68"/>
            <path class="cls-17" d="M312.45,305.25l13.43-7.81c0,.23.05.46.08.7l-13.43,7.8c0-.23,0-.46-.08-.69"/>
            <path class="cls-16" d="M312.53,305.94l13.43-7.8c0,.24,0,.48.05.72l-13.43,7.81c0-.25,0-.49-.05-.73"/>
            <path class="cls-15" d="M312.58,306.67,326,298.86c0,.26,0,.52,0,.79l-13.43,7.8c0-.26,0-.53,0-.78"/>
            <path class="cls-14" d="M312.62,307.45l13.43-7.8c0,.24,0,.5,0,.75v0l-13.43,7.81v0c0-.26,0-.51,0-.76"/>
            <path class="cls-13" d="M312.63,308.25l13.43-7.81c0,.22,0,.44,0,.65l-13.42,7.81c0-.22,0-.43,0-.65"/>
            <path class="cls-12" d="M312.62,308.9,326,301.09c0,.21,0,.42,0,.62l-13.43,7.8c0-.2,0-.4,0-.61"/>
            <path class="cls-11" d="M312.58,309.51l13.43-7.8c0,.2,0,.41-.07.6l-13.43,7.81c0-.2.05-.4.07-.61"/>
            <path class="cls-10" d="M312.51,310.12l13.43-7.81a5.4,5.4,0,0,1-.09.6l-13.43,7.81q.06-.3.09-.6"/>
            <path class="cls-9" d="M312.42,310.72l13.43-7.81c0,.2-.07.38-.11.57l-13.43,7.8c0-.18.08-.37.11-.56"/>
            <path class="cls-8" d="M312.31,311.28l13.43-7.8c-.05.22-.11.43-.17.64l-13.43,7.8c.06-.2.12-.42.17-.64"/>
            <path class="cls-7" d="M312.14,311.92l13.43-7.8c-.06.21-.13.41-.2.6l-13.43,7.81c.07-.2.14-.4.2-.61"/>
            <path class="cls-6" d="M311.94,312.53l13.43-7.81a7.54,7.54,0,0,1-.32.76l-13.43,7.8c.12-.24.22-.49.32-.75"/>
            <path class="cls-5" d="M311.62,313.28l13.43-7.8a9.61,9.61,0,0,1-.51.9l-13.43,7.81a8.66,8.66,0,0,0,.51-.91"/>
            <path class="cls-4" d="M311.11,314.19l13.43-7.81c-1.85,2.87-5,3.78-6.58,6.36l-13.43,7.81c1.63-2.58,4.73-3.5,6.58-6.36"/>
            <path class="cls-5" d="M304.53,320.55,318,312.74a6.77,6.77,0,0,0-.36.65l-13.43,7.8a6.6,6.6,0,0,1,.36-.64"/>
            <path class="cls-6" d="M304.17,321.19l13.43-7.8a5,5,0,0,0-.23.53l-13.43,7.81c.07-.19.15-.36.23-.54"/>
            <path class="cls-7" d="M303.94,321.73l13.43-7.81c-.06.16-.11.32-.16.48l-13.43,7.81c.05-.17.1-.33.16-.48"/>
            <path class="cls-8" d="M303.78,322.21l13.43-7.81c0,.15-.08.29-.12.44l-13.43,7.81.12-.44"/>
            <path class="cls-9" d="M303.66,322.65l13.43-7.81c0,.14-.06.27-.08.41l-13.43,7.8c0-.14.05-.27.08-.4"/>
            <path class="cls-10" d="M303.58,323.05l13.43-7.8a2.65,2.65,0,0,0-.06.42l-13.43,7.8c0-.14,0-.28.06-.42"/>
            <path class="cls-11" d="M303.52,323.47l13.43-7.8c0,.13,0,.27-.05.41l-13.43,7.8c0-.14,0-.27,0-.41"/>
            <path class="cls-12" d="M303.47,323.88l13.43-7.8c0,.13,0,.27,0,.41l-13.43,7.8c0-.14,0-.27,0-.41"/>
            <path class="cls-13" d="M303.45,324.29l13.43-7.8c0,.14,0,.28,0,.42l-13.43,7.81c0-.15,0-.29,0-.43"/>
            <path class="cls-14" d="M303.44,324.72l13.43-7.81v.45l-13.43,7.8v-.44"/>
            <path class="cls-15" d="M303.44,325.16l13.43-7.8c0,.15,0,.31,0,.47l-13.43,7.81,0-.48"/>
            <path class="cls-16" d="M303.47,325.64l13.43-7.81,0,.5-13.42,7.8c0-.17,0-.33,0-.49"/>
            <path class="cls-17" d="M303.51,326.13l13.42-7.8.06.52-13.43,7.8c0-.18,0-.35-.05-.52"/>
            <path class="cls-18" d="M303.56,326.65l13.43-7.8c0,.19.06.4.09.61l-13.43,7.8-.09-.61"/>
            <path class="cls-19" d="M303.65,327.26l13.43-7.8c0,.2.07.42.11.63l-13.43,7.81c0-.22-.08-.43-.11-.64"/>
            <path class="cls-20" d="M303.76,327.9l13.43-7.81c0,.18.07.37.11.55l.06.26-13.43,7.8-.06-.25c0-.19-.07-.37-.11-.55"/>
            <path class="cls-21" d="M303.93,328.7l13.43-7.8c.1.47.21.94.32,1.4l-13.42,7.81q-.18-.71-.33-1.41"/>
            <path class="cls-22" d="M304.26,330.11l13.42-7.81c.12.48.25,1,.38,1.43l-13.43,7.8c-.13-.47-.26-.94-.37-1.42"/>
            <path class="cls-23" d="M304.63,331.53l13.43-7.8c.14.49.28,1,.43,1.46L305.06,333c-.15-.48-.29-1-.43-1.46"/>
            <path class="cls-24" d="M305.06,333l13.43-7.8c.15.51.32,1,.49,1.52l-13.43,7.81c-.17-.51-.33-1-.49-1.53"/>
            <path class="cls-25" d="M305.55,334.52,319,326.71c.17.53.36,1.05.54,1.56l-13.43,7.81c-.18-.52-.37-1-.54-1.56"/>
            <path class="cls-26" d="M306.09,336.08l13.43-7.81c.2.56.41,1.11.62,1.65l-13.43,7.8c-.21-.54-.42-1.09-.62-1.64"/>
            <path class="cls-27" d="M306.71,337.72l13.43-7.8q.38.94.75,1.86l-13.43,7.8q-.37-.91-.75-1.86"/>
            <path class="cls-28" d="M307.46,339.58l13.43-7.8c.32.77.65,1.53,1,2.26l-13.43,7.81c-.32-.74-.65-1.49-1-2.27"/>
            <path class="cls-28" d="M308.43,341.85,321.86,334c1.14,2.57,2.26,4.89,3.17,7l-13.42,7.8c-.92-2.06-2-4.39-3.18-6.95"/>
            <path class="cls-28" d="M311.61,348.8,325,341c.2.44.39.88.57,1.3l-13.43,7.81-.56-1.31"/>
            <path class="cls-27" d="M312.17,350.11l13.43-7.81c.13.31.25.61.36.91L312.54,351c-.12-.29-.24-.6-.37-.9"/>
            <path class="cls-26" d="M312.54,351l13.42-7.8c.1.23.18.46.26.68l-13.43,7.8c-.08-.22-.16-.45-.25-.68"/>
            <path class="cls-25" d="M312.79,351.69l13.43-7.8.21.58L313,352.28c-.07-.2-.13-.39-.21-.59"/>
            <path class="cls-24" d="M313,352.28l13.43-7.81.15.46-13.43,7.81-.15-.46"/>
            <path class="cls-23" d="M313.15,352.74l13.43-7.81c0,.16.09.31.13.45l-13.43,7.81c0-.15-.09-.3-.13-.45"/>
            <path class="cls-22" d="M313.28,353.19l13.43-7.81c0,.13.07.25.1.37l-13.43,7.81c0-.12-.06-.25-.1-.37"/>
            <path class="cls-21" d="M313.38,353.56l13.43-7.81c0,.11.05.21.07.31l-13.43,7.81c0-.1-.05-.21-.07-.31"/>
            <path class="cls-20" d="M313.45,353.87l13.43-7.81.06.31-13.43,7.8c0-.1,0-.2-.06-.3"/>
            <path class="cls-19" d="M313.51,354.17l13.43-7.8.06.29-13.43,7.81-.06-.3"/>
            <path class="cls-18" d="M313.57,354.47,327,346.66l0,.24-13.43,7.81,0-.24"/>
            <path class="cls-17" d="M313.6,354.71,327,346.9l0,.22-13.43,7.81,0-.22"/>
            <path class="cls-16" d="M313.63,354.93l13.43-7.81c0,.07,0,.14,0,.21l-13.43,7.81c0-.07,0-.14,0-.21"/>
            <path class="cls-15" d="M313.64,355.14l13.43-7.81a1.48,1.48,0,0,1,0,.21l-13.43,7.81a1.48,1.48,0,0,0,0-.21"/>
            <path class="cls-14" d="M313.65,355.35l13.43-7.81a1.41,1.41,0,0,1,0,.2l-13.43,7.81a1.27,1.27,0,0,0,0-.2"/>
            <path class="cls-13" d="M313.66,355.55l13.43-7.81c0,.07,0,.14,0,.2l-13.43,7.8a1.21,1.21,0,0,0,0-.19"/>
            <path class="cls-12" d="M313.65,355.74l13.43-7.8c0,.07,0,.13,0,.19l-13.43,7.81a1.34,1.34,0,0,0,0-.2"/>
            <path class="cls-11" d="M313.64,355.94l13.43-7.81c0,.07,0,.13,0,.19l-13.43,7.8c0-.06,0-.12,0-.18"/>
            <path class="cls-10" d="M313.62,356.12l13.43-7.8,0,.18-13.43,7.8,0-.18"/>
            <path class="cls-9" d="M313.59,356.3,327,348.5l0,.18-13.43,7.8,0-.18"/>
            <path class="cls-8" d="M313.56,356.48l13.43-7.8-.06.22-13.43,7.8.06-.22"/>
            <path class="cls-7" d="M313.5,356.7l13.43-7.8-.09.24L313.41,357l.09-.25"/>
            <path class="cls-6" d="M313.41,357l13.43-7.81-.1.24-13.43,7.8a2.29,2.29,0,0,0,.1-.23"/>
            <path class="cls-5" d="M313.31,357.18l13.43-7.8c-.05.1-.11.19-.17.29l-13.43,7.8a2.75,2.75,0,0,0,.17-.29"/>
            <path class="cls-4" d="M313.14,357.47l13.43-7.8a3.29,3.29,0,0,1-1.09,1l-13.42,7.8a3.14,3.14,0,0,0,1.08-1"/>
          </g>
        </g>
      </g>
      <path class="cls-31" d="M327.15,158.39v-.3c0-.08,0-.15,0-.23s0-.13,0-.2h0c0-.06,0-.13,0-.19l0-.21c0-.08,0-.15,0-.22l0-.16v-.06a1.74,1.74,0,0,1-.05-.22l-.06-.22c0-.08-.05-.15-.07-.23a.56.56,0,0,0,0-.12v0s0,0,0-.08-.05-.15-.08-.23l-.09-.24c0-.08-.07-.17-.11-.26s0,0,0-.06l0,0-.09-.2c0-.1-.09-.2-.14-.3a3,3,0,0,0-.15-.31.54.54,0,0,1-.05-.11l0,0-.08-.16c-.1-.18-.22-.36-.33-.55l-.19-.33c-.2-.33-.43-.68-.68-1s-.43-.61-.64-.89l-.12-.17-.23-.29c-.09-.12-.18-.25-.28-.37l-.32-.4-.12-.15-.07-.08-.47-.55-.17-.19-.12-.14-.16-.17-.43-.45-.1-.1-.11-.1a2.28,2.28,0,0,0-.22-.22q-.21-.21-.42-.39l0,0-.07-.06-.29-.26-.39-.32h0l0,0-.32-.24-.36-.26h0l0,0-.28-.19-.35-.21-.08,0L305,153.48c.24.14.47.28.71.44l0,0c.23.16.47.33.71.52l0,0c.23.18.46.38.7.59l.07.06c.22.2.45.42.68.65l.11.1c.23.23.46.47.69.73l.12.13.71.82.12.16c.2.24.4.5.6.76l.23.3c.25.33.5.68.76,1.05s.48.7.68,1l.2.33c.14.24.28.48.4.71l0,.05c.16.31.3.61.43.91l0,0c.12.3.23.59.32.87v0a6.67,6.67,0,0,1,.22.82v0a5.6,5.6,0,0,1,.12.79h0a6.27,6.27,0,0,1,0,.74v0c0,.23,0,.45-.06.67V167a4.42,4.42,0,0,1-.13.61l0,.08c-.05.19-.12.38-.19.57l-.1.24c0,.11-.1.23-.16.34a8.46,8.46,0,0,1-.44.77l-.1.15c-.16.24-.33.48-.52.72a1.71,1.71,0,0,0-.11.14c-.21.26-.43.52-.67.78l-.16.18-.67.71-.08.08-.89.89-.84.87-.05,0-.73.8-.18.2c-.25.29-.5.58-.74.89l-.11.15c-.21.28-.42.57-.61.87a1.47,1.47,0,0,1-.1.13l0,.06a11.58,11.58,0,0,0-.67,1.2,1.27,1.27,0,0,0-.07.12c0,.05,0,.1-.07.15l-.24.56-.1.24-.05.14-.12.35c0,.11-.07.21-.1.32l-.06.23-.06.22c0,.06,0,.12-.05.18a6,6,0,0,0-.12.61v0a.28.28,0,0,0,0,.09c0,.16-.05.31-.07.46l-.06.49h0l0,.52c0,.17,0,.35,0,.53v0c0,.26,0,.51,0,.76s0,.52,0,.78,0,.39,0,.58v.07a.19.19,0,0,1,0,.08c0,.23,0,.46.08.69l.09.68.09.51v.06s0,.06,0,.08c0,.22.08.44.13.65l.15.65.12.45a.24.24,0,0,0,0,.08l0,.11.18.64.21.64c0,.1.07.21.11.32a.76.76,0,0,1,0,.11,1.72,1.72,0,0,1,.07.21l.25.66.28.69,0,.08.05.1c.08.19.16.39.25.58s.28.62.42.92l0,.06.14.29c.15.31.3.63.46,1l.12.24.9,1.75.92,1.8c.2.39.39.79.59,1.2,0,.09.09.18.13.28.24.51.48,1,.7,1.56a1,1,0,0,1,0,.1c.23.53.44,1.08.64,1.63a.56.56,0,0,0,0,.12c.19.56.37,1.12.53,1.71,0,0,0,.05,0,.08q.24.88.42,1.83v.06c.11.63.2,1.29.26,2v.06c.06.69.09,1.39.09,2.13,0,.34,0,.66,0,1,0,.09,0,.17,0,.26s0,.44-.05.65l0,.26c0,.24-.06.46-.09.68,0,0,0,.08,0,.12,0,.26-.1.51-.15.74a1.6,1.6,0,0,0,0,.21c0,.16-.09.31-.13.47s-.08.22-.11.33l-.12.33-.18.42-.1.22c-.13.26-.27.5-.41.73l-.09.14a7.38,7.38,0,0,1-.58.77l-.08.1c-.21.23-.42.46-.65.67l-.07.06c-.23.21-.47.42-.71.61l-.05,0-.75.59c-.25.19-.5.38-.74.58l-.06,0-.7.61-.08.07a8.3,8.3,0,0,0-.65.67l-.08.09a9.11,9.11,0,0,0-.58.77.35.35,0,0,1-.05.08.21.21,0,0,1,0,.06c-.14.23-.28.47-.41.73a.05.05,0,0,1,0,0c0,.06,0,.13-.08.19s-.12.27-.17.42a.36.36,0,0,0,0,.09,2.09,2.09,0,0,0-.08.23,3.38,3.38,0,0,0-.11.34s0,.07,0,.11l-.09.36-.06.2a.43.43,0,0,1,0,.05c-.05.22-.09.43-.13.66v0s0,.08,0,.12-.06.34-.08.51,0,.12,0,.17a2.46,2.46,0,0,0,0,.26c0,.1,0,.19,0,.28l0,.38c0,.08,0,.17,0,.26s0,.08,0,.12c0,.26,0,.53,0,.81v0c0,.25,0,.51,0,.76s0,.52,0,.78,0,.39,0,.58v.14c0,.24.05.47.08.7s.06.45.1.67.06.34.09.51a.17.17,0,0,0,0,.07s0,.05,0,.08c0,.22.09.43.13.64l.15.65.12.46,0,.07,0,.11c.06.22.12.43.19.64s.13.43.2.64l.12.33a.76.76,0,0,0,0,.11,1.72,1.72,0,0,0,.07.21h0c.08.23.16.44.25.66h0c0,.06.05.11.07.17l-.32.19c.08.22.16.44.25.66l.33-.2,0,0c.08.19.17.38.25.58l.42.92,0,.05a2.44,2.44,0,0,0,.14.28c.15.32.3.64.46,1l.13.24.9,1.78c.31.59.61,1.18.91,1.77.2.4.4.8.59,1.2l.14.29c.24.51.47,1,.69,1.55l.05.1c.22.54.43,1.08.63,1.64,0,0,0,.07,0,.11.2.56.37,1.13.53,1.71l0,.08c.16.6.3,1.2.41,1.83v.07q.18.94.27,1.95v.07c.06.68.1,1.39.1,2.12,0,.34,0,.67,0,1a2.11,2.11,0,0,1,0,.26c0,.23,0,.44-.05.65s0,.18,0,.26c0,.24-.06.47-.1.69a.5.5,0,0,1,0,.12c0,.26-.09.5-.15.74a1.46,1.46,0,0,1-.05.2c0,.16-.08.32-.13.47s-.07.22-.11.33l-.12.33a2.65,2.65,0,0,1-.18.42,1.47,1.47,0,0,1-.1.22,5.24,5.24,0,0,1-.41.74l-.08.13c-.19.28-.38.54-.58.78l-.09.09a8.14,8.14,0,0,1-.64.67l-.08.07-.7.61-.06,0-.75.59-.73.57-.07.05c-.23.19-.47.39-.7.61l-.07.06c-.23.21-.44.44-.65.67l-.09.1a6.68,6.68,0,0,0-.57.77l-.06.07,0,.07a7.28,7.28,0,0,0-.41.73l0,0-.08.18-.18.42s0,.06,0,.1-.05.15-.08.23l-.11.33,0,.11c0,.12-.07.24-.1.36s0,.14,0,.21,0,0,0,.05c0,.21-.09.43-.13.66v0s0,.08,0,.11-.05.34-.08.52,0,.11,0,.17l0,.26,0,.28c0,.12,0,.25,0,.37s0,.17,0,.26v.12c0,.26,0,.53,0,.81v.05c0,.26,0,.51,0,.76s0,.53,0,.78,0,.39.05.59v.06a.22.22,0,0,1,0,.08c0,.23.05.46.08.69l.09.68.09.51v.06s0,.06,0,.09c0,.21.08.43.13.64s.1.44.15.65l.12.45,0,.08,0,.11.18.64.21.64.11.32s0,.08,0,.12,0,.14.07.2c.09.23.17.45.25.67s.19.46.28.68l0,.08s0,.07.05.1c.08.2.16.39.25.58s.27.62.42.92l0,.06c0,.1.1.19.14.29.16.32.31.64.47.95l.12.24c.3.6.6,1.19.91,1.78s.61,1.18.91,1.77c.19.4.39.79.58,1.19l.14.29c.24.51.48,1,.7,1.56l0,.1c.23.53.44,1.08.64,1.63a.56.56,0,0,0,0,.12c.19.56.37,1.13.53,1.71l0,.08q.24.88.42,1.83v.06c.11.64.2,1.29.26,2v.07c.06.68.09,1.38.09,2.12q0,.5,0,1a1.09,1.09,0,0,0,0,.18c0,.3,0,.58-.09.85a1,1,0,0,0,0,.16l-.12.69,0,.15c-.06.26-.12.51-.2.75l0,.12-.19.54c-.06.16-.13.31-.2.46s-.07.17-.11.25a8.74,8.74,0,0,1-.45.8l-.1.15c-.21.31-.43.6-.66.88l-.09.09a7.9,7.9,0,0,1-.76.77l-.05.06c-.28.24-.55.48-.83.7h0l-.88.68-.82.62-.12.1c-.26.2-.51.41-.76.62l-.11.11a7.27,7.27,0,0,0-.68.68l-.11.12a6.64,6.64,0,0,0-.59.78l0,.06a.75.75,0,0,0-.07.12c-.08.13-.15.26-.22.39s-.05.09-.07.13l-.06.13-.1.24c0,.06-.05.11-.07.17a1.72,1.72,0,0,0-.07.21l-.06.17,0,.1-.12.44a.43.43,0,0,1,0,.05s0,.06,0,.08a2.56,2.56,0,0,1-.05.27c0,.14-.05.28-.06.42h0c0,.13,0,.26,0,.39s0,.27,0,.41h0c0,.13,0,.27,0,.41v.51c0,.13,0,.27,0,.41s0,.32,0,.49v0a.13.13,0,0,0,0,.06c0,.14,0,.28,0,.42l.09.61h0v0c0,.2.07.41.11.62s.07.36.11.55l.06.25.15.66.15.64,0,.11c.05.2.1.4.16.61l.18.71,0,.1.15.52.24.81a.5.5,0,0,0,0,.13c0,.15.09.29.14.43.09.31.19.61.29.91l.06.19c0,.12.08.24.13.36.1.32.21.63.32.93l.09.27c0,.09.07.18.1.27.14.36.27.72.41,1.07l.11.3.05.12c.22.55.44,1.1.66,1.63,0,0,0,.08,0,.11s.06.13.08.19c.29.69.58,1.37.88,2v.05a.89.89,0,0,1,.08.17l.7,1.56.12.25.76,1.65.77,1.68.06.12q.3.68.6,1.32l.12.29c.18.39.34.78.5,1.15l.15.36.21.52c.08.22.17.43.24.64l.05.12c.09.24.17.48.25.72l0,.13.21.68v0c.07.23.12.45.17.67v0c0,.21.08.42.11.62v.05c0,.2.05.4.06.59v0a5.23,5.23,0,0,1,0,.56v0c0,.18,0,.35-.07.52v0a2.13,2.13,0,0,1-.13.45.43.43,0,0,1,0,0,2.35,2.35,0,0,1-.19.39l-.05.1-.12.17a2.74,2.74,0,0,1-.32.36l-.13.13a3.36,3.36,0,0,1-.56.41l13.42-7.8a2.7,2.7,0,0,0,.56-.41l.14-.13a2.64,2.64,0,0,0,.31-.37l.08-.08.05-.09.05-.09.07-.11.1-.24s0,0,0,0,0,0,0-.05l.06-.15.06-.22s0-.06,0-.09v0s0,0,0-.06l0-.18c0-.06,0-.12,0-.19a.28.28,0,0,1,0-.09v-.1c0-.06,0-.13,0-.2a1.41,1.41,0,0,0,0-.2v-.12s0-.06,0-.09,0-.14,0-.21l0-.22s0,0,0-.08v0s0-.08,0-.12l-.06-.29a1.55,1.55,0,0,0,0-.21v-.1c0-.1-.05-.2-.07-.31l-.09-.32v-.05c0-.14-.09-.29-.13-.45s-.05-.13-.07-.2,0-.09,0-.14a.56.56,0,0,1,0-.12l-.21-.58v0a.36.36,0,0,1,0-.09c-.07-.19-.14-.38-.22-.57l0-.1-.21-.5-.12-.31,0-.07-.5-1.15a.2.2,0,0,0,0-.08,1.54,1.54,0,0,0-.08-.19c-.19-.44-.4-.88-.61-1.34l0-.12-.77-1.67c-.25-.53-.5-1.09-.76-1.65l-.12-.25-.7-1.56c0-.07-.06-.15-.1-.23-.29-.66-.58-1.34-.87-2l-.12-.29c-.22-.53-.44-1.08-.66-1.63-.05-.14-.11-.28-.16-.43-.14-.35-.27-.7-.41-1.06l-.19-.54c-.11-.31-.22-.62-.32-.93s-.13-.37-.19-.56-.2-.6-.29-.9l-.18-.56-.24-.81-.18-.63-.18-.7c-.07-.24-.13-.48-.19-.72l-.15-.64-.21-.92c-.08-.4-.16-.79-.22-1.17h0c-.06-.36-.1-.7-.13-1v-.06c0-.33-.05-.64-.06-.94v0c0-.31,0-.6,0-.88v0q0-.42.06-.81h0q.06-.36.12-.69l0-.08c.05-.21.1-.4.16-.59l.06-.17c0-.13.09-.26.14-.38l.1-.24c0-.09.09-.18.13-.26a3.61,3.61,0,0,1,.22-.39l.11-.19a7.59,7.59,0,0,1,.59-.78l.11-.12a8.73,8.73,0,0,1,.68-.68l.11-.1c.25-.22.5-.42.76-.63l.12-.09.82-.63.88-.67h0c.29-.23.56-.46.83-.71l.06-.05c.26-.24.52-.5.76-.77l.09-.1a8.77,8.77,0,0,0,.66-.88l.06-.08a.25.25,0,0,0,0-.07,8.55,8.55,0,0,0,.45-.79.05.05,0,0,1,0,0l.09-.22.2-.45,0-.09c.06-.15.11-.3.16-.46l0-.12v0c.06-.21.12-.42.17-.64,0,0,0-.06,0-.09l0-.15.06-.33.06-.35a.88.88,0,0,1,0-.16s0-.06,0-.09c0-.19.05-.4.07-.6a.86.86,0,0,1,0-.16,1.09,1.09,0,0,1,0-.18c0-.09,0-.18,0-.28s0-.43,0-.65v0c0-.25,0-.51,0-.75s0-.53,0-.79,0-.39,0-.58v-.14c0-.24,0-.47-.08-.7s-.06-.45-.1-.67,0-.34-.08-.51l0-.07a.25.25,0,0,0,0-.08c0-.22-.08-.43-.13-.64l-.15-.65-.12-.46,0-.07,0-.11c-.06-.22-.12-.43-.19-.64s-.13-.43-.2-.64-.08-.22-.11-.32l-.05-.12a1.72,1.72,0,0,0-.07-.21c-.08-.22-.16-.44-.25-.66l-.27-.68,0-.08s0-.07,0-.11c-.08-.19-.17-.38-.25-.58l-.42-.92,0-.05c0-.1-.09-.19-.13-.28-.16-.32-.31-.65-.47-1l-.12-.24c-.3-.6-.61-1.19-.91-1.77l-.91-1.79c-.2-.39-.39-.78-.58-1.18l-.15-.3c-.24-.51-.47-1-.69-1.55a.93.93,0,0,0,0-.1c-.22-.54-.43-1.08-.63-1.64,0,0,0-.07,0-.11-.19-.56-.37-1.13-.53-1.71l0-.08c-.16-.6-.3-1.2-.42-1.83v-.07c-.11-.63-.21-1.28-.27-1.95v-.07a20.84,20.84,0,0,1-.09-2.12c0-.34,0-.67,0-1,0-.09,0-.18,0-.26,0-.23,0-.44.05-.65l0-.27c0-.23.05-.46.09-.68,0,0,0-.08,0-.12,0-.26.09-.5.15-.74a1.46,1.46,0,0,1,0-.2c0-.16.08-.32.13-.47s.07-.23.11-.34l.12-.32.18-.42a2.14,2.14,0,0,1,.1-.22,6.47,6.47,0,0,1,.41-.74l.08-.13c.19-.28.38-.54.58-.78l.09-.09a8.25,8.25,0,0,1,.65-.67l.07-.07.7-.61.06,0,.74-.58.75-.58.06,0c.23-.19.47-.39.7-.6a.27.27,0,0,1,.08-.07c.22-.21.43-.43.64-.67l.09-.1a8.14,8.14,0,0,0,.58-.77.18.18,0,0,1,.05-.07l0-.07a5.73,5.73,0,0,0,.41-.73l0,0,.07-.18c.06-.14.13-.28.18-.42s0-.06,0-.1.05-.15.08-.23.08-.22.11-.33a.49.49,0,0,1,0-.11l.09-.36a1.6,1.6,0,0,0,.05-.21s0,0,0-.05c.05-.21.09-.43.13-.66v0s0-.08,0-.12,0-.33.08-.51,0-.11,0-.17l0-.26,0-.28c0-.12,0-.25,0-.37s0-.17,0-.26a.49.49,0,0,1,0-.12c0-.27,0-.54,0-.82v0c0-.26,0-.51,0-.76s0-.53,0-.79,0-.38,0-.58v-.06s0-.05,0-.08c0-.23,0-.46-.07-.69s-.07-.46-.1-.68l-.09-.51v-.06s0-.06,0-.09c-.05-.21-.09-.43-.14-.64s-.09-.44-.15-.65-.08-.3-.12-.45l0-.08s0-.07,0-.11l-.19-.64-.21-.64c0-.11-.07-.21-.11-.32s0-.08,0-.12-.05-.14-.07-.2c-.08-.23-.17-.44-.25-.66s-.18-.46-.28-.69l0-.08-.05-.1c-.08-.2-.16-.39-.25-.58s-.27-.62-.42-.92l0-.06-.15-.29c-.15-.32-.3-.64-.46-.95l-.12-.24c-.3-.59-.6-1.19-.91-1.78s-.61-1.18-.9-1.77c-.2-.4-.4-.79-.59-1.19l-.14-.29c-.24-.51-.48-1-.7-1.56l0-.1c-.23-.53-.44-1.08-.63-1.63l0-.12c-.2-.56-.38-1.12-.54-1.71l0-.08c-.16-.59-.3-1.2-.41-1.83v-.06c-.12-.63-.21-1.29-.27-2v-.06c-.06-.69-.09-1.39-.09-2.13,0-.34,0-.66,0-1,0-.09,0-.17,0-.26s0-.44.05-.65l0-.26c0-.24.06-.46.09-.68a.5.5,0,0,0,0-.12l.15-.75.06-.19c0-.17.08-.32.13-.48s.07-.22.11-.33.07-.22.11-.33l.18-.42a2.14,2.14,0,0,0,.1-.22c.13-.26.27-.5.41-.73l.09-.14a6.73,6.73,0,0,1,.58-.77l.08-.1c.21-.24.43-.46.65-.67l.08-.07c.23-.21.46-.41.7-.6l.06,0,.74-.58.75-.58.05,0c.24-.2.48-.4.71-.61l.07-.07.07-.06,1.76-1c-.14-1.06-.3-.78-.47-.52h0a8.39,8.39,0,0,0,.48-.84h0s.05-.12.08-.18l.18-.42a.36.36,0,0,1,0-.09c0-.08.05-.16.07-.24s.08-.21.12-.33l0-.11c0-.11.07-.24.1-.36a1.46,1.46,0,0,1,.05-.2s0,0,0-.06c.05-.21.09-.43.13-.65v0s0-.08,0-.12.05-.34.07-.51,0-.12,0-.17l0-.27,0-.27c0-.12,0-.25,0-.38s0-.17,0-.26a.49.49,0,0,0,0-.12c0-.26,0-.53,0-.81v-.05c0-.25,0-.51,0-.76s0-.52,0-.78,0-.39,0-.58v-.14c0-.24-.05-.47-.08-.7s-.06-.45-.1-.68-.05-.34-.08-.5v-.07l0-.08c0-.22-.08-.43-.13-.65l-.15-.65-.12-.45,0-.08,0-.1c-.06-.22-.12-.43-.19-.65s-.13-.42-.2-.64a3,3,0,0,1-.11-.32.49.49,0,0,1,0-.11l-.08-.21c-.08-.22-.16-.44-.25-.66l-.27-.69s0,0,0-.08a.36.36,0,0,0,0-.09c-.08-.2-.16-.4-.25-.59l-.42-.92,0,0a2.59,2.59,0,0,0-.14-.29c-.15-.32-.3-.64-.46-1,0-.08-.08-.16-.13-.24l-.89-1.75c-.31-.6-.62-1.2-.92-1.8-.2-.39-.39-.79-.58-1.19l-.15-.29c-.24-.51-.47-1-.69-1.55l-.05-.11c-.22-.53-.43-1.07-.63-1.63,0,0,0-.08,0-.12-.19-.55-.37-1.12-.53-1.71a.19.19,0,0,1,0-.07q-.24-.9-.42-1.83v-.07c-.11-.63-.2-1.28-.27-2v-.06a21,21,0,0,1-.09-2.12c0-.37,0-.74,0-1.09h0a9.45,9.45,0,0,1,.13-1,.28.28,0,0,1,0-.09c0-.29.11-.56.18-.84l.06-.21c0-.19.1-.37.16-.55l.12-.36.15-.37.24-.56.14-.28a12.72,12.72,0,0,1,.67-1.2l.13-.19c.19-.29.39-.58.61-.86l.11-.15c.24-.31.49-.61.74-.9l.18-.2c.24-.27.48-.53.73-.79l.05-.06.84-.85.89-.91.07-.07.68-.72.16-.18c.23-.25.46-.51.67-.78a1.71,1.71,0,0,0,.11-.14c.18-.23.36-.47.52-.71a.76.76,0,0,1,.08-.11s0,0,0,0a8.46,8.46,0,0,0,.44-.77l0-.06a2.55,2.55,0,0,0,.13-.29l.1-.24a.08.08,0,0,0,0,0c.05-.13.1-.26.14-.39l0-.13,0-.08s0-.08,0-.12.05-.23.07-.34,0-.1,0-.15v-.05s0-.06,0-.09l0-.22c0-.08,0-.16,0-.23s0-.09,0-.14Z"/>
      <path class="cls-32" d="M305,153.48a20.77,20.77,0,0,1,6.28,6.36c8.34,11.92-7.1,12-7.13,23.89s8.81,17.05,8.78,29S304,219.54,304,231.48s8.82,17,8.79,29-8.89,6.83-8.92,18.76,8.81,17,8.78,29-11.54,7.12-8.76,20.24c3.55,16.68,15.19,28.28,6.82,30.56a7.87,7.87,0,0,1-6.29-.9c-7.57-4.36-13.22-19.56-24.41-26-14.05-8.11-14.08,2.06-28.13-6s-14-18.28-28.07-26.39-14.08,2.06-28.13-6-14-18.29-28.07-26.4-14.07,2.06-28.12-6.05-14-18.28-28.07-26.39c-11.19-6.46-16.92,2.16-24.48-2.21-1.93-1.11-4-3.08-6.28-6.36-8.33-11.92,7.1-11.95,7.14-23.89s-8.82-17-8.78-29,8.88-6.83,8.91-18.76-8.81-17.05-8.78-29,8.88-6.82,8.92-18.76-8.82-17-8.78-29S88.15,71,88.18,59.06s-15.35-29.76-7-32a7.87,7.87,0,0,1,6.29.9c7.56,4.36,13.22,19.55,24.41,26C126,62.05,126,51.88,140,60s14,18.29,28.06,26.4,14.08-2.06,28.13,6,14,18.28,28.07,26.39,14.08-2.06,28.13,6,14,18.29,28.07,26.4C291.69,157.74,297.42,149.12,305,153.48Z"/>
    </g>
    <g class="cls-2">
      <polygon class="cls-33" points="112.55 207.86 100.62 214.79 101.01 75.14 112.94 68.2 112.55 207.86"/>
      <polygon class="cls-34" points="282.27 305.85 270.34 312.79 100.62 214.79 112.55 207.86 282.27 305.85"/>
      <polygon class="cls-35" points="112.55 207.86 112.94 68.2 282.67 166.19 282.27 305.85 112.55 207.86"/>
    </g>
  </g>
</svg>
