<svg xmlns="http://www.w3.org/2000/svg" xmlns:xlink="http://www.w3.org/1999/xlink" viewBox="0 0 764.95 529.9">
  <defs>
    <style>
      .cls-1 {
        mask: url(#mask);
        filter: url(#luminosity-noclip-14);
      }

      .cls-10, .cls-12, .cls-14, .cls-16, .cls-18, .cls-2, .cls-20, .cls-22, .cls-24, .cls-26, .cls-4, .cls-6, .cls-8 {
        mix-blend-mode: multiply;
      }

      .cls-2 {
        fill: url(#radial-gradient);
      }

      .cls-3 {
        mask: url(#mask-2);
        filter: url(#luminosity-noclip-19);
      }

      .cls-4 {
        fill: url(#radial-gradient-2);
      }

      .cls-5 {
        mask: url(#mask-3);
        filter: url(#luminosity-noclip-20);
      }

      .cls-6 {
        fill: url(#radial-gradient-3);
      }

      .cls-7 {
        mask: url(#mask-4);
        filter: url(#luminosity-noclip-21);
      }

      .cls-8 {
        fill: url(#radial-gradient-4);
      }

      .cls-9 {
        mask: url(#mask-5);
        filter: url(#luminosity-noclip-22);
      }

      .cls-10 {
        fill: url(#radial-gradient-5);
      }

      .cls-11 {
        mask: url(#mask-6);
        filter: url(#luminosity-noclip-23);
      }

      .cls-12 {
        fill: url(#radial-gradient-6);
      }

      .cls-13 {
        mask: url(#mask-7);
        filter: url(#luminosity-noclip-15);
      }

      .cls-14 {
        fill: url(#radial-gradient-7);
      }

      .cls-15 {
        mask: url(#mask-8);
        filter: url(#luminosity-noclip-24);
      }

      .cls-16 {
        fill: url(#radial-gradient-8);
      }

      .cls-17 {
        mask: url(#mask-9);
        filter: url(#luminosity-noclip-25);
      }

      .cls-18 {
        fill: url(#radial-gradient-9);
      }

      .cls-19 {
        mask: url(#mask-10);
        filter: url(#luminosity-noclip-26);
      }

      .cls-20 {
        fill: url(#radial-gradient-10);
      }

      .cls-21 {
        mask: url(#mask-11);
        filter: url(#luminosity-noclip-16);
      }

      .cls-22 {
        fill: url(#radial-gradient-11);
      }

      .cls-23 {
        mask: url(#mask-12);
        filter: url(#luminosity-noclip-17);
      }

      .cls-24 {
        fill: url(#radial-gradient-12);
      }

      .cls-25 {
        mask: url(#mask-13);
        filter: url(#luminosity-noclip-18);
      }

      .cls-26 {
        fill: url(#radial-gradient-13);
      }

      .cls-27 {
        isolation: isolate;
      }

      .cls-28 {
        mask: url(#mask-14);
      }

      .cls-29, .cls-31, .cls-33, .cls-43 {
        opacity: 0.13;
      }

      .cls-29, .cls-31, .cls-33, .cls-35, .cls-37, .cls-39, .cls-41, .cls-43, .cls-45, .cls-47, .cls-49, .cls-51, .cls-53 {
        mix-blend-mode: soft-light;
      }

      .cls-29 {
        fill: url(#radial-gradient-14);
      }

      .cls-30 {
        mask: url(#mask-15);
      }

      .cls-31 {
        fill: url(#radial-gradient-15);
      }

      .cls-32 {
        mask: url(#mask-16);
      }

      .cls-33 {
        fill: url(#radial-gradient-16);
      }

      .cls-34 {
        mask: url(#mask-17);
      }

      .cls-35 {
        fill: url(#radial-gradient-17);
      }

      .cls-36 {
        mask: url(#mask-18);
      }

      .cls-37 {
        fill: url(#radial-gradient-18);
      }

      .cls-38 {
        mask: url(#mask-19);
      }

      .cls-39 {
        fill: url(#radial-gradient-19);
      }

      .cls-40 {
        mask: url(#mask-20);
      }

      .cls-41 {
        fill: url(#radial-gradient-20);
      }

      .cls-42 {
        mask: url(#mask-21);
      }

      .cls-43 {
        fill: url(#radial-gradient-21);
      }

      .cls-44 {
        mask: url(#mask-22);
      }

      .cls-45, .cls-47 {
        opacity: 0.16;
      }

      .cls-45 {
        fill: url(#radial-gradient-22);
      }

      .cls-46 {
        mask: url(#mask-23);
      }

      .cls-47 {
        fill: url(#radial-gradient-23);
      }

      .cls-48 {
        mask: url(#mask-24);
      }

      .cls-49 {
        fill: url(#radial-gradient-24);
      }

      .cls-50 {
        mask: url(#mask-25);
      }

      .cls-51 {
        fill: url(#radial-gradient-25);
      }

      .cls-52 {
        mask: url(#mask-26);
      }

      .cls-53 {
        fill: url(#radial-gradient-26);
      }

      .cls-54, .cls-55 {
        opacity: 0.5;
      }

      .cls-54 {
        fill: url(#linear-gradient);
      }

      .cls-55 {
        fill: url(#linear-gradient-2);
      }

      .cls-56 {
        opacity: 0.76;
      }

      .cls-57 {
        fill: url(#linear-gradient-3);
      }

      .cls-58, .cls-60, .cls-66, .cls-71, .cls-72, .cls-74, .cls-75, .cls-79 {
        fill: #fff;
      }

      .cls-58 {
        opacity: 0.45;
      }

      .cls-59 {
        fill: url(#linear-gradient-4);
      }

      .cls-60 {
        opacity: 0.43;
      }

      .cls-61 {
        fill: url(#linear-gradient-5);
      }

      .cls-62 {
        fill: url(#linear-gradient-6);
      }

      .cls-63 {
        fill: url(#linear-gradient-7);
      }

      .cls-64 {
        opacity: 0.7;
        fill: url(#linear-gradient-8);
      }

      .cls-65 {
        fill: url(#linear-gradient-9);
      }

      .cls-66 {
        opacity: 0.86;
      }

      .cls-67 {
        fill: url(#linear-gradient-10);
      }

      .cls-68 {
        fill: url(#linear-gradient-11);
      }

      .cls-69 {
        fill: url(#linear-gradient-12);
      }

      .cls-70 {
        fill: url(#linear-gradient-13);
      }

      .cls-71 {
        opacity: 0.65;
      }

      .cls-100, .cls-72, .cls-99 {
        opacity: 0.4;
      }

      .cls-73 {
        fill: url(#linear-gradient-14);
      }

      .cls-75, .cls-81, .cls-82 {
        opacity: 0.3;
      }

      .cls-76 {
        fill: url(#linear-gradient-15);
      }

      .cls-77 {
        fill: url(#linear-gradient-16);
      }

      .cls-78 {
        fill: url(#linear-gradient-17);
      }

      .cls-79 {
        opacity: 0.47;
      }

      .cls-80 {
        fill: url(#linear-gradient-18);
      }

      .cls-81 {
        fill: url(#linear-gradient-19);
      }

      .cls-82 {
        fill: url(#linear-gradient-20);
      }

      .cls-83 {
        fill: url(#linear-gradient-21);
      }

      .cls-84 {
        fill: url(#linear-gradient-22);
      }

      .cls-85 {
        fill: url(#linear-gradient-23);
      }

      .cls-86 {
        fill: url(#linear-gradient-24);
      }

      .cls-87 {
        fill: url(#linear-gradient-25);
      }

      .cls-88 {
        fill: url(#linear-gradient-26);
      }

      .cls-89 {
        fill: url(#linear-gradient-27);
      }

      .cls-90 {
        fill: url(#linear-gradient-28);
      }

      .cls-91 {
        fill: url(#linear-gradient-29);
      }

      .cls-92 {
        fill: url(#linear-gradient-30);
      }

      .cls-93 {
        fill: url(#linear-gradient-31);
      }

      .cls-94 {
        fill: url(#linear-gradient-32);
      }

      .cls-95 {
        fill: url(#linear-gradient-33);
      }

      .cls-96 {
        fill: url(#linear-gradient-34);
      }

      .cls-97 {
        fill: url(#linear-gradient-35);
      }

      .cls-98 {
        fill: url(#linear-gradient-36);
      }

      .cls-99 {
        fill: url(#linear-gradient-37);
      }

      .cls-100 {
        fill: url(#linear-gradient-38);
      }

      .cls-101 {
        filter: url(#luminosity-noclip-13);
      }

      .cls-102 {
        filter: url(#luminosity-noclip-12);
      }

      .cls-103 {
        filter: url(#luminosity-noclip-11);
      }

      .cls-104 {
        filter: url(#luminosity-noclip-10);
      }

      .cls-105 {
        filter: url(#luminosity-noclip-9);
      }

      .cls-106 {
        filter: url(#luminosity-noclip-8);
      }

      .cls-107 {
        filter: url(#luminosity-noclip-7);
      }

      .cls-108 {
        filter: url(#luminosity-noclip-6);
      }

      .cls-109 {
        filter: url(#luminosity-noclip-5);
      }

      .cls-110 {
        filter: url(#luminosity-noclip-4);
      }

      .cls-111 {
        filter: url(#luminosity-noclip-3);
      }

      .cls-112 {
        filter: url(#luminosity-noclip-2);
      }

      .cls-113 {
        filter: url(#luminosity-noclip);
      }
    </style>
    <filter id="luminosity-noclip" x="498.47" y="-8458.26" width="75.2" height="32766" filterUnits="userSpaceOnUse" color-interpolation-filters="sRGB">
      <feFlood flood-color="#fff" result="bg"/>
      <feBlend in="SourceGraphic" in2="bg"/>
    </filter>
    <mask id="mask" x="498.47" y="-8458.26" width="75.2" height="32766" maskUnits="userSpaceOnUse">
      <g class="cls-113"/>
    </mask>
    <radialGradient id="radial-gradient" cx="539.25" cy="394.89" r="37.63" gradientTransform="translate(-2.69 -5.38)" gradientUnits="userSpaceOnUse">
      <stop offset="0.19" stop-color="#fff"/>
      <stop offset="0.8"/>
    </radialGradient>
    <filter id="luminosity-noclip-2" x="231.49" y="-8458.26" width="4.85" height="32766" filterUnits="userSpaceOnUse" color-interpolation-filters="sRGB">
      <feFlood flood-color="#fff" result="bg"/>
      <feBlend in="SourceGraphic" in2="bg"/>
    </filter>
    <mask id="mask-2" x="231.49" y="-8458.26" width="4.85" height="32766" maskUnits="userSpaceOnUse">
      <g class="cls-112"/>
    </mask>
    <radialGradient id="radial-gradient-2" cx="230.03" cy="399.02" r="2.42" gradientTransform="translate(3.44 -0.92)" xlink:href="#radial-gradient"/>
    <filter id="luminosity-noclip-3" x="43.23" y="-8458.26" width="4.85" height="32766" filterUnits="userSpaceOnUse" color-interpolation-filters="sRGB">
      <feFlood flood-color="#fff" result="bg"/>
      <feBlend in="SourceGraphic" in2="bg"/>
    </filter>
    <mask id="mask-3" x="43.23" y="-8458.26" width="4.85" height="32766" maskUnits="userSpaceOnUse">
      <g class="cls-111"/>
    </mask>
    <radialGradient id="radial-gradient-3" cx="42.13" cy="239.71" r="2.42" gradientTransform="translate(3.44 -0.92)" xlink:href="#radial-gradient"/>
    <filter id="luminosity-noclip-4" x="506.05" y="-8458.26" width="103.65" height="32766" filterUnits="userSpaceOnUse" color-interpolation-filters="sRGB">
      <feFlood flood-color="#fff" result="bg"/>
      <feBlend in="SourceGraphic" in2="bg"/>
    </filter>
    <mask id="mask-4" x="506.05" y="-8458.26" width="103.65" height="32766" maskUnits="userSpaceOnUse">
      <g class="cls-110"/>
    </mask>
    <radialGradient id="radial-gradient-4" cx="561.07" cy="223.24" r="51.87" xlink:href="#radial-gradient"/>
    <filter id="luminosity-noclip-5" x="580.07" y="-8458.26" width="86.49" height="32766" filterUnits="userSpaceOnUse" color-interpolation-filters="sRGB">
      <feFlood flood-color="#fff" result="bg"/>
      <feBlend in="SourceGraphic" in2="bg"/>
    </filter>
    <mask id="mask-5" x="580.07" y="-8458.26" width="86.49" height="32766" maskUnits="userSpaceOnUse">
      <g class="cls-109"/>
    </mask>
    <radialGradient id="radial-gradient-5" cx="626.57" cy="314.38" r="43.28" xlink:href="#radial-gradient"/>
    <filter id="luminosity-noclip-6" x="729.74" y="-8458.26" width="42" height="32766" filterUnits="userSpaceOnUse" color-interpolation-filters="sRGB">
      <feFlood flood-color="#fff" result="bg"/>
      <feBlend in="SourceGraphic" in2="bg"/>
    </filter>
    <mask id="mask-6" x="729.74" y="-8458.26" width="42" height="32766" maskUnits="userSpaceOnUse">
      <g class="cls-108"/>
    </mask>
    <radialGradient id="radial-gradient-6" cx="754.11" cy="196.09" r="21.02" xlink:href="#radial-gradient"/>
    <filter id="luminosity-noclip-7" x="233.47" y="-8458.26" width="94.27" height="32766" filterUnits="userSpaceOnUse" color-interpolation-filters="sRGB">
      <feFlood flood-color="#fff" result="bg"/>
      <feBlend in="SourceGraphic" in2="bg"/>
    </filter>
    <mask id="mask-7" x="233.47" y="-8458.26" width="94.27" height="32766" maskUnits="userSpaceOnUse">
      <g class="cls-107"/>
    </mask>
    <radialGradient id="radial-gradient-7" cx="283.55" cy="362.31" r="47.18" xlink:href="#radial-gradient"/>
    <filter id="luminosity-noclip-8" x="540.46" y="-8458.26" width="4.85" height="32766" filterUnits="userSpaceOnUse" color-interpolation-filters="sRGB">
      <feFlood flood-color="#fff" result="bg"/>
      <feBlend in="SourceGraphic" in2="bg"/>
    </filter>
    <mask id="mask-8" x="540.46" y="-8458.26" width="4.85" height="32766" maskUnits="userSpaceOnUse">
      <g class="cls-106"/>
    </mask>
    <radialGradient id="radial-gradient-8" cx="538.42" cy="319.14" r="2.42" gradientTransform="translate(3.44 -0.92)" xlink:href="#radial-gradient"/>
    <filter id="luminosity-noclip-9" x="729.74" y="-8458.26" width="4.85" height="32766" filterUnits="userSpaceOnUse" color-interpolation-filters="sRGB">
      <feFlood flood-color="#fff" result="bg"/>
      <feBlend in="SourceGraphic" in2="bg"/>
    </filter>
    <mask id="mask-9" x="729.74" y="-8458.26" width="4.85" height="32766" maskUnits="userSpaceOnUse">
      <g class="cls-105"/>
    </mask>
    <radialGradient id="radial-gradient-9" cx="727.34" cy="152.68" r="2.42" gradientTransform="translate(3.44 -0.92)" xlink:href="#radial-gradient"/>
    <filter id="luminosity-noclip-10" x="629.47" y="-8458.26" width="4.85" height="32766" filterUnits="userSpaceOnUse" color-interpolation-filters="sRGB">
      <feFlood flood-color="#fff" result="bg"/>
      <feBlend in="SourceGraphic" in2="bg"/>
    </filter>
    <mask id="mask-10" x="629.47" y="-8458.26" width="4.85" height="32766" maskUnits="userSpaceOnUse">
      <g class="cls-104"/>
    </mask>
    <radialGradient id="radial-gradient-10" cx="627.26" cy="134.3" r="2.42" gradientTransform="translate(3.44 -0.92)" xlink:href="#radial-gradient"/>
    <filter id="luminosity-noclip-11" x="167.61" y="-8458.26" width="94.27" height="32766" filterUnits="userSpaceOnUse" color-interpolation-filters="sRGB">
      <feFlood flood-color="#fff" result="bg"/>
      <feBlend in="SourceGraphic" in2="bg"/>
    </filter>
    <mask id="mask-11" x="167.61" y="-8458.26" width="94.27" height="32766" maskUnits="userSpaceOnUse">
      <g class="cls-103"/>
    </mask>
    <radialGradient id="radial-gradient-11" cx="217.63" cy="88.97" r="47.18" xlink:href="#radial-gradient"/>
    <filter id="luminosity-noclip-12" x="269.34" y="-8458.26" width="4.85" height="32766" filterUnits="userSpaceOnUse" color-interpolation-filters="sRGB">
      <feFlood flood-color="#fff" result="bg"/>
      <feBlend in="SourceGraphic" in2="bg"/>
    </filter>
    <mask id="mask-12" x="269.34" y="-8458.26" width="4.85" height="32766" maskUnits="userSpaceOnUse">
      <g class="cls-102"/>
    </mask>
    <radialGradient id="radial-gradient-12" cx="267.82" cy="66.11" r="2.42" gradientTransform="translate(3.44 -0.92)" xlink:href="#radial-gradient"/>
    <filter id="luminosity-noclip-13" x="495.45" y="-8458.26" width="4.85" height="32766" filterUnits="userSpaceOnUse" color-interpolation-filters="sRGB">
      <feFlood flood-color="#fff" result="bg"/>
      <feBlend in="SourceGraphic" in2="bg"/>
    </filter>
    <mask id="mask-13" x="495.45" y="-8458.26" width="4.85" height="32766" maskUnits="userSpaceOnUse">
      <g class="cls-101"/>
    </mask>
    <radialGradient id="radial-gradient-13" cx="493.5" cy="99.81" r="2.42" gradientTransform="translate(3.44 -0.92)" xlink:href="#radial-gradient"/>
    <filter id="luminosity-noclip-14" x="498.47" y="350.8" width="75.2" height="75.04" filterUnits="userSpaceOnUse" color-interpolation-filters="sRGB">
      <feFlood flood-color="#fff" result="bg"/>
      <feBlend in="SourceGraphic" in2="bg"/>
    </filter>
    <mask id="mask-14" x="498.47" y="350.8" width="75.2" height="75.04" maskUnits="userSpaceOnUse">
      <g class="cls-1">
        <ellipse class="cls-2" cx="536.07" cy="388.32" rx="37.6" ry="37.52"/>
      </g>
    </mask>
    <radialGradient id="radial-gradient-14" cx="539.25" cy="394.89" r="37.63" gradientTransform="translate(-2.69 -5.38)" gradientUnits="userSpaceOnUse">
      <stop offset="0.19" stop-color="#60ffff"/>
      <stop offset="0.8" stop-color="#49dccc"/>
    </radialGradient>
    <filter id="luminosity-noclip-15" x="233.47" y="308.8" width="94.27" height="94.08" filterUnits="userSpaceOnUse" color-interpolation-filters="sRGB">
      <feFlood flood-color="#fff" result="bg"/>
      <feBlend in="SourceGraphic" in2="bg"/>
    </filter>
    <mask id="mask-15" x="233.47" y="308.8" width="94.27" height="94.08" maskUnits="userSpaceOnUse">
      <g class="cls-13">
        <ellipse class="cls-14" cx="280.6" cy="355.84" rx="47.14" ry="47.04"/>
      </g>
    </mask>
    <radialGradient id="radial-gradient-15" cx="283.55" cy="362.31" r="47.18" xlink:href="#radial-gradient-14"/>
    <filter id="luminosity-noclip-16" x="167.61" y="36.29" width="94.27" height="94.08" filterUnits="userSpaceOnUse" color-interpolation-filters="sRGB">
      <feFlood flood-color="#fff" result="bg"/>
      <feBlend in="SourceGraphic" in2="bg"/>
    </filter>
    <mask id="mask-16" x="167.61" y="36.29" width="94.27" height="94.08" maskUnits="userSpaceOnUse">
      <g class="cls-21">
        <ellipse class="cls-22" cx="214.74" cy="83.33" rx="47.14" ry="47.04"/>
      </g>
    </mask>
    <radialGradient id="radial-gradient-16" cx="217.63" cy="88.97" r="47.18" xlink:href="#radial-gradient-14"/>
    <filter id="luminosity-noclip-17" x="269.34" y="62.76" width="4.85" height="4.84" filterUnits="userSpaceOnUse" color-interpolation-filters="sRGB">
      <feFlood flood-color="#fff" result="bg"/>
      <feBlend in="SourceGraphic" in2="bg"/>
    </filter>
    <mask id="mask-17" x="269.34" y="62.76" width="4.85" height="4.84" maskUnits="userSpaceOnUse">
      <g class="cls-23">
        <path class="cls-24" d="M274.2,65.18a2.43,2.43,0,1,1-2.43-2.42A2.43,2.43,0,0,1,274.2,65.18Z"/>
      </g>
    </mask>
    <radialGradient id="radial-gradient-17" cx="267.82" cy="66.11" r="2.42" gradientTransform="translate(3.44 -0.92)" xlink:href="#radial-gradient-14"/>
    <filter id="luminosity-noclip-18" x="495.45" y="96.45" width="4.85" height="4.84" filterUnits="userSpaceOnUse" color-interpolation-filters="sRGB">
      <feFlood flood-color="#fff" result="bg"/>
      <feBlend in="SourceGraphic" in2="bg"/>
    </filter>
    <mask id="mask-18" x="495.45" y="96.45" width="4.85" height="4.84" maskUnits="userSpaceOnUse">
      <g class="cls-25">
        <path class="cls-26" d="M500.31,98.87a2.43,2.43,0,1,1-2.43-2.42A2.42,2.42,0,0,1,500.31,98.87Z"/>
      </g>
    </mask>
    <radialGradient id="radial-gradient-18" cx="493.5" cy="99.81" r="2.42" gradientTransform="translate(3.44 -0.92)" xlink:href="#radial-gradient-14"/>
    <filter id="luminosity-noclip-19" x="231.49" y="395.61" width="4.85" height="4.84" filterUnits="userSpaceOnUse" color-interpolation-filters="sRGB">
      <feFlood flood-color="#fff" result="bg"/>
      <feBlend in="SourceGraphic" in2="bg"/>
    </filter>
    <mask id="mask-19" x="231.49" y="395.61" width="4.85" height="4.84" maskUnits="userSpaceOnUse">
      <g class="cls-3">
        <path class="cls-4" d="M236.34,398a2.43,2.43,0,1,1-2.43-2.42A2.42,2.42,0,0,1,236.34,398Z"/>
      </g>
    </mask>
    <radialGradient id="radial-gradient-19" cx="230.03" cy="399.02" r="2.42" gradientTransform="translate(3.44 -0.92)" xlink:href="#radial-gradient-14"/>
    <filter id="luminosity-noclip-20" x="43.23" y="236.33" width="4.85" height="4.84" filterUnits="userSpaceOnUse" color-interpolation-filters="sRGB">
      <feFlood flood-color="#fff" result="bg"/>
      <feBlend in="SourceGraphic" in2="bg"/>
    </filter>
    <mask id="mask-20" x="43.23" y="236.33" width="4.85" height="4.84" maskUnits="userSpaceOnUse">
      <g class="cls-5">
        <path class="cls-6" d="M48.08,238.75a2.43,2.43,0,1,1-2.42-2.42A2.42,2.42,0,0,1,48.08,238.75Z"/>
      </g>
    </mask>
    <radialGradient id="radial-gradient-20" cx="42.13" cy="239.71" r="2.42" gradientTransform="translate(3.44 -0.92)" xlink:href="#radial-gradient-14"/>
    <filter id="luminosity-noclip-21" x="506.05" y="165.48" width="103.65" height="103.43" filterUnits="userSpaceOnUse" color-interpolation-filters="sRGB">
      <feFlood flood-color="#fff" result="bg"/>
      <feBlend in="SourceGraphic" in2="bg"/>
    </filter>
    <mask id="mask-21" x="506.05" y="165.48" width="103.65" height="103.43" maskUnits="userSpaceOnUse">
      <g class="cls-7">
        <ellipse class="cls-8" cx="557.88" cy="217.19" rx="51.82" ry="51.72"/>
      </g>
    </mask>
    <radialGradient id="radial-gradient-21" cx="561.07" cy="223.24" r="51.87" xlink:href="#radial-gradient-14"/>
    <filter id="luminosity-noclip-22" x="580.07" y="264.9" width="86.49" height="86.31" filterUnits="userSpaceOnUse" color-interpolation-filters="sRGB">
      <feFlood flood-color="#fff" result="bg"/>
      <feBlend in="SourceGraphic" in2="bg"/>
    </filter>
    <mask id="mask-22" x="580.07" y="264.9" width="86.49" height="86.31" maskUnits="userSpaceOnUse">
      <g class="cls-9">
        <ellipse class="cls-10" cx="623.31" cy="308.05" rx="43.24" ry="43.15"/>
      </g>
    </mask>
    <radialGradient id="radial-gradient-22" cx="626.57" cy="314.38" r="43.28" xlink:href="#radial-gradient-14"/>
    <filter id="luminosity-noclip-23" x="729.74" y="169.17" width="42" height="41.91" filterUnits="userSpaceOnUse" color-interpolation-filters="sRGB">
      <feFlood flood-color="#fff" result="bg"/>
      <feBlend in="SourceGraphic" in2="bg"/>
    </filter>
    <mask id="mask-23" x="729.74" y="169.17" width="42" height="41.91" maskUnits="userSpaceOnUse">
      <g class="cls-11">
        <ellipse class="cls-12" cx="750.74" cy="190.12" rx="21" ry="20.96"/>
      </g>
    </mask>
    <radialGradient id="radial-gradient-23" cx="754.11" cy="196.09" r="21.02" xlink:href="#radial-gradient-14"/>
    <filter id="luminosity-noclip-24" x="540.46" y="315.74" width="4.85" height="4.84" filterUnits="userSpaceOnUse" color-interpolation-filters="sRGB">
      <feFlood flood-color="#fff" result="bg"/>
      <feBlend in="SourceGraphic" in2="bg"/>
    </filter>
    <mask id="mask-24" x="540.46" y="315.74" width="4.85" height="4.84" maskUnits="userSpaceOnUse">
      <g class="cls-15">
        <path class="cls-16" d="M545.32,318.16a2.43,2.43,0,1,1-2.43-2.42A2.42,2.42,0,0,1,545.32,318.16Z"/>
      </g>
    </mask>
    <radialGradient id="radial-gradient-24" cx="538.42" cy="319.14" r="2.42" gradientTransform="translate(3.44 -0.92)" xlink:href="#radial-gradient-14"/>
    <filter id="luminosity-noclip-25" x="729.74" y="149.31" width="4.85" height="4.84" filterUnits="userSpaceOnUse" color-interpolation-filters="sRGB">
      <feFlood flood-color="#fff" result="bg"/>
      <feBlend in="SourceGraphic" in2="bg"/>
    </filter>
    <mask id="mask-25" x="729.74" y="149.31" width="4.85" height="4.84" maskUnits="userSpaceOnUse">
      <g class="cls-17">
        <path class="cls-18" d="M734.59,151.73a2.43,2.43,0,1,1-2.42-2.42A2.42,2.42,0,0,1,734.59,151.73Z"/>
      </g>
    </mask>
    <radialGradient id="radial-gradient-25" cx="727.34" cy="152.68" r="2.42" gradientTransform="translate(3.44 -0.92)" xlink:href="#radial-gradient-14"/>
    <filter id="luminosity-noclip-26" x="629.47" y="130.93" width="4.85" height="4.84" filterUnits="userSpaceOnUse" color-interpolation-filters="sRGB">
      <feFlood flood-color="#fff" result="bg"/>
      <feBlend in="SourceGraphic" in2="bg"/>
    </filter>
    <mask id="mask-26" x="629.47" y="130.93" width="4.85" height="4.84" maskUnits="userSpaceOnUse">
      <g class="cls-19">
        <path class="cls-20" d="M634.33,133.35a2.43,2.43,0,1,1-2.43-2.42A2.43,2.43,0,0,1,634.33,133.35Z"/>
      </g>
    </mask>
    <radialGradient id="radial-gradient-26" cx="627.26" cy="134.3" r="2.42" gradientTransform="translate(3.44 -0.92)" xlink:href="#radial-gradient-14"/>
    <linearGradient id="linear-gradient" x1="274.87" y1="-30.47" x2="498.68" y2="603.91" gradientUnits="userSpaceOnUse">
      <stop offset="0" stop-color="#b37cff"/>
      <stop offset="1" stop-color="#f895e7"/>
    </linearGradient>
    <linearGradient id="linear-gradient-2" x1="283.07" y1="10.53" x2="489.55" y2="595.77" xlink:href="#linear-gradient"/>
    <linearGradient id="linear-gradient-3" x1="3299.17" y1="7232.7" x2="3358.42" y2="7232.7" gradientTransform="matrix(-0.5, 0.86, 0.69, 0.4, -3220.94, -5339.15)" gradientUnits="userSpaceOnUse">
      <stop offset="0" stop-color="#a737d5"/>
      <stop offset="1" stop-color="#ef497a"/>
    </linearGradient>
    <linearGradient id="linear-gradient-4" x1="-2744.28" y1="635.3" x2="-2808.03" y2="798.31" gradientTransform="matrix(-0.97, 0.23, 0.23, 0.97, -2778.74, 253.38)" gradientUnits="userSpaceOnUse">
      <stop offset="0" stop-color="#53d8ff"/>
      <stop offset="1" stop-color="#3840f7"/>
    </linearGradient>
    <linearGradient id="linear-gradient-5" x1="4784.27" y1="4036.25" x2="4843.52" y2="4036.25" gradientTransform="matrix(0.5, 0.86, -0.69, 0.4, 1033.27, -5339.15)" xlink:href="#linear-gradient-3"/>
    <linearGradient id="linear-gradient-6" x1="128.86" y1="-58.08" x2="65.11" y2="104.93" gradientTransform="matrix(0.97, 0.23, -0.23, 0.97, 591.08, 253.38)" xlink:href="#linear-gradient-4"/>
    <linearGradient id="linear-gradient-7" x1="659.52" y1="172.76" x2="439.93" y2="450.24" gradientTransform="matrix(1.02, -0.11, 0.25, 0.85, -101.34, 36.48)" gradientUnits="userSpaceOnUse">
      <stop offset="0" stop-color="#cb236d"/>
      <stop offset="1" stop-color="#4c246d"/>
    </linearGradient>
    <linearGradient id="linear-gradient-8" x1="-307.92" y1="449.68" x2="-523.56" y2="722.16" gradientTransform="translate(600.68 -500.54) rotate(-24.34)" xlink:href="#linear-gradient-4"/>
    <linearGradient id="linear-gradient-9" x1="1689.75" y1="-2838.76" x2="1893.99" y2="-2838.76" gradientTransform="matrix(-1, 0.01, 0.01, 1, 2028.47, 3056.4)" xlink:href="#linear-gradient-4"/>
    <linearGradient id="linear-gradient-10" x1="1232.08" y1="-3770.22" x2="1453.49" y2="-3770.22" gradientTransform="matrix(-0.9, -0.45, -0.45, 0.9, -184.46, 4157.96)" xlink:href="#linear-gradient-3"/>
    <linearGradient id="linear-gradient-11" x1="375.28" y1="532.05" x2="369.88" y2="425.25" gradientUnits="userSpaceOnUse">
      <stop offset="0" stop-color="#2b3582"/>
      <stop offset="1" stop-color="#150e42"/>
    </linearGradient>
    <linearGradient id="linear-gradient-12" x1="112.17" y1="291.06" x2="610.53" y2="291.06" xlink:href="#linear-gradient-11"/>
    <linearGradient id="linear-gradient-13" x1="250.05" y1="371.96" x2="707.42" y2="-9.19" gradientUnits="userSpaceOnUse">
      <stop offset="0" stop-color="#fdf53f"/>
      <stop offset="1" stop-color="#d93c65"/>
    </linearGradient>
    <linearGradient id="linear-gradient-14" x1="375.61" y1="491.75" x2="325.99" y2="600.71" xlink:href="#linear-gradient-11"/>
    <linearGradient id="linear-gradient-15" x1="454.21" y1="123.66" x2="403.14" y2="249.59" gradientTransform="translate(89.77 184.22) rotate(13.2)" xlink:href="#linear-gradient-7"/>
    <linearGradient id="linear-gradient-16" x1="451.84" y1="70.09" x2="401.65" y2="213.63" gradientTransform="translate(89.77 184.22) rotate(13.2)" gradientUnits="userSpaceOnUse">
      <stop offset="0" stop-color="#a737d5"/>
      <stop offset="0.87" stop-color="#e54786"/>
      <stop offset="1" stop-color="#ef497a"/>
    </linearGradient>
    <linearGradient id="linear-gradient-17" x1="486.83" y1="136.89" x2="435.76" y2="262.82" gradientTransform="translate(89.77 184.22) rotate(13.2)" xlink:href="#linear-gradient-7"/>
    <linearGradient id="linear-gradient-18" x1="269.66" y1="273.33" x2="455.71" y2="273.33" xlink:href="#linear-gradient-11"/>
    <linearGradient id="linear-gradient-19" x1="289.93" y1="255.23" x2="340.31" y2="255.23" gradientUnits="userSpaceOnUse">
      <stop offset="0" stop-color="#5ab6ff"/>
      <stop offset="1" stop-color="#2f68e3"/>
    </linearGradient>
    <linearGradient id="linear-gradient-20" x1="386.96" y1="255.23" x2="437.34" y2="255.23" xlink:href="#linear-gradient-19"/>
    <linearGradient id="linear-gradient-21" x1="371.21" y1="293.14" x2="481.1" y2="156.51" gradientUnits="userSpaceOnUse">
      <stop offset="0" stop-color="#fdf53f"/>
      <stop offset="0.66" stop-color="#e57a58"/>
      <stop offset="1" stop-color="#d93c65"/>
    </linearGradient>
    <linearGradient id="linear-gradient-22" x1="383.45" y1="302.99" x2="493.35" y2="166.37" gradientUnits="userSpaceOnUse">
      <stop offset="0" stop-color="#50e7b7"/>
      <stop offset="1" stop-color="#323992"/>
    </linearGradient>
    <linearGradient id="linear-gradient-23" x1="-457" y1="873.9" x2="-463.6" y2="897.66" gradientTransform="translate(1421.67 745.85) rotate(90)" xlink:href="#linear-gradient-21"/>
    <linearGradient id="linear-gradient-24" x1="-493.67" y1="1025.09" x2="-383.78" y2="888.47" gradientTransform="translate(1421.67 745.85) rotate(90)" xlink:href="#linear-gradient-4"/>
    <linearGradient id="linear-gradient-25" x1="324.64" y1="235.49" x2="290.62" y2="294.47" xlink:href="#linear-gradient-11"/>
    <linearGradient id="linear-gradient-26" x1="356.92" y1="242.72" x2="349.31" y2="255.93" gradientUnits="userSpaceOnUse">
      <stop offset="0" stop-color="#2c759e"/>
      <stop offset="1" stop-color="#051042"/>
    </linearGradient>
    <linearGradient id="linear-gradient-27" x1="373.46" y1="242.72" x2="365.85" y2="255.93" xlink:href="#linear-gradient-26"/>
    <linearGradient id="linear-gradient-28" x1="366.21" y1="2037.11" x2="370.93" y2="1990.54" gradientTransform="matrix(0.03, -1, 1, 0.03, -1511.64, 422.91)" xlink:href="#linear-gradient-13"/>
    <linearGradient id="linear-gradient-29" x1="325.94" y1="2010.39" x2="343.83" y2="1973.95" gradientTransform="matrix(0.03, -1, 1, 0.03, -1511.64, 422.91)" xlink:href="#linear-gradient-13"/>
    <linearGradient id="linear-gradient-30" x1="419.37" y1="2012.09" x2="391.54" y2="1965.02" gradientTransform="matrix(0.03, -1, 1, 0.03, -1511.64, 422.91)" xlink:href="#linear-gradient-13"/>
    <linearGradient id="linear-gradient-31" x1="2252.89" y1="1725.91" x2="2273.71" y2="1935.57" gradientTransform="translate(-2386.63 487.91) rotate(-45.42)" xlink:href="#linear-gradient-11"/>
    <linearGradient id="linear-gradient-32" x1="384.33" y1="1880.03" x2="346.54" y2="1934.7" gradientTransform="matrix(0.03, -1, 1, 0.03, -1511.64, 422.91)" xlink:href="#linear-gradient-13"/>
    <linearGradient id="linear-gradient-33" x1="2072.87" y1="1840.08" x2="2102.17" y2="1840.08" gradientTransform="translate(-2333.07 474.03) rotate(-48.94)" xlink:href="#linear-gradient-4"/>
    <linearGradient id="linear-gradient-34" x1="358.76" y1="1926.71" x2="382.76" y2="1926.71" gradientTransform="matrix(0.03, -1, 1, 0.03, -1511.64, 422.91)" xlink:href="#linear-gradient-11"/>
    <linearGradient id="linear-gradient-35" x1="2095.74" y1="1861.87" x2="2115.1" y2="1861.87" gradientTransform="translate(-2333.07 474.03) rotate(-48.94)" xlink:href="#linear-gradient-4"/>
    <linearGradient id="linear-gradient-36" x1="362.69" y1="1955.04" x2="378.55" y2="1955.04" gradientTransform="matrix(0.03, -1, 1, 0.03, -1511.64, 422.91)" xlink:href="#linear-gradient-11"/>
    <linearGradient id="linear-gradient-37" x1="808.25" y1="436.02" x2="869.19" y2="436.02" gradientTransform="matrix(0.97, -0.25, 0.25, 0.97, -671.87, -145.5)" xlink:href="#linear-gradient-4"/>
    <linearGradient id="linear-gradient-38" x1="-4845.92" y1="-2141.52" x2="-4764.32" y2="-2124.87" gradientTransform="matrix(0.99, -0.1, 0.1, 0.99, 5318.68, 1718.41)" xlink:href="#linear-gradient-4"/>
  </defs>
  <g class="cls-27">
    <g id="Layer_1" data-name="Layer 1">
      <g class="cls-28">
        <ellipse class="cls-29" cx="536.07" cy="388.32" rx="37.6" ry="37.52"/>
      </g>
      <g class="cls-30">
        <ellipse class="cls-31" cx="280.6" cy="355.84" rx="47.14" ry="47.04"/>
      </g>
      <g class="cls-32">
        <ellipse class="cls-33" cx="214.74" cy="83.33" rx="47.14" ry="47.04"/>
      </g>
      <g class="cls-34">
        <path class="cls-35" d="M274.2,65.18a2.43,2.43,0,1,1-2.43-2.42A2.43,2.43,0,0,1,274.2,65.18Z"/>
      </g>
      <g class="cls-36">
        <path class="cls-37" d="M500.31,98.87a2.43,2.43,0,1,1-2.43-2.42A2.42,2.42,0,0,1,500.31,98.87Z"/>
      </g>
      <g class="cls-38">
        <path class="cls-39" d="M236.34,398a2.43,2.43,0,1,1-2.43-2.42A2.42,2.42,0,0,1,236.34,398Z"/>
      </g>
      <g class="cls-40">
        <path class="cls-41" d="M48.08,238.75a2.43,2.43,0,1,1-2.42-2.42A2.42,2.42,0,0,1,48.08,238.75Z"/>
      </g>
      <g class="cls-42">
        <ellipse class="cls-43" cx="557.88" cy="217.19" rx="51.82" ry="51.72"/>
      </g>
      <g class="cls-44">
        <ellipse class="cls-45" cx="623.31" cy="308.05" rx="43.24" ry="43.15"/>
      </g>
      <g class="cls-46">
        <ellipse class="cls-47" cx="750.74" cy="190.12" rx="21" ry="20.96"/>
      </g>
      <g class="cls-48">
        <path class="cls-49" d="M545.32,318.16a2.43,2.43,0,1,1-2.43-2.42A2.42,2.42,0,0,1,545.32,318.16Z"/>
      </g>
      <g class="cls-50">
        <path class="cls-51" d="M734.59,151.73a2.43,2.43,0,1,1-2.42-2.42A2.42,2.42,0,0,1,734.59,151.73Z"/>
      </g>
      <g class="cls-52">
        <path class="cls-53" d="M634.33,133.35a2.43,2.43,0,1,1-2.43-2.42A2.43,2.43,0,0,1,634.33,133.35Z"/>
      </g>
      <g>
        <g>
          <path class="cls-54" d="M740.05,129c-19-36.87-60.69-64.59-101.28-56.09C614.47,78,590.31,95.12,567,86.54c-16.8-6.18-26.28-23.71-40.39-34.71C504.89,34.9,474,35.09,447.56,42.68s-50.72,21.54-76.89,30.16a202.91,202.91,0,0,1-137.91-4.42c-19.12-7.69-37-18.31-56.48-25.08S134.74,33.93,116,42.4,83.68,73,90.2,92.58c1.3,3.9,3.34,7.74,3.07,11.84-.42,6.58-6.77,11.39-13.2,12.85s-13.12.51-19.71.68c-29.56.75-56,27.72-56.12,57.29-.12,24.52,15,46.07,27.94,66.91S56.73,288,49,311.26c-4.57,13.81-15.29,24.61-22.3,37.34-18.2,33-8.48,76.73,16.94,104.57s63.46,41.48,101,44.72S219.92,495,257.13,489s74.91-12,112.46-8.56l-2-1.1a612.45,612.45,0,0,0,225,12.76c15.68-2,33.69-6.41,40.32-20.77,5.59-12.12.57-26.33,1.72-39.63,1.66-19.17,16-34.88,31.73-46s33.48-19.44,47.62-32.5c27.64-25.55,37-65.1,41.15-102.51C759.63,209.48,759,165.89,740.05,129Z"/>
          <path class="cls-55" d="M712.22,157.67c-17.52-34-56-59.59-93.43-51.74-22.42,4.7-44.7,20.46-66.2,12.55-15.5-5.71-24.24-21.88-37.27-32-20-15.62-48.5-15.44-72.93-8.44s-46.79,19.87-70.93,27.83a187.29,187.29,0,0,1-127.23-4.08c-17.63-7.1-34.15-16.9-52.1-23.14s-38.33-8.68-55.66-.87S106.7,106,112.71,124c1.2,3.6,3.09,7.14,2.84,10.93-.39,6.06-6.25,10.51-12.18,11.86s-12.11.47-18.18.62c-27.28.69-51.65,25.57-51.78,52.85C33.3,222.92,47.26,242.8,59.19,262s22.64,42.28,15.54,63.76c-4.21,12.74-14.1,22.7-20.57,34.45C37.37,390.7,46.34,431,69.78,456.71S128.33,495,163,498s69.4-2.63,103.74-8.18,69.1-11.07,103.74-7.89l-1.86-1a565.08,565.08,0,0,0,207.55,11.77c14.47-1.88,31.08-5.91,37.2-19.16,5.16-11.18.52-24.29,1.59-36.57,1.53-17.68,14.8-32.17,29.27-42.45s30.89-17.94,43.92-30c25.51-23.57,34.16-60.05,38-94.57C730.29,231.89,729.74,191.68,712.22,157.67Z"/>
        </g>
        <g class="cls-56">
          <path class="cls-57" d="M183.36,494.16s-4.2-26-32.73-43.06c-26.47-15.85-91-51.27-108.51-77.8-.77-1.18-2.66,0-2.46,1.5,2.14,16.4,10.56,56.35,42.87,87C124.21,501.31,183.36,494.16,183.36,494.16Z"/>
          <path class="cls-58" d="M55.28,399.12s.19.58.61,1.64,1.09,2.59,2,4.49c.46,1,1,2,1.64,3.11s1.35,2.29,2.11,3.55,1.7,2.53,2.59,3.92,2,2.73,3.07,4.2,2.33,2.86,3.59,4.36,2.66,2.94,4.12,4.41L77.31,431c.78.73,1.49,1.53,2.34,2.23,1.65,1.41,3.26,2.94,5,4.34s3.57,2.82,5.46,4.18,3.83,2.68,5.81,4l6.13,3.71c2.07,1.2,4.22,2.38,6.34,3.57,4.25,2.36,8.53,4.63,12.77,6.86s8.44,4.35,12.52,6.39l11.77,5.9c3.74,1.88,7.29,3.64,10.53,5.36s6.17,3.41,8.72,5c1.27.78,2.42,1.59,3.5,2.3s2,1.48,2.87,2.12a37.1,37.1,0,0,1,3.71,3.37l1.23,1.27a.38.38,0,0,1,0,.53.37.37,0,0,1-.5,0l0,0-1.28-1.16a42.61,42.61,0,0,0-3.82-3.06c-.88-.58-1.83-1.25-2.9-1.94s-2.26-1.38-3.56-2.09c-2.57-1.44-5.54-2.94-8.82-4.54-6.53-3.21-14.31-6.71-22.58-10.63-4.12-2-8.36-4.09-12.64-6.27s-8.6-4.51-12.88-6.85c-2.13-1.2-4.25-2.36-6.38-3.59l-6.22-3.85c-2-1.36-4-2.78-5.9-4.15S84.84,441,83,439.54s-3.39-3.07-5-4.56-3.07-3.15-4.54-4.67-2.71-3.18-4-4.68S67.08,422.51,66,421s-2-3-2.93-4.4l-1.25-2.11c-.41-.68-.79-1.35-1.13-2-.68-1.33-1.36-2.55-1.88-3.74s-1-2.25-1.44-3.25a43.83,43.83,0,0,1-1.69-4.67c-.33-1.1-.46-1.69-.46-1.69a0,0,0,0,1,0-.06A0,0,0,0,1,55.28,399.12Z"/>
        </g>
        <g>
          <path class="cls-59" d="M78.62,222a2.39,2.39,0,0,1,4.56-.85C93.11,243,121,299.62,154.6,326.76,209.38,371,253.39,449.6,230,497.43,230,497.43,62.39,492.47,78.62,222Z"/>
          <path class="cls-60" d="M88.93,253.79l.2.7.66,2c.6,1.76,1.52,4.34,2.72,7.61s2.7,7.23,4.48,11.74,3.84,9.58,6.09,15.11,4.79,11.48,7.56,17.73,5.77,12.81,8.91,19.57,6.52,13.7,10.08,20.68c.88,1.74,1.77,3.5,2.67,5.25s1.83,3.5,2.75,5.25c1.82,3.52,3.75,7,5.65,10.5s3.9,6.92,5.82,10.39,4,6.83,6,10.21,4,6.68,6.07,9.92,4,6.46,6.14,9.55c4.1,6.22,8.21,12.13,12.21,17.67s7.95,10.65,11.66,15.31q2.85,3.45,5.46,6.59c1.75,2.07,3.47,4,5.06,5.82L201.4,458l2.24,2.38,4,4.19c2.43,2.49,4.42,4.37,5.74,5.69l2,2h0a.38.38,0,0,1,0,.53.38.38,0,0,1-.52,0l-2.09-2c-1.36-1.29-3.4-3.12-5.91-5.55l-4.07-4.12-2.31-2.33-2.4-2.59c-1.63-1.8-3.42-3.68-5.22-5.73L187.29,444c-3.8-4.64-7.86-9.7-11.94-15.22s-8.27-11.42-12.42-17.65c-2.12-3.09-4.11-6.33-6.21-9.56s-4.08-6.59-6.15-9.93l-6-10.22c-2-3.47-3.93-6.93-5.82-10.44s-3.81-7-5.62-10.56l-2.75-5.27-2.65-5.29c-3.54-7-6.85-14-10-20.77s-6-13.41-8.71-19.72-5.13-12.31-7.36-17.86c-4.4-11.13-7.76-20.51-10-27.11-1.12-3.3-2-5.9-2.55-7.69-.28-.91-.5-1.6-.64-2.07L88.2,254a.36.36,0,0,1,.26-.45.36.36,0,0,1,.45.25Z"/>
        </g>
        <g class="cls-56">
          <path class="cls-61" d="M584.61,494.16s4.21-26,32.74-43.06c26.47-15.85,91-51.27,108.51-77.8.77-1.18,2.66,0,2.46,1.5-2.15,16.4-10.56,56.35-42.88,87C643.77,501.31,584.61,494.16,584.61,494.16Z"/>
          <path class="cls-58" d="M712.78,399.15s-.13.59-.46,1.69a43.83,43.83,0,0,1-1.69,4.67c-.39,1-.88,2.08-1.44,3.25s-1.2,2.41-1.88,3.74c-.34.67-.72,1.34-1.13,2s-.82,1.39-1.25,2.11C704,418.06,703,419.5,702,421s-2.25,3-3.47,4.6-2.58,3.11-4,4.68-2.91,3.16-4.54,4.67-3.27,3.09-5,4.56-3.58,3-5.5,4.39-3.89,2.79-5.9,4.15l-6.22,3.85c-2.13,1.23-4.25,2.39-6.38,3.59-4.28,2.34-8.59,4.67-12.88,6.85s-8.53,4.27-12.64,6.27c-8.27,3.92-16,7.42-22.58,10.63-3.28,1.6-6.25,3.1-8.83,4.54-1.29.71-2.45,1.45-3.55,2.09s-2,1.36-2.9,1.94a42.61,42.61,0,0,0-3.82,3.06l-1.28,1.16,0,0a.37.37,0,0,1-.51-.54l1.23-1.27a37.1,37.1,0,0,1,3.71-3.37c.86-.64,1.81-1.37,2.86-2.12s2.24-1.52,3.51-2.3c2.55-1.56,5.46-3.29,8.71-5s6.8-3.48,10.54-5.36l11.77-5.9c4.08-2,8.28-4.17,12.52-6.39s8.52-4.5,12.77-6.86c2.11-1.19,4.27-2.37,6.34-3.57l6.13-3.71c2-1.31,3.9-2.68,5.81-4s3.66-2.82,5.46-4.18,3.39-2.93,5-4.34c.84-.7,1.56-1.5,2.34-2.23l2.26-2.19c1.46-1.47,2.78-3,4.12-4.41s2.45-2.95,3.59-4.36,2.14-2.84,3.07-4.2,1.84-2.65,2.59-3.92,1.52-2.42,2.11-3.55,1.18-2.15,1.64-3.11c1-1.9,1.6-3.44,2-4.49s.61-1.64.61-1.64,0,0,.06,0A0,0,0,0,1,712.78,399.15Z"/>
        </g>
        <g>
          <path class="cls-62" d="M689.36,222a2.39,2.39,0,0,0-4.56-.85c-9.94,21.9-37.78,78.5-71.42,105.64C558.6,371,514.59,449.6,538,497.43,538,497.43,705.59,492.47,689.36,222Z"/>
          <path class="cls-60" d="M679.78,254l-.19.71c-.14.47-.36,1.16-.64,2.07-.56,1.79-1.43,4.39-2.55,7.69-2.28,6.6-5.64,16-10,27.11-2.23,5.55-4.66,11.56-7.36,17.86s-5.61,12.92-8.71,19.72-6.48,13.76-10,20.77c-.88,1.76-1.77,3.52-2.65,5.29s-1.83,3.51-2.75,5.27c-1.81,3.54-3.73,7-5.62,10.56s-3.87,7-5.82,10.44l-6,10.22c-2.07,3.34-4.07,6.69-6.15,9.93s-4.09,6.47-6.21,9.56c-4.15,6.23-8.3,12.17-12.42,17.65s-8.14,10.58-11.94,15.22l-5.57,6.54c-1.8,2.05-3.59,3.93-5.23,5.73l-2.39,2.59-2.31,2.33-4.07,4.12c-2.51,2.43-4.55,4.26-5.91,5.55l-2.09,2a.37.37,0,0,1-.52-.54h0l2-2c1.32-1.32,3.31-3.2,5.74-5.69l4-4.19,2.24-2.38,2.32-2.65c1.59-1.83,3.31-3.75,5.06-5.82l5.45-6.59c3.72-4.66,7.68-9.76,11.67-15.31s8.11-11.45,12.21-17.67c2.09-3.09,4.06-6.33,6.14-9.55s4-6.59,6.07-9.92,4-6.79,6-10.21,3.93-6.9,5.82-10.39,3.83-7,5.65-10.5q1.38-2.62,2.75-5.25c.9-1.75,1.78-3.51,2.67-5.25,3.56-7,6.89-13.93,10.07-20.68s6.18-13.3,8.92-19.57,5.27-12.22,7.56-17.73,4.34-10.59,6.09-15.11,3.27-8.47,4.48-11.74,2.12-5.85,2.72-7.61l.66-2,.2-.7v0a.37.37,0,0,1,.72.2Z"/>
        </g>
        <g>
          <path class="cls-63" d="M639.07,99.63c0-2-3.37-3-4.55-1.35-11.37,16.27-43,58-78.57,75.1-58,27.81-107.23,85.06-86.63,127.16C469.32,300.54,638.56,320.87,639.07,99.63Z"/>
          <path class="cls-60" d="M627.41,124.12l-.25.57c-.18.38-.45,1-.8,1.66-.7,1.42-1.76,3.47-3.16,6.06-2.82,5.17-6.93,12.51-12.24,21.09-2.66,4.28-5.59,8.89-8.78,13.71s-6.62,9.87-10.3,15c-1.85,2.56-3.72,5.16-5.68,7.75s-3.93,5.22-6,7.84-4.13,5.21-6.21,7.84-4.27,5.19-6.42,7.77c-4.37,5.13-8.83,10.17-13.39,15-2.28,2.41-4.53,4.81-6.84,7.09L544,238.91l-3.44,3.31-3.39,3.25-3.41,3.1q-1.69,1.52-3.34,3L527,254.43l-3.26,2.77-3.25,2.6c-2.13,1.69-4.16,3.36-6.21,4.84s-4,3-5.84,4.31l-5.4,3.68c-1.67,1.19-3.33,2.16-4.83,3.11l-4.13,2.6c-2.55,1.48-4.57,2.6-6,3.38l-2.1,1.18a.37.37,0,0,1-.38-.64h0l7.85-4.83,4-2.69c1.46-1,3.08-2,4.72-3.23l5.27-3.8c1.84-1.36,3.72-2.86,5.72-4.38s4-3.2,6.09-4.92l3.18-2.63,3.2-2.81,3.28-2.88,3.3-3,3.37-3.1,3.35-3.25,3.4-3.31,3.37-3.43c2.29-2.29,4.51-4.68,6.76-7.09,4.51-4.82,8.92-9.86,13.3-14.92,2.16-2.57,4.32-5.12,6.44-7.71s4.21-5.16,6.22-7.77,4-5.18,6-7.78,3.84-5.15,5.7-7.69,3.63-5.06,5.4-7.51,3.44-4.9,5-7.29c3.26-4.75,6.25-9.31,9-13.54s5.17-8.14,7.28-11.64,3.92-6.57,5.39-9.11,2.59-4.55,3.33-5.94l.82-1.55.26-.55,0-.05a.38.38,0,0,1,.49-.18A.37.37,0,0,1,627.41,124.12Z"/>
        </g>
        <g>
          <path class="cls-64" d="M523.19,14.47a2.25,2.25,0,0,0-4.36-.27c-6.77,21.61-26.29,77.75-54.62,107C418.07,168.82,386,247.43,413.36,289.47,413.36,289.47,569.51,265.53,523.19,14.47Z"/>
          <path class="cls-60" d="M517.94,45.47l-.1.69c-.08.45-.19,1.13-.35,2-.31,1.74-.81,4.27-1.48,7.49-1.38,6.43-3.44,15.6-6.27,26.51-1.45,5.44-3,11.34-4.82,17.55s-3.75,12.73-5.87,19.45-4.48,13.61-7,20.57L490.2,145q-1,2.63-2,5.25c-1.28,3.52-2.68,7-4,10.52s-2.81,7-4.24,10.43-3,6.86-4.45,10.26-3,6.72-4.61,10-3.08,6.52-4.71,9.65c-3.16,6.31-6.36,12.33-9.58,17.94s-6.41,10.83-9.42,15.6c-1.56,2.35-3.05,4.61-4.46,6.76s-2.91,4.08-4.23,6l-1.94,2.7c-.66.84-1.29,1.66-1.9,2.45l-3.33,4.31c-2.05,2.57-3.77,4.51-4.89,5.87l-1.75,2.06a.36.36,0,0,1-.52,0,.36.36,0,0,1-.05-.51h0l1.67-2.12c1.07-1.38,2.7-3.38,4.69-6l3.21-4.38c.59-.79,1.19-1.62,1.82-2.48l1.87-2.74c1.27-1.89,2.66-3.88,4.06-6l4.34-6.79c2.93-4.79,6-10,9.13-15.66s6.26-11.65,9.38-17.94c1.6-3.12,3.07-6.38,4.64-9.63s3-6.62,4.54-10l4.39-10.23c1.39-3.46,2.88-6.9,4.25-10.38s2.77-7,4.07-10.46q1-2.62,2-5.23c.63-1.74,1.26-3.49,1.89-5.22,2.52-6.93,4.84-13.82,7-20.49s4.25-13.15,6.09-19.33,3.53-12,5-17.44,2.83-10.4,3.95-14.83,2.08-8.3,2.83-11.49,1.33-5.71,1.69-7.43l.39-1.93.12-.68v0a.37.37,0,0,1,.74.11Z"/>
        </g>
        <g>
          <path class="cls-65" d="M118.17,101.27c33.15,8.91,223.92,68.68,200,257.77,0,0-135.72-7-203.56-254.21A2.9,2.9,0,0,1,118.17,101.27Z"/>
          <path class="cls-66" d="M139.65,128.2s13,10.08,31.91,26c4.72,4,9.81,8.29,15.16,12.91s11,9.53,16.71,14.67,11.65,10.5,17.6,16l8.93,8.36c3,2.84,6,5.65,8.9,8.53,5.9,5.73,11.77,11.51,17.42,17.31l4.24,4.32,4.13,4.34c2.76,2.86,5.42,5.74,8,8.58,10.47,11.34,19.84,22.32,27.48,32.05,1.94,2.4,3.71,4.79,5.4,7l2.48,3.3,2.26,3.17c1.44,2.06,2.83,4,4,5.77l3.3,5,1.4,2.15,1.18,1.93c.73,1.21,1.34,2.23,1.85,3.06l1.54,2.55a1.49,1.49,0,1,1-2.55,1.53h0l0-.06s-.53-.87-1.51-2.52l-1.8-3-1.15-1.92-1.37-2.13-3.23-5c-1.18-1.8-2.56-3.69-4-5.75l-2.22-3.15-2.43-3.29c-1.67-2.25-3.41-4.62-5.32-7-7.53-9.72-16.78-20.71-27.14-32.08-2.6-2.84-5.23-5.74-8-8.6l-4.09-4.35-4.2-4.34c-5.6-5.83-11.41-11.63-17.27-17.39-2.92-2.88-5.89-5.71-8.83-8.56s-5.92-5.62-8.85-8.4c-5.91-5.53-11.75-10.93-17.47-16.08s-11.29-10.11-16.6-14.77-10.37-9-15.06-13c-18.77-16-31.69-26.12-31.69-26.12a.63.63,0,0,1,.77-1Z"/>
        </g>
        <g>
          <path class="cls-67" d="M257.75,11c27.71,24.83,183.07,176,67.44,347.23,0,0-127.89-73.16-72.63-345.52A3.14,3.14,0,0,1,257.75,11Z"/>
          <path class="cls-66" d="M265.31,47.55S273,63.67,283.48,88.27c2.63,6.14,5.43,12.83,8.35,19.91s5.94,14.58,9,22.37,6.13,15.86,9.21,24.08q2.25,6.19,4.54,12.45c1.48,4.2,3,8.39,4.44,12.61,2.91,8.43,5.76,16.89,8.39,25.27.66,2.09,1.32,4.18,2,6.25s1.25,4.16,1.88,6.22c1.27,4.12,2.42,8.21,3.58,12.23,4.57,16.1,8.27,31.3,10.89,44.45.71,3.28,1.25,6.45,1.79,9.46.26,1.5.52,3,.78,4.39s.43,2.83.63,4.17c.39,2.7.81,5.22,1.09,7.57s.52,4.5.74,6.44c.11,1,.21,1.9.31,2.77s.13,1.68.19,2.44c.11,1.52.21,2.82.29,3.86.16,2.1.25,3.22.25,3.22a1.49,1.49,0,0,1-3,.22h0v-.07l-.23-3.17c-.07-1-.16-2.31-.26-3.82-.06-.75-.11-1.55-.17-2.41s-.19-1.78-.29-2.74c-.21-1.93-.45-4.06-.7-6.39s-.67-4.82-1-7.5c-.2-1.34-.38-2.72-.61-4.14s-.49-2.87-.75-4.37c-.51-3-1-6.14-1.71-9.4-2.53-13.09-6.12-28.25-10.59-44.32-1.12-4-2.25-8.11-3.49-12.22-.61-2-1.22-4.13-1.84-6.21s-1.29-4.16-1.93-6.25c-2.58-8.37-5.37-16.83-8.22-25.26-1.41-4.23-2.91-8.42-4.36-12.61s-3-8.34-4.46-12.46c-3-8.23-6-16.32-9.05-24.11s-6-15.29-8.84-22.39-5.63-13.79-8.22-20c-10.35-24.64-17.9-40.78-17.9-40.78a.62.62,0,0,1,.3-.83A.63.63,0,0,1,265.31,47.55Z"/>
        </g>
        <g>
          <polygon class="cls-68" points="330.2 410.8 321.24 491.15 425.18 491.15 411.64 410.8 330.2 410.8"/>
          <path class="cls-69" d="M112.17,173v221a33.53,33.53,0,0,0,32.66,33.52c80.74,2.08,363.1,7.13,439.95,6a24.68,24.68,0,0,0,24.3-24c1.48-51.35,3.88-174.82-5-232.15A25.4,25.4,0,0,0,579.78,156c-67.64-2.17-367-9-443.79-7.31A24.37,24.37,0,0,0,112.17,173Z"/>
          <path class="cls-70" d="M126,171.94v210a19.43,19.43,0,0,0,19.13,19.43l428.56,5.29a18.91,18.91,0,0,0,19.19-18.83l.72-208.12a13.84,13.84,0,0,0-13.5-13.88L141.38,157A15,15,0,0,0,126,171.94Z"/>
          <path class="cls-71" d="M596.14,415.42h0l-470.11-8a.75.75,0,0,1,0-1.49h0l470.11,8a.75.75,0,0,1,0,1.49Z"/>
          <path class="cls-72" d="M370.62,419.57a4.89,4.89,0,1,1-4.89-4.89A4.89,4.89,0,0,1,370.62,419.57Z"/>
          <path class="cls-73" d="M447.57,507.59H295.45c-4.14,0-7.24-2.94-6.44-6.1l1.95-7.72c.59-2.32,3.14-4,6.18-4.12l146.65-4.58c3.17-.1,6,1.59,6.67,4l3.51,12.3C454.89,504.56,451.77,507.59,447.57,507.59Z"/>
          <path class="cls-74" d="M377.34,492a.75.75,0,1,1,0-1.49l6.28-.09a.75.75,0,1,1,0,1.49l-6.28.09Z"/>
          <path class="cls-74" d="M294.64,503.58h-.12a.73.73,0,0,1-.61-.85l.89-5.61a6.5,6.5,0,0,1,6.35-5.49l66.65-1a.74.74,0,0,1,.76.73.76.76,0,0,1-.74.76l-66.65,1a5,5,0,0,0-4.9,4.24l-.9,5.62A.73.73,0,0,1,294.64,503.58Z"/>
          <path class="cls-75" d="M562.24,180.7l-409.68-4.82a11.6,11.6,0,0,0-11.86,11.29L138,369.53a11.56,11.56,0,0,0,11.29,11.61L561.2,395.07a21.48,21.48,0,0,0,15.47-5.79,20.49,20.49,0,0,0,6.51-14.87v-173C583.18,190.05,573.81,180.84,562.24,180.7Z"/>
        </g>
        <g>
          <path class="cls-76" d="M465.08,508.64c-2.81-3.56-31.06-41.06-7.89-82.37a1.57,1.57,0,0,1,2.7-.08c3.35,5.21,10.74,19.74,2.73,37.13-8.34,18.13.78,38,4.15,44.21a1,1,0,0,1-1.13,1.47h0A1.05,1.05,0,0,1,465.08,508.64Z"/>
          <path class="cls-77" d="M470.34,510.1a.94.94,0,0,1-.66-.58c-1.41-3.75-10.43-29.23-4.06-49.32,7.74-24.44,53.08-86.49,3.62-120.5a1,1,0,0,1,.7-1.8c12.56,2,48.33,11.29,45.74,53.47-3.12,50.75-68.84,39.92-44.23,117.52a.94.94,0,0,1-1.11,1.21Z"/>
          <path class="cls-78" d="M474.2,511a1,1,0,0,1-.69-.62c-1.7-5.19-15.43-49,4.62-57.08,20.69-8.33,51.77,5.62,77.69-8a1.08,1.08,0,0,1,1.53,1.3c-2.53,7.21-11.7,26.94-36.36,27.06-30.18.16-38.47-6.13-43.75,8.83-3.92,11.09-2.52,23.36-1.89,27.42A.94.94,0,0,1,474.2,511Z"/>
          <path class="cls-79" d="M548.9,451.38s-.28.32-.85.87a22.66,22.66,0,0,1-2.62,2.21c-.59.44-1.26.91-2,1.39s-1.58,1-2.5,1.45-1.9,1-3,1.41-2.21.88-3.42,1.3a16,16,0,0,1-1.86.56l-2,.52c-1.34.31-2.74.57-4.18.81s-2.95.36-4.48.43l-2.32.07-1.18,0c-.4,0-.79,0-1.19-.05a80.74,80.74,0,0,1-9.7-1c-3.18-.53-6.39-1-9.62-1.29a58.43,58.43,0,0,0-9.51-.21,25.86,25.86,0,0,0-4.48.71,17,17,0,0,0-4,1.51,13.54,13.54,0,0,0-5.63,5.64,23.38,23.38,0,0,0-2.46,7.15,45,45,0,0,0-.78,6.57c-.11,2-.14,3.72-.11,5.16s0,2.56.07,3.33l0,1.19h0a.31.31,0,0,1-.29.3.3.3,0,0,1-.3-.25s-.06-.41-.18-1.18-.3-1.89-.45-3.34-.32-3.21-.39-5.24a47.8,47.8,0,0,1,.26-6.89,26.12,26.12,0,0,1,2.23-8,16.26,16.26,0,0,1,6.46-7.09,18.21,18.21,0,0,1,4.7-2,28.54,28.54,0,0,1,5-.94,53.67,53.67,0,0,1,10.14,0c3.35.28,6.68.72,9.9,1.22,1.62.27,3.15.44,4.69.66l1.15.16,1.14.08,2.27.15c.75.06,1.49.07,2.23.06l2.19,0c1.44,0,2.84-.16,4.22-.23s2.69-.3,4-.51,2.52-.42,3.67-.77a32.58,32.58,0,0,0,3.32-.92c1.06-.31,2-.69,2.94-1s1.74-.75,2.53-1.08,1.47-.72,2.09-1.05c1.24-.69,2.2-1.27,2.82-1.7s.94-.68.94-.68a.36.36,0,0,1,.5.5Z"/>
          <path class="cls-79" d="M457.77,438.35l-.55,2.59c-.35,1.64-.81,4-1.31,6.81s-1,6.11-1.45,9.65a82.74,82.74,0,0,0-.57,11.15c0,1.9.13,3.79.31,5.65s.41,3.69.7,5.45c.18.87.35,1.73.51,2.57s.39,1.65.58,2.45c.43,1.57.87,3.06,1.34,4.41s1,2.56,1.38,3.66.9,2,1.27,2.74l1.2,2.36h0a.31.31,0,0,1-.14.41.29.29,0,0,1-.39-.1l-1.49-2.23c-.45-.73-.94-1.64-1.54-2.67s-1.18-2.26-1.74-3.62a47.5,47.5,0,0,1-1.71-4.44c-.25-.81-.52-1.63-.76-2.49s-.46-1.73-.66-2.63c-.4-1.8-.76-3.68-1-5.6s-.43-3.89-.5-5.85-.09-3.94,0-5.87.21-3.84.41-5.67.47-3.59.75-5.26.66-3.21,1.05-4.63a53,53,0,0,1,2.28-6.73c.67-1.58,1.16-2.46,1.16-2.46a.49.49,0,0,1,.9.34Z"/>
        </g>
        <g>
          <path class="cls-80" d="M455.61,310.26,449,252.14h0a38.47,38.47,0,0,0-38.47-35.67c-12.23,0-23.12,4.75-30.19,14.67H345c-7.07-9.92-17.95-14.67-30.18-14.67a38.54,38.54,0,0,0-38.48,35.73v0l-6.58,58.11a15.47,15.47,0,0,0,9.29,16l6.53,2.79a15.61,15.61,0,0,0,17.62-4.28l31.18-35.18H391l31.17,35.18a15.55,15.55,0,0,0,17.63,4.09l6.53-2.7A15.37,15.37,0,0,0,455.61,310.26Z"/>
          <circle class="cls-81" cx="315.12" cy="255.23" r="25.19"/>
          <circle class="cls-82" cx="412.15" cy="255.23" r="25.19"/>
          <g>
            <g>
              <path class="cls-83" d="M418.06,242.14a5.83,5.83,0,1,1-5.83-5.83A5.83,5.83,0,0,1,418.06,242.14Z"/>
              <path class="cls-84" d="M418.06,267.22a5.83,5.83,0,1,1-5.83-5.83A5.83,5.83,0,0,1,418.06,267.22Z"/>
            </g>
            <g>
              <path class="cls-85" d="M424.77,260.51a5.83,5.83,0,1,1,5.83-5.83A5.83,5.83,0,0,1,424.77,260.51Z"/>
              <path class="cls-86" d="M399.69,260.51a5.83,5.83,0,1,1,5.83-5.83A5.84,5.84,0,0,1,399.69,260.51Z"/>
            </g>
          </g>
          <path class="cls-87" d="M326.82,252.09h-8.37l-1.14-11.2a2.25,2.25,0,0,0-2.23-2H312.3a2.21,2.21,0,0,0-1.63.69,2.26,2.26,0,0,0-.61,1.69l.65,10.85H300.28c-1.24,0-2.69.95-2.69,2.19v2.12a2.72,2.72,0,0,0,2.69,2.31h10.83l.66,11.66c.07,1.18,1.05,2.67,2.24,2.67h4c.63,0,1.24-.87,1.66-1.34a2.87,2.87,0,0,0,.57-2l-1.1-11h7.69c1.24,0,1.65-1.07,1.65-2.31v-2.12C328.47,253,328.06,252.09,326.82,252.09Z"/>
          <g>
            <rect class="cls-88" x="349.42" y="245.48" width="9.92" height="3.31" rx="1.32"/>
            <rect class="cls-89" x="365.96" y="245.48" width="9.92" height="3.31" rx="1.32"/>
          </g>
        </g>
        <g>
          <path class="cls-74" d="M586.09,361.77a.75.75,0,0,1-.54-.24l-10.48-11.07a.8.8,0,0,1-.2-.57l1-14.7a.75.75,0,0,1,.55-.67l17.73-4.63a.74.74,0,0,1,.79.27L604,342.45a.73.73,0,0,1,.13.59l-2.82,14.3a.72.72,0,0,1-.54.57l-14.5,3.83A.63.63,0,0,1,586.09,361.77Zm-9.71-12.1,10,10.52L600,356.6l2.67-13.53-8.57-11.62-16.72,4.37Z"/>
          <path class="cls-74" d="M575.61,350.69a.75.75,0,0,1-.71-.53.76.76,0,0,1,.5-.93l13.52-4,4.72-14.83a.74.74,0,0,1,1.42.45L590.22,346a.75.75,0,0,1-.49.49l-13.9,4.13A.83.83,0,0,1,575.61,350.69Z"/>
          <path class="cls-74" d="M600.59,357.94a.75.75,0,0,1-.53-.23L589,346.33a.73.73,0,0,1,0-1.05.74.74,0,0,1,1,0l11.08,11.38a.74.74,0,0,1,0,1.05A.73.73,0,0,1,600.59,357.94Z"/>
        </g>
        <g>
          <path class="cls-74" d="M179.74,246.32a.74.74,0,0,1-.54-.23l-10.93-11.57a.72.72,0,0,1-.2-.56l1.05-15.34a.74.74,0,0,1,.55-.67l18.5-4.84a.75.75,0,0,1,.79.28l9.46,12.82a.73.73,0,0,1,.13.59l-2.94,14.93a.72.72,0,0,1-.54.57l-15.14,4Zm-10.17-12.58,10.41,11L194.24,241,197,226.83l-9-12.15-17.49,4.57Z"/>
          <path class="cls-74" d="M168.81,234.76a.75.75,0,0,1-.21-1.46l14.13-4.2,4.92-15.5a.75.75,0,0,1,.94-.48.74.74,0,0,1,.48.94l-5,15.87a.79.79,0,0,1-.5.49L169,234.73A.76.76,0,0,1,168.81,234.76Z"/>
          <path class="cls-74" d="M194.88,242.33a.74.74,0,0,1-.53-.23l-11.57-11.88a.74.74,0,0,1,0-1.05.73.73,0,0,1,1,0l11.56,11.87a.74.74,0,0,1-.53,1.27Z"/>
        </g>
        <path class="cls-74" d="M242.87,274a.58.58,0,0,1-.26-.05l-17.35-6.65a.74.74,0,0,1-.16-1.3l14.73-10.31a.74.74,0,0,1,.72-.07.72.72,0,0,1,.44.57l2.62,17a.74.74,0,0,1-.27.69A.72.72,0,0,1,242.87,274Zm-15.77-7.59,14.84,5.7-2.23-14.52Z"/>
        <path class="cls-74" d="M634,364.84a.86.86,0,0,1-.27,0l-12.91-5a.72.72,0,0,1-.47-.6.73.73,0,0,1,.31-.7l11-7.67a.73.73,0,0,1,.71-.08.75.75,0,0,1,.45.57L634.71,364a.74.74,0,0,1-.27.69A.73.73,0,0,1,634,364.84ZM622.64,359l10.41,4-1.57-10.18Z"/>
        <path class="cls-74" d="M597.64,387.72a4.57,4.57,0,1,1,4.56-4.56A4.57,4.57,0,0,1,597.64,387.72Zm0-7.64a3.08,3.08,0,1,0,3.08,3.08A3.08,3.08,0,0,0,597.64,380.08Z"/>
        <path class="cls-74" d="M261.26,344.31a7.69,7.69,0,1,1,7.69-7.69A7.7,7.7,0,0,1,261.26,344.31Zm0-13.89a6.21,6.21,0,1,0,6.2,6.2A6.21,6.21,0,0,0,261.26,330.42Z"/>
        <g>
          <g>
            <path class="cls-74" d="M219.33,362.07l-.91-1.72a.42.42,0,0,1,.18-.59.44.44,0,0,1,.59.18h0v0l.89,1.68v0a.42.42,0,0,1-.18.59A.43.43,0,0,1,219.33,362.07Z"/>
            <path class="cls-74" d="M216.62,356.17l-.6-1.85a.44.44,0,0,1,.28-.56.44.44,0,0,1,.55.28h0v0l.59,1.81v0a.44.44,0,0,1-.83.27Z"/>
            <path class="cls-74" d="M215.06,349.86c-.09-.65-.15-1.3-.19-1.95a.44.44,0,1,1,.88-.05h0c0,.63.1,1.26.18,1.88a.43.43,0,0,1-.38.5A.44.44,0,0,1,215.06,349.86Z"/>
            <path class="cls-74" d="M215,343.35c.08-.65.18-1.3.31-1.94a.45.45,0,0,1,.53-.35.44.44,0,0,1,.35.52h0c-.13.62-.23,1.25-.3,1.87a.45.45,0,0,1-.89-.1Z"/>
            <path class="cls-74" d="M216.6,337c.24-.61.51-1.21.79-1.79a.45.45,0,1,1,.81.39h0c-.27.57-.53,1.15-.76,1.73a.45.45,0,0,1-.84-.33Z"/>
            <path class="cls-74" d="M219.71,331.31l1.17-1.57a.45.45,0,0,1,.73.54h0l0,0-1.14,1.52v0a.46.46,0,0,1-.64.09A.45.45,0,0,1,219.71,331.31Z"/>
            <path class="cls-74" d="M223.93,326.36l1.42-1.32a.45.45,0,0,1,.65,0,.46.46,0,0,1,0,.65h0l-1.39,1.3,0,0a.46.46,0,0,1-.62-.68Z"/>
            <path class="cls-74" d="M228.89,322.2l1.6-1.11a.45.45,0,0,1,.64.11.47.47,0,0,1-.11.65h0L229.44,323h0a.46.46,0,0,1-.64-.12A.45.45,0,0,1,228.89,322.2Z"/>
            <path class="cls-74" d="M234.35,318.72l1.71-.92a.46.46,0,0,1,.63.19.46.46,0,0,1-.19.63h0l-1.68.91h0a.47.47,0,0,1-.44-.82Z"/>
            <path class="cls-74" d="M240.14,315.84l1.78-.76a.47.47,0,0,1,.37.87h0l-1.76.74h0a.47.47,0,1,1-.37-.87Z"/>
            <path class="cls-74" d="M246.15,313.48l1.83-.61a.48.48,0,0,1,.61.3.47.47,0,0,1-.3.6h0l-1.82.61h0a.47.47,0,0,1-.6-.3A.48.48,0,0,1,246.15,313.48Z"/>
            <path class="cls-74" d="M252.32,311.58l1.87-.49a.48.48,0,0,1,.58.35.46.46,0,0,1-.34.58h0l-1.85.48h0a.49.49,0,0,1-.59-.34A.49.49,0,0,1,252.32,311.58Z"/>
            <path class="cls-74" d="M258.59,310.1l1.9-.37a.48.48,0,0,1,.57.38.49.49,0,0,1-.38.57h0l-1.88.36h0a.49.49,0,0,1-.57-.38A.48.48,0,0,1,258.59,310.1Z"/>
            <path class="cls-74" d="M264.94,309l1.92-.26a.49.49,0,0,1,.55.41.48.48,0,0,1-.42.55h0l-1.9.26h0a.49.49,0,1,1-.14-1Z"/>
            <path class="cls-74" d="M271.35,308.23l1.92-.15a.49.49,0,0,1,.54.44.5.5,0,0,1-.45.54h0l-1.92.15h0a.49.49,0,0,1-.53-.45A.5.5,0,0,1,271.35,308.23Z"/>
            <path class="cls-74" d="M277.78,307.82l1.93-.06a.49.49,0,0,1,.51.48.49.49,0,0,1-.48.51h0l-1.92.06h0a.5.5,0,0,1-.51-.48A.49.49,0,0,1,277.78,307.82Z"/>
            <path class="cls-74" d="M284.22,307.72l1.94,0a.5.5,0,0,1,.49.51.51.51,0,0,1-.51.49h0l-1.92,0h0a.49.49,0,0,1-.49-.51A.5.5,0,0,1,284.22,307.72Z"/>
            <path class="cls-74" d="M290.66,308l1.93.12a.5.5,0,0,1,.47.54.49.49,0,0,1-.53.47h0l-1.91-.13h0a.5.5,0,1,1,.06-1Z"/>
            <path class="cls-74" d="M297.09,308.47l1.92.2a.51.51,0,0,1,.45.56.51.51,0,0,1-.56.45h0l-1.92-.2h0a.51.51,0,1,1,.11-1Z"/>
            <path class="cls-74" d="M303.48,309.19l1.91.25a.52.52,0,0,1,.44.58.51.51,0,0,1-.57.44h0l-1.91-.25h0a.5.5,0,0,1-.44-.57A.51.51,0,0,1,303.48,309.19Z"/>
            <path class="cls-74" d="M309.85,310.08l1.91.3a.52.52,0,0,1,.43.59.52.52,0,0,1-.59.43h0l-1.9-.29h0a.52.52,0,0,1,.16-1Z"/>
            <path class="cls-74" d="M316.2,311.13l1.9.34a.52.52,0,1,1-.19,1h0l-1.89-.34h0a.51.51,0,0,1,.19-1Z"/>
            <path class="cls-74" d="M322.52,312.33l1.89.39a.52.52,0,0,1,.41.61.54.54,0,0,1-.62.41h0l-1.89-.38h0a.52.52,0,0,1-.4-.62A.51.51,0,0,1,322.52,312.33Z"/>
            <path class="cls-74" d="M328.81,313.67l1.88.43a.54.54,0,0,1,.4.63.52.52,0,0,1-.63.39h0l-1.88-.43h0a.52.52,0,0,1,.23-1Z"/>
            <path class="cls-74" d="M335.07,315.15l1.87.47a.53.53,0,0,1-.25,1h0l-1.86-.47h0a.53.53,0,1,1,.26-1Z"/>
            <path class="cls-74" d="M341.3,316.76l1.86.51a.53.53,0,0,1,.37.65.54.54,0,0,1-.65.38h0l-1.86-.5a.53.53,0,0,1-.37-.65A.54.54,0,0,1,341.3,316.76Z"/>
            <path class="cls-74" d="M347.49,318.5l1.85.54a.53.53,0,0,1,.36.66.53.53,0,0,1-.66.37h0l-1.85-.54a.53.53,0,1,1,.3-1Z"/>
            <path class="cls-74" d="M353.65,320.35l1.84.57a.54.54,0,0,1,.35.68.54.54,0,0,1-.67.35h0l-1.84-.58a.53.53,0,0,1,.32-1Z"/>
            <path class="cls-74" d="M359.78,322.3l1.83.61a.55.55,0,0,1,.34.68.54.54,0,0,1-.68.35h0l-1.82-.61a.54.54,0,0,1-.35-.68A.56.56,0,0,1,359.78,322.3Z"/>
            <path class="cls-74" d="M365.87,324.36l1.82.64a.54.54,0,1,1-.36,1h0l-1.82-.63a.54.54,0,0,1-.33-.69A.53.53,0,0,1,365.87,324.36Z"/>
            <path class="cls-74" d="M371.93,326.51l1.81.66a.55.55,0,0,1-.38,1h0l-1.81-.66a.55.55,0,0,1,.38-1Z"/>
            <path class="cls-74" d="M378,328.75l1.81.68a.56.56,0,0,1,.32.71.55.55,0,0,1-.71.32h0l-1.79-.69a.54.54,0,1,1,.38-1Z"/>
            <path class="cls-74" d="M384,331.06l1.8.7a.56.56,0,0,1,.31.72.54.54,0,0,1-.72.31h0l-1.79-.7a.55.55,0,0,1,.4-1Z"/>
            <path class="cls-74" d="M389.92,333.44l1.79.73a.56.56,0,0,1-.42,1h0l-1.79-.73a.55.55,0,0,1-.3-.72A.54.54,0,0,1,389.92,333.44Z"/>
            <path class="cls-74" d="M395.87,335.88l1.77.75a.56.56,0,1,1-.43,1h0l-1.78-.74a.56.56,0,0,1,.44-1Z"/>
            <path class="cls-74" d="M401.79,338.39l1.77.76a.56.56,0,0,1-.45,1h0l-1.77-.76a.56.56,0,0,1,.45-1Z"/>
            <path class="cls-74" d="M407.68,340.94l1.77.77a.56.56,0,0,1,.29.75.58.58,0,0,1-.75.29h0l-1.76-.78a.56.56,0,1,1,.45-1Z"/>
            <path class="cls-74" d="M413.56,343.53l1.76.78a.58.58,0,0,1,.29.76.57.57,0,0,1-.75.28h0l-1.76-.78a.57.57,0,1,1,.46-1Z"/>
            <path class="cls-74" d="M419.42,346.16l1.76.79a.58.58,0,0,1,.29.76.56.56,0,0,1-.76.28h0L419,347.2a.57.57,0,0,1-.28-.76A.56.56,0,0,1,419.42,346.16Z"/>
            <path class="cls-74" d="M425.27,348.81l1.76.8a.59.59,0,0,1,.28.77.57.57,0,0,1-.76.28h0l-1.75-.8a.58.58,0,0,1,.48-1.05Z"/>
            <path class="cls-74" d="M431.11,351.49l1.75.81a.58.58,0,0,1-.48,1.05h0l-1.74-.81a.58.58,0,1,1,.48-1.05Z"/>
            <path class="cls-74" d="M436.94,354.18l1.75.81a.58.58,0,0,1-.49,1.06h0l-1.75-.81a.58.58,0,0,1,.49-1.06Z"/>
            <path class="cls-74" d="M442.77,356.88l1.75.8a.59.59,0,0,1-.49,1.07h0l-1.75-.81a.58.58,0,1,1,.49-1.06Z"/>
            <path class="cls-74" d="M448.6,359.57l1.75.8a.6.6,0,0,1,.29.78.58.58,0,0,1-.78.29h0l-1.74-.81a.58.58,0,1,1,.49-1.06Z"/>
            <path class="cls-74" d="M454.43,362.24l1.75.8a.6.6,0,0,1,.3.79.59.59,0,0,1-.79.29h0l-1.75-.8a.58.58,0,0,1-.29-.78A.59.59,0,0,1,454.43,362.24Z"/>
            <path class="cls-74" d="M460.27,364.9l1.76.8a.6.6,0,0,1,.3.79.59.59,0,0,1-.79.29h0l-1.76-.79a.6.6,0,0,1,.49-1.09Z"/>
            <path class="cls-74" d="M466.13,367.54l1.75.78a.6.6,0,1,1-.48,1.1h0l-1.76-.79a.6.6,0,0,1-.31-.79A.6.6,0,0,1,466.13,367.54Z"/>
            <path class="cls-74" d="M472,370.14l1.76.77a.6.6,0,1,1-.48,1.11h0l-1.76-.78a.59.59,0,0,1-.31-.79A.61.61,0,0,1,472,370.14Z"/>
            <path class="cls-74" d="M477.87,372.7l1.77.76a.61.61,0,0,1,.32.8.6.6,0,0,1-.79.32h0l-1.77-.77a.6.6,0,0,1,.48-1.11Z"/>
            <path class="cls-74" d="M483.78,375.22l1.77.74a.61.61,0,0,1-.47,1.13h0l-1.78-.75a.61.61,0,0,1,.48-1.12Z"/>
            <path class="cls-74" d="M489.7,377.68l1.78.73a.6.6,0,0,1,.34.79.61.61,0,0,1-.8.34h0l-1.78-.73a.61.61,0,0,1-.34-.8A.61.61,0,0,1,489.7,377.68Z"/>
            <path class="cls-74" d="M495.65,380.08l1.79.71a.61.61,0,1,1-.45,1.14h0l-1.8-.71a.61.61,0,1,1,.46-1.14Z"/>
            <path class="cls-74" d="M501.62,382.41l1.8.68a.62.62,0,0,1,.36.8.61.61,0,0,1-.79.36h0l-1.8-.69a.62.62,0,0,1-.36-.8A.63.63,0,0,1,501.62,382.41Z"/>
            <path class="cls-74" d="M507.63,384.66l1.8.66a.62.62,0,1,1-.42,1.17h0l-1.81-.66a.62.62,0,0,1,.43-1.17Z"/>
            <path class="cls-74" d="M513.66,386.83l1.82.63a.63.63,0,1,1-.41,1.19h0l-1.82-.63a.63.63,0,0,1-.39-.8A.64.64,0,0,1,513.66,386.83Z"/>
            <path class="cls-74" d="M519.73,388.91l1.82.6a.64.64,0,0,1,.41.79.65.65,0,0,1-.8.41h0l-1.83-.61a.63.63,0,1,1,.4-1.19Z"/>
            <path class="cls-74" d="M525.82,390.88l1.84.58h0a.63.63,0,1,1-.37,1.2h0l-1.85-.57a.64.64,0,0,1-.41-.79.63.63,0,0,1,.79-.42Z"/>
            <path class="cls-74" d="M532,392.76l1.85.53h0a.62.62,0,0,1,.43.78.64.64,0,0,1-.78.44h0l-1.86-.55a.64.64,0,0,1,.36-1.22Z"/>
            <path class="cls-74" d="M538.12,394.51,540,395h0a.64.64,0,0,1,.45.78.65.65,0,0,1-.79.45h0l-1.86-.51a.64.64,0,1,1,.33-1.23Z"/>
            <path class="cls-74" d="M544.31,396.15l1.87.46h0a.64.64,0,0,1-.31,1.25h0l-1.87-.47a.65.65,0,0,1-.47-.78.64.64,0,0,1,.78-.46Z"/>
            <path class="cls-74" d="M550.54,397.65l1.88.43h0a.65.65,0,1,1-.29,1.26h0l-1.88-.43a.65.65,0,0,1,.29-1.26Z"/>
            <path class="cls-74" d="M556.8,399l1.88.38h0a.65.65,0,0,1,.5.77.64.64,0,0,1-.76.5h0l-1.89-.39a.64.64,0,1,1,.26-1.26Z"/>
            <path class="cls-74" d="M563.09,400.26l1.89.34h0a.65.65,0,0,1,.53.75.66.66,0,0,1-.76.53h0l-1.9-.34a.65.65,0,0,1-.52-.76.64.64,0,0,1,.75-.52Z"/>
            <path class="cls-74" d="M569.4,401.34l1.9.29h0a.65.65,0,1,1-.2,1.29h0l-1.91-.29a.66.66,0,0,1-.54-.75.65.65,0,0,1,.74-.54Z"/>
            <path class="cls-74" d="M575.74,402.25l1.9.23h0a.66.66,0,0,1,.57.74.65.65,0,0,1-.73.57h0l-1.92-.24a.65.65,0,0,1-.57-.73.66.66,0,0,1,.73-.58Z"/>
            <path class="cls-74" d="M582.1,403l1.91.19h0a.66.66,0,1,1-.12,1.31h0l-1.92-.18a.66.66,0,1,1,.12-1.32Z"/>
            <path class="cls-74" d="M588.48,403.52l1.91.13h0a.67.67,0,0,1,.62.71.66.66,0,0,1-.71.61h0l-1.93-.13a.66.66,0,1,1,.09-1.32Z"/>
            <path class="cls-74" d="M594.87,403.88l1.92.08h0a.67.67,0,1,1,0,1.33h0l-1.93-.07a.68.68,0,0,1-.64-.7.67.67,0,0,1,.69-.64Z"/>
            <path class="cls-74" d="M601.27,404.07l1.92,0h0a.67.67,0,0,1,.67.67.69.69,0,0,1-.68.67h0l-1.93,0a.69.69,0,0,1-.67-.68.67.67,0,0,1,.68-.66Z"/>
            <path class="cls-74" d="M607.67,404.06l1.92,0h0a.67.67,0,1,1,0,1.34h0l-1.93,0a.68.68,0,0,1,0-1.35Z"/>
            <path class="cls-74" d="M614.07,403.87l1.91-.09h0a.68.68,0,0,1,.07,1.35h0l-1.93.09a.68.68,0,1,1-.07-1.35Z"/>
            <path class="cls-74" d="M620.46,403.49l1.91-.16h0a.68.68,0,0,1,.11,1.36h0l-1.92.15a.68.68,0,0,1-.11-1.35Z"/>
            <path class="cls-74" d="M626.83,402.91l1.91-.22h0a.68.68,0,0,1,.16,1.36h0l-1.93.21a.67.67,0,0,1-.75-.6.68.68,0,0,1,.6-.75Z"/>
            <path class="cls-74" d="M633.18,402.12l1.9-.28h0a.7.7,0,0,1,.78.58.69.69,0,0,1-.59.78h0l-1.91.28a.7.7,0,0,1-.78-.58.69.69,0,0,1,.58-.78Z"/>
            <path class="cls-74" d="M639.5,401.12l1.89-.34h0a.69.69,0,1,1,.24,1.36h0l-1.9.34a.68.68,0,0,1-.8-.56.69.69,0,0,1,.55-.8Z"/>
            <path class="cls-74" d="M645.78,399.9l1.87-.41h0a.69.69,0,1,1,.3,1.35h0l-1.89.41a.7.7,0,1,1-.3-1.36Z"/>
            <path class="cls-74" d="M652,398.45l1.86-.48h0a.7.7,0,1,1,.35,1.35h0l-1.87.48a.7.7,0,0,1-.35-1.35Z"/>
            <path class="cls-74" d="M658.18,396.76l1.83-.55h0a.7.7,0,0,1,.87.47.69.69,0,0,1-.46.87h0l-1.85.56a.7.7,0,0,1-.4-1.34Z"/>
            <path class="cls-74" d="M664.27,394.83l1.81-.63h0a.7.7,0,0,1,.89.44.69.69,0,0,1-.43.89h0l-1.83.64a.7.7,0,0,1-.46-1.33Z"/>
            <path class="cls-74" d="M670.27,392.63l1.78-.71h0a.71.71,0,0,1,.52,1.32h0l-1.8.72a.71.71,0,0,1-.52-1.32Z"/>
            <path class="cls-74" d="M676.16,390.16l1.74-.8h0a.71.71,0,0,1,.94.35.7.7,0,0,1-.35.94h0l-1.76.8a.7.7,0,0,1-.94-.35.71.71,0,0,1,.35-.94Z"/>
            <path class="cls-74" d="M681.92,387.4l1.7-.88h0a.72.72,0,0,1,.66,1.27h0l-1.72.89a.71.71,0,1,1-.66-1.26Z"/>
            <path class="cls-74" d="M687.52,384.35l1.65-1h0a.72.72,0,1,1,.73,1.24h0l-1.67,1a.72.72,0,0,1-.73-1.23Z"/>
            <path class="cls-74" d="M693,381l1.59-1.07h0a.72.72,0,0,1,.8,1.2h0l-1.61,1.08a.72.72,0,1,1-.8-1.2Z"/>
            <path class="cls-74" d="M698.17,377.33l1.51-1.17h0a.71.71,0,0,1,1,.13.73.73,0,0,1-.14,1h0L699,378.48a.71.71,0,0,1-1-.13.73.73,0,0,1,.13-1Z"/>
            <path class="cls-74" d="M703.14,373.34l1.44-1.26h0a.73.73,0,0,1,1,1.1h0l-1.47,1.27a.71.71,0,0,1-1-.07.72.72,0,0,1,.07-1Z"/>
            <path class="cls-74" d="M707.84,369l1.35-1.35v0a.73.73,0,0,1,1,1h0l-1.37,1.37a.74.74,0,0,1-1,0,.72.72,0,0,1,0-1Z"/>
            <path class="cls-74" d="M712.23,364.43l1.26-1.44h0a.73.73,0,0,1,1.11,1h0l-1.28,1.46a.73.73,0,1,1-1.1-1Z"/>
            <path class="cls-74" d="M716.31,359.53l1.16-1.52h0a.72.72,0,0,1,1-.14.73.73,0,0,1,.14,1h0l-1.18,1.54a.72.72,0,0,1-1,.14.74.74,0,0,1-.14-1Z"/>
            <path class="cls-74" d="M720.05,354.37l1.05-1.59v0a.74.74,0,1,1,1.23.82h0l-1.07,1.62a.74.74,0,1,1-1.23-.82Z"/>
            <path class="cls-74" d="M723.43,349l1-1.66h0a.74.74,0,0,1,1.29.73h0l-1,1.69a.74.74,0,1,1-1.29-.74Z"/>
            <path class="cls-74" d="M726.46,343.36l.83-1.72h0a.75.75,0,0,1,1.34.66h0l-.85,1.74a.74.74,0,0,1-1.34-.65Z"/>
            <path class="cls-74" d="M729.12,337.57l.73-1.77h0a.76.76,0,0,1,1-.41.75.75,0,0,1,.41,1h0l-.74,1.8a.75.75,0,0,1-1,.4.74.74,0,0,1-.4-1Z"/>
            <path class="cls-74" d="M731.42,331.63l.62-1.81v0a.76.76,0,0,1,1.43.49h0l-.63,1.84a.76.76,0,0,1-1.43-.49Z"/>
            <path class="cls-74" d="M733.36,325.55l.51-1.84h0a.76.76,0,0,1,1.46.4h0l-.52,1.87a.76.76,0,1,1-1.46-.4Z"/>
            <path class="cls-74" d="M734.94,319.37l.4-1.87h0a.76.76,0,0,1,1.48.32h0l-.41,1.89a.76.76,0,0,1-1.48-.32Z"/>
            <path class="cls-74" d="M736.17,313.12l.3-1.89v0a.75.75,0,0,1,.87-.63.76.76,0,0,1,.63.88h0l-.31,1.91a.75.75,0,0,1-.87.63.76.76,0,0,1-.63-.87Z"/>
            <path class="cls-74" d="M737.06,306.8l.2-1.9v0a.77.77,0,0,1,1.53.16h0l-.21,1.92a.76.76,0,1,1-1.52-.16Z"/>
            <path class="cls-74" d="M737.61,300.44l.11-1.91h0a.77.77,0,1,1,1.53.08h0l-.1,1.94a.76.76,0,0,1-.81.72.77.77,0,0,1-.73-.81Z"/>
            <path class="cls-74" d="M737.84,294.06v-1.91h0a.77.77,0,0,1,1.54,0h0v1.94a.76.76,0,0,1-.77.77.77.77,0,0,1-.77-.78Z"/>
            <path class="cls-74" d="M737.75,287.68l-.08-1.91h0a.78.78,0,0,1,1.55-.07h0l.08,1.93a.78.78,0,0,1-1.55.07Z"/>
            <path class="cls-74" d="M737.36,281.31l-.18-1.91h0a.78.78,0,1,1,1.55-.14h0l.18,1.93a.76.76,0,0,1-.7.84.78.78,0,0,1-.85-.7Z"/>
            <path class="cls-74" d="M736.66,275l-.26-1.9h0a.78.78,0,1,1,1.55-.22h0l.26,1.92a.78.78,0,0,1-1.54.22Z"/>
            <path class="cls-74" d="M735.67,268.66l-.35-1.88h0a.79.79,0,0,1,1.55-.3h0l.36,1.9a.79.79,0,0,1-1.55.29Z"/>
            <path class="cls-74" d="M734.39,262.4l-.44-1.86h0a.8.8,0,0,1,.59-.95.78.78,0,0,1,1,.59h0l.44,1.88a.79.79,0,1,1-1.53.36Z"/>
            <path class="cls-74" d="M732.82,256.21l-.52-1.84h0a.79.79,0,0,1,1.53-.43h0l.53,1.86a.79.79,0,0,1-1.53.43Z"/>
            <path class="cls-74" d="M731,250.1l-.6-1.82h0a.8.8,0,0,1,1.51-.5h0l.61,1.84a.8.8,0,0,1-1.51.5Z"/>
            <path class="cls-74" d="M728.87,244.07l-.68-1.79h0a.8.8,0,0,1,1.5-.57h0l.69,1.81a.8.8,0,0,1-1.5.57Z"/>
            <path class="cls-74" d="M726.5,238.14l-.76-1.76h0a.8.8,0,0,1,1.47-.63h0l.77,1.78a.8.8,0,0,1-1.47.63Z"/>
            <path class="cls-74" d="M723.88,232.32l-.83-1.73h0a.79.79,0,0,1,.37-1.07.81.81,0,0,1,1.08.37h0l.84,1.75a.8.8,0,1,1-1.45.69Z"/>
            <path class="cls-74" d="M721,226.61l-.9-1.69h0a.8.8,0,0,1,.33-1.1.81.81,0,0,1,1.09.33h0l.91,1.71a.81.81,0,1,1-1.42.76Z"/>
            <path class="cls-74" d="M717.93,221l-1-1.65h0a.81.81,0,1,1,1.4-.83h0l1,1.67a.81.81,0,0,1-1.4.82Z"/>
            <path class="cls-74" d="M714.61,215.56l-1-1.61h0a.81.81,0,0,1,.24-1.13.82.82,0,0,1,1.13.25h0l1,1.63a.81.81,0,0,1-1.37.88Z"/>
            <path class="cls-74" d="M711.08,210.24,710,208.67h0a.82.82,0,0,1,1.34-.94h0l1.11,1.59a.8.8,0,0,1-.2,1.13.82.82,0,0,1-1.14-.2Z"/>
            <path class="cls-74" d="M707.33,205.06l-1.16-1.52h0a.82.82,0,0,1,1.3-1h0l1.18,1.54a.83.83,0,0,1-.16,1.15.81.81,0,0,1-1.15-.15Z"/>
            <path class="cls-74" d="M703.39,200l-1.22-1.48h0a.84.84,0,0,1,.11-1.17.82.82,0,0,1,1.16.12h0l1.23,1.49a.82.82,0,0,1-1.27,1Z"/>
            <path class="cls-74" d="M699.26,195.16,698,193.73h0a.82.82,0,0,1,.07-1.17.83.83,0,0,1,1.17.07h0l1.28,1.45a.83.83,0,0,1-1.23,1.1Z"/>
            <path class="cls-74" d="M695,190.45l-1.33-1.38h0a.84.84,0,0,1,0-1.18.83.83,0,0,1,1.18,0h0l1.34,1.39a.84.84,0,0,1,0,1.18.85.85,0,0,1-1.18,0Z"/>
            <path class="cls-74" d="M690.46,185.9l-1.38-1.33h0a.83.83,0,1,1,1.16-1.2h0l1.39,1.35a.84.84,0,0,1,0,1.18.83.83,0,0,1-1.18,0Z"/>
            <path class="cls-74" d="M685.8,181.52l-1.42-1.28h0a.84.84,0,1,1,1.12-1.24h0l1.44,1.29a.84.84,0,0,1-1.12,1.25Z"/>
            <path class="cls-74" d="M681,177.31l-1.47-1.23h0a.84.84,0,0,1,1.07-1.3h0l1.48,1.24a.84.84,0,0,1-1.08,1.29Z"/>
            <path class="cls-74" d="M676,173.27l-1.51-1.18h0a.84.84,0,1,1,1-1.33h0l1.52,1.19a.83.83,0,0,1,.15,1.18.84.84,0,0,1-1.18.15Z"/>
            <path class="cls-74" d="M671,169.4l-1.55-1.12h0a.85.85,0,0,1,1-1.37h0L672,168a.85.85,0,0,1-1,1.37Z"/>
            <path class="cls-74" d="M665.74,165.7l-1.59-1.07h0a.84.84,0,0,1-.22-1.18.85.85,0,0,1,1.18-.23h0l1.6,1.09a.85.85,0,0,1,.23,1.18.86.86,0,0,1-1.19.23Z"/>
            <path class="cls-74" d="M660.41,162.17l-1.62-1h0a.85.85,0,0,1-.26-1.18.85.85,0,0,1,1.18-.26h0l1.63,1a.86.86,0,0,1-.92,1.45Z"/>
            <path class="cls-74" d="M655,158.81l-1.65-1h0a.86.86,0,0,1,.87-1.48h0l1.67,1a.85.85,0,1,1-.87,1.47Z"/>
            <path class="cls-74" d="M649.43,155.61l-1.68-.92h0a.86.86,0,1,1,.83-1.5h0l1.69.93a.86.86,0,0,1,.33,1.17.85.85,0,0,1-1.16.34Z"/>
            <path class="cls-74" d="M643.8,152.59l-1.71-.88h0a.87.87,0,0,1-.37-1.17.86.86,0,0,1,1.16-.37h0l1.72.88a.87.87,0,1,1-.79,1.54Z"/>
            <path class="cls-74" d="M638.08,149.72l-1.73-.82h0a.87.87,0,1,1,.75-1.56h0l1.74.83a.87.87,0,1,1-.75,1.57Z"/>
            <path class="cls-74" d="M632.28,147l-1.76-.78h0a.87.87,0,1,1,.7-1.6h0l1.77.79a.87.87,0,1,1-.71,1.59Z"/>
            <path class="cls-74" d="M626.4,144.5l-1.77-.73h0a.87.87,0,0,1,.66-1.62h0l1.79.73a.87.87,0,1,1-.66,1.62Z"/>
            <path class="cls-74" d="M620.46,142.13l-1.8-.68h0a.86.86,0,0,1-.51-1.13.88.88,0,0,1,1.13-.51h0l1.81.68a.88.88,0,0,1,.51,1.13.87.87,0,0,1-1.13.51Z"/>
            <path class="cls-74" d="M614.45,139.93l-1.81-.62h0a.88.88,0,0,1,.58-1.66h0l1.83.63a.88.88,0,1,1-.58,1.66Z"/>
            <path class="cls-74" d="M608.39,137.9l-1.83-.58h0a.89.89,0,1,1,.53-1.69h0l1.85.59a.88.88,0,0,1-.54,1.68Z"/>
            <path class="cls-74" d="M602.27,136l-1.84-.53h0a.88.88,0,1,1,.49-1.7h0l1.86.53a.88.88,0,0,1,.6,1.1.87.87,0,0,1-1.09.6Z"/>
            <path class="cls-74" d="M596.1,134.33l-1.85-.48h0a.89.89,0,1,1,.44-1.72h0l1.88.48a.89.89,0,0,1-.45,1.72Z"/>
            <path class="cls-74" d="M589.89,132.8l-1.87-.43h0a.9.9,0,1,1,.39-1.75h0l1.88.44a.89.89,0,1,1-.4,1.74Z"/>
            <path class="cls-74" d="M583.64,131.43l-1.88-.38h0a.9.9,0,1,1,.35-1.76h0l1.9.38a.9.9,0,1,1-.36,1.76Z"/>
            <path class="cls-74" d="M577.36,130.23l-1.89-.32h0a.9.9,0,1,1,.31-1.77h0l1.91.33a.91.91,0,0,1,.73,1,.9.9,0,0,1-1,.73Z"/>
            <path class="cls-74" d="M571.05,129.2l-1.9-.27h0a.9.9,0,0,1,.26-1.79h0l1.91.28a.9.9,0,1,1-.26,1.78Z"/>
            <path class="cls-74" d="M564.71,128.35l-1.73-.21h0a.91.91,0,0,1,.21-1.8h0l1.75.21a.91.91,0,0,1-.22,1.8Z"/>
          </g>
          <g>
            <path class="cls-74" d="M512.43,137.45a36.08,36.08,0,0,1-3.75-.19.75.75,0,0,1-.67-.81.76.76,0,0,1,.82-.67c1.2.12,2.39.19,3.53.19h0l.08.74v.74Zm3.74-.21a.74.74,0,0,1-.08-1.48c1.37-.16,2.54-.38,3.61-.59a.74.74,0,0,1,.29,1.46c-1,.21-2.31.44-3.73.6Zm-11.09-.52h-.14l-.81-.16a24.91,24.91,0,0,1-2.88-.78.75.75,0,0,1-.48-.94.76.76,0,0,1,.94-.47,22.85,22.85,0,0,0,2.73.73l.78.16a.75.75,0,0,1,.59.87A.74.74,0,0,1,505.08,136.72Zm20.83-.13a3.41,3.41,0,0,0-2.36-.56.75.75,0,0,1-.09-1.49,5.5,5.5,0,0,1,2.16.24.72.72,0,0,1,.8.19l.48.53Zm-27.86-2.21a.64.64,0,0,1-.33-.08,24.39,24.39,0,0,1-3.27-2,.74.74,0,0,1,.86-1.2,24.31,24.31,0,0,0,3.08,1.87.75.75,0,0,1,.33,1A.77.77,0,0,1,498.05,134.38Zm25.33-.93a.77.77,0,0,1-.56-.25c-.82-.93-1.7-1.93-2.45-2.83a.74.74,0,0,1,.09-1.05.75.75,0,0,1,1,.09c.74.89,1.61,1.88,2.42,2.8a.73.73,0,0,1-.06,1A.77.77,0,0,1,523.38,133.45ZM492,130.07a.75.75,0,0,1-.52-.21A27.72,27.72,0,0,1,489,127a.74.74,0,0,1,.13-1,.75.75,0,0,1,1,.13,25.78,25.78,0,0,0,2.42,2.68.75.75,0,0,1,0,1.06A.73.73,0,0,1,492,130.07Zm34-.1a.75.75,0,0,1,0-1.49,13.13,13.13,0,0,0,3.42-.77.75.75,0,0,1,.5,1.41,15.07,15.07,0,0,1-3.81.84Zm-3.67-.4a.66.66,0,0,1-.23,0,10.62,10.62,0,0,1-2.88-1.49c-.17-.11-.3-.21-.41-.27a.78.78,0,0,1-.36-1,.7.7,0,0,1,.92-.38l.13.06c.15.09.34.21.56.37a9.26,9.26,0,0,0,2.5,1.3.74.74,0,0,1-.23,1.45Zm10.67-2a.74.74,0,0,1-.36-1.39c.28-.16.57-.32.86-.5a19.06,19.06,0,0,1,2.52-1.25.74.74,0,0,1,.55,1.38,17.14,17.14,0,0,0-2.31,1.15l-.9.52A.8.8,0,0,1,533.06,127.61Zm25.55-.38-1.74-.53-.24-.09c-.37-.13-1.14-.4-2.22-.71a.73.73,0,0,1-.5-.92.75.75,0,0,1,.92-.51l1,.3a.79.79,0,0,1,.34-.41.74.74,0,0,1,1,.26c.38.65.58,1,.58,1Zm-7.6-2.17h-.15c-1.21-.23-2.43-.4-3.6-.51a.74.74,0,0,1-.68-.8.77.77,0,0,1,.81-.68c1.22.11,2.49.29,3.75.53a.74.74,0,0,1,.59.87A.73.73,0,0,1,551,125.06Zm-11.09-.2a.74.74,0,0,1-.14-1.47,25.37,25.37,0,0,1,3.8-.43.75.75,0,0,1,.77.72.74.74,0,0,1-.71.77,22.66,22.66,0,0,0-3.58.4Zm-52.46-.63a.72.72,0,0,1-.64-.37,12.81,12.81,0,0,1-1.64-3.75l-.16-1.43a.74.74,0,1,1,1.48-.15l.16,1.5a15.25,15.25,0,0,0,1.44,3.08.74.74,0,0,1-.27,1A.71.71,0,0,1,487.46,124.23Zm67.11-1.66a.77.77,0,0,1-.63-.34c-.65-1-1.35-2-2.06-3.07a.74.74,0,1,1,1.21-.85c.73,1,1.43,2.08,2.1,3.11a.74.74,0,0,1-.22,1A.72.72,0,0,1,554.57,122.57Zm-4.28-6.1a.73.73,0,0,1-.59-.3c-.74-1-1.51-2-2.28-2.91a.73.73,0,0,1,.1-1,.75.75,0,0,1,1.05.11c.78,1,1.56,2,2.32,3a.75.75,0,0,1-.15,1A.74.74,0,0,1,550.29,116.47Zm-64.91-.82a.74.74,0,0,1-.73-.67l-.38-3.7a.73.73,0,0,1,.66-.81.75.75,0,0,1,.82.66l.38,3.7a.74.74,0,0,1-.67.81Zm60.2-5a.75.75,0,0,1-.56-.25c-.82-.93-1.66-1.84-2.5-2.72a.75.75,0,0,1,0-1,.76.76,0,0,1,1.06,0c.85.89,1.7,1.82,2.54,2.76a.74.74,0,0,1-.07,1.05A.7.7,0,0,1,545.58,110.7Zm-61-2.45a.74.74,0,0,1-.74-.67l-.38-3.69a.74.74,0,1,1,1.48-.16l.38,3.7a.75.75,0,0,1-.67.82Zm55.79-2.91a.73.73,0,0,1-.51-.21c-.9-.85-1.82-1.68-2.73-2.47a.74.74,0,0,1-.08-1,.75.75,0,0,1,1-.08c.93.8,1.87,1.65,2.78,2.52a.74.74,0,0,1,0,1A.73.73,0,0,1,540.42,105.34Zm-56.55-4.49a.74.74,0,0,1-.74-.66l-.06-.59.32-.26c1-.74,1.92-1.46,2.88-2.12a.74.74,0,0,1,.85,1.22c-.84.58-1.69,1.21-2.53,1.85a.72.72,0,0,1-.64.56Zm50.9-.35a.71.71,0,0,1-.45-.16c-1-.75-2-1.47-3-2.14a.75.75,0,0,1-.21-1,.76.76,0,0,1,1-.21c1,.69,2.05,1.43,3.05,2.2a.75.75,0,0,1,.14,1A.72.72,0,0,1,534.77,100.5Zm-44.95-3.93a.75.75,0,0,1-.38-1.39c1.1-.65,2.22-1.26,3.32-1.8a.74.74,0,0,1,.65,1.34c-1.06.52-2.14,1.11-3.21,1.74A.76.76,0,0,1,489.82,96.57Zm38.78-.21a.71.71,0,0,1-.37-.1c-1.07-.61-2.16-1.19-3.24-1.7a.74.74,0,0,1,.64-1.34c1.11.53,2.24,1.12,3.34,1.75a.74.74,0,0,1,.27,1A.72.72,0,0,1,528.6,96.36ZM496.49,93.3a.74.74,0,0,1-.27-1.44c1.19-.46,2.4-.86,3.59-1.19a.74.74,0,1,1,.4,1.43c-1.14.32-2.31.71-3.45,1.15A.65.65,0,0,1,496.49,93.3Zm25.4-.12a.63.63,0,0,1-.26-.05c-1.15-.42-2.31-.8-3.46-1.11a.74.74,0,1,1,.38-1.43c1.2.32,2.41.71,3.6,1.15a.74.74,0,0,1-.26,1.44Zm-18.25-1.86a.75.75,0,0,1-.13-1.48,34.43,34.43,0,0,1,3.78-.43.74.74,0,1,1,.08,1.48,31.69,31.69,0,0,0-3.61.42Zm11.09,0h-.11a34.55,34.55,0,0,0-3.61-.38.75.75,0,0,1-.71-.78.73.73,0,0,1,.78-.7,34.41,34.41,0,0,1,3.77.39.74.74,0,0,1-.12,1.48Z"/>
            <path class="cls-90" d="M486,111.86s7,14.92,18.48,11,22.14-10.78,27.29-8.29c0,0-18.94-26.05-45.73-8.5Z"/>
            <path class="cls-91" d="M455.41,128.24s1.29,16.13,6.31,18.33c4.77,2.1,41.35.35,44.91.18a.3.3,0,0,0,.28-.3h0a4.15,4.15,0,0,0-1.6-3.4c-5.05-3.92-20.25-15.51-26-17.54C472.44,123.06,455.41,128.24,455.41,128.24Z"/>
            <path class="cls-74" d="M466,145.86h-1.56a3.87,3.87,0,0,1-3.53-2.34,56.67,56.67,0,0,1-3.59-11.18.37.37,0,0,1,.29-.44.38.38,0,0,1,.44.29,56.81,56.81,0,0,0,3.54,11,3.15,3.15,0,0,0,2.86,1.89c8.63.07,28.66-.54,28.86-.55a.35.35,0,0,1,.38.36.37.37,0,0,1-.36.39C493.11,145.31,475.24,145.86,466,145.86Z"/>
            <path class="cls-92" d="M456.5,90.69s2.23-16,7.36-17.94c4.89-1.81,41.3,2,44.85,2.44a.28.28,0,0,1,.26.31h0a4.13,4.13,0,0,1-1.79,3.3c-5.28,3.62-21.12,14.31-26.95,16C473.2,96.85,456.5,90.69,456.5,90.69Z"/>
            <path class="cls-74" d="M459,87.18h-.09a.37.37,0,0,1-.27-.45,57,57,0,0,1,4.24-11,3.89,3.89,0,0,1,3.66-2.13c8.63.43,28.61,2.2,28.81,2.22a.38.38,0,0,1,.34.4.38.38,0,0,1-.41.34c-.2,0-20.16-1.79-28.78-2.22a3.21,3.21,0,0,0-3,1.73,57.72,57.72,0,0,0-4.18,10.8A.36.36,0,0,1,459,87.18Z"/>
            <path class="cls-93" d="M401.12,126.46a83.77,83.77,0,0,0,25.62,4.9c29.9.95,52-3.52,58.3-5a3.17,3.17,0,0,0,2.33-2.24,55.87,55.87,0,0,0,1-26.67,4.64,4.64,0,0,0-3.27-3.5,239.93,239.93,0,0,0-57-8.07,83.29,83.29,0,0,0-25.69,3.35C397.8,104,399.62,118.36,401.12,126.46Z"/>
            <path class="cls-94" d="M402.37,89.27a86.62,86.62,0,0,0-31.24,16.58,1.55,1.55,0,0,0-.07,2.3,86.52,86.52,0,0,0,30.06,18.31C399.62,118.36,397.8,104,402.37,89.27Z"/>
            <g>
              <path class="cls-95" d="M425.87,93.55c7.74.23,13.82,7.15,13.58,15.46s-6.71,14.87-14.46,14.65-13.83-7.15-13.59-15.46S418.12,93.33,425.87,93.55Z"/>
              <path class="cls-96" d="M425.4,96.18c6.17.18,11,5.69,10.82,12.32s-5.35,11.85-11.52,11.67-11-5.7-10.83-12.32S419.23,96,425.4,96.18Z"/>
              <path class="cls-74" d="M422.45,116.64l-.12,0a9.39,9.39,0,0,1-6.19-9.19,9.74,9.74,0,0,1,.57-3,.38.38,0,0,1,.48-.22.37.37,0,0,1,.22.48,9.08,9.08,0,0,0-.53,2.79,8.65,8.65,0,0,0,5.69,8.47.37.37,0,0,1-.12.72Z"/>
            </g>
            <g>
              <path class="cls-97" d="M453.9,99.48c5.12.15,9.14,4.72,9,10.21s-4.44,9.83-9.56,9.68-9.13-4.72-9-10.21S448.79,99.33,453.9,99.48Z"/>
              <path class="cls-98" d="M453.59,101.22a7.94,7.94,0,1,1-7.61,7.7A7.66,7.66,0,0,1,453.59,101.22Z"/>
              <path class="cls-74" d="M451.64,114.86l-.12,0a6.43,6.43,0,0,1-3.78-8.23.37.37,0,1,1,.7.25,5.7,5.7,0,0,0,3.32,7.27.38.38,0,0,1,.24.48A.39.39,0,0,1,451.64,114.86Z"/>
            </g>
          </g>
        </g>
        <g>
          <g>
            <path class="cls-74" d="M91.28,161.8a1,1,0,0,1-.3-.05l-3.78-1.17a1,1,0,0,1-.72-.94l-.09-2.9a15.09,15.09,0,0,1-3.14-2.6l-2.86.44a1,1,0,0,1-1-.53l-1.85-3.51a1,1,0,0,1,.16-1.17l2-2.11a15,15,0,0,1-.37-4.06l-2.34-1.72a1,1,0,0,1-.37-1.12l1.17-3.78a1,1,0,0,1,.94-.71l2.9-.09a14.59,14.59,0,0,1,2.61-3.14l-.44-2.87a1,1,0,0,1,.53-1.05l3.5-1.85a1,1,0,0,1,1.17.16L91,129a15,15,0,0,1,4.07-.38l1.71-2.34a1,1,0,0,1,1.12-.37l3.78,1.18a1,1,0,0,1,.72.94l.09,2.89a15.4,15.4,0,0,1,3.14,2.61l2.86-.44a1,1,0,0,1,1,.53l1.85,3.51a1,1,0,0,1-.16,1.16l-2,2.11a15.07,15.07,0,0,1,.37,4.07L112,146.2a1,1,0,0,1,.37,1.12l-1.18,3.79a1,1,0,0,1-.93.71l-2.9.09a15.14,15.14,0,0,1-2.61,3.14l.44,2.86a1,1,0,0,1-.53,1.06l-3.5,1.84a1,1,0,0,1-1.17-.15l-2.11-2a15,15,0,0,1-4.07.37l-1.71,2.34A1,1,0,0,1,91.28,161.8ZM88,159.26l3.14,1,2-2.72.4,0a13.64,13.64,0,0,0,4.41-.41l.39-.1,2.46,2.31,2.91-1.53-.51-3.34.31-.27a13.39,13.39,0,0,0,2.82-3.4l.21-.35,3.37-.11,1-3.14-2.73-2,0-.41a13.55,13.55,0,0,0-.4-4.4l-.1-.4,2.31-2.46-1.54-2.91-3.33.51-.27-.31a13.57,13.57,0,0,0-3.4-2.82l-.35-.21-.11-3.37-3.14-1-2,2.73-.41,0a13.6,13.6,0,0,0-4.4.4l-.39.11-2.46-2.31-2.91,1.53.51,3.33-.31.27a13.74,13.74,0,0,0-2.82,3.4l-.21.36-3.38.1-1,3.14,2.72,2,0,.41a13.89,13.89,0,0,0,.41,4.4l.1.4L79,150.15l1.53,2.9,3.34-.51.27.31a13.64,13.64,0,0,0,3.4,2.83l.35.2Zm6.43-5.13a10,10,0,0,1-3.06-.47,10.22,10.22,0,0,1-6.07-5,10.3,10.3,0,1,1,18.23-9.6,9.89,9.89,0,0,1,.81,2,.74.74,0,1,1-1.43.4,9,9,0,0,0-.69-1.74,8.81,8.81,0,0,0-15.6,8.21,8.83,8.83,0,0,0,15.33.48.74.74,0,1,1,1.27.77,10.31,10.31,0,0,1-8.79,4.95Z"/>
            <path class="cls-74" d="M94.46,148.1a4.26,4.26,0,1,1,3.17-7.1,4.25,4.25,0,0,1-3.17,7.1Zm0-7a2.77,2.77,0,0,0-2.06,4.63,2.77,2.77,0,0,0,2.06.92A2.78,2.78,0,0,0,97.23,144a2.78,2.78,0,0,0-2.77-2.92Z"/>
          </g>
          <g>
            <path class="cls-74" d="M142.16,143.89a1.29,1.29,0,0,1-1.19-.79l-2.38-5.78a29.43,29.43,0,0,1-8.33-2.89l-5.45,3.06a1.29,1.29,0,0,1-1.48-.16l-6-5.3a1.3,1.3,0,0,1-.33-1.46l2.4-5.77a29.86,29.86,0,0,1-3.85-7.93l-6-1.69a1.31,1.31,0,0,1-.94-1.17l-.46-8a1.27,1.27,0,0,1,.79-1.27l5.77-2.38a29.88,29.88,0,0,1,2.9-8.33l-3.06-5.44a1.28,1.28,0,0,1,.16-1.49l5.3-6a1.29,1.29,0,0,1,1.46-.33l5.77,2.4a29.86,29.86,0,0,1,7.93-3.85l1.69-6a1.31,1.31,0,0,1,1.16-.94l8-.46a1.29,1.29,0,0,1,1.27.79l2.38,5.78A29.37,29.37,0,0,1,158,81.44l5.45-3.06a1.3,1.3,0,0,1,1.49.16l6,5.3a1.29,1.29,0,0,1,.34,1.46l-2.4,5.77A29.83,29.83,0,0,1,172.66,99l6,1.69a1.29,1.29,0,0,1,.94,1.17l.47,8a1.3,1.3,0,0,1-.79,1.27l-5.78,2.38a29.86,29.86,0,0,1-2.89,8.33l3.06,5.44a1.3,1.3,0,0,1-.16,1.49l-5.31,6a1.29,1.29,0,0,1-1.46.33l-5.76-2.4a30.23,30.23,0,0,1-7.94,3.85l-1.68,6a1.31,1.31,0,0,1-1.17.94l-8,.46Zm-11.92-11.16.37.2a27.91,27.91,0,0,0,8.64,3l.4.07,2.64,6.4L150,142l1.87-6.66.4-.12a28.27,28.27,0,0,0,8.23-4l.33-.24,6.4,2.66,5.11-5.75-3.39-6,.2-.36a28,28,0,0,0,3-8.64l.07-.4,6.4-2.64-.45-7.69-6.67-1.87-.11-.39a28.29,28.29,0,0,0-4-8.23l-.23-.34,2.66-6.39L164,79.75l-6,3.39-.36-.2a28.09,28.09,0,0,0-8.64-3l-.41-.07L146,73.47l-7.69.45-1.87,6.66-.39.12a28.27,28.27,0,0,0-8.23,4l-.34.24-6.39-2.66L115.93,88l3.4,6-.2.36a28.09,28.09,0,0,0-3,8.64l-.07.41-6.4,2.63.45,7.69,6.66,1.87.12.39a28.27,28.27,0,0,0,4,8.23l.24.34L118.45,131l5.76,5.11Zm13.74-4.9a20,20,0,1,1,20-21.17,19.55,19.55,0,0,1-.2,4.26.75.75,0,0,1-.85.62.76.76,0,0,1-.62-.85,18.51,18.51,0,1,0-7.87,12.45.74.74,0,0,1,1,.2.75.75,0,0,1-.19,1,20,20,0,0,1-10.09,3.43Z"/>
            <path class="cls-74" d="M144.12,115.77a7.83,7.83,0,0,1-2.36-15.3,8,8,0,0,1,2.36-.37,7.83,7.83,0,0,1,2.36,15.3A7.91,7.91,0,0,1,144.12,115.77Zm0-14.18a6.35,6.35,0,1,0,0,12.69A6.2,6.2,0,0,0,146,114a6.34,6.34,0,0,0-1.91-12.39Z"/>
          </g>
        </g>
        <g>
          <path class="cls-99" d="M225.71,69.32c-1.61-5.76,2.7-15,14.36-9.59-.19-2.82,11.35-13.77,20.53,3.32.27-4.59,10.12-4.06,13.11,3.08,3.24-2.47,13.39,5.24,2.35,8.84-14.11,4.61-47.34,9.9-55,.88S225.71,69.32,225.71,69.32Z"/>
          <path class="cls-100" d="M288.15,88c-1.7-7.78,4.75-19.81,19.84-11.65,0-3.78,16.15-17.46,27.07,6,.71-6.08,13.77-4.63,17.2,5.11,4.5-3,17.42,8,2.45,11.94-19.12,5-63.74,9.55-73.28-3S288.15,88,288.15,88Z"/>
        </g>
      </g>
    </g>
  </g>
</svg>
