<svg id="Layer_1" data-name="Layer 1" xmlns="http://www.w3.org/2000/svg" xmlns:xlink="http://www.w3.org/1999/xlink" viewBox="0 0 202.06 91.75">
  <defs>
    <style>
      .cls-1 {
        fill: #fff;
      }

      .cls-2 {
        fill: url(#linear-gradient);
      }

      .cls-3 {
        fill: url(#linear-gradient-2);
      }

      .cls-4 {
        fill: url(#linear-gradient-3);
      }

      .cls-5 {
        fill: url(#linear-gradient-4);
      }

      .cls-6 {
        fill: url(#linear-gradient-5);
      }

      .cls-7 {
        fill: url(#linear-gradient-6);
      }

      .cls-8 {
        fill: url(#linear-gradient-7);
      }

      .cls-9 {
        fill: url(#linear-gradient-8);
      }

      .cls-10 {
        fill: url(#linear-gradient-9);
      }
    </style>
    <linearGradient id="linear-gradient" x1="3.32" y1="1975.25" x2="8.05" y2="1928.68" gradientTransform="matrix(0.03, -1, 1, 0.03, -1802.17, 0.11)" gradientUnits="userSpaceOnUse">
      <stop offset="0" stop-color="#fdf53f"/>
      <stop offset="1" stop-color="#d93c65"/>
    </linearGradient>
    <linearGradient id="linear-gradient-2" x1="-36.94" y1="1948.54" x2="-19.06" y2="1912.09" xlink:href="#linear-gradient"/>
    <linearGradient id="linear-gradient-3" x1="56.49" y1="1950.24" x2="28.65" y2="1903.17" xlink:href="#linear-gradient"/>
    <linearGradient id="linear-gradient-4" x1="1890" y1="1664.05" x2="1910.82" y2="1873.71" gradientTransform="translate(-2450.74 210.99) rotate(-45.42)" gradientUnits="userSpaceOnUse">
      <stop offset="0" stop-color="#2b3582"/>
      <stop offset="1" stop-color="#150e42"/>
    </linearGradient>
    <linearGradient id="linear-gradient-5" x1="21.44" y1="1818.17" x2="-16.35" y2="1872.84" xlink:href="#linear-gradient"/>
    <linearGradient id="linear-gradient-6" x1="1709.98" y1="1778.22" x2="1739.29" y2="1778.22" gradientTransform="translate(-2410.98 179.19) rotate(-48.94)" gradientUnits="userSpaceOnUse">
      <stop offset="0" stop-color="#53d8ff"/>
      <stop offset="1" stop-color="#3840f7"/>
    </linearGradient>
    <linearGradient id="linear-gradient-7" x1="-4.12" y1="1864.85" x2="19.87" y2="1864.85" gradientTransform="matrix(0.03, -1, 1, 0.03, -1802.17, 0.11)" xlink:href="#linear-gradient-4"/>
    <linearGradient id="linear-gradient-8" x1="1732.85" y1="1800.01" x2="1752.21" y2="1800.01" xlink:href="#linear-gradient-6"/>
    <linearGradient id="linear-gradient-9" x1="-0.19" y1="1893.18" x2="15.66" y2="1893.18" gradientTransform="matrix(0.03, -1, 1, 0.03, -1802.17, 0.11)" xlink:href="#linear-gradient-4"/>
  </defs>
  <g>
    <path class="cls-1" d="M149.55,75.6a36.13,36.13,0,0,1-3.76-.2.74.74,0,0,1,.15-1.47c1.2.12,2.39.18,3.54.18h0l.07.74v.75Zm3.74-.22a.74.74,0,0,1-.09-1.48c1.37-.16,2.55-.37,3.61-.58a.75.75,0,0,1,.88.58.76.76,0,0,1-.59.88c-1,.2-2.31.44-3.73.6Zm-11.1-.51-.14,0-.8-.16a25.6,25.6,0,0,1-2.89-.77.74.74,0,0,1,.47-1.41,24.74,24.74,0,0,0,2.72.73l.78.16a.73.73,0,0,1,.59.87A.75.75,0,0,1,142.19,74.87ZM163,74.74a3.35,3.35,0,0,0-2.36-.57.73.73,0,0,1-.78-.69.73.73,0,0,1,.69-.79,5.7,5.7,0,0,1,2.16.23.74.74,0,0,1,.8.2l.49.52Zm-27.85-2.21a.81.81,0,0,1-.34-.08,26.66,26.66,0,0,1-3.27-2,.75.75,0,0,1,.87-1.21,24.2,24.2,0,0,0,3.07,1.87.75.75,0,0,1,.33,1A.74.74,0,0,1,135.17,72.53Zm25.32-.94a.75.75,0,0,1-.56-.25c-.82-.93-1.69-1.93-2.45-2.83a.75.75,0,0,1,1.14-1c.75.89,1.61,1.88,2.43,2.8A.74.74,0,0,1,161,71.4.7.7,0,0,1,160.49,71.59Zm-31.35-3.37a.73.73,0,0,1-.51-.21,27.69,27.69,0,0,1-2.56-2.84.76.76,0,0,1,.13-1,.75.75,0,0,1,1,.13,25.9,25.9,0,0,0,2.42,2.69.74.74,0,0,1,0,1A.76.76,0,0,1,129.14,68.22Zm34-.11a.74.74,0,0,1-.06-1.48,14.06,14.06,0,0,0,3.43-.77.74.74,0,0,1,.95.45.75.75,0,0,1-.46,1,15.13,15.13,0,0,1-3.8.85Zm-3.67-.4a.85.85,0,0,1-.23,0,10.85,10.85,0,0,1-2.89-1.49,3.1,3.1,0,0,0-.41-.27.79.79,0,0,1-.36-1,.7.7,0,0,1,.92-.38l.13.06c.16.08.34.21.57.36a9,9,0,0,0,2.5,1.3.74.74,0,0,1-.23,1.45Zm10.66-1.95a.73.73,0,0,1-.65-.39.74.74,0,0,1,.29-1c.28-.15.57-.32.86-.5a18.41,18.41,0,0,1,2.52-1.24.74.74,0,0,1,1,.41.75.75,0,0,1-.41,1,15,15,0,0,0-2.31,1.14c-.31.18-.61.36-.91.52A.68.68,0,0,1,170.17,65.76Zm25.56-.38L194,64.84l-.25-.08c-.37-.13-1.14-.4-2.21-.71a.75.75,0,0,1-.51-.92.74.74,0,0,1,.92-.51c.37.1.7.2,1,.3a.72.72,0,0,1,.33-.42.75.75,0,0,1,1,.27l.57,1Zm-7.61-2.17-.14,0a35.93,35.93,0,0,0-3.61-.5.74.74,0,0,1-.67-.81.75.75,0,0,1,.8-.67,36.08,36.08,0,0,1,3.76.52.75.75,0,0,1-.14,1.48ZM177,63a.75.75,0,0,1-.14-1.48,24.41,24.41,0,0,1,3.8-.42.74.74,0,1,1,.06,1.48,24.05,24.05,0,0,0-3.58.4Zm-52.46-.64a.74.74,0,0,1-.64-.37,13.1,13.1,0,0,1-1.64-3.75l-.15-1.43a.73.73,0,0,1,.66-.81.74.74,0,0,1,.82.66l.15,1.51a15,15,0,0,0,1.45,3.08.76.76,0,0,1-.27,1A.85.85,0,0,1,124.57,62.37Zm67.11-1.66a.74.74,0,0,1-.62-.34c-.66-1-1.36-2-2.07-3.06a.75.75,0,0,1,1.22-.86c.72,1,1.43,2.08,2.1,3.11a.75.75,0,0,1-.22,1A.78.78,0,0,1,191.68,60.71Zm-4.27-6.1a.76.76,0,0,1-.6-.29c-.74-1-1.51-2-2.28-2.91a.75.75,0,0,1,.11-1,.74.74,0,0,1,1,.11c.79,1,1.57,2,2.32,3a.75.75,0,0,1-.59,1.19Zm-64.91-.82a.74.74,0,0,1-.74-.67l-.38-3.69a.74.74,0,0,1,1.48-.16l.38,3.7a.75.75,0,0,1-.67.82Zm60.2-4.95a.73.73,0,0,1-.56-.25c-.82-.93-1.66-1.84-2.5-2.71a.74.74,0,1,1,1.07-1c.85.89,1.71,1.81,2.54,2.76a.74.74,0,0,1-.06,1A.76.76,0,0,1,182.7,48.84Zm-61-2.44a.75.75,0,0,1-.74-.67l-.38-3.7a.76.76,0,0,1,.67-.82.74.74,0,0,1,.81.67l.38,3.7a.73.73,0,0,1-.66.81Zm55.79-2.92a.78.78,0,0,1-.51-.2c-.9-.86-1.82-1.69-2.73-2.47a.74.74,0,0,1,1-1.13c.93.8,1.87,1.65,2.79,2.52a.74.74,0,0,1-.52,1.28ZM121,39a.75.75,0,0,1-.74-.67l-.06-.59.33-.25c.95-.75,1.92-1.46,2.87-2.13a.75.75,0,1,1,.85,1.23c-.84.58-1.69,1.2-2.53,1.85a.73.73,0,0,1-.64.55Zm50.91-.36a.79.79,0,0,1-.46-.15c-1-.75-2-1.48-3-2.15a.74.74,0,1,1,.83-1.23c1,.69,2.05,1.43,3.06,2.2a.74.74,0,0,1-.45,1.33Zm-45-3.93a.75.75,0,0,1-.64-.36.75.75,0,0,1,.26-1c1.11-.66,2.22-1.26,3.32-1.8a.75.75,0,0,1,1,.34.74.74,0,0,1-.34,1c-1.07.53-2.15,1.11-3.22,1.75A.75.75,0,0,1,126.93,34.71Zm38.78-.21a.84.84,0,0,1-.37-.09c-1.07-.62-2.16-1.19-3.24-1.71a.74.74,0,0,1,.64-1.34c1.12.53,2.24,1.12,3.34,1.76a.74.74,0,0,1-.37,1.38ZM133.6,31.45a.75.75,0,0,1-.27-1.44c1.19-.46,2.4-.86,3.6-1.2a.74.74,0,0,1,.4,1.43c-1.15.33-2.31.71-3.46,1.16A.86.86,0,0,1,133.6,31.45ZM159,31.33a.75.75,0,0,1-.26,0c-1.15-.43-2.32-.8-3.47-1.11a.75.75,0,0,1-.52-.91.74.74,0,0,1,.91-.53c1.19.32,2.4.71,3.6,1.16a.73.73,0,0,1,.43.95A.74.74,0,0,1,159,31.33Zm-18.26-1.87a.75.75,0,0,1-.12-1.48,36.54,36.54,0,0,1,3.77-.43.75.75,0,1,1,.09,1.49,33.5,33.5,0,0,0-3.61.41Zm11.1,0h-.12a31.84,31.84,0,0,0-3.61-.39.74.74,0,0,1-.7-.78.73.73,0,0,1,.78-.7,34.52,34.52,0,0,1,3.76.4.74.74,0,0,1-.11,1.48Z"/>
    <path class="cls-2" d="M123.1,50s7,14.92,18.49,11,22.13-10.78,27.29-8.29c0,0-18.95-26-45.73-8.49Z"/>
    <path class="cls-3" d="M92.52,66.39s1.3,16.12,6.31,18.33c4.78,2.1,41.35.35,44.91.17a.31.31,0,0,0,.29-.3h0a4.15,4.15,0,0,0-1.6-3.39c-5.06-3.93-20.26-15.51-26-17.54C109.55,61.21,92.52,66.39,92.52,66.39Z"/>
    <path class="cls-1" d="M103.08,84h-1.55A3.91,3.91,0,0,1,98,81.65,56.45,56.45,0,0,1,94.4,70.47a.37.37,0,0,1,.3-.44.38.38,0,0,1,.43.3,58.08,58.08,0,0,0,3.54,11,3.15,3.15,0,0,0,2.86,1.89c8.63.07,28.66-.54,28.86-.54a.34.34,0,0,1,.39.36.38.38,0,0,1-.37.38C130.22,83.46,112.35,84,103.08,84Z"/>
    <path class="cls-4" d="M93.61,28.83s2.23-16,7.37-17.93c4.88-1.82,41.3,2,44.84,2.43a.3.3,0,0,1,.27.31h0a4.15,4.15,0,0,1-1.8,3.3c-5.27,3.63-21.12,14.31-26.94,16C110.31,35,93.61,28.83,93.61,28.83Z"/>
    <path class="cls-1" d="M96.09,25.33H96a.38.38,0,0,1-.26-.46A56.55,56.55,0,0,1,100,13.91a3.88,3.88,0,0,1,3.66-2.13c8.63.42,28.61,2.2,28.81,2.21a.37.37,0,0,1,.34.41.37.37,0,0,1-.4.33c-.2,0-20.17-1.78-28.78-2.21a3.19,3.19,0,0,0-3,1.72,57.26,57.26,0,0,0-4.17,10.81A.38.38,0,0,1,96.09,25.33Z"/>
    <path class="cls-5" d="M38.23,64.6a83.47,83.47,0,0,0,25.62,4.9c29.9,1,52-3.52,58.3-5a3.18,3.18,0,0,0,2.34-2.25,56,56,0,0,0,1-26.66,4.6,4.6,0,0,0-3.27-3.51c-7.18-2-28.41-7.32-57-8.07a83.64,83.64,0,0,0-25.69,3.35C34.91,42.11,36.73,56.51,38.23,64.6Z"/>
    <path class="cls-6" d="M39.48,27.41A86.72,86.72,0,0,0,8.24,44a1.56,1.56,0,0,0-.07,2.31A86.81,86.81,0,0,0,38.23,64.6C36.73,56.51,34.91,42.11,39.48,27.41Z"/>
    <g>
      <path class="cls-7" d="M63,31.7c7.74.22,13.83,7.14,13.59,15.46S69.85,62,62.1,61.8,48.28,54.66,48.52,46.34,55.23,31.47,63,31.7Z"/>
      <path class="cls-8" d="M62.51,34.32c6.17.18,11,5.7,10.83,12.32S68,58.49,61.81,58.31,50.79,52.62,51,46,56.34,34.15,62.51,34.32Z"/>
      <path class="cls-1" d="M59.56,54.78h-.12a9.39,9.39,0,0,1-6.18-9.19,9.68,9.68,0,0,1,.57-3,.37.37,0,1,1,.7.25A8.85,8.85,0,0,0,54,45.6a8.63,8.63,0,0,0,5.68,8.46.37.37,0,0,1,.23.47A.36.36,0,0,1,59.56,54.78Z"/>
    </g>
    <g>
      <path class="cls-9" d="M91,37.63c5.11.14,9.13,4.72,9,10.21s-4.44,9.82-9.55,9.67-9.14-4.72-9-10.21S85.9,37.48,91,37.63Z"/>
      <path class="cls-10" d="M90.71,39.36a7.67,7.67,0,0,1,7.15,8.14,7.41,7.41,0,1,1-14.77-.43A7.67,7.67,0,0,1,90.71,39.36Z"/>
      <path class="cls-1" d="M88.76,53a.25.25,0,0,1-.12,0,6.3,6.3,0,0,1-4.17-6.19,6.7,6.7,0,0,1,.38-2,.37.37,0,0,1,.48-.22.37.37,0,0,1,.22.47,5.86,5.86,0,0,0-.34,1.81,5.57,5.57,0,0,0,3.67,5.47.38.38,0,0,1,.23.47A.36.36,0,0,1,88.76,53Z"/>
    </g>
  </g>
</svg>
