<svg id="Layer_50" data-name="Layer 50" xmlns="http://www.w3.org/2000/svg" viewBox="0 0 76.48 78.68">
  <defs>
    <style>
      .cls-1 {
        fill: #231b1c;
      }

      .cls-2 {
        fill: #b2a6b2;
      }

      .cls-3 {
        fill: #c2b8c2;
      }

      .cls-4 {
        fill: #9f92a0;
      }

      .cls-5 {
        fill: #675d68;
      }

      .cls-6 {
        fill: #e0dae0;
      }

      .cls-7 {
        fill: #908491;
      }

      .cls-8 {
        fill: #796c7a;
      }

      .cls-9 {
        fill: #d4d0d4;
      }

      .cls-10 {
        fill: #f5f1f5;
      }

      .cls-11 {
        opacity: 0.5;
      }

      .cls-12 {
        fill: #847886;
      }

      .cls-13 {
        fill: #ee963f;
      }

      .cls-14 {
        fill: #ffbe55;
      }

      .cls-15 {
        fill: #c13352;
      }

      .cls-16 {
        fill: #e8425e;
      }

      .cls-17 {
        fill: #d63856;
      }

      .cls-18 {
        fill: #992b40;
      }

      .cls-19 {
        fill: #e4843f;
      }

      .cls-20 {
        fill: #f4a845;
      }

      .cls-21 {
        fill: #ffd07d;
      }

      .cls-22 {
        fill: #f0e8c7;
      }

      .cls-23 {
        fill: #ad2d4c;
      }

      .cls-24 {
        opacity: 0.7;
      }

      .cls-25 {
        fill: #d06440;
      }

      .cls-26 {
        fill: #c9593f;
      }

      .cls-27 {
        fill: #ed913e;
      }

      .cls-28 {
        fill: #ff6e91;
      }

      .cls-29 {
        fill: #ff6c8f;
      }

      .cls-30 {
        fill: #c93152;
      }

      .cls-31 {
        fill: #d83661;
      }

      .cls-32 {
        fill: #ffd4ee;
      }

      .cls-33 {
        opacity: 0.8;
      }

      .cls-34 {
        fill: #bf3b53;
      }
    </style>
  </defs>
  <g>
    <path class="cls-1" d="M41.69,73.94l-2.57-2.56a7.08,7.08,0,0,1-3-1.78,1.23,1.23,0,0,1,0-1.74l.07-.07,1.65-1.65.07-.07a1.23,1.23,0,0,1,1.74,0,2.11,2.11,0,0,0,3,0L45.75,63,14.82,32.07l-2.2-2.21h0a.24.24,0,0,1-.08-.09.67.67,0,0,1-.09-.21s0-.08,0-.11V28a.72.72,0,0,0-.59-.72l-.15,0H10.25a.59.59,0,0,1-.42-.17h0L7.15,24.4l-.09-.1A.46.46,0,0,1,7,24.23l0-.06-.09-.09L6.78,24l0,0-.07-.08-.07-.08,0-.06a.39.39,0,0,1-.08-.1l-.07-.08v0l-.06-.07a.1.1,0,0,0,0,0l-.09-.13-.06-.08h0l0-.06,0-.05L6,23H6A.41.41,0,0,0,6,22.89v0s0,0,0,0h0s0,0,0,0l0,0h0a1.09,1.09,0,0,1-.08-.15l0,0v0a.56.56,0,0,0,0-.08v0a2,2,0,0,1-.13-.25l-.05-.09,0-.1v0a.3.3,0,0,1,0-.08l0-.06h0l-.06-.12v0l0-.08v0l0-.08,0-.09h0l0-.1v-.05s0,0,0-.06v0l0,0,0-.13h0L5,20.81H5l0-.1,0-.1a1.6,1.6,0,0,1,0-.21.83.83,0,0,1,0-.15v-.06a.43.43,0,0,1,0-.11h0a1.55,1.55,0,0,1,0-.21v0s0,0,0-.08h0s0-.07,0-.1h0a1.8,1.8,0,0,1,0-.22l0-.21h0c0-.11,0-.22,0-.33a6.43,6.43,0,0,1,0-.76L5,10.54H5L5,9.38A1.12,1.12,0,0,1,6.07,8.3l1.16,0h0l5.64-.2L14.81,8a8.32,8.32,0,0,1,2.34.25h0l.2,0a8.52,8.52,0,0,1,3.72,2.17L47.41,36.78l1.83,1.84h0a.36.36,0,0,1,.11.26v1.37a.74.74,0,0,0,.74.73h1.36a.39.39,0,0,1,.27.11h0l8,8L62.76,46a2.12,2.12,0,0,0,0-3l-.17-.17a1,1,0,0,1,0-1.4l.24-.24,1.65-1.65.24-.24a1,1,0,0,1,1.4,0l.17.17a7.14,7.14,0,0,1,1.78,3L70.63,45l2.56,2.56a7.12,7.12,0,0,1,3,1.78,1.23,1.23,0,0,1,0,1.74l-.07.07h0L74.45,52.8h0l-.07.07a1.23,1.23,0,0,1-1.74,0,2.12,2.12,0,0,0-3,0l-6.56,6.56,1,1a.65.65,0,0,1,.7-.18.67.67,0,0,1,.43.84l-.12.35,1.65,1.65.22.22a.67.67,0,0,1,.7-.19.66.66,0,0,1,.42.84l-.11.36L70,66.37a.65.65,0,0,1,.7-.18.67.67,0,0,1,.43.84l-.12.35.07.07L73.64,70a2,2,0,0,1,3.1,1.84h1.09a1.3,1.3,0,0,1,1.3,1.3v8a1.3,1.3,0,0,1-1.3,1.3h-8a1.31,1.31,0,0,1-1.31-1.3V80.05a2,2,0,0,1-2.09-2.55.7.7,0,0,1,0-.32l.11-.35-2.06-2.06a.64.64,0,0,1-.69.18.66.66,0,0,1-.43-.84l.11-.35-1.87-1.87a.64.64,0,0,1-.69.18.67.67,0,0,1-.43-.84l.11-.35-2-2a.69.69,0,0,1-.7.18.67.67,0,0,1-.43-.84l.12-.35L56.12,66.4,49.56,73a2.12,2.12,0,0,0,0,3,1.23,1.23,0,0,1,0,1.74l-.08.07h0l-1.65,1.65h0l-.06.07a1.23,1.23,0,0,1-1.74,0,7.14,7.14,0,0,1-1.78-3Z" transform="translate(-4.67 -3.77)"/>
    <g>
      <g>
        <path class="cls-2" d="M14.46,24.61v.62a.59.59,0,0,0,.18.41L49.48,60.48,63.41,46.55l-9.67-9.67a.39.39,0,0,0-.27-.11H52.11a.74.74,0,0,1-.74-.74V34.66a.36.36,0,0,0-.11-.26L23.1,6.24a8.48,8.48,0,0,0-6.27-2.47L9.25,4l-1.16,0A1.12,1.12,0,0,0,7,5.16L7,6.31H7L6.7,13.91a6.43,6.43,0,0,0,0,.76c0,.11,0,.22,0,.33h0a1.49,1.49,0,0,1,0,.21l0,.22h0s0,.07,0,.1h0s0,.05,0,.07v0a1.55,1.55,0,0,0,0,.21h0a.43.43,0,0,0,0,.11h0V16a.83.83,0,0,0,0,.15,1.6,1.6,0,0,0,.05.21l0,.1,0,.11.06.2h0l0,.1v0l0,0v0h0s0,0,0,.05v.05h0l0,.1h0l0,.09h0l0,.08v0h0l0,.09h0l0,.1v0h0l0,.07h0l0,.07,0,0h0a.93.93,0,0,1,0,.1l0,.1c0,.08.08.16.13.24v0l0,.08v0l0,0,.06.11v0a.24.24,0,0,0,.06.09s0,0,0,0v0a.41.41,0,0,1,.07.11H8l.08.12,0,.05,0,.06h0l.06.08.09.13,0,.05h0l.06.07v0l.07.08a.39.39,0,0,0,.08.1l0,.06.07.08.07.08,0,0,.07.08L9,20,9,20a.46.46,0,0,1,.07.07l.09.09,2.68,2.68a.59.59,0,0,0,.42.17h1.45a.74.74,0,0,1,.74.74Z" transform="translate(-4.67 -3.77)"/>
        <path class="cls-3" d="M49.48,60.48,14.64,25.64a.59.59,0,0,1-.18-.41V23.77a.74.74,0,0,0-.74-.74H12.27a.59.59,0,0,1-.42-.17L9.17,20.18l-.09-.09A.46.46,0,0,0,9,20L9,20l-.09-.1-.07-.08,0,0-.07-.08-.07-.08,0-.06a.39.39,0,0,1-.08-.1.27.27,0,0,1-.07-.08v0l-.06-.07,0-.05-.09-.13L8.19,19h0l0-.06,0-.05L8,18.78H8A.41.41,0,0,0,8,18.67v0l0,0a.22.22,0,0,1,0-.08s0,0,0,0l-.06-.11,0,0v0l0-.08v0c0-.08-.09-.16-.13-.24l0-.1a1,1,0,0,1,0-.1.41.41,0,0,1,0-.09l0-.07v0l0-.1a.42.42,0,0,0,0-.1v0l0-.08a.42.42,0,0,0,0-.1l0-.1,0-.05s0,0,0-.05v0l0-.07,0-.1h0L7,16.59,7,16.38a1.6,1.6,0,0,1-.05-.21.83.83,0,0,1,0-.15V16a.43.43,0,0,1,0-.11h0a1.55,1.55,0,0,1,0-.21v0s0,0,0-.07h0s0-.07,0-.1h0l0-.22a1.49,1.49,0,0,0,0-.21h0c0-.11,0-.22,0-.33a6.43,6.43,0,0,1,0-.76L7,6.32H7a1,1,0,0,1,.66-.87l.09,0a.91.91,0,0,1,.88.26L56.44,53.52Z" transform="translate(-4.67 -3.77)"/>
        <g>
          <path class="cls-4" d="M14.46,23.77a.74.74,0,0,0-.74-.74H12.27a.59.59,0,0,1-.42-.17L9.17,20.18l-.09-.09A.46.46,0,0,0,9,20L9,20l-.09-.1-.07-.08,0,0-.07-.08-.07-.08,0-.06a.39.39,0,0,1-.08-.1.27.27,0,0,1-.07-.08v0l-.06-.07,0-.05-.09-.13L8.19,19h0l0-.06,0-.05L8,18.78H8A.41.41,0,0,0,8,18.67v0s0,0,0,0l-.14-.22v-.05l0-.08v0c0-.08-.09-.16-.13-.24l0-.1a.93.93,0,0,0,0-.1v0l0-.07,0-.07h0l-.06-.12h0l0-.09v0l0-.08,0-.09h0l0-.1v-.05s0,0,0-.05v0l0,0,0-.13h0L7,16.6H7l0-.11,0-.1a1.6,1.6,0,0,1-.05-.21.83.83,0,0,1,0-.15V16a.36.36,0,0,1,0-.11h0a1.55,1.55,0,0,1,0-.21v0s0,0,0-.07h0s0-.07,0-.1h0l0-.22a1.49,1.49,0,0,0,0-.21h0c0-.11,0-.22,0-.33a6.43,6.43,0,0,1,0-.76L7,6.32H7a1,1,0,0,1,.66-.87l.09,0a.91.91,0,0,1,.88.26l6.86,6.85a3.12,3.12,0,0,0,0,4.4L20.53,22a1.08,1.08,0,0,1,.31.92l-.47,3.73a2.08,2.08,0,0,1-3.53,1.2l-2.2-2.21a.59.59,0,0,1-.18-.41V23.77Z" transform="translate(-4.67 -3.77)"/>
          <path class="cls-4" d="M25.41,27.49l-.72,5.68a1.11,1.11,0,0,1-1.89.64h0a1.11,1.11,0,0,1-.31-.92l.72-5.68a1.11,1.11,0,0,1,1.89-.64h0A1.08,1.08,0,0,1,25.41,27.49Z" transform="translate(-4.67 -3.77)"/>
          <path class="cls-5" d="M49.48,60.48l-8.36-8.35a1.15,1.15,0,0,1-.32-.93l.48-3.72a2.07,2.07,0,0,1,3.52-1.21l7.54,7.54a3.11,3.11,0,0,0,3,.8Z" transform="translate(-4.67 -3.77)"/>
        </g>
        <path class="cls-6" d="M63.41,46.55l-9.67-9.67a.39.39,0,0,0-.27-.11H52.11a.74.74,0,0,1-.74-.74V34.66a.36.36,0,0,0-.11-.26L23.1,6.24a8.48,8.48,0,0,0-6.27-2.47L9.25,4A1,1,0,0,0,8.6,5.68L56.44,53.52Z" transform="translate(-4.67 -3.77)"/>
        <path class="cls-7" d="M57.54,52.42a3.22,3.22,0,0,0,.11-.81,3.13,3.13,0,0,0-.91-2.2l-11-11a1.1,1.1,0,0,1-.31-.93l.47-3.72a2.08,2.08,0,0,1,3.53-1.2l1.83,1.83a.36.36,0,0,1,.11.26V36a.74.74,0,0,0,.74.74h1.36a.39.39,0,0,1,.27.11l9.67,9.67Z" transform="translate(-4.67 -3.77)"/>
        <path class="cls-3" d="M27.11,19.18l.73-5.67a1.11,1.11,0,0,1,1.88-.65h0a1.14,1.14,0,0,1,.32.93l-.72,5.67a1.11,1.11,0,0,1-1.89.65h0A1.15,1.15,0,0,1,27.11,19.18Z" transform="translate(-4.67 -3.77)"/>
        <path class="cls-3" d="M15.46,12.53,8.6,5.68A1,1,0,0,1,9.25,4l7.58-.27A8.46,8.46,0,0,1,23.1,6.24l2,2a1.14,1.14,0,0,1,.32.93L25,12.94a2.07,2.07,0,0,1-3.52,1.21l-1.61-1.62A3.12,3.12,0,0,0,15.46,12.53Z" transform="translate(-4.67 -3.77)"/>
        <path class="cls-6" d="M18.16,4.82v0a.82.82,0,0,0,.62.81l.16,0A.83.83,0,0,0,20,5V5a.83.83,0,0,0-.6-.89L19.18,4A.82.82,0,0,0,18.16,4.82Z" transform="translate(-4.67 -3.77)"/>
        <path class="cls-6" d="M14.89,10.63h0a.82.82,0,0,0-.06-1.09L11.78,6.47a.49.49,0,0,1,.33-.84l2.81-.1a.82.82,0,0,0,.77-1v0a.83.83,0,0,0-.83-.64L9.25,4a.94.94,0,0,0-.64.27,1,1,0,0,0,0,1.37l5.06,5A.82.82,0,0,0,14.89,10.63Z" transform="translate(-4.67 -3.77)"/>
        <path class="cls-7" d="M15.46,12.53h0a3.12,3.12,0,0,0,0,4.4L52.34,53.81a3.11,3.11,0,0,0,4.39,0h0a3.1,3.1,0,0,0,0-4.4L19.86,12.53A3.12,3.12,0,0,0,15.46,12.53Z" transform="translate(-4.67 -3.77)"/>
        <path class="cls-8" d="M55.65,52.72a1.58,1.58,0,0,1-2.22,0L16.55,15.84a1.57,1.57,0,0,1,2.22-2.22L55.65,50.5a1.58,1.58,0,0,1,0,2.22Zm1.08,1.09h0a3.1,3.1,0,0,0,0-4.4L19.86,12.53a3.12,3.12,0,0,0-4.4,0h0a3.12,3.12,0,0,0,0,4.4L52.34,53.81a3.11,3.11,0,0,0,4.39,0Z" transform="translate(-4.67 -3.77)"/>
        <path class="cls-9" d="M15.46,16.93,52.34,53.81a3.07,3.07,0,0,0,2.36.9.76.76,0,0,0,.66-1.06h0a.75.75,0,0,0-.75-.46,1.56,1.56,0,0,1-1.17-.46L16.57,15.87a1.61,1.61,0,0,1-.47-1,.77.77,0,0,0-.6-.67h0a.76.76,0,0,0-.92.81A3.1,3.1,0,0,0,15.46,16.93Z" transform="translate(-4.67 -3.77)"/>
        <path class="cls-10" d="M21.23,12.81h0a.78.78,0,0,0,0,1.1L39.69,32.37a.78.78,0,0,0,1.1,0h0a.78.78,0,0,0,0-1.11L22.33,12.81A.77.77,0,0,0,21.23,12.81Z" transform="translate(-4.67 -3.77)"/>
        <path class="cls-10" d="M33.33,20.12h0a.8.8,0,0,0,0,1.11L37,24.86a.77.77,0,0,0,1.1,0h0a.78.78,0,0,0,0-1.1l-3.64-3.64A.78.78,0,0,0,33.33,20.12Z" transform="translate(-4.67 -3.77)"/>
        <path class="cls-10" d="M39.65,26.46h0a.78.78,0,0,0,0,1.1l.48.48a.78.78,0,0,0,1.1,0h0a.77.77,0,0,0,0-1.1l-.47-.48A.8.8,0,0,0,39.65,26.46Z" transform="translate(-4.67 -3.77)"/>
        <path class="cls-7" d="M35.13,42.4h0a.85.85,0,0,1,1.18,0l1.19,1.19a.84.84,0,0,1,0,1.19h0a.84.84,0,0,1-1.19,0l-1.18-1.19A.84.84,0,0,1,35.13,42.4Z" transform="translate(-4.67 -3.77)"/>
        <g class="cls-11">
          <path class="cls-8" d="M10.52,15h0a.83.83,0,0,1,1.18,0l.64.63a.86.86,0,0,1,0,1.19h0a.86.86,0,0,1-1.19,0l-.63-.64A.83.83,0,0,1,10.52,15Z" transform="translate(-4.67 -3.77)"/>
        </g>
        <path class="cls-2" d="M30.08,35.41h0a.65.65,0,0,1,.91,0l.43.43a.65.65,0,0,1,0,.91h0a.65.65,0,0,1-.91,0l-.43-.43A.65.65,0,0,1,30.08,35.41Z" transform="translate(-4.67 -3.77)"/>
        <path class="cls-12" d="M13.72,23h-.83l1.16-1.16a1.11,1.11,0,0,1,1.58,0,1.13,1.13,0,0,1,0,1.58l-1.17,1.16v-.84A.74.74,0,0,0,13.72,23Z" transform="translate(-4.67 -3.77)"/>
        <g>
          <path class="cls-4" d="M41.12,52.13a1.15,1.15,0,0,1-.32-.93l.48-3.72a2.07,2.07,0,0,1,2.31-1.8l.8,6.24a1.38,1.38,0,0,1-2.34,1.14Z" transform="translate(-4.67 -3.77)"/>
          <path class="cls-3" d="M45.74,38.42a1.1,1.1,0,0,1-.31-.93l.47-3.72a2.08,2.08,0,0,1,3.53-1.2l1.83,1.83a.36.36,0,0,1,.11.26V36a.74.74,0,0,0,.74.74h1.36a.39.39,0,0,1,.27.11L56,39.13a1.37,1.37,0,0,1-1.15,2.33l-7-.89Z" transform="translate(-4.67 -3.77)"/>
          <path class="cls-8" d="M43.46,44.69a3.75,3.75,0,0,1,.94-3l0,0a1.65,1.65,0,0,0,0-2.33l-1.61-1.62.89-1.28,4.18,4.18h0l1.79,1.79h0l7,7a3.19,3.19,0,0,1,.12,4.43,3.11,3.11,0,0,1-4.44,0l-3.69-3.68A5.5,5.5,0,0,0,48,47.32l5.36,5.36a1.59,1.59,0,0,0,2.1.18,1.57,1.57,0,0,0,.16-2.36l-8.46-8.45a2.06,2.06,0,0,0-1.7.69,2.21,2.21,0,0,0-.5,1.73l.3,2.29-.49-.49a2,2,0,0,0-1.21-.59Z" transform="translate(-4.67 -3.77)"/>
        </g>
        <path class="cls-4" d="M50.37,37.77A1.12,1.12,0,0,1,50,37a1.11,1.11,0,0,1,.33-.79l1-1V36a.74.74,0,0,0,.74.74h.83l-1,1A1.13,1.13,0,0,1,50.37,37.77Z" transform="translate(-4.67 -3.77)"/>
        <path class="cls-6" d="M46.56,38.14h0a.78.78,0,0,1,1.11,0l.23.23a.78.78,0,0,1,0,1.11h0a.78.78,0,0,1-1.1,0l-.24-.24A.78.78,0,0,1,46.56,38.14Z" transform="translate(-4.67 -3.77)"/>
      </g>
      <g>
        <rect class="cls-13" x="70.53" y="67.61" width="10.62" height="10.62" rx="1.31" transform="translate(144.09 -6.69) rotate(90)"/>
        <path class="cls-14" d="M81.15,68.91a1.3,1.3,0,0,0-1.3-1.3h-8a1.27,1.27,0,0,0-.92.38l8.36,8.37a1.1,1.1,0,0,0,1.87-.78Z" transform="translate(-4.67 -3.77)"/>
        <rect class="cls-15" x="62.27" y="54.95" width="9.85" height="18.65" transform="translate(155.49 58.44) rotate(135)"/>
        <path class="cls-16" d="M66.08,58.86h0a1.88,1.88,0,0,1,2.67,0l4.37,4.37a1.88,1.88,0,0,1,0,2.67h0a1.88,1.88,0,0,1-2.67,0l-4.37-4.37A1.9,1.9,0,0,1,66.08,58.86Z" transform="translate(-4.67 -3.77)"/>
        <path class="cls-17" d="M62.26,64h0a.77.77,0,0,1,1.09,0l4.6,4.6a.78.78,0,0,1,0,1.08h0a.77.77,0,0,1-1.09,0l-4.6-4.6A.76.76,0,0,1,62.26,64Z" transform="translate(-4.67 -3.77)"/>
        <path class="cls-18" d="M66.79,56h0a.67.67,0,0,1,.43.84L63.78,67.43a.67.67,0,0,1-.84.43h0a.67.67,0,0,1-.43-.85L66,56.45A.65.65,0,0,1,66.79,56Z" transform="translate(-4.67 -3.77)"/>
        <path class="cls-18" d="M63.78,53h0a.67.67,0,0,1,.43.84L60.78,64.42a.68.68,0,0,1-.85.43h0A.67.67,0,0,1,59.5,64l3.44-10.57A.67.67,0,0,1,63.78,53Z" transform="translate(-4.67 -3.77)"/>
        <path class="cls-18" d="M69.67,58.9h0a.66.66,0,0,1,.42.84L66.66,70.31a.66.66,0,0,1-.84.42h0a.65.65,0,0,1-.43-.84l3.43-10.57A.67.67,0,0,1,69.67,58.9Z" transform="translate(-4.67 -3.77)"/>
        <path class="cls-18" d="M72.74,62h0a.67.67,0,0,1,.43.84L69.73,73.38a.67.67,0,0,1-.84.43h0a.67.67,0,0,1-.43-.84L71.9,62.4A.66.66,0,0,1,72.74,62Z" transform="translate(-4.67 -3.77)"/>
        <path class="cls-15" d="M69.07,60.74h0a.67.67,0,0,1,.43.84l-.13.4a.68.68,0,0,1-.85.43h0a.67.67,0,0,1-.42-.85l.12-.39A.68.68,0,0,1,69.07,60.74Z" transform="translate(-4.67 -3.77)"/>
        <path class="cls-15" d="M66.19,57.86h0a.67.67,0,0,1,.43.84l-.13.4a.67.67,0,0,1-.84.43h0a.67.67,0,0,1-.43-.84l.13-.4A.67.67,0,0,1,66.19,57.86Z" transform="translate(-4.67 -3.77)"/>
        <path class="cls-19" d="M78.19,68.85l-6.42,6.41a2,2,0,0,1-2.83,0h0a2,2,0,0,1,0-2.83L75.36,66a2,2,0,0,1,2.83,0h0A2,2,0,0,1,78.19,68.85Z" transform="translate(-4.67 -3.77)"/>
        <path class="cls-20" d="M76.31,67.44l-5.94,5.94a.84.84,0,0,1-1.19,0h0a.84.84,0,0,1,0-1.19l5.94-5.93a.84.84,0,0,1,1.19,0h0A.85.85,0,0,1,76.31,67.44Z" transform="translate(-4.67 -3.77)"/>
        <path class="cls-14" d="M76.31,67.44,72.8,71a.84.84,0,0,1-1.19,0h0a.83.83,0,0,1,0-1.18l3.51-3.51a.84.84,0,0,1,1.19,0h0A.85.85,0,0,1,76.31,67.44Z" transform="translate(-4.67 -3.77)"/>
        <path class="cls-19" d="M75.2,75.51l-.67.67a.68.68,0,0,1-1,0h0a.69.69,0,0,1,0-1l.66-.66a.69.69,0,0,1,1,0h0A.7.7,0,0,1,75.2,75.51Z" transform="translate(-4.67 -3.77)"/>
        <path class="cls-21" d="M79.67,75.61h0a.81.81,0,0,1-1.14,0L75,72.05l1.13-1.13,3.56,3.55A.81.81,0,0,1,79.67,75.61Z" transform="translate(-4.67 -3.77)"/>
        <path class="cls-22" d="M78.63,71.64a.86.86,0,0,1,0-1.22.87.87,0,0,1,1.23,0,.86.86,0,0,1,0,1.22A.87.87,0,0,1,78.63,71.64Z" transform="translate(-4.67 -3.77)"/>
        <path class="cls-23" d="M72.14,63.81h0a.67.67,0,0,1,.43.84l-.13.4a.67.67,0,0,1-.84.43h0a.67.67,0,0,1-.43-.84l.13-.4A.67.67,0,0,1,72.14,63.81Z" transform="translate(-4.67 -3.77)"/>
      </g>
      <g>
        <g>
          <polygon class="cls-17" points="63.05 32.08 62.43 33.3 63.02 36.21 60.84 40.7 62.25 42.74 67.98 37.01 63.05 32.08"/>
          <path class="cls-17" d="M47.71,62.9l-4.5,2.18-4-1.65A1,1,0,0,0,39,65l4.71,4.7,5.67-5.67Z" transform="translate(-4.67 -3.77)"/>
          <polygon class="cls-23" points="67.3 42.79 72.59 41.62 67.98 37.01 62.25 42.74 62.85 43.61 67.3 42.79"/>
          <polygon class="cls-23" points="45.12 65.59 45.94 61.14 44.7 60.28 39.03 65.96 44.1 71.02 45.12 65.59"/>
        </g>
        <path class="cls-20" d="M66.57,35.24,64.78,37a1.23,1.23,0,0,0,0,1.74h0a2.12,2.12,0,0,1,0,3L44.69,61.85a2.11,2.11,0,0,1-3,0l-.17-.17a1,1,0,0,0-1.4,0L38,63.81a1,1,0,0,0,0,1.4l.17.17a7.11,7.11,0,0,0,9,.85l22-22a7.12,7.12,0,0,0-.85-9h0A1.23,1.23,0,0,0,66.57,35.24Z" transform="translate(-4.67 -3.77)"/>
        <path class="cls-19" d="M69.16,44.27l-22,22a7.11,7.11,0,0,0,.85,9,1.23,1.23,0,0,0,1.74,0l1.79-1.79a1.23,1.23,0,0,0,0-1.74,2.11,2.11,0,0,1,0-3L71.66,48.65a2.12,2.12,0,0,1,3,0,1.23,1.23,0,0,0,1.74,0l1.79-1.79a1.23,1.23,0,0,0,0-1.74A7.12,7.12,0,0,0,69.16,44.27Z" transform="translate(-4.67 -3.77)"/>
        <g class="cls-24">
          <path class="cls-25" d="M70.64,47.34,50.26,67.72a.82.82,0,0,0,0,1.16h0a.82.82,0,0,0,1.17,0L71.81,48.5a.82.82,0,0,0,0-1.16h0A.83.83,0,0,0,70.64,47.34Z" transform="translate(-4.67 -3.77)"/>
        </g>
        <path class="cls-26" d="M65.16,52.82l-9.41,9.41a.83.83,0,0,0,0,1.17h0a.83.83,0,0,0,1.17,0L66.32,54a.83.83,0,0,0,0-1.17h0A.82.82,0,0,0,65.16,52.82Z" transform="translate(-4.67 -3.77)"/>
        <path class="cls-14" d="M64.93,41.62,44.55,62a.82.82,0,0,0,0,1.17h0a.82.82,0,0,0,1.16,0L66.09,42.79a.83.83,0,0,0,0-1.17h0A.82.82,0,0,0,64.93,41.62Z" transform="translate(-4.67 -3.77)"/>
        <path class="cls-21" d="M65,41.56,62.57,44a.82.82,0,0,0,0,1.16h0a.82.82,0,0,0,1.17,0l2.42-2.42a.82.82,0,0,0,0-1.16h0A.83.83,0,0,0,65,41.56Z" transform="translate(-4.67 -3.77)"/>
        <path class="cls-14" d="M39.89,61.93l-1.65,1.65a.8.8,0,0,0,0,1.16h0a.82.82,0,0,0,1.16,0l1.65-1.65a.82.82,0,0,0,0-1.16h0A.8.8,0,0,0,39.89,61.93Z" transform="translate(-4.67 -3.77)"/>
        <path class="cls-21" d="M64.85,37l1.65-1.65a.83.83,0,0,1,1.17,0h0a.83.83,0,0,1,0,1.17L66,38.13a.83.83,0,0,1-1.17,0h0A.83.83,0,0,1,64.85,37Z" transform="translate(-4.67 -3.77)"/>
        <g class="cls-24">
          <path class="cls-25" d="M51.5,73.54l-1.65,1.65a.8.8,0,0,1-1.16,0h0a.8.8,0,0,1,0-1.16l1.65-1.65a.82.82,0,0,1,1.16,0h0A.8.8,0,0,1,51.5,73.54Z" transform="translate(-4.67 -3.77)"/>
        </g>
        <g class="cls-24">
          <path class="cls-25" d="M76.47,48.58l1.65-1.65a.83.83,0,0,0,0-1.17h0a.83.83,0,0,0-1.17,0L75.3,47.41a.83.83,0,0,0,0,1.17h0A.83.83,0,0,0,76.47,48.58Z" transform="translate(-4.67 -3.77)"/>
        </g>
      </g>
      <path class="cls-27" d="M46.31,43.39a1.05,1.05,0,0,1,.87-.3L62,45a1.3,1.3,0,0,1,1.14,1.3V58.9a1.31,1.31,0,0,1-.38.93,1.33,1.33,0,0,1-.92.38H49.21a1.31,1.31,0,0,1-1.3-1.14L46,44.26a1,1,0,0,1,.29-.87Zm-.73-.74a2.09,2.09,0,0,0-.6,1.74l1.9,14.81a2.35,2.35,0,0,0,2.33,2H61.83a2.36,2.36,0,0,0,2.35-2.35V46.29A2.36,2.36,0,0,0,62.13,44L47.32,42.06a2,2,0,0,0-1.74.59Z" transform="translate(-4.67 -3.77)"/>
      <path class="cls-21" d="M60.13,44.75l-1-.12a.52.52,0,0,1-.42-.68h0a.53.53,0,0,1,.56-.35l.95.12a.53.53,0,0,1,.45.47v0A.51.51,0,0,1,60.13,44.75Z" transform="translate(-4.67 -3.77)"/>
      <path class="cls-21" d="M48,42.83h0a.52.52,0,0,1,.58-.6l8.32,1.06a.52.52,0,0,1,.44.62h0a.53.53,0,0,1-.57.41l-8.32-1.07A.52.52,0,0,1,48,42.83Z" transform="translate(-4.67 -3.77)"/>
      <g>
        <path class="cls-20" d="M49.21,60.21H61.83a1.31,1.31,0,0,0,1.3-1.31V46.29A1.3,1.3,0,0,0,62,45l-14.81-1.9A1,1,0,0,0,46,44.26l1.89,14.81A1.31,1.31,0,0,0,49.21,60.21Z" transform="translate(-4.67 -3.77)"/>
        <path class="cls-27" d="M50.51,58.54h9.93a1,1,0,0,0,1-1V47.59a1,1,0,0,0-.9-1l-11.65-1.5A.83.83,0,0,0,48,46l1.49,11.65A1,1,0,0,0,50.51,58.54Z" transform="translate(-4.67 -3.77)"/>
        <path class="cls-25" d="M49.49,57.64,48,46a.83.83,0,0,1,.92-.92l.21,0a.43.43,0,0,0-.36.74l11.95,12a.44.44,0,0,0,.75-.31v0a1,1,0,0,1-1,1H50.51A1,1,0,0,1,49.49,57.64Z" transform="translate(-4.67 -3.77)"/>
      </g>
      <g>
        <g>
          <path class="cls-17" d="M58.15,49a4.41,4.41,0,1,0,0,6.24A4.42,4.42,0,0,0,58.15,49Z" transform="translate(-4.67 -3.77)"/>
          <circle class="cls-16" cx="50.43" cy="50.42" r="2.5"/>
          <path class="cls-28" d="M55,55.33a1,1,0,1,1,0-1.41A1,1,0,0,1,55,55.33Z" transform="translate(-4.67 -3.77)"/>
          <path class="cls-15" d="M58.57,53.5h0a.55.55,0,0,0-.64.24,3.31,3.31,0,0,1-5.7.14.54.54,0,0,0-.67-.2h0a.54.54,0,0,0-.24.78,4.05,4.05,0,0,0,.61.77,4.42,4.42,0,0,0,6.24,0,4.33,4.33,0,0,0,.72-.95A.54.54,0,0,0,58.57,53.5Z" transform="translate(-4.67 -3.77)"/>
          <path class="cls-29" d="M52.68,49.75a3.34,3.34,0,0,1,4.7,0,4,4,0,0,1,.37.45.53.53,0,0,0,.69.16h0a.54.54,0,0,0,.19-.79,4.51,4.51,0,0,0-.49-.59,4.42,4.42,0,0,0-6.24,0,4.29,4.29,0,0,0-.6.75.54.54,0,0,0,.39.83h0a.55.55,0,0,0,.52-.24A3,3,0,0,1,52.68,49.75Z" transform="translate(-4.67 -3.77)"/>
          <path class="cls-23" d="M58.15,49a4.41,4.41,0,1,1-6.24,0,4.42,4.42,0,0,1,6.24,0Zm.57-.58a5.23,5.23,0,1,0,0,7.4,5.23,5.23,0,0,0,0-7.4Z" transform="translate(-4.67 -3.77)"/>
          <g>
            <path class="cls-18" d="M51.1,54.85h0a.41.41,0,0,0,.1-.53,4.38,4.38,0,0,1-.37-.83.41.41,0,0,0-.51-.26h0a.41.41,0,0,0-.26.51,5.15,5.15,0,0,0,.44,1A.41.41,0,0,0,51.1,54.85Z" transform="translate(-4.67 -3.77)"/>
            <path class="cls-30" d="M51.91,49A4.3,4.3,0,0,1,53,48.21a2.86,2.86,0,0,1-.07-.88,5.23,5.23,0,0,0-1.56,1.07,4.79,4.79,0,0,0-.58.7.41.41,0,0,0,.18.61h0a.41.41,0,0,0,.48-.15A4.43,4.43,0,0,1,51.91,49Z" transform="translate(-4.67 -3.77)"/>
            <path class="cls-30" d="M58.72,48.4a5.23,5.23,0,0,0-5.83-1.07,2.86,2.86,0,0,0,.07.88,4.42,4.42,0,0,1,5.19.77c.16.17.31.35.45.53a.41.41,0,0,0,.53.12h0a.4.4,0,0,0,.12-.59A5.3,5.3,0,0,0,58.72,48.4Z" transform="translate(-4.67 -3.77)"/>
            <path class="cls-31" d="M54.16,47.39h0a.41.41,0,0,0,.44.31,4.57,4.57,0,0,1,1.76.19.4.4,0,0,0,.49-.21h0a.41.41,0,0,0-.25-.56,5.12,5.12,0,0,0-2.09-.22A.4.4,0,0,0,54.16,47.39Z" transform="translate(-4.67 -3.77)"/>
            <path class="cls-30" d="M59.45,50.27h0a.38.38,0,0,0-.22.48c0,.11.06.21.08.31a.41.41,0,0,0,.42.31h0a.41.41,0,0,0,.37-.5c0-.12-.07-.24-.1-.36A.41.41,0,0,0,59.45,50.27Z" transform="translate(-4.67 -3.77)"/>
            <path class="cls-18" d="M59.25,54.42h0a.4.4,0,0,0-.54.12,4.39,4.39,0,0,1-6.51.94.4.4,0,0,0-.56,0h0a.4.4,0,0,0,0,.6,5.23,5.23,0,0,0,7.06-.3,5.08,5.08,0,0,0,.66-.81A.4.4,0,0,0,59.25,54.42Z" transform="translate(-4.67 -3.77)"/>
          </g>
          <circle class="cls-32" cx="50.38" cy="45.11" r="0.59"/>
        </g>
        <g>
          <path class="cls-27" d="M59.43,47.7a6.23,6.23,0,1,0,0,8.81A6.23,6.23,0,0,0,59.43,47.7Zm-8.1,8.1a5.23,5.23,0,1,1,7.39,0A5.24,5.24,0,0,1,51.33,55.8Z" transform="translate(-4.67 -3.77)"/>
          <g>
            <path class="cls-14" d="M50.88,55.28a4.51,4.51,0,0,1-.51-.8.49.49,0,0,0-.72-.19h0a.51.51,0,0,0-.18.64,7,7,0,0,0,.61,1,.5.5,0,0,0,.7.09h0A.5.5,0,0,0,50.88,55.28Z" transform="translate(-4.67 -3.77)"/>
            <path class="cls-14" d="M59.43,56.51a6.78,6.78,0,0,0,.7-.84.5.5,0,0,0-.19-.74h0a.49.49,0,0,0-.61.16,5.78,5.78,0,0,1-.6.71,5.24,5.24,0,0,1-6.29.84.5.5,0,0,0-.6.08v0a.48.48,0,0,0,.11.76A6.22,6.22,0,0,0,59.43,56.51Z" transform="translate(-4.67 -3.77)"/>
            <path class="cls-25" d="M59,48a.51.51,0,0,0,0-.74,6.25,6.25,0,0,0-9.67,2.42.51.51,0,0,0,.36.68h0a.49.49,0,0,0,.56-.29,5.22,5.22,0,0,1,8.11-2A.48.48,0,0,0,59,48Z" transform="translate(-4.67 -3.77)"/>
            <path class="cls-25" d="M61,50.23A5.91,5.91,0,0,0,60.41,49a.49.49,0,0,0-.72-.15h0a.48.48,0,0,0-.13.64A5.23,5.23,0,0,1,60,50.53a.5.5,0,0,0,.66.32h0A.51.51,0,0,0,61,50.23Z" transform="translate(-4.67 -3.77)"/>
          </g>
        </g>
        <g>
          <path class="cls-27" d="M61.36,48.74a7.17,7.17,0,1,0-3,9.69A7.18,7.18,0,0,0,61.36,48.74ZM49.52,55A6.23,6.23,0,1,1,58,57.6,6.23,6.23,0,0,1,49.52,55Z" transform="translate(-4.67 -3.77)"/>
          <g class="cls-33">
            <path class="cls-14" d="M60.1,47A7.17,7.17,0,0,0,48,50.69a.47.47,0,0,0,.35.54h0a.46.46,0,0,0,.56-.36A6.23,6.23,0,0,1,59.43,47.7a4.27,4.27,0,0,1,.36.38.45.45,0,0,0,.65.05h0a.47.47,0,0,0,0-.66C60.37,47.32,60.24,47.17,60.1,47Z" transform="translate(-4.67 -3.77)"/>
            <path class="cls-25" d="M61.11,54.71h0a.47.47,0,0,0-.54.24,6.23,6.23,0,0,1-11,.07c-.09-.18-.18-.37-.26-.56a.46.46,0,0,0-.66-.23h0a.47.47,0,0,0-.2.58c.09.21.19.43.3.64a7.18,7.18,0,0,0,9.7,3,7.11,7.11,0,0,0,3-3.06A.47.47,0,0,0,61.11,54.71Z" transform="translate(-4.67 -3.77)"/>
          </g>
        </g>
      </g>
      <g>
        <g>
          <path class="cls-17" d="M66.84,49.7a2.2,2.2,0,1,0-3.11,0A2.2,2.2,0,0,0,66.84,49.7Z" transform="translate(-4.67 -3.77)"/>
          <path class="cls-23" d="M63.92,46.77a1.94,1.94,0,1,1,0,2.74,1.95,1.95,0,0,1,0-2.74Zm-.37-.37a2.46,2.46,0,1,0,3.48,0,2.46,2.46,0,0,0-3.48,0Z" transform="translate(-4.67 -3.77)"/>
          <path class="cls-18" d="M63.55,49.88a3.47,3.47,0,0,1-.25-.29.25.25,0,0,1,.09-.36l0,0a.26.26,0,0,1,.32.08,2,2,0,0,0,.19.22,1.94,1.94,0,0,0,2.43.25.26.26,0,0,1,.31,0l0,0a.24.24,0,0,1,0,.38A2.46,2.46,0,0,1,63.55,49.88Z" transform="translate(-4.67 -3.77)"/>
          <path class="cls-18" d="M67.18,49.32h0A.25.25,0,0,1,67,49a2.12,2.12,0,0,0,.14-.4.26.26,0,0,1,.31-.19h0a.26.26,0,0,1,.19.3,2.47,2.47,0,0,1-.18.52A.26.26,0,0,1,67.18,49.32Z" transform="translate(-4.67 -3.77)"/>
          <path class="cls-30" d="M63.37,47a.27.27,0,0,1,0-.34l.21-.23a2.46,2.46,0,0,1,3.48,0,2.16,2.16,0,0,1,.27.33.25.25,0,0,1-.08.37h0a.25.25,0,0,1-.34-.07,2,2,0,0,0-.34-.38,2,2,0,0,0-2.47,0,2.2,2.2,0,0,0-.3.31.26.26,0,0,1-.39,0Z" transform="translate(-4.67 -3.77)"/>
          <path class="cls-31" d="M66.24,46.06h0a.25.25,0,0,1-.34.24,2.13,2.13,0,0,0-.71-.09.26.26,0,0,1-.27-.27h0a.25.25,0,0,1,.24-.25,2.28,2.28,0,0,1,.9.12A.25.25,0,0,1,66.24,46.06Z" transform="translate(-4.67 -3.77)"/>
        </g>
        <path class="cls-27" d="M63.07,50.36a3.14,3.14,0,1,0,0-4.44A3.15,3.15,0,0,0,63.07,50.36Zm.48-.48a2.46,2.46,0,1,1,3.48,0A2.46,2.46,0,0,1,63.55,49.88Z" transform="translate(-4.67 -3.77)"/>
        <path class="cls-14" d="M63.07,50.36a3.1,3.1,0,0,1-.63-.91.34.34,0,0,1,.22-.47h0a.34.34,0,0,1,.39.18,2.52,2.52,0,0,0,.5.72A2.46,2.46,0,0,0,66,50.5a.33.33,0,0,1,.41.23h0a.34.34,0,0,1-.23.41A3.14,3.14,0,0,1,63.07,50.36Z" transform="translate(-4.67 -3.77)"/>
        <path class="cls-14" d="M66.92,50.42A.34.34,0,0,1,67,50l.08-.07a3.17,3.17,0,0,0,.29-.35.33.33,0,0,1,.43-.11h0a.33.33,0,0,1,.12.48,3.84,3.84,0,0,1-.37.45l-.11.09a.32.32,0,0,1-.47,0Z" transform="translate(-4.67 -3.77)"/>
        <g class="cls-24">
          <path class="cls-25" d="M63.19,45.81a3.14,3.14,0,0,1,4.2,0,3,3,0,0,1,.75,1,.33.33,0,0,1-.16.43h0a.34.34,0,0,1-.45-.17,2.31,2.31,0,0,0-.65-.85,2.46,2.46,0,0,0-3.1,0,3,3,0,0,0-.4.39.32.32,0,0,1-.38.09h0a.34.34,0,0,1-.13-.52A3.75,3.75,0,0,1,63.19,45.81Z" transform="translate(-4.67 -3.77)"/>
        </g>
        <g>
          <path class="cls-15" d="M63.92,49.51a2,2,0,0,1-.19-.22.34.34,0,0,1,.13-.52h0a.36.36,0,0,1,.44.11,1.34,1.34,0,0,0,.11.14,1.24,1.24,0,0,0,1.5.18.36.36,0,0,1,.43.05h0a.35.35,0,0,1-.06.56A1.94,1.94,0,0,1,63.92,49.51Z" transform="translate(-4.67 -3.77)"/>
          <path class="cls-29" d="M66.66,46.77a1.85,1.85,0,0,1,.44.7.35.35,0,0,1-.34.47h0a.36.36,0,0,1-.32-.23,1.37,1.37,0,0,0-.28-.44,1.23,1.23,0,0,0-1.45-.21.36.36,0,0,1-.41,0h0a.35.35,0,0,1,.07-.57A2,2,0,0,1,66.66,46.77Z" transform="translate(-4.67 -3.77)"/>
        </g>
        <circle class="cls-32" cx="60.63" cy="43.22" r="0.41"/>
      </g>
      <g>
        <g>
          <path class="cls-17" d="M52.41,64.12a2.19,2.19,0,1,0-3.1,0A2.18,2.18,0,0,0,52.41,64.12Z" transform="translate(-4.67 -3.77)"/>
          <path class="cls-23" d="M49.49,61.2a1.94,1.94,0,1,1,0,2.74,1.93,1.93,0,0,1,0-2.74Zm-.37-.37a2.46,2.46,0,1,0,3.48,0,2.46,2.46,0,0,0-3.48,0Z" transform="translate(-4.67 -3.77)"/>
          <path class="cls-18" d="M49.12,64.31a2.17,2.17,0,0,1-.24-.29.25.25,0,0,1,.08-.37h0a.25.25,0,0,1,.31.08,2,2,0,0,0,.19.22,1.94,1.94,0,0,0,2.43.25.26.26,0,0,1,.31,0l0,0a.24.24,0,0,1,0,.38A2.46,2.46,0,0,1,49.12,64.31Z" transform="translate(-4.67 -3.77)"/>
          <path class="cls-18" d="M52.75,63.75h0a.25.25,0,0,1-.13-.34,2.12,2.12,0,0,0,.14-.4.25.25,0,0,1,.31-.19h0a.26.26,0,0,1,.19.3,2.47,2.47,0,0,1-.18.52A.26.26,0,0,1,52.75,63.75Z" transform="translate(-4.67 -3.77)"/>
          <path class="cls-30" d="M48.94,61.4a.27.27,0,0,1,0-.34l.21-.23a2.46,2.46,0,0,1,3.48,0,2.16,2.16,0,0,1,.27.33.25.25,0,0,1-.08.37h0a.27.27,0,0,1-.34-.08,2,2,0,0,0-.34-.38,2,2,0,0,0-2.47,0,2.2,2.2,0,0,0-.3.31.26.26,0,0,1-.39,0Z" transform="translate(-4.67 -3.77)"/>
          <path class="cls-31" d="M51.81,60.48h0a.25.25,0,0,1-.34.24,2.13,2.13,0,0,0-.71-.09.26.26,0,0,1-.27-.27h0a.27.27,0,0,1,.24-.26,2.49,2.49,0,0,1,.9.13A.25.25,0,0,1,51.81,60.48Z" transform="translate(-4.67 -3.77)"/>
        </g>
        <path class="cls-27" d="M48.64,64.79a3.14,3.14,0,1,0,0-4.44A3.15,3.15,0,0,0,48.64,64.79Zm.48-.48a2.46,2.46,0,1,1,3.48,0A2.46,2.46,0,0,1,49.12,64.31Z" transform="translate(-4.67 -3.77)"/>
        <path class="cls-14" d="M48.64,64.79a3.1,3.1,0,0,1-.63-.91.34.34,0,0,1,.22-.47h0a.34.34,0,0,1,.39.18,2.52,2.52,0,0,0,.5.72,2.46,2.46,0,0,0,2.43.62.33.33,0,0,1,.41.23h0a.34.34,0,0,1-.23.41A3.16,3.16,0,0,1,48.64,64.79Z" transform="translate(-4.67 -3.77)"/>
        <path class="cls-14" d="M52.49,64.85a.34.34,0,0,1,0-.47l.08-.07a2.34,2.34,0,0,0,.29-.35.33.33,0,0,1,.43-.11h0a.33.33,0,0,1,.12.48,3.84,3.84,0,0,1-.37.45l-.1.09a.33.33,0,0,1-.48,0Z" transform="translate(-4.67 -3.77)"/>
        <g class="cls-24">
          <path class="cls-25" d="M48.76,60.24a3.14,3.14,0,0,1,4.2,0,3,3,0,0,1,.75,1,.33.33,0,0,1-.16.44h0a.33.33,0,0,1-.44-.17,2.58,2.58,0,0,0-.66-.86,2.47,2.47,0,0,0-3.1,0,3,3,0,0,0-.4.39.32.32,0,0,1-.38.09h0a.34.34,0,0,1-.13-.52A3.75,3.75,0,0,1,48.76,60.24Z" transform="translate(-4.67 -3.77)"/>
        </g>
        <g>
          <path class="cls-34" d="M49.49,63.94c-.07-.07-.13-.15-.19-.22a.35.35,0,0,1,.13-.52h0a.36.36,0,0,1,.44.11,1.34,1.34,0,0,0,.11.14,1.24,1.24,0,0,0,1.5.18.36.36,0,0,1,.43.05h0a.35.35,0,0,1-.06.56A1.94,1.94,0,0,1,49.49,63.94Z" transform="translate(-4.67 -3.77)"/>
          <path class="cls-29" d="M52.23,61.2a1.85,1.85,0,0,1,.44.7.35.35,0,0,1-.34.47h0a.36.36,0,0,1-.31-.23,1.37,1.37,0,0,0-.28-.44,1.23,1.23,0,0,0-1.45-.21.36.36,0,0,1-.41,0h0a.35.35,0,0,1,.06-.57A2,2,0,0,1,52.23,61.2Z" transform="translate(-4.67 -3.77)"/>
        </g>
        <circle class="cls-32" cx="46.2" cy="57.65" r="0.41"/>
      </g>
      <g class="cls-24">
        <path class="cls-25" d="M47.45,68.28l.33-.34a.55.55,0,0,1,.77,0h0a.55.55,0,0,1,0,.77l-.33.33a.53.53,0,0,1-.77,0h0A.54.54,0,0,1,47.45,68.28Z" transform="translate(-4.67 -3.77)"/>
      </g>
      <path class="cls-19" d="M67.6,40.63l.33-.33a.55.55,0,0,1,.77,0h0a.54.54,0,0,1,0,.76l-.33.34a.55.55,0,0,1-.77,0h0A.55.55,0,0,1,67.6,40.63Z" transform="translate(-4.67 -3.77)"/>
      <path class="cls-20" d="M69.55,45.63l.33-.34a.55.55,0,0,1,.77,0h0a.55.55,0,0,1,0,.77l-.34.33a.54.54,0,0,1-.76,0h0A.52.52,0,0,1,69.55,45.63Z" transform="translate(-4.67 -3.77)"/>
    </g>
  </g>
</svg>
