<svg id="Layer_1" data-name="Layer 1" xmlns="http://www.w3.org/2000/svg" xmlns:xlink="http://www.w3.org/1999/xlink" viewBox="0 0 538.93 426.06">
  <defs>
    <style>
      .cls-1 {
        fill: none;
      }

      .cls-2 {
        fill: url(#linear-gradient);
      }

      .cls-3 {
        fill: url(#linear-gradient-2);
      }

      .cls-4 {
        fill: url(#linear-gradient-3);
      }

      .cls-5, .cls-6 {
        opacity: 0.3;
      }

      .cls-5 {
        fill: url(#linear-gradient-4);
      }

      .cls-6 {
        fill: url(#linear-gradient-5);
      }

      .cls-7 {
        fill: url(#linear-gradient-6);
      }

      .cls-8 {
        fill: url(#linear-gradient-7);
      }

      .cls-9 {
        fill: url(#linear-gradient-8);
      }

      .cls-10 {
        fill: url(#linear-gradient-9);
      }

      .cls-11 {
        fill: url(#linear-gradient-10);
      }

      .cls-12 {
        fill: url(#linear-gradient-11);
      }

      .cls-13 {
        fill: url(#linear-gradient-12);
      }

      .cls-14 {
        fill: url(#linear-gradient-13);
      }

      .cls-15 {
        fill: url(#linear-gradient-14);
      }

      .cls-16 {
        fill: url(#linear-gradient-15);
      }

      .cls-17 {
        fill: url(#linear-gradient-16);
      }

      .cls-18 {
        fill: url(#linear-gradient-17);
      }

      .cls-19 {
        fill: url(#linear-gradient-18);
      }

      .cls-20 {
        fill: url(#linear-gradient-19);
      }

      .cls-21 {
        fill: url(#linear-gradient-20);
      }

      .cls-22 {
        fill: url(#linear-gradient-21);
      }

      .cls-23 {
        fill: url(#linear-gradient-22);
      }

      .cls-24 {
        fill: url(#linear-gradient-23);
      }

      .cls-25 {
        fill: url(#linear-gradient-24);
      }

      .cls-26 {
        fill: url(#linear-gradient-25);
      }

      .cls-27 {
        fill: url(#linear-gradient-26);
      }

      .cls-28 {
        fill: url(#linear-gradient-27);
      }

      .cls-29 {
        fill: url(#linear-gradient-28);
      }

      .cls-30 {
        fill: url(#linear-gradient-29);
      }

      .cls-31 {
        fill: url(#linear-gradient-30);
      }

      .cls-32 {
        fill: url(#linear-gradient-31);
      }

      .cls-33 {
        clip-path: url(#clip-path);
      }

      .cls-34 {
        fill: #53d8ff;
      }

      .cls-35 {
        fill: #53d7ff;
      }

      .cls-36 {
        fill: #53d6ff;
      }

      .cls-37 {
        fill: #52d5ff;
      }

      .cls-38 {
        fill: #52d4ff;
      }

      .cls-39 {
        fill: #52d3ff;
      }

      .cls-40 {
        fill: #52d2ff;
      }

      .cls-41 {
        fill: #52d1ff;
      }

      .cls-42 {
        fill: #52d0ff;
      }

      .cls-43 {
        fill: #51cfff;
      }

      .cls-44 {
        fill: #51cefe;
      }

      .cls-45 {
        fill: #51cdfe;
      }

      .cls-46 {
        fill: #51ccfe;
      }

      .cls-47 {
        fill: #51cbfe;
      }

      .cls-48 {
        fill: #50cafe;
      }

      .cls-49 {
        fill: #50c9fe;
      }

      .cls-50 {
        fill: #50c8fe;
      }

      .cls-51 {
        fill: #50c7fe;
      }

      .cls-52 {
        fill: #50c6fe;
      }

      .cls-53 {
        fill: #50c5fe;
      }

      .cls-54 {
        fill: #4fc4fe;
      }

      .cls-55 {
        fill: #4fc3fe;
      }

      .cls-56 {
        fill: #4fc2fe;
      }

      .cls-57 {
        fill: #4fc1fe;
      }

      .cls-58 {
        fill: #4fc0fe;
      }

      .cls-59 {
        fill: #4fbffe;
      }

      .cls-60 {
        fill: #4ebefe;
      }

      .cls-61 {
        fill: #4ebdfe;
      }

      .cls-62 {
        fill: #4ebcfe;
      }

      .cls-63 {
        fill: #4ebbfd;
      }

      .cls-64 {
        fill: #4ebafd;
      }

      .cls-65 {
        fill: #4db9fd;
      }

      .cls-66 {
        fill: #4db8fd;
      }

      .cls-67 {
        fill: #4db7fd;
      }

      .cls-68 {
        fill: #4db6fd;
      }

      .cls-69 {
        fill: #4db5fd;
      }

      .cls-70 {
        fill: #4db4fd;
      }

      .cls-71 {
        fill: #4cb3fd;
      }

      .cls-72 {
        fill: #4cb2fd;
      }

      .cls-73 {
        fill: #4cb1fd;
      }

      .cls-74 {
        fill: #4cb0fd;
      }

      .cls-75 {
        fill: #4caffd;
      }

      .cls-76 {
        fill: #4baefd;
      }

      .cls-77 {
        fill: #4badfd;
      }

      .cls-78 {
        fill: #4bacfd;
      }

      .cls-79 {
        fill: #4babfd;
      }

      .cls-80 {
        fill: #4baafd;
      }

      .cls-81 {
        fill: #4ba9fd;
      }

      .cls-82 {
        fill: #4aa8fc;
      }

      .cls-83 {
        fill: #4aa7fc;
      }

      .cls-84 {
        fill: #4aa6fc;
      }

      .cls-85 {
        fill: #4aa5fc;
      }

      .cls-86 {
        fill: #4aa4fc;
      }

      .cls-87 {
        fill: #4aa3fc;
      }

      .cls-88 {
        fill: #49a2fc;
      }

      .cls-89 {
        fill: #49a1fc;
      }

      .cls-90 {
        fill: #49a0fc;
      }

      .cls-91 {
        fill: #499ffc;
      }

      .cls-92 {
        fill: #499efc;
      }

      .cls-93 {
        fill: #489dfc;
      }

      .cls-94 {
        fill: #489cfc;
      }

      .cls-95 {
        fill: #489bfc;
      }

      .cls-96 {
        fill: #489afc;
      }

      .cls-97 {
        fill: #4899fc;
      }

      .cls-98 {
        fill: #4898fc;
      }

      .cls-99 {
        fill: #4797fc;
      }

      .cls-100 {
        fill: #4796fc;
      }

      .cls-101 {
        fill: #4795fb;
      }

      .cls-102 {
        fill: #4794fb;
      }

      .cls-103 {
        fill: #4793fb;
      }

      .cls-104 {
        fill: #4692fb;
      }

      .cls-105 {
        fill: #4691fb;
      }

      .cls-106 {
        fill: #4690fb;
      }

      .cls-107 {
        fill: #468ffb;
      }

      .cls-108 {
        fill: #468efb;
      }

      .cls-109 {
        fill: #468dfb;
      }

      .cls-110 {
        fill: #458bfb;
      }

      .cls-111 {
        fill: #458afb;
      }

      .cls-112 {
        fill: #4589fb;
      }

      .cls-113 {
        fill: #4588fb;
      }

      .cls-114 {
        fill: #4587fb;
      }

      .cls-115 {
        fill: #4586fb;
      }

      .cls-116 {
        fill: #4485fb;
      }

      .cls-117 {
        fill: #4484fb;
      }

      .cls-118 {
        fill: #4483fb;
      }

      .cls-119 {
        fill: #4482fa;
      }

      .cls-120 {
        fill: #4481fa;
      }

      .cls-121 {
        fill: #4380fa;
      }

      .cls-122 {
        fill: #437ffa;
      }

      .cls-123 {
        fill: #437efa;
      }

      .cls-124 {
        fill: #437dfa;
      }

      .cls-125 {
        fill: #437cfa;
      }

      .cls-126 {
        fill: #437bfa;
      }

      .cls-127 {
        fill: #427afa;
      }

      .cls-128 {
        fill: #4279fa;
      }

      .cls-129 {
        fill: #4278fa;
      }

      .cls-130 {
        fill: #4277fa;
      }

      .cls-131 {
        fill: #4276fa;
      }

      .cls-132 {
        fill: #4175fa;
      }

      .cls-133 {
        fill: #4174fa;
      }

      .cls-134 {
        fill: #4173fa;
      }

      .cls-135 {
        fill: #4172fa;
      }

      .cls-136 {
        fill: #4171fa;
      }

      .cls-137 {
        fill: #4170fa;
      }

      .cls-138 {
        fill: #406ff9;
      }

      .cls-139 {
        fill: #406ef9;
      }

      .cls-140 {
        fill: #406df9;
      }

      .cls-141 {
        fill: #406cf9;
      }

      .cls-142 {
        fill: #406bf9;
      }

      .cls-143 {
        fill: #406af9;
      }

      .cls-144 {
        fill: #3f69f9;
      }

      .cls-145 {
        fill: #3f68f9;
      }

      .cls-146 {
        fill: #3f67f9;
      }

      .cls-147 {
        fill: #3f66f9;
      }

      .cls-148 {
        fill: #3f65f9;
      }

      .cls-149 {
        fill: #3e64f9;
      }

      .cls-150 {
        fill: #3e63f9;
      }

      .cls-151 {
        fill: #3e62f9;
      }

      .cls-152 {
        fill: #3e61f9;
      }

      .cls-153 {
        fill: #3e60f9;
      }

      .cls-154 {
        fill: #3e5ff9;
      }

      .cls-155 {
        fill: #3d5ef9;
      }

      .cls-156 {
        fill: #3d5df9;
      }

      .cls-157 {
        fill: #3d5cf8;
      }

      .cls-158 {
        fill: #3d5bf8;
      }

      .cls-159 {
        fill: #3d5af8;
      }

      .cls-160 {
        fill: #3c59f8;
      }

      .cls-161 {
        fill: #3c58f8;
      }

      .cls-162 {
        fill: #3c57f8;
      }

      .cls-163 {
        fill: #3c56f8;
      }

      .cls-164 {
        fill: #3c55f8;
      }

      .cls-165 {
        fill: #3c54f8;
      }

      .cls-166 {
        fill: #3b53f8;
      }

      .cls-167 {
        fill: #3b52f8;
      }

      .cls-168 {
        fill: #3b51f8;
      }

      .cls-169 {
        fill: #3b50f8;
      }

      .cls-170 {
        fill: #3b4ff8;
      }

      .cls-171 {
        fill: #3b4ef8;
      }

      .cls-172 {
        fill: #3a4df8;
      }

      .cls-173 {
        fill: #3a4cf8;
      }

      .cls-174 {
        fill: #3a4bf8;
      }

      .cls-175 {
        fill: #3a4af8;
      }

      .cls-176 {
        fill: #3a49f7;
      }

      .cls-177 {
        fill: #3948f7;
      }

      .cls-178 {
        fill: #3947f7;
      }

      .cls-179 {
        fill: #3946f7;
      }

      .cls-180 {
        fill: #3945f7;
      }

      .cls-181 {
        fill: #3944f7;
      }

      .cls-182 {
        fill: #3943f7;
      }

      .cls-183 {
        fill: #3842f7;
      }

      .cls-184 {
        fill: #3841f7;
      }

      .cls-185 {
        fill: #3840f7;
      }

      .cls-186 {
        fill: url(#linear-gradient-32);
      }

      .cls-187 {
        fill: url(#linear-gradient-33);
      }

      .cls-188 {
        fill: url(#linear-gradient-34);
      }

      .cls-189 {
        fill: url(#linear-gradient-35);
      }

      .cls-190 {
        fill: url(#linear-gradient-36);
      }

      .cls-191 {
        fill: url(#linear-gradient-37);
      }

      .cls-192 {
        fill: url(#linear-gradient-38);
      }

      .cls-193 {
        fill: url(#linear-gradient-39);
      }

      .cls-194 {
        fill: #fff;
      }

      .cls-195 {
        fill: url(#linear-gradient-40);
      }

      .cls-196 {
        fill: url(#linear-gradient-41);
      }

      .cls-197 {
        fill: url(#linear-gradient-42);
      }

      .cls-198 {
        fill: url(#linear-gradient-43);
      }

      .cls-199 {
        fill: url(#linear-gradient-44);
      }

      .cls-200 {
        fill: url(#linear-gradient-45);
      }

      .cls-201 {
        fill: url(#linear-gradient-46);
      }

      .cls-202 {
        fill: url(#linear-gradient-47);
      }

      .cls-203 {
        fill: url(#linear-gradient-48);
      }

      .cls-204 {
        fill: url(#linear-gradient-49);
      }

      .cls-205 {
        fill: url(#linear-gradient-50);
      }

      .cls-206 {
        fill: url(#linear-gradient-51);
      }

      .cls-207 {
        fill: #e78456;
      }

      .cls-208 {
        fill: url(#linear-gradient-52);
      }

      .cls-209 {
        fill: url(#linear-gradient-53);
      }

      .cls-210 {
        fill: url(#linear-gradient-54);
      }

      .cls-211 {
        fill: url(#linear-gradient-55);
      }

      .cls-212 {
        fill: url(#linear-gradient-56);
      }

      .cls-213 {
        clip-path: url(#clip-path-2);
      }

      .cls-214 {
        fill: url(#linear-gradient-57);
      }

      .cls-215 {
        fill: url(#linear-gradient-58);
      }

      .cls-216 {
        fill: url(#linear-gradient-59);
      }

      .cls-217 {
        fill: url(#linear-gradient-60);
      }

      .cls-218 {
        fill: url(#linear-gradient-61);
      }

      .cls-219 {
        fill: url(#linear-gradient-62);
      }

      .cls-220 {
        fill: url(#linear-gradient-63);
      }

      .cls-221 {
        fill: url(#linear-gradient-64);
      }

      .cls-222 {
        fill: url(#linear-gradient-65);
      }

      .cls-223 {
        fill: url(#linear-gradient-66);
      }

      .cls-224 {
        fill: url(#linear-gradient-67);
      }

      .cls-225 {
        fill: url(#linear-gradient-68);
      }

      .cls-226 {
        fill: url(#linear-gradient-69);
      }

      .cls-227 {
        fill: url(#linear-gradient-70);
      }

      .cls-228 {
        fill: url(#linear-gradient-71);
      }

      .cls-229 {
        fill: #ce41a4;
      }
    </style>
    <linearGradient id="linear-gradient" x1="4061.46" y1="135.82" x2="4314.88" y2="135.82" gradientTransform="matrix(-1, 0, 0, 1, 4526.6, 0)" gradientUnits="userSpaceOnUse">
      <stop offset="0" stop-color="#5ab6ff"/>
      <stop offset="1" stop-color="#2f68e3"/>
    </linearGradient>
    <linearGradient id="linear-gradient-2" x1="4302.1" y1="132.07" x2="3919.11" y2="160.32" xlink:href="#linear-gradient"/>
    <linearGradient id="linear-gradient-3" x1="4011.54" y1="304.85" x2="4440.26" y2="304.85" gradientTransform="matrix(-1, 0, 0, 1, 4526.6, 0)" gradientUnits="userSpaceOnUse">
      <stop offset="0" stop-color="#2b3582"/>
      <stop offset="1" stop-color="#150e42"/>
    </linearGradient>
    <linearGradient id="linear-gradient-4" x1="4058.25" y1="262.96" x2="4174.35" y2="262.96" gradientTransform="matrix(-1, 0, 0, 1, 4521.52, -9.71)" xlink:href="#linear-gradient"/>
    <linearGradient id="linear-gradient-5" x1="4281.83" y1="262.96" x2="4397.93" y2="262.96" gradientTransform="matrix(-1, 0, 0, 1, 4521.52, -9.71)" xlink:href="#linear-gradient"/>
    <linearGradient id="linear-gradient-6" x1="4245.54" y1="350.31" x2="4498.77" y2="35.49" gradientTransform="matrix(-1, 0, 0, 1, 4526.6, 0)" gradientUnits="userSpaceOnUse">
      <stop offset="0" stop-color="#fdf53f"/>
      <stop offset="0.66" stop-color="#e57a58"/>
      <stop offset="1" stop-color="#d93c65"/>
    </linearGradient>
    <linearGradient id="linear-gradient-7" x1="4273.77" y1="373.01" x2="4526.99" y2="58.19" gradientTransform="matrix(-1, 0, 0, 1, 4526.6, 0)" gradientUnits="userSpaceOnUse">
      <stop offset="0" stop-color="#50e7b7"/>
      <stop offset="1" stop-color="#323992"/>
    </linearGradient>
    <linearGradient id="linear-gradient-8" x1="-565.5" y1="-3473.84" x2="-580.71" y2="-3419.09" gradientTransform="matrix(-0.99, 0.12, 0.12, 0.99, -91.96, 3506.91)" xlink:href="#linear-gradient-6"/>
    <linearGradient id="linear-gradient-9" x1="-650" y1="-3125.45" x2="-396.77" y2="-3440.27" gradientTransform="matrix(0, 1, 1, 0, 3342.97, 896.21)" gradientUnits="userSpaceOnUse">
      <stop offset="0" stop-color="#53d8ff"/>
      <stop offset="1" stop-color="#3840f7"/>
    </linearGradient>
    <linearGradient id="linear-gradient-10" x1="4138.4" y1="217.09" x2="4061.53" y2="350.33" xlink:href="#linear-gradient-3"/>
    <linearGradient id="linear-gradient-11" x1="2210.18" y1="235.58" x2="2194.25" y2="263.19" gradientTransform="matrix(-1, 0, 0, 1, 2526.6, 0)" gradientUnits="userSpaceOnUse">
      <stop offset="0" stop-color="#2c759e"/>
      <stop offset="1" stop-color="#051042"/>
    </linearGradient>
    <linearGradient id="linear-gradient-12" x1="2249.63" y1="235.58" x2="2233.71" y2="263.19" xlink:href="#linear-gradient-11"/>
    <linearGradient id="linear-gradient-13" x1="4172.05" y1="495.19" x2="3899.39" y2="254.01" gradientTransform="matrix(-1, 0, 0, 1, 4521.52, -9.71)" gradientUnits="userSpaceOnUse">
      <stop offset="0" stop-color="#cb236d"/>
      <stop offset="1" stop-color="#4c246d"/>
    </linearGradient>
    <linearGradient id="linear-gradient-14" x1="3946.72" y1="350.47" x2="4351.64" y2="343.72" gradientTransform="matrix(-1, 0, 0, 1, 4521.52, -9.71)" gradientUnits="userSpaceOnUse">
      <stop offset="0" stop-color="#c32b78"/>
      <stop offset="1" stop-color="#593092"/>
    </linearGradient>
    <linearGradient id="linear-gradient-15" x1="4072.18" y1="318.12" x2="3992.51" y2="247.64" xlink:href="#linear-gradient-13"/>
    <linearGradient id="linear-gradient-16" x1="4046.73" y1="336.36" x2="3998.63" y2="293.82" xlink:href="#linear-gradient-13"/>
    <linearGradient id="linear-gradient-17" x1="4082.87" y1="337.2" x2="4021.73" y2="283.12" xlink:href="#linear-gradient-13"/>
    <linearGradient id="linear-gradient-18" x1="4094.2" y1="397.36" x2="4421.41" y2="391.9" gradientTransform="matrix(-1, 0, 0, 1, 4526.6, 0)" gradientUnits="userSpaceOnUse">
      <stop offset="0" stop-color="#f9b776"/>
      <stop offset="1" stop-color="#f47960"/>
    </linearGradient>
    <linearGradient id="linear-gradient-19" x1="4216.17" y1="410.53" x2="4176.91" y2="410.64" gradientTransform="matrix(-1, 0, 0, 1, 4521.52, -9.71)" xlink:href="#linear-gradient-3"/>
    <linearGradient id="linear-gradient-20" x1="4235.8" y1="418.12" x2="4151.96" y2="419.07" xlink:href="#linear-gradient-3"/>
    <linearGradient id="linear-gradient-21" x1="4203.85" y1="410.57" x2="4232.15" y2="410.57" gradientTransform="matrix(-1, 0, 0, 1, 4521.52, -9.71)" xlink:href="#linear-gradient-3"/>
    <linearGradient id="linear-gradient-22" x1="4166.36" y1="359.28" x2="4261.15" y2="359.28" xlink:href="#linear-gradient-13"/>
    <linearGradient id="linear-gradient-23" x1="4190.33" y1="418.04" x2="4246.54" y2="418.04" xlink:href="#linear-gradient-3"/>
    <linearGradient id="linear-gradient-24" x1="4180.59" y1="358.36" x2="4155.83" y2="361.69" xlink:href="#linear-gradient-3"/>
    <linearGradient id="linear-gradient-25" x1="4119.92" y1="349.72" x2="3852.54" y2="638.26" gradientTransform="matrix(-1, 0, 0, 1, 4526.6, 0)" gradientUnits="userSpaceOnUse">
      <stop offset="0" stop-color="#e92556"/>
      <stop offset="1" stop-color="#f9c342"/>
    </linearGradient>
    <linearGradient id="linear-gradient-26" x1="3996.41" y1="253.12" x2="3972.08" y2="358.27" gradientTransform="matrix(-0.99, 0.16, 0.16, 0.99, 4322.16, -585.31)" xlink:href="#linear-gradient-18"/>
    <linearGradient id="linear-gradient-27" x1="4139.02" y1="-255.81" x2="4089.71" y2="-218.08" gradientTransform="matrix(-0.94, 0.35, 0.35, 0.94, 4373.58, -903.8)" xlink:href="#linear-gradient-18"/>
    <linearGradient id="linear-gradient-28" x1="4104.3" y1="-285.68" x2="4150.23" y2="-226.55" gradientTransform="matrix(-0.94, 0.35, 0.35, 0.94, 4373.58, -903.8)" xlink:href="#linear-gradient-13"/>
    <linearGradient id="linear-gradient-29" x1="4132.9" y1="-263.8" x2="4083.59" y2="-226.07" gradientTransform="matrix(-0.94, 0.35, 0.35, 0.94, 4373.58, -903.8)" xlink:href="#linear-gradient-18"/>
    <linearGradient id="linear-gradient-30" x1="4179.8" y1="387.93" x2="4200.32" y2="387.93" gradientTransform="matrix(-1, 0, 0, 1, 4526.6, 0)" xlink:href="#linear-gradient-9"/>
    <linearGradient id="linear-gradient-31" x1="4090.22" y1="308.18" x2="4111.21" y2="293.95" gradientTransform="matrix(-1, 0, 0, 1, 4526.6, 0)" xlink:href="#linear-gradient-9"/>
    <clipPath id="clip-path" transform="translate(-5.07 -9.71)">
      <rect class="cls-1" x="409.76" y="305.52" width="5.66" height="3.54" rx="1.51"/>
    </clipPath>
    <linearGradient id="linear-gradient-32" x1="4157.14" y1="255.51" x2="4008.59" y2="280.05" gradientTransform="matrix(-1, 0, 0, 1, 4526.6, 0)" xlink:href="#linear-gradient-9"/>
    <linearGradient id="linear-gradient-33" x1="4121.05" y1="280.98" x2="4039.23" y2="294.5" gradientTransform="matrix(-1, 0, 0, 1, 4526.6, 0)" xlink:href="#linear-gradient-9"/>
    <linearGradient id="linear-gradient-34" x1="4082.57" y1="285.7" x2="4125.26" y2="284.99" gradientTransform="matrix(-1, 0, 0, 1, 4526.6, 0)" xlink:href="#linear-gradient-9"/>
    <linearGradient id="linear-gradient-35" x1="4248.85" y1="423.45" x2="3811.78" y2="428.37" gradientTransform="matrix(-1, 0, 0, 1, 4526.6, 0)" gradientUnits="userSpaceOnUse">
      <stop offset="0" stop-color="#ed539f"/>
      <stop offset="1" stop-color="#a061c2"/>
    </linearGradient>
    <linearGradient id="linear-gradient-36" x1="4131.92" y1="415.83" x2="4156.53" y2="415.83" xlink:href="#linear-gradient-3"/>
    <linearGradient id="linear-gradient-37" x1="4014.61" y1="402.18" x2="4412.22" y2="395.55" xlink:href="#linear-gradient-18"/>
    <linearGradient id="linear-gradient-38" x1="2093.34" y1="396.42" x2="2059.9" y2="323.38" gradientTransform="matrix(-1, 0, 0, 1, 2526.6, 0)" xlink:href="#linear-gradient-25"/>
    <linearGradient id="linear-gradient-39" x1="2071.33" y1="406.5" x2="2037.89" y2="333.45" gradientTransform="matrix(-1, 0, 0, 1, 2526.6, 0)" xlink:href="#linear-gradient-25"/>
    <linearGradient id="linear-gradient-40" x1="4517.85" y1="-952.09" x2="4542.62" y2="-926.22" gradientTransform="matrix(-0.96, 0.26, 0.26, 0.96, 4732.8, -95.98)" xlink:href="#linear-gradient-3"/>
    <linearGradient id="linear-gradient-41" x1="4426.23" y1="146.45" x2="4452.02" y2="49.3" gradientTransform="matrix(-1, 0, 0, 1, 4588.75, 0)" xlink:href="#linear-gradient-13"/>
    <linearGradient id="linear-gradient-42" x1="4497.74" y1="237.16" x2="4544.6" y2="271.55" gradientTransform="matrix(-1, 0, 0, 1, 4588.75, 0)" xlink:href="#linear-gradient-3"/>
    <linearGradient id="linear-gradient-43" x1="4573.1" y1="-905.44" x2="4474.52" y2="-985.97" gradientTransform="matrix(-0.96, 0.26, 0.26, 0.96, 4732.8, -95.98)" xlink:href="#linear-gradient-6"/>
    <linearGradient id="linear-gradient-44" x1="4546.87" y1="276.61" x2="4448.29" y2="196.08" gradientTransform="matrix(-1, 0, 0, 1, 4588.75, 0)" xlink:href="#linear-gradient-6"/>
    <linearGradient id="linear-gradient-45" x1="4422.04" y1="110.07" x2="4390.23" y2="147.89" gradientTransform="matrix(-1, 0, 0, 1, 4588.75, 0)" xlink:href="#linear-gradient-18"/>
    <linearGradient id="linear-gradient-46" x1="4332.59" y1="39.97" x2="4383.55" y2="218.77" gradientTransform="matrix(-1, 0, 0, 1, 4588.75, 0)" xlink:href="#linear-gradient-6"/>
    <linearGradient id="linear-gradient-47" x1="4346.06" y1="72.4" x2="4348.4" y2="51.32" gradientTransform="matrix(-1, 0, 0, 1, 4588.75, 0)" xlink:href="#linear-gradient-18"/>
    <linearGradient id="linear-gradient-48" x1="4358.55" y1="54.01" x2="4348.23" y2="19.97" gradientTransform="matrix(-1, 0, 0, 1, 4588.75, 0)" xlink:href="#linear-gradient-18"/>
    <linearGradient id="linear-gradient-49" x1="4349.26" y1="-8.38" x2="4358.83" y2="46.24" gradientTransform="matrix(-1, 0, 0, 1, 4588.75, 0)" xlink:href="#linear-gradient-3"/>
    <linearGradient id="linear-gradient-50" x1="4347.86" y1="57.26" x2="4337.54" y2="23.21" gradientTransform="matrix(-1, 0, 0, 1, 4588.75, 0)" xlink:href="#linear-gradient-18"/>
    <linearGradient id="linear-gradient-51" x1="4472.8" y1="104.29" x2="4443.35" y2="134.16" gradientTransform="matrix(-1, 0, 0, 1, 4588.75, 0)" gradientUnits="userSpaceOnUse">
      <stop offset="0" stop-color="#fdf53f"/>
      <stop offset="1" stop-color="#d93c65"/>
    </linearGradient>
    <linearGradient id="linear-gradient-52" x1="4436.26" y1="171.64" x2="4337.79" y2="208.78" gradientTransform="matrix(-1, 0, 0, 1, 4526.6, 0)" xlink:href="#linear-gradient-13"/>
    <linearGradient id="linear-gradient-53" x1="4384.95" y1="144.48" x2="4448.53" y2="57.5" gradientTransform="matrix(-1, 0, 0, 1, 4588.75, 0)" xlink:href="#linear-gradient-18"/>
    <linearGradient id="linear-gradient-54" x1="4432.23" y1="124.8" x2="4480.61" y2="124.8" gradientTransform="matrix(-1, 0, 0, 1, 4588.75, 0)" xlink:href="#linear-gradient-3"/>
    <linearGradient id="linear-gradient-55" x1="4438.1" y1="145.95" x2="4399.42" y2="156.56" gradientTransform="matrix(-1, 0, 0, 1, 4588.75, 0)" xlink:href="#linear-gradient-3"/>
    <linearGradient id="linear-gradient-56" x1="4240.1" y1="-329.19" x2="4255.79" y2="-339.82" gradientTransform="matrix(-1, 0.08, 0.08, 1, 4504.75, 39.76)" xlink:href="#linear-gradient-9"/>
    <clipPath id="clip-path-2" transform="translate(-5.07 -9.71)">
      <rect class="cls-1" x="231.57" y="52.18" width="4.3" height="2.58" rx="1.12" transform="translate(-3.54 18.98) rotate(-4.62)"/>
    </clipPath>
    <linearGradient id="linear-gradient-57" x1="4290.12" y1="-368.56" x2="4179.08" y2="-350.21" gradientTransform="matrix(-1, 0.08, 0.08, 1, 4504.75, 39.76)" xlink:href="#linear-gradient-9"/>
    <linearGradient id="linear-gradient-58" x1="4263.15" y1="-349.52" x2="4201.98" y2="-339.41" gradientTransform="matrix(-1, 0.08, 0.08, 1, 4504.75, 39.76)" xlink:href="#linear-gradient-9"/>
    <linearGradient id="linear-gradient-59" x1="4234.39" y1="-345.99" x2="4266.3" y2="-346.52" gradientTransform="matrix(-1, 0.08, 0.08, 1, 4504.75, 39.76)" xlink:href="#linear-gradient-9"/>
    <linearGradient id="linear-gradient-60" x1="8577.89" y1="-1417.75" x2="8544.42" y2="-1438.04" gradientTransform="matrix(0.82, 0.57, -0.66, 0.65, -7938.6, -3809.93)" xlink:href="#linear-gradient-9"/>
    <linearGradient id="linear-gradient-61" x1="8559.31" y1="-1425.25" x2="8521.01" y2="-1465.75" gradientTransform="matrix(0.82, 0.57, -0.66, 0.65, -7933.53, -3800.22)" xlink:href="#linear-gradient-9"/>
    <linearGradient id="linear-gradient-62" x1="8575.45" y1="-1418.09" x2="8544.18" y2="-1437.04" gradientTransform="matrix(0.82, 0.57, -0.66, 0.65, -7938.6, -3809.93)" xlink:href="#linear-gradient-9"/>
    <linearGradient id="linear-gradient-63" x1="-12593.59" y1="-1229.46" x2="-12579.3" y2="-1233.59" gradientTransform="matrix(-0.82, -0.57, -0.57, 0.82, -11006.5, -6016.34)" xlink:href="#linear-gradient-9"/>
    <linearGradient id="linear-gradient-64" x1="8608.3" y1="-1331.32" x2="8574.83" y2="-1351.6" gradientTransform="matrix(0.82, 0.57, -0.66, 0.65, -7938.6, -3809.93)" xlink:href="#linear-gradient-9"/>
    <linearGradient id="linear-gradient-65" x1="8589.72" y1="-1338.82" x2="8551.42" y2="-1379.32" gradientTransform="matrix(0.82, 0.57, -0.66, 0.65, -7933.53, -3800.22)" xlink:href="#linear-gradient-9"/>
    <linearGradient id="linear-gradient-66" x1="8605.86" y1="-1331.65" x2="8574.59" y2="-1350.6" gradientTransform="matrix(0.82, 0.57, -0.66, 0.65, -7938.6, -3809.93)" xlink:href="#linear-gradient-9"/>
    <linearGradient id="linear-gradient-67" x1="-12608.54" y1="-1150.74" x2="-12594.26" y2="-1154.87" gradientTransform="matrix(-0.82, -0.57, -0.57, 0.82, -11006.5, -6016.34)" xlink:href="#linear-gradient-9"/>
    <linearGradient id="linear-gradient-68" x1="8596.22" y1="-1370.96" x2="8547.76" y2="-1400.33" gradientTransform="matrix(0.82, 0.57, -0.66, 0.65, -7938.6, -3809.93)" xlink:href="#linear-gradient-13"/>
    <linearGradient id="linear-gradient-69" x1="3528.56" y1="2119.41" x2="3431.69" y2="2253.35" gradientTransform="matrix(-0.86, -0.51, -0.51, 0.86, 4143.78, 63.89)" xlink:href="#linear-gradient-13"/>
    <linearGradient id="linear-gradient-70" x1="8592.68" y1="-1371.45" x2="8547.42" y2="-1398.88" gradientTransform="matrix(0.82, 0.57, -0.66, 0.65, -7938.6, -3809.93)" xlink:href="#linear-gradient-13"/>
    <linearGradient id="linear-gradient-71" x1="-12596.4" y1="-1191.07" x2="-12575.72" y2="-1197.06" gradientTransform="matrix(-0.82, -0.57, -0.57, 0.82, -11006.5, -6016.34)" xlink:href="#linear-gradient-13"/>
  </defs>
  <g>
    <g>
      <path class="cls-2" d="M262.25,126a1.62,1.62,0,0,0,1.58-1.59c.16-8.9,2.94-53.07,41.84-62.31C349,51.85,368.81,95.89,368.81,95.89s53.59-20.55,63.86,34.51c33.6,8.06,42.34,51.94,20.48,73.39a18.75,18.75,0,0,1-13,5.37l-210.44,1.9a13.86,13.86,0,0,1-13.41-9.91C209.74,179,201.12,127.45,262.25,126Z" transform="translate(-5.07 -9.71)"/>
      <path class="cls-3" d="M267.06,127a1.62,1.62,0,0,0,1.58-1.58c.17-8.54,2.92-49.5,39.56-58.09,41-9.59,59.7,31.54,59.7,31.54s50.67-19.2,60.39,32.22c31.47,7.46,39.87,47.73,19.95,67.95A18.81,18.81,0,0,1,435,204.61l-198.09,1.76a13.85,13.85,0,0,1-13.42-9.94C217.32,175.36,210,128.33,267.06,127Z" transform="translate(-5.07 -9.71)"/>
    </g>
    <g>
      <path class="cls-4" d="M86.56,389.77l15.16-133.94,0,0c3.3-46.1,41.72-81.93,88.65-81.93,28.18,0,53.27,14.38,69.56,34.11h81.47c16.29-19.73,41.39-34.11,69.56-34.11a88.67,88.67,0,0,1,88.66,82.2l0-.15,15.16,133.87a35.64,35.64,0,0,1-21.41,36.78l-15,6.42c-14.07,6-30.41,1.76-40.62-9.64l-71.84-80.86H235.47l-71.83,80.85A35.79,35.79,0,0,1,123,432.71l-15-6.28A35.48,35.48,0,0,1,86.56,389.77Z" transform="translate(-5.07 -9.71)"/>
      <circle class="cls-5" cx="405.22" cy="253.24" r="58.05"/>
      <circle class="cls-6" cx="181.64" cy="253.24" r="58.05"/>
      <g>
        <g>
          <path class="cls-7" d="M173.1,232.79a13.44,13.44,0,1,0,13.43-13.43A13.43,13.43,0,0,0,173.1,232.79Z" transform="translate(-5.07 -9.71)"/>
          <path class="cls-8" d="M173.1,290.59a13.44,13.44,0,1,0,13.43-13.44A13.43,13.43,0,0,0,173.1,290.59Z" transform="translate(-5.07 -9.71)"/>
        </g>
        <g>
          <circle class="cls-9" cx="157.64" cy="261.69" r="13.44" transform="translate(-126.43 376.46) rotate(-82.98)"/>
          <circle class="cls-10" cx="210.36" cy="251.98" r="13.44"/>
        </g>
      </g>
      <path class="cls-11" d="M383.33,256.45h19.29l2.64-26.71c.27-2.64,2.48-5.57,5.13-5.57h6.41c1.43,0,2.79,1.09,3.76,2.13a6.82,6.82,0,0,1,1.39,4.52l-1.49,25.63h24c2.85,0,7.27,1.47,7.27,4.31v4.9c0,2.85-4.42,5.14-7.27,5.14h-25L418,296.41a5.19,5.19,0,0,1-5.15,4.88h-9.2a5.2,5.2,0,0,1-5.13-5.73l2.53-24.76H383.33a5.09,5.09,0,0,1-5.1-5.14v-4.9C378.23,257.92,380.48,256.45,383.33,256.45Z" transform="translate(-5.07 -9.71)"/>
      <g>
        <path class="cls-12" d="M310.08,244.79a2.69,2.69,0,0,0,2.69,2.7h17.94a2.7,2.7,0,0,0,2.69-2.7h0a2.7,2.7,0,0,0-2.69-2.69H312.77a2.69,2.69,0,0,0-2.69,2.69Z" transform="translate(-5.07 -9.71)"/>
        <path class="cls-13" d="M270.62,244.79a2.7,2.7,0,0,0,2.69,2.7h17.94a2.7,2.7,0,0,0,2.69-2.7h0a2.7,2.7,0,0,0-2.69-2.69H273.31a2.7,2.7,0,0,0-2.69,2.69Z" transform="translate(-5.07 -9.71)"/>
      </g>
    </g>
    <g>
      <g>
        <polygon class="cls-14" points="507.57 269.38 519.95 268.51 535.39 313.71 515.15 415.18 495.94 412.35 507.57 269.38"/>
        <polygon class="cls-15" points="433.71 408.04 458.17 315.33 472.77 265.13 507.57 269.38 523.58 316.06 501.6 412.34 433.65 412.34 433.71 408.04"/>
        <polygon class="cls-16" points="519.95 268.51 488.79 264 472.77 265.13 507.57 269.38 519.95 268.51"/>
        <polygon class="cls-17" points="512.95 313.76 495.9 308.41 495.9 287.12 504.43 287.88 512.95 313.76"/>
        <polygon class="cls-18" points="481.84 284.44 474.05 282.47 466.97 305.97 478.47 305.97 481.84 284.44"/>
      </g>
      <path class="cls-19" d="M391,377.94s-8.51,43.4-11.59,43.4-60.2-6.84-60.2-6.84V402.13l45.17,1.66,10.91-32.25Z" transform="translate(-5.07 -9.71)"/>
      <g>
        <g>
          <rect class="cls-20" x="293.62" y="396.26" width="28.3" height="9.2"/>
          <path class="cls-21" d="M286,420v1.51h55.89V420c0-3-2.32-4.86-5.34-4.86h-45.3C288.2,415.17,286,417,286,420Z" transform="translate(-5.07 -9.71)"/>
          <rect class="cls-22" x="289.38" y="396.26" width="28.3" height="9.2"/>
          <rect class="cls-23" x="260.37" y="302.88" width="94.79" height="93.38" rx="4.8"/>
          <path class="cls-24" d="M280.06,420.88l5.7.3,22.4.36h28.1v-1.13a5.58,5.58,0,0,0-5.44-5.61l-22.65-.15-22.65-.11a5.43,5.43,0,0,0-5.47,5.41Z" transform="translate(-5.07 -9.71)"/>
        </g>
        <path class="cls-25" d="M355.23,312.84a5,5,0,0,1,5,4.85V401.6a4.94,4.94,0,0,1-5,4.8,2.11,2.11,0,0,1-2.12-2V314.75A2.06,2.06,0,0,1,355.23,312.84Z" transform="translate(-5.07 -9.71)"/>
      </g>
      <path class="cls-26" d="M401.73,425h76.13l-4.63-54.14s5.69-40.81-20.27-45.33c-15.3-4.16-15.3-4.17-15.3-4.17s-19.57-3.08-35.93,4.15-29.88,50.62-29.88,50.62L391.41,384l5-15.94Z" transform="translate(-5.07 -9.71)"/>
      <path class="cls-27" d="M434,295.34l7.75,29.76s-16.2,7.82-30,1l4.34-28.85Z" transform="translate(-5.07 -9.71)"/>
      <path class="cls-28" d="M397.5,271.32s-1.23,21.57,1.82,31.53,3.29,17.07,15.3,14.87,19.43-11.32,21-22.94c0,0,2.54-17.95-1.53-23.42S397.5,271.32,397.5,271.32Z" transform="translate(-5.07 -9.71)"/>
      <path class="cls-29" d="M429.19,289.21l-.75,0a1.65,1.65,0,0,1-1.54-1.85c.45-3.66,1-11.85-3.65-12-5.95-.21-27.94,3.16-35-2.47-6.81-5.41-6.38-15.8-1.67-20.44a.84.84,0,0,1,1.14,0l.79.72a.82.82,0,0,0,1.37-.67h0a.81.81,0,0,1,1.3-.7c2.16,1.67,7.12,3.84,17.58,2,14.87-2.56,26.15-.32,29.92,9.21a.82.82,0,0,0,1.42.2c.8-1,2.34-1.91,5.22-.87,5,1.8,6.51,10.72.66,20.67a.81.81,0,0,0,.49,1.21c1.89.43,5,1.95.31,7.25-4.87,5.48-9.51,6.89-11.36,7.24a.82.82,0,0,1-1-.69l-1.25-9.14a.82.82,0,0,0-1.09-.66Z" transform="translate(-5.07 -9.71)"/>
      <path class="cls-30" d="M429.49,291.13s-1.29-13,5.26-11.65,2.15,14.32-2,16.35Z" transform="translate(-5.07 -9.71)"/>
      <path class="cls-31" d="M327,400.31h14.56a5.57,5.57,0,0,0,5.25-5.71V376.26a.71.71,0,1,0-1.42,0V394.6c0,2.08-1.54,4.3-3.83,4.3H327a.71.71,0,0,0-.71.71A.7.7,0,0,0,327,400.31Z" transform="translate(-5.07 -9.71)"/>
      <g>
        <g>
          <path class="cls-32" d="M413.28,307.68c13.94-1.32,19.49-16.92,19.55-17.08l-1-.35c-.05.15-5.39,15.11-18.64,16.37Z" transform="translate(-5.07 -9.71)"/>
          <g class="cls-33">
            <polygon class="cls-34" points="410.34 297.71 409.79 299.35 410.34 299.35 410.34 297.71"/>
            <polygon class="cls-34" points="409.81 295.81 409.75 299.35 409.79 299.35 410.34 297.71 410.34 295.81 409.81 295.81"/>
            <polygon class="cls-35" points="409.77 295.81 409.71 299.35 409.75 299.35 409.81 295.81 409.77 295.81"/>
            <polygon class="cls-36" points="409.73 295.81 409.67 299.35 409.71 299.35 409.77 295.81 409.73 295.81"/>
            <polygon class="cls-37" points="409.69 295.81 409.63 299.35 409.67 299.35 409.73 295.81 409.69 295.81"/>
            <polygon class="cls-38" points="409.65 295.81 409.59 299.35 409.63 299.35 409.69 295.81 409.65 295.81"/>
            <polygon class="cls-39" points="409.61 295.81 409.55 299.35 409.59 299.35 409.65 295.81 409.61 295.81"/>
            <polygon class="cls-40" points="409.57 295.81 409.51 299.35 409.55 299.35 409.61 295.81 409.57 295.81"/>
            <polygon class="cls-41" points="409.53 295.81 409.47 299.35 409.51 299.35 409.57 295.81 409.53 295.81"/>
            <polygon class="cls-42" points="409.49 295.81 409.43 299.35 409.47 299.35 409.53 295.81 409.49 295.81"/>
            <polygon class="cls-43" points="409.45 295.81 409.39 299.35 409.43 299.35 409.49 295.81 409.45 295.81"/>
            <polygon class="cls-44" points="409.41 295.81 409.35 299.35 409.39 299.35 409.45 295.81 409.41 295.81"/>
            <polygon class="cls-45" points="409.37 295.81 409.31 299.35 409.35 299.35 409.41 295.81 409.37 295.81"/>
            <polygon class="cls-46" points="409.33 295.81 409.27 299.35 409.31 299.35 409.37 295.81 409.33 295.81"/>
            <polygon class="cls-47" points="409.29 295.81 409.24 299.35 409.27 299.35 409.33 295.81 409.29 295.81"/>
            <polygon class="cls-48" points="409.25 295.81 409.19 299.35 409.24 299.35 409.29 295.81 409.25 295.81"/>
            <polygon class="cls-49" points="409.21 295.81 409.15 299.35 409.19 299.35 409.25 295.81 409.21 295.81"/>
            <polygon class="cls-50" points="409.17 295.81 409.12 299.35 409.15 299.35 409.21 295.81 409.17 295.81"/>
            <polygon class="cls-51" points="409.13 295.81 409.08 299.35 409.12 299.35 409.17 295.81 409.13 295.81"/>
            <polygon class="cls-52" points="409.09 295.81 409.04 299.35 409.08 299.35 409.13 295.81 409.09 295.81"/>
            <polygon class="cls-53" points="409.05 295.81 409 299.35 409.04 299.35 409.09 295.81 409.05 295.81"/>
            <polygon class="cls-54" points="409.01 295.81 408.96 299.35 409 299.35 409.05 295.81 409.01 295.81"/>
            <polygon class="cls-55" points="408.97 295.81 408.92 299.35 408.96 299.35 409.01 295.81 408.97 295.81"/>
            <polygon class="cls-56" points="408.93 295.81 408.88 299.35 408.92 299.35 408.97 295.81 408.93 295.81"/>
            <polygon class="cls-57" points="408.89 295.81 408.84 299.35 408.88 299.35 408.93 295.81 408.89 295.81"/>
            <polygon class="cls-58" points="408.85 295.81 408.8 299.35 408.84 299.35 408.89 295.81 408.85 295.81"/>
            <polygon class="cls-59" points="408.81 295.81 408.76 299.35 408.8 299.35 408.85 295.81 408.81 295.81"/>
            <polygon class="cls-60" points="408.77 295.81 408.72 299.35 408.76 299.35 408.81 295.81 408.77 295.81"/>
            <polygon class="cls-61" points="408.73 295.81 408.68 299.35 408.72 299.35 408.77 295.81 408.73 295.81"/>
            <polygon class="cls-62" points="408.69 295.81 408.64 299.35 408.68 299.35 408.73 295.81 408.69 295.81"/>
            <polygon class="cls-63" points="408.65 295.81 408.6 299.35 408.64 299.35 408.69 295.81 408.65 295.81"/>
            <polygon class="cls-64" points="408.61 295.81 408.56 299.35 408.6 299.35 408.65 295.81 408.61 295.81"/>
            <polygon class="cls-65" points="408.57 295.81 408.52 299.35 408.56 299.35 408.61 295.81 408.57 295.81"/>
            <polygon class="cls-66" points="408.53 295.81 408.48 299.35 408.52 299.35 408.57 295.81 408.53 295.81"/>
            <polygon class="cls-67" points="408.49 295.81 408.44 299.35 408.48 299.35 408.53 295.81 408.49 295.81"/>
            <polygon class="cls-68" points="408.45 295.81 408.4 299.35 408.44 299.35 408.49 295.81 408.45 295.81"/>
            <polygon class="cls-69" points="408.41 295.81 408.36 299.35 408.4 299.35 408.45 295.81 408.41 295.81"/>
            <polygon class="cls-70" points="408.37 295.81 408.32 299.35 408.36 299.35 408.41 295.81 408.37 295.81"/>
            <polygon class="cls-71" points="408.33 295.81 408.28 299.35 408.32 299.35 408.37 295.81 408.33 295.81"/>
            <polygon class="cls-72" points="408.29 295.81 408.24 299.35 408.28 299.35 408.33 295.81 408.29 295.81"/>
            <polygon class="cls-73" points="408.25 295.81 408.2 299.35 408.24 299.35 408.29 295.81 408.25 295.81"/>
            <polygon class="cls-74" points="408.21 295.81 408.16 299.35 408.2 299.35 408.25 295.81 408.21 295.81"/>
            <polygon class="cls-75" points="408.17 295.81 408.12 299.35 408.16 299.35 408.21 295.81 408.17 295.81"/>
            <polygon class="cls-76" points="408.13 295.81 408.08 299.35 408.12 299.35 408.17 295.81 408.13 295.81"/>
            <polygon class="cls-77" points="408.09 295.81 408.04 299.35 408.08 299.35 408.13 295.81 408.09 295.81"/>
            <polygon class="cls-78" points="408.05 295.81 408 299.35 408.04 299.35 408.09 295.81 408.05 295.81"/>
            <polygon class="cls-79" points="408.01 295.81 407.96 299.35 408 299.35 408.05 295.81 408.01 295.81"/>
            <polygon class="cls-80" points="407.98 295.81 407.92 299.35 407.96 299.35 408.01 295.81 407.98 295.81"/>
            <polygon class="cls-81" points="407.94 295.81 407.88 299.35 407.92 299.35 407.98 295.81 407.94 295.81"/>
            <polygon class="cls-82" points="407.89 295.81 407.84 299.35 407.88 299.35 407.94 295.81 407.89 295.81"/>
            <polygon class="cls-83" points="407.86 295.81 407.8 299.35 407.84 299.35 407.89 295.81 407.86 295.81"/>
            <polygon class="cls-84" points="407.81 295.81 407.76 299.35 407.8 299.35 407.86 295.81 407.81 295.81"/>
            <polygon class="cls-85" points="407.77 295.81 407.72 299.35 407.76 299.35 407.81 295.81 407.77 295.81"/>
            <polygon class="cls-86" points="407.74 295.81 407.68 299.35 407.72 299.35 407.77 295.81 407.74 295.81"/>
            <polygon class="cls-87" points="407.7 295.81 407.64 299.35 407.68 299.35 407.74 295.81 407.7 295.81"/>
            <polygon class="cls-88" points="407.66 295.81 407.6 299.35 407.64 299.35 407.7 295.81 407.66 295.81"/>
            <polygon class="cls-89" points="407.62 295.81 407.56 299.35 407.6 299.35 407.66 295.81 407.62 295.81"/>
            <polygon class="cls-90" points="407.58 295.81 407.52 299.35 407.56 299.35 407.62 295.81 407.58 295.81"/>
            <polygon class="cls-91" points="407.54 295.81 407.48 299.35 407.52 299.35 407.58 295.81 407.54 295.81"/>
            <polygon class="cls-92" points="407.5 295.81 407.44 299.35 407.48 299.35 407.54 295.81 407.5 295.81"/>
            <polygon class="cls-93" points="407.46 295.81 407.4 299.35 407.44 299.35 407.5 295.81 407.46 295.81"/>
            <polygon class="cls-94" points="407.42 295.81 407.36 299.35 407.4 299.35 407.46 295.81 407.42 295.81"/>
            <polygon class="cls-95" points="407.38 295.81 407.32 299.35 407.36 299.35 407.42 295.81 407.38 295.81"/>
            <polygon class="cls-96" points="407.34 295.81 407.28 299.35 407.32 299.35 407.38 295.81 407.34 295.81"/>
            <polygon class="cls-97" points="407.3 295.81 407.24 299.35 407.28 299.35 407.34 295.81 407.3 295.81"/>
            <polygon class="cls-98" points="407.26 295.81 407.2 299.35 407.24 299.35 407.3 295.81 407.26 295.81"/>
            <polygon class="cls-99" points="407.22 295.81 407.17 299.35 407.2 299.35 407.26 295.81 407.22 295.81"/>
            <polygon class="cls-100" points="407.18 295.81 407.13 299.35 407.17 299.35 407.22 295.81 407.18 295.81"/>
            <polygon class="cls-101" points="407.14 295.81 407.08 299.35 407.13 299.35 407.18 295.81 407.14 295.81"/>
            <polygon class="cls-102" points="407.1 295.81 407.05 299.35 407.08 299.35 407.14 295.81 407.1 295.81"/>
            <polygon class="cls-103" points="407.06 295.81 407.01 299.35 407.05 299.35 407.1 295.81 407.06 295.81"/>
            <polygon class="cls-104" points="407.02 295.81 406.97 299.35 407.01 299.35 407.06 295.81 407.02 295.81"/>
            <polygon class="cls-105" points="406.98 295.81 406.93 299.35 406.97 299.35 407.02 295.81 406.98 295.81"/>
            <polygon class="cls-106" points="406.94 295.81 406.89 299.35 406.93 299.35 406.98 295.81 406.94 295.81"/>
            <polygon class="cls-107" points="406.9 295.81 406.85 299.35 406.89 299.35 406.94 295.81 406.9 295.81"/>
            <polygon class="cls-108" points="406.86 295.81 406.81 299.35 406.85 299.35 406.9 295.81 406.86 295.81"/>
            <polygon class="cls-109" points="406.82 295.81 406.77 299.35 406.81 299.35 406.86 295.81 406.82 295.81"/>
            <polygon class="cls-110" points="406.78 295.81 406.73 299.35 406.77 299.35 406.82 295.81 406.78 295.81"/>
            <polygon class="cls-111" points="406.74 295.81 406.69 299.35 406.73 299.35 406.78 295.81 406.74 295.81"/>
            <polygon class="cls-112" points="406.7 295.81 406.65 299.35 406.69 299.35 406.74 295.81 406.7 295.81"/>
            <polygon class="cls-113" points="406.66 295.81 406.61 299.35 406.65 299.35 406.7 295.81 406.66 295.81"/>
            <polygon class="cls-114" points="406.62 295.81 406.57 299.35 406.61 299.35 406.66 295.81 406.62 295.81"/>
            <polygon class="cls-115" points="406.58 295.81 406.53 299.35 406.57 299.35 406.62 295.81 406.58 295.81"/>
            <polygon class="cls-116" points="406.54 295.81 406.49 299.35 406.53 299.35 406.58 295.81 406.54 295.81"/>
            <polygon class="cls-117" points="406.5 295.81 406.45 299.35 406.49 299.35 406.54 295.81 406.5 295.81"/>
            <polygon class="cls-118" points="406.46 295.81 406.41 299.35 406.45 299.35 406.5 295.81 406.46 295.81"/>
            <polygon class="cls-119" points="406.42 295.81 406.37 299.35 406.41 299.35 406.46 295.81 406.42 295.81"/>
            <polygon class="cls-120" points="406.38 295.81 406.33 299.35 406.37 299.35 406.42 295.81 406.38 295.81"/>
            <polygon class="cls-121" points="406.34 295.81 406.29 299.35 406.33 299.35 406.38 295.81 406.34 295.81"/>
            <polygon class="cls-122" points="406.3 295.81 406.25 299.35 406.29 299.35 406.34 295.81 406.3 295.81"/>
            <polygon class="cls-123" points="406.26 295.81 406.21 299.35 406.25 299.35 406.3 295.81 406.26 295.81"/>
            <polygon class="cls-124" points="406.22 295.81 406.17 299.35 406.21 299.35 406.26 295.81 406.22 295.81"/>
            <polygon class="cls-125" points="406.18 295.81 406.13 299.35 406.17 299.35 406.22 295.81 406.18 295.81"/>
            <polygon class="cls-126" points="406.14 295.81 406.09 299.35 406.13 299.35 406.18 295.81 406.14 295.81"/>
            <polygon class="cls-127" points="406.1 295.81 406.05 299.35 406.09 299.35 406.14 295.81 406.1 295.81"/>
            <polygon class="cls-128" points="406.06 295.81 406.01 299.35 406.05 299.35 406.1 295.81 406.06 295.81"/>
            <polygon class="cls-129" points="406.02 295.81 405.97 299.35 406.01 299.35 406.06 295.81 406.02 295.81"/>
            <polygon class="cls-130" points="405.98 295.81 405.93 299.35 405.97 299.35 406.02 295.81 405.98 295.81"/>
            <polygon class="cls-131" points="405.94 295.81 405.89 299.35 405.93 299.35 405.98 295.81 405.94 295.81"/>
            <polygon class="cls-132" points="405.9 295.81 405.85 299.35 405.89 299.35 405.94 295.81 405.9 295.81"/>
            <polygon class="cls-133" points="405.87 295.81 405.81 299.35 405.85 299.35 405.9 295.81 405.87 295.81"/>
            <polygon class="cls-134" points="405.82 295.81 405.77 299.35 405.81 299.35 405.87 295.81 405.82 295.81"/>
            <polygon class="cls-135" points="405.79 295.81 405.73 299.35 405.77 299.35 405.82 295.81 405.79 295.81"/>
            <polygon class="cls-136" points="405.75 295.81 405.69 299.35 405.73 299.35 405.79 295.81 405.75 295.81"/>
            <polygon class="cls-137" points="405.7 295.81 405.65 299.35 405.69 299.35 405.75 295.81 405.7 295.81"/>
            <polygon class="cls-138" points="405.67 295.81 405.61 299.35 405.65 299.35 405.7 295.81 405.67 295.81"/>
            <polygon class="cls-139" points="405.63 295.81 405.57 299.35 405.61 299.35 405.67 295.81 405.63 295.81"/>
            <polygon class="cls-140" points="405.59 295.81 405.53 299.35 405.57 299.35 405.63 295.81 405.59 295.81"/>
            <polygon class="cls-141" points="405.55 295.81 405.49 299.35 405.53 299.35 405.59 295.81 405.55 295.81"/>
            <polygon class="cls-142" points="405.51 295.81 405.45 299.35 405.49 299.35 405.55 295.81 405.51 295.81"/>
            <polygon class="cls-143" points="405.47 295.81 405.41 299.35 405.45 299.35 405.51 295.81 405.47 295.81"/>
            <polygon class="cls-144" points="405.43 295.81 405.37 299.35 405.41 299.35 405.47 295.81 405.43 295.81"/>
            <polygon class="cls-145" points="405.39 295.81 405.33 299.35 405.37 299.35 405.43 295.81 405.39 295.81"/>
            <polygon class="cls-146" points="405.35 295.81 405.29 299.35 405.33 299.35 405.39 295.81 405.35 295.81"/>
            <polygon class="cls-147" points="405.31 295.81 405.25 299.35 405.29 299.35 405.35 295.81 405.31 295.81"/>
            <polygon class="cls-148" points="405.27 295.81 405.21 299.35 405.25 299.35 405.31 295.81 405.27 295.81"/>
            <polygon class="cls-149" points="405.23 295.81 405.17 299.35 405.21 299.35 405.27 295.81 405.23 295.81"/>
            <polygon class="cls-150" points="405.19 295.81 405.13 299.35 405.17 299.35 405.23 295.81 405.19 295.81"/>
            <polygon class="cls-151" points="405.15 295.81 405.1 299.35 405.13 299.35 405.19 295.81 405.15 295.81"/>
            <polygon class="cls-152" points="405.11 295.81 405.06 299.35 405.1 299.35 405.15 295.81 405.11 295.81"/>
            <polygon class="cls-153" points="405.07 295.81 405.01 299.35 405.06 299.35 405.11 295.81 405.07 295.81"/>
            <polygon class="cls-154" points="405.03 295.81 404.98 299.35 405.01 299.35 405.07 295.81 405.03 295.81"/>
            <polygon class="cls-155" points="404.99 295.81 404.94 299.35 404.98 299.35 405.03 295.81 404.99 295.81"/>
            <polygon class="cls-156" points="404.95 295.81 404.9 299.35 404.94 299.35 404.99 295.81 404.95 295.81"/>
            <polygon class="cls-157" points="404.91 295.81 404.86 299.35 404.9 299.35 404.95 295.81 404.91 295.81"/>
            <polygon class="cls-158" points="404.87 295.81 404.82 299.35 404.86 299.35 404.91 295.81 404.87 295.81"/>
            <polygon class="cls-159" points="404.83 295.81 404.78 299.35 404.82 299.35 404.87 295.81 404.83 295.81"/>
            <polygon class="cls-160" points="404.79 295.81 404.74 299.35 404.78 299.35 404.83 295.81 404.79 295.81"/>
            <polygon class="cls-161" points="404.75 295.81 404.7 299.35 404.74 299.35 404.79 295.81 404.75 295.81"/>
            <polygon class="cls-162" points="404.71 295.81 404.66 299.35 404.7 299.35 404.75 295.81 404.71 295.81"/>
            <polygon class="cls-163" points="404.67 295.81 404.62 299.35 404.66 299.35 404.71 295.81 404.67 295.81"/>
            <polygon class="cls-164" points="404.63 295.81 404.58 299.35 404.62 299.35 404.67 295.81 404.63 295.81"/>
            <polygon class="cls-165" points="404.59 295.81 404.54 299.35 404.58 299.35 404.63 295.81 404.59 295.81"/>
            <polygon class="cls-166" points="404.55 295.81 404.5 299.35 404.54 299.35 404.59 295.81 404.55 295.81"/>
            <polygon class="cls-167" points="404.51 295.81 404.46 299.35 404.5 299.35 404.55 295.81 404.51 295.81"/>
            <polygon class="cls-168" points="404.47 295.81 404.42 299.35 404.46 299.35 404.51 295.81 404.47 295.81"/>
            <polygon class="cls-169" points="404.43 295.81 404.38 299.35 404.42 299.35 404.47 295.81 404.43 295.81"/>
            <polygon class="cls-170" points="404.39 295.81 404.34 299.35 404.38 299.35 404.43 295.81 404.39 295.81"/>
            <polygon class="cls-171" points="404.35 295.81 404.3 299.35 404.34 299.35 404.39 295.81 404.35 295.81"/>
            <polygon class="cls-172" points="404.31 295.81 404.26 299.35 404.3 299.35 404.35 295.81 404.31 295.81"/>
            <polygon class="cls-173" points="404.27 295.81 404.22 299.35 404.26 299.35 404.31 295.81 404.27 295.81"/>
            <polygon class="cls-174" points="404.23 295.81 404.18 299.35 404.22 299.35 404.27 295.81 404.23 295.81"/>
            <polygon class="cls-175" points="404.19 295.81 404.14 299.35 404.18 299.35 404.23 295.81 404.19 295.81"/>
            <polygon class="cls-176" points="404.15 295.81 404.1 299.35 404.14 299.35 404.19 295.81 404.15 295.81"/>
            <polygon class="cls-177" points="404.11 295.81 404.06 299.35 404.1 299.35 404.15 295.81 404.11 295.81"/>
            <polygon class="cls-178" points="404.07 295.81 404.02 299.35 404.06 299.35 404.11 295.81 404.07 295.81"/>
            <polygon class="cls-179" points="404.03 295.81 403.98 299.35 404.02 299.35 404.07 295.81 404.03 295.81"/>
            <polygon class="cls-180" points="403.99 295.81 403.94 299.35 403.98 299.35 404.03 295.81 403.99 295.81"/>
            <polygon class="cls-181" points="403.95 295.81 403.9 299.35 403.94 299.35 403.99 295.81 403.95 295.81"/>
            <polygon class="cls-182" points="403.91 295.81 403.86 299.35 403.9 299.35 403.95 295.81 403.91 295.81"/>
            <polygon class="cls-183" points="403.87 295.81 403.82 299.35 403.86 299.35 403.91 295.81 403.87 295.81"/>
            <polygon class="cls-184" points="403.83 295.81 403.78 299.35 403.82 299.35 403.87 295.81 403.83 295.81"/>
            <polygon class="cls-185" points="403.8 295.81 403.98 297.51 403.98 299.35 403.78 299.35 403.83 295.81 403.8 295.81"/>
            <polygon class="cls-185" points="403.98 297.51 403.8 295.81 403.98 295.81 403.98 297.51"/>
          </g>
        </g>
        <g>
          <path class="cls-186" d="M429.39,275.08s-8.74-21.12-22.83-21a10.09,10.09,0,0,1,8-1.09c4.4,1.3,16.62,10.33,18.4,22.12C430.31,276.44,429.39,275.08,429.39,275.08Z" transform="translate(-5.07 -9.71)"/>
          <path class="cls-187" d="M431.49,273.35c7.83.24,8.54,10,8.54,10,1.74,6.85.3,10.64-2,12.72a6.07,6.07,0,0,1-9.94-3c-.46-1.87-.93-3.64-1.18-4.25C426.29,287.25,423.67,273.12,431.49,273.35Z" transform="translate(-5.07 -9.71)"/>
        </g>
        <path class="cls-188" d="M431.21,275.89a3.5,3.5,0,0,1,4.1,1.38c6.32,9.7,1.94,17.46-.76,18.07-2.85.64-5.16-13.18-5.16-16.83A2.56,2.56,0,0,1,431.21,275.89Z" transform="translate(-5.07 -9.71)"/>
      </g>
      <path class="cls-189" d="M254.78,420.89l286.39.88a2.43,2.43,0,0,1,2.38,2.06l.44,3.49a1.81,1.81,0,0,1-1.88,2.06l-287.89-1.54a1.68,1.68,0,0,1-1.62-1.9l.26-3.18A2,2,0,0,1,254.78,420.89Z" transform="translate(-5.07 -9.71)"/>
      <path class="cls-190" d="M394.61,421.54H370.07s5.57-12,15.77-11.39S394.61,421.54,394.61,421.54Z" transform="translate(-5.07 -9.71)"/>
      <path class="cls-191" d="M461.53,387.72l-17.08-7.86L429.36,406.4s-42.69-6.64-50.28,1.42-4,7.95-3.08,7.95,5.33-4.75,5.33-4.75-3.84,5.79-1.78,6.05,7.12-5.22,7.12-5.22-4.15,7.24-1.66,6.41,4.51-4.75,4.51-4.75-3.32,4.64-1.07,4.81,5.69-3.82,5.69-3.82,5.28,2.39,8.3,2.39,33.5,7.61,39,4.45S461.53,387.72,461.53,387.72Z" transform="translate(-5.07 -9.71)"/>
      <path class="cls-192" d="M444.45,380.22a.37.37,0,0,0,.29-.14.36.36,0,0,0-.07-.5l-3.15-2.36,10.11-28A.36.36,0,0,0,451,349l-10.2,28.23a.36.36,0,0,0,.12.4l3.36,2.52A.33.33,0,0,0,444.45,380.22Z" transform="translate(-5.07 -9.71)"/>
      <path class="cls-193" d="M463.15,386.6a.37.37,0,0,0,.3-.16L472,373.87a.34.34,0,0,0-.09-.49.35.35,0,0,0-.49.09L462.86,386a.35.35,0,0,0,.09.49A.31.31,0,0,0,463.15,386.6Z" transform="translate(-5.07 -9.71)"/>
    </g>
    <g>
      <path class="cls-194" d="M248.68,324.81a.62.62,0,0,0,.44-.18l7.34-7.77a.62.62,0,0,0,.17-.46l-.71-10.31a.62.62,0,0,0-.45-.54L243,302.3a.59.59,0,0,0-.63.23l-6.36,8.62a.56.56,0,0,0-.1.47l2,10a.62.62,0,0,0,.44.46l10.17,2.68A.39.39,0,0,0,248.68,324.81Zm6.73-8.58-6.92,7.32-9.47-2.5-1.85-9.41,6-8.08,11.62,3Z" transform="translate(-5.07 -9.71)"/>
      <path class="cls-194" d="M256,317a.59.59,0,0,0,.57-.42.6.6,0,0,0-.4-.75l-9.45-2.8-3.29-10.37a.6.6,0,0,0-.75-.39.6.6,0,0,0-.39.75l3.39,10.67a.58.58,0,0,0,.4.39l9.75,2.9A.5.5,0,0,0,256,317Z" transform="translate(-5.07 -9.71)"/>
      <path class="cls-194" d="M238.51,322.13a.6.6,0,0,0,.43-.18l7.77-8a.6.6,0,1,0-.86-.84l-7.77,8a.61.61,0,0,0,0,.85A.63.63,0,0,0,238.51,322.13Z" transform="translate(-5.07 -9.71)"/>
    </g>
    <path class="cls-194" d="M178.3,374.81a.54.54,0,0,0,.22,0l16.24-6.23a.61.61,0,0,0,.38-.48.59.59,0,0,0-.26-.56l-13.79-9.65a.6.6,0,0,0-.58-.06.58.58,0,0,0-.35.46l-2.45,15.87a.6.6,0,0,0,.22.56A.58.58,0,0,0,178.3,374.81Zm15-7-14.23,5.46,2.14-13.91Z" transform="translate(-5.07 -9.71)"/>
    <path class="cls-194" d="M96.24,337.14A4.18,4.18,0,1,0,92.06,333,4.18,4.18,0,0,0,96.24,337.14Zm0-7.15a3,3,0,1,1-3,3A3,3,0,0,1,96.24,330Z" transform="translate(-5.07 -9.71)"/>
    <circle class="cls-194" cx="180.25" cy="96.27" r="9.93"/>
    <circle class="cls-194" cx="96.23" cy="187.91" r="9.93" transform="translate(-109.76 113.37) rotate(-45)"/>
    <g>
      <g>
        <path class="cls-195" d="M127.11,163.73s6.69-1.45,11.21,11.89c0,0-11.53,17.88-31.29,26.79-1.48.67-.72-11.17-.57-12.79C107.21,181.91,114.35,175.13,127.11,163.73Z" transform="translate(-5.07 -9.71)"/>
        <path class="cls-196" d="M207.73,142.33H193.31S149.05,93.45,120,88.52c0,0-18.11,30.13,3.17,78.32,1.71,3.88,4.4,1.26,8-1a5.76,5.76,0,0,0,2.31-2.74l-1.72-41.15s37.75,33,44.32,39.39S216,163.81,207.73,142.33Z" transform="translate(-5.07 -9.71)"/>
        <path class="cls-197" d="M68.33,245A54.14,54.14,0,0,1,97.89,232l4.71,2.87A51.26,51.26,0,0,1,94.12,244c-5,2.93-12.8,6.89-19.24,7.74C68.61,252.55,67.69,248.76,68.33,245Z" transform="translate(-5.07 -9.71)"/>
        <path class="cls-198" d="M106.46,189.62c3.91.18,6.88,4.83,15.07-1a83.41,83.41,0,0,0,16-15c.25.63.5,1.3.75,2,0,0-11.92,19.73-31.67,28.64a2.13,2.13,0,0,1-3-2.16A53.79,53.79,0,0,1,106.46,189.62Z" transform="translate(-5.07 -9.71)"/>
        <path class="cls-199" d="M63.78,249.47A48.62,48.62,0,0,1,68.33,245c-.64,3.81.28,7.6,6.55,6.76,6.44-.85,14.21-4.81,19.24-7.74-6.3,5.38-15.9,11.09-28,10.76A3.18,3.18,0,0,1,63.78,249.47Z" transform="translate(-5.07 -9.71)"/>
        <path class="cls-200" d="M205.6,98.37s-7.26,36.43-42.88,50.84l-12.67-1.49-3,4.76,29.72,1A81.28,81.28,0,0,0,215.64,116C216.08,115.05,223.5,99.75,205.6,98.37Z" transform="translate(-5.07 -9.71)"/>
        <path class="cls-201" d="M201.71,152.17s8.27-22.47,10-44.3a95.21,95.21,0,0,0-9.83-7.44,2.74,2.74,0,0,1-1.06-3.55c2.78-5.75,19.58-28.36,20.84-28.67,6.84-1.71,34.9-15,54.67,12,8.48,11.6-1.68,47.32-40.17,84.3L228.27,166Z" transform="translate(-5.07 -9.71)"/>
        <path class="cls-202" d="M247,49.13l5,16.76a1.86,1.86,0,0,1-.71,2.06,18.76,18.76,0,0,1-17.42,1.75,2.76,2.76,0,0,1-1.76-2.35l-1.19-14.6Z" transform="translate(-5.07 -9.71)"/>
        <g>
          <path class="cls-203" d="M217.53,35.56s2.47,17.38,9.15,22.72,19.67,1.32,24.07-11.78L242,24.11Z" transform="translate(-5.07 -9.71)"/>
          <path class="cls-204" d="M243,38.6a.86.86,0,0,1-1.12-.69A22.38,22.38,0,0,0,239.8,31s.64-2.28-5.76,1.16-16,8.5-21.66,5.49c-5.51-2.93-11.1-17.71,3.47-15a.87.87,0,0,0,1-.9c-.18-2.43.06-8,5.72-9.81,5.29-1.68,2.45,1,3.64,2.48.36.42-.44-1.45,7.09-.35,2.58.37,5.89-6.48,12.23-3.69,5.23,2.31,6,5.52,5.95,7.53a.86.86,0,0,0,1.22.82c1.6-.74,4.18-1.12,6.64,2,3.41,4.27-1.46,8-2.92,8.94a.85.85,0,0,0-.39.71c0,2.22-.36,11.9-5.22,17.37a.87.87,0,0,1-1.44-.25l-3.74-8.91a.86.86,0,0,0-1.06-.48Z" transform="translate(-5.07 -9.71)"/>
          <path class="cls-205" d="M242.9,40.41s2.28-9.3,5.75-6.28-.9,9.66-4.87,10.93Z" transform="translate(-5.07 -9.71)"/>
        </g>
        <path class="cls-206" d="M125.3,117.67c1.27,2.55,3.45,4,4.88,3.34s1.56-3.35.3-5.9-3.45-4-4.88-3.34S124,115.12,125.3,117.67Z" transform="translate(-5.07 -9.71)"/>
        <path class="cls-207" d="M211.75,108.52h0a.65.65,0,0,0,.66-.66c0-10,3.82-23.24,3.86-23.37a.65.65,0,0,0-.45-.81.64.64,0,0,0-.81.44c0,.14-3.95,13.58-3.92,23.75A.66.66,0,0,0,211.75,108.52Z" transform="translate(-5.07 -9.71)"/>
        <path class="cls-207" d="M233.56,113.45a.68.68,0,0,0,.52-.25c.43-.55,10.61-13.5,14.23-22.68a.65.65,0,0,0-.36-.85.67.67,0,0,0-.86.37c-3.55,9-13.94,22.21-14.05,22.34a.66.66,0,0,0,.11.92A.65.65,0,0,0,233.56,113.45Z" transform="translate(-5.07 -9.71)"/>
        <path class="cls-207" d="M248.22,133.9l.49-.21c15.27-6.54,24.68-24.74,24.78-24.93a.66.66,0,0,0-.29-.88.65.65,0,0,0-.88.29c-.09.17-9.1,17.58-23.64,24.1l-1.43-2a.66.66,0,0,0-1.08.76Z" transform="translate(-5.07 -9.71)"/>
        <path class="cls-208" d="M94.12,234c7-48.64,45.56-80.55,45.56-80.55l67.52-.73,23.43,9.48c2.81-.05,5,.39,6.46,1.4,0,0-18.3,25.26-48.44,12.66-10.91-2.69-35.92-5.51-50.2,19.79C123.24,223,99.93,238.23,99.93,238.23,93,237.62,94.12,234,94.12,234Z" transform="translate(-5.07 -9.71)"/>
        <path class="cls-209" d="M233.56,112.79S210.59,140,181.23,144c0,0-7.58-6.92-13.23-4.45s-13.38,13.37-13.38,13.37h37.7S228,151.62,245.78,130C244.35,122.44,240.06,117.93,233.56,112.79Z" transform="translate(-5.07 -9.71)"/>
        <path class="cls-210" d="M156.52,155,139.59,98.54a5.76,5.76,0,0,0-5.13-4.1L111.6,92.87a3.24,3.24,0,0,0-3.27,4.31l18.92,53.91a4.73,4.73,0,0,0,4,3.15l22.5,2.5Z" transform="translate(-5.07 -9.71)"/>
        <path class="cls-211" d="M153.75,156.74h.11l48-2.43a2.15,2.15,0,1,0-.22-4.29l-47.95,2.42a2.15,2.15,0,0,0,.1,4.3Z" transform="translate(-5.07 -9.71)"/>
      </g>
      <g>
        <g>
          <path class="cls-212" d="M234.48,54C244.78,52.16,248,40.2,248,40.08l-.77-.2c0,.11-3.11,11.58-12.9,13.31Z" transform="translate(-5.07 -9.71)"/>
          <g class="cls-213">
            <polygon class="cls-34" points="230.63 43.98 230.68 45.34 230.74 45.33 230.63 43.98"/>
            <polygon class="cls-34" points="230.44 42.32 230.68 45.75 230.71 45.75 230.81 43.96 230.68 42.3 230.44 42.32"/>
            <polygon class="cls-35" points="230.41 42.32 230.65 45.75 230.68 45.75 230.44 42.32 230.41 42.32"/>
            <polygon class="cls-36" points="230.38 42.33 230.62 45.76 230.65 45.75 230.41 42.32 230.38 42.33"/>
            <polygon class="cls-37" points="230.35 42.33 230.59 45.76 230.62 45.76 230.38 42.33 230.35 42.33"/>
            <polygon class="cls-38" points="230.33 42.33 230.56 45.76 230.59 45.76 230.35 42.33 230.33 42.33"/>
            <polygon class="cls-39" points="230.3 42.33 230.53 45.76 230.56 45.76 230.33 42.33 230.3 42.33"/>
            <polygon class="cls-40" points="230.27 42.34 230.5 45.77 230.53 45.76 230.3 42.33 230.27 42.34"/>
            <polygon class="cls-41" points="230.24 42.34 230.47 45.77 230.5 45.77 230.27 42.34 230.24 42.34"/>
            <polygon class="cls-42" points="230.21 42.34 230.44 45.77 230.47 45.77 230.24 42.34 230.21 42.34"/>
            <polygon class="cls-43" points="230.18 42.34 230.41 45.77 230.44 45.77 230.21 42.34 230.18 42.34"/>
            <polygon class="cls-44" points="230.15 42.34 230.38 45.78 230.41 45.77 230.18 42.34 230.15 42.34"/>
            <polygon class="cls-45" points="230.12 42.35 230.35 45.78 230.38 45.78 230.15 42.34 230.12 42.35"/>
            <polygon class="cls-46" points="230.09 42.35 230.32 45.78 230.35 45.78 230.12 42.35 230.09 42.35"/>
            <polygon class="cls-47" points="230.06 42.35 230.3 45.78 230.32 45.78 230.09 42.35 230.06 42.35"/>
            <polygon class="cls-48" points="230.03 42.35 230.27 45.78 230.3 45.78 230.06 42.35 230.03 42.35"/>
            <polygon class="cls-49" points="230 42.36 230.24 45.79 230.27 45.78 230.03 42.35 230 42.36"/>
            <polygon class="cls-50" points="229.97 42.36 230.21 45.79 230.24 45.79 230 42.36 229.97 42.36"/>
            <polygon class="cls-51" points="229.94 42.36 230.18 45.79 230.21 45.79 229.97 42.36 229.94 42.36"/>
            <polygon class="cls-52" points="229.91 42.36 230.15 45.8 230.18 45.79 229.94 42.36 229.91 42.36"/>
            <polygon class="cls-53" points="229.88 42.37 230.12 45.8 230.15 45.8 229.91 42.36 229.88 42.37"/>
            <polygon class="cls-54" points="229.85 42.37 230.09 45.8 230.12 45.8 229.88 42.37 229.85 42.37"/>
            <polygon class="cls-55" points="229.82 42.37 230.06 45.8 230.09 45.8 229.85 42.37 229.82 42.37"/>
            <polygon class="cls-56" points="229.79 42.37 230.03 45.8 230.06 45.8 229.82 42.37 229.79 42.37"/>
            <polygon class="cls-57" points="229.76 42.38 230 45.81 230.03 45.8 229.79 42.37 229.76 42.38"/>
            <polygon class="cls-58" points="229.73 42.38 229.97 45.81 230 45.81 229.76 42.38 229.73 42.38"/>
            <polygon class="cls-59" points="229.7 42.38 229.94 45.81 229.97 45.81 229.73 42.38 229.7 42.38"/>
            <polygon class="cls-60" points="229.67 42.38 229.91 45.81 229.94 45.81 229.7 42.38 229.67 42.38"/>
            <polygon class="cls-61" points="229.64 42.39 229.88 45.82 229.91 45.81 229.67 42.38 229.64 42.39"/>
            <polygon class="cls-62" points="229.61 42.39 229.85 45.82 229.88 45.82 229.64 42.39 229.61 42.39"/>
            <polygon class="cls-63" points="229.58 42.39 229.82 45.82 229.85 45.82 229.61 42.39 229.58 42.39"/>
            <polygon class="cls-64" points="229.55 42.39 229.79 45.82 229.82 45.82 229.58 42.39 229.55 42.39"/>
            <polygon class="cls-65" points="229.53 42.4 229.76 45.83 229.79 45.82 229.55 42.39 229.53 42.4"/>
            <polygon class="cls-66" points="229.5 42.4 229.73 45.83 229.76 45.83 229.53 42.4 229.5 42.4"/>
            <polygon class="cls-67" points="229.47 42.4 229.7 45.83 229.73 45.83 229.5 42.4 229.47 42.4"/>
            <polygon class="cls-68" points="229.44 42.4 229.67 45.83 229.7 45.83 229.47 42.4 229.44 42.4"/>
            <polygon class="cls-69" points="229.41 42.41 229.64 45.84 229.67 45.83 229.44 42.4 229.41 42.41"/>
            <polygon class="cls-70" points="229.38 42.41 229.61 45.84 229.64 45.84 229.41 42.41 229.38 42.41"/>
            <polygon class="cls-71" points="229.35 42.41 229.58 45.84 229.61 45.84 229.38 42.41 229.35 42.41"/>
            <polygon class="cls-72" points="229.32 42.41 229.55 45.84 229.58 45.84 229.35 42.41 229.32 42.41"/>
            <polygon class="cls-73" points="229.29 42.41 229.52 45.84 229.55 45.84 229.32 42.41 229.29 42.41"/>
            <polygon class="cls-74" points="229.26 42.42 229.5 45.85 229.52 45.84 229.29 42.41 229.26 42.42"/>
            <polygon class="cls-75" points="229.23 42.42 229.47 45.85 229.5 45.85 229.26 42.42 229.23 42.42"/>
            <polygon class="cls-76" points="229.2 42.42 229.44 45.85 229.47 45.85 229.23 42.42 229.2 42.42"/>
            <polygon class="cls-77" points="229.17 42.42 229.41 45.85 229.44 45.85 229.2 42.42 229.17 42.42"/>
            <polygon class="cls-78" points="229.14 42.43 229.38 45.86 229.41 45.85 229.17 42.42 229.14 42.43"/>
            <polygon class="cls-79" points="229.11 42.43 229.35 45.86 229.38 45.86 229.14 42.43 229.11 42.43"/>
            <polygon class="cls-80" points="229.08 42.43 229.32 45.86 229.35 45.86 229.11 42.43 229.08 42.43"/>
            <polygon class="cls-81" points="229.05 42.43 229.29 45.86 229.32 45.86 229.08 42.43 229.05 42.43"/>
            <polygon class="cls-82" points="229.02 42.44 229.26 45.87 229.29 45.86 229.05 42.43 229.02 42.44"/>
            <polygon class="cls-83" points="228.99 42.44 229.23 45.87 229.26 45.87 229.02 42.44 228.99 42.44"/>
            <polygon class="cls-84" points="228.96 42.44 229.2 45.87 229.23 45.87 228.99 42.44 228.96 42.44"/>
            <polygon class="cls-85" points="228.93 42.44 229.17 45.87 229.2 45.87 228.96 42.44 228.93 42.44"/>
            <polygon class="cls-86" points="228.9 42.45 229.14 45.88 229.17 45.87 228.93 42.44 228.9 42.45"/>
            <polygon class="cls-87" points="228.87 42.45 229.11 45.88 229.14 45.88 228.9 42.45 228.87 42.45"/>
            <polygon class="cls-88" points="228.84 42.45 229.08 45.88 229.11 45.88 228.87 42.45 228.84 42.45"/>
            <polygon class="cls-89" points="228.81 42.45 229.05 45.88 229.08 45.88 228.84 42.45 228.81 42.45"/>
            <polygon class="cls-90" points="228.78 42.45 229.02 45.89 229.05 45.88 228.81 42.45 228.78 42.45"/>
            <polygon class="cls-91" points="228.75 42.46 228.99 45.89 229.02 45.89 228.78 42.45 228.75 42.46"/>
            <polygon class="cls-92" points="228.72 42.46 228.96 45.89 228.99 45.89 228.75 42.46 228.72 42.46"/>
            <polygon class="cls-93" points="228.69 42.46 228.93 45.89 228.96 45.89 228.72 42.46 228.69 42.46"/>
            <polygon class="cls-94" points="228.66 42.47 228.9 45.9 228.93 45.89 228.69 42.46 228.66 42.47"/>
            <polygon class="cls-95" points="228.63 42.47 228.87 45.9 228.9 45.9 228.66 42.47 228.63 42.47"/>
            <polygon class="cls-96" points="228.6 42.47 228.84 45.9 228.87 45.9 228.63 42.47 228.6 42.47"/>
            <polygon class="cls-97" points="228.58 42.47 228.81 45.9 228.84 45.9 228.6 42.47 228.58 42.47"/>
            <polygon class="cls-98" points="228.55 42.47 228.78 45.91 228.81 45.9 228.58 42.47 228.55 42.47"/>
            <polygon class="cls-99" points="228.52 42.48 228.75 45.91 228.78 45.91 228.55 42.47 228.52 42.48"/>
            <polygon class="cls-100" points="228.49 42.48 228.72 45.91 228.75 45.91 228.52 42.48 228.49 42.48"/>
            <polygon class="cls-101" points="228.46 42.48 228.69 45.91 228.72 45.91 228.49 42.48 228.46 42.48"/>
            <polygon class="cls-102" points="228.43 42.48 228.66 45.91 228.69 45.91 228.46 42.48 228.43 42.48"/>
            <polygon class="cls-103" points="228.4 42.49 228.63 45.92 228.66 45.91 228.43 42.48 228.4 42.49"/>
            <polygon class="cls-104" points="228.37 42.49 228.6 45.92 228.63 45.92 228.4 42.49 228.37 42.49"/>
            <polygon class="cls-105" points="228.34 42.49 228.57 45.92 228.6 45.92 228.37 42.49 228.34 42.49"/>
            <polygon class="cls-106" points="228.31 42.49 228.55 45.92 228.57 45.92 228.34 42.49 228.31 42.49"/>
            <polygon class="cls-107" points="228.28 42.5 228.52 45.93 228.55 45.92 228.31 42.49 228.28 42.5"/>
            <polygon class="cls-108" points="228.25 42.5 228.49 45.93 228.52 45.93 228.28 42.5 228.25 42.5"/>
            <polygon class="cls-109" points="228.22 42.5 228.46 45.93 228.49 45.93 228.25 42.5 228.22 42.5"/>
            <polygon class="cls-110" points="228.19 42.5 228.43 45.93 228.46 45.93 228.22 42.5 228.19 42.5"/>
            <polygon class="cls-111" points="228.16 42.51 228.4 45.94 228.43 45.93 228.19 42.5 228.16 42.51"/>
            <polygon class="cls-112" points="228.13 42.51 228.37 45.94 228.4 45.94 228.16 42.51 228.13 42.51"/>
            <polygon class="cls-113" points="228.1 42.51 228.34 45.94 228.37 45.94 228.13 42.51 228.1 42.51"/>
            <polygon class="cls-114" points="228.07 42.51 228.31 45.94 228.34 45.94 228.1 42.51 228.07 42.51"/>
            <polygon class="cls-115" points="228.04 42.52 228.28 45.95 228.31 45.94 228.07 42.51 228.04 42.52"/>
            <polygon class="cls-116" points="228.01 42.52 228.25 45.95 228.28 45.95 228.04 42.52 228.01 42.52"/>
            <polygon class="cls-117" points="227.98 42.52 228.22 45.95 228.25 45.95 228.01 42.52 227.98 42.52"/>
            <polygon class="cls-118" points="227.95 42.52 228.19 45.95 228.22 45.95 227.98 42.52 227.95 42.52"/>
            <polygon class="cls-119" points="227.92 42.52 228.16 45.95 228.19 45.95 227.95 42.52 227.92 42.52"/>
            <polygon class="cls-120" points="227.89 42.53 228.13 45.96 228.16 45.95 227.92 42.52 227.89 42.53"/>
            <polygon class="cls-121" points="227.86 42.53 228.1 45.96 228.13 45.96 227.89 42.53 227.86 42.53"/>
            <polygon class="cls-122" points="227.83 42.53 228.07 45.96 228.1 45.96 227.86 42.53 227.83 42.53"/>
            <polygon class="cls-123" points="227.8 42.53 228.04 45.97 228.07 45.96 227.83 42.53 227.8 42.53"/>
            <polygon class="cls-124" points="227.78 42.54 228.01 45.97 228.04 45.97 227.8 42.53 227.78 42.54"/>
            <polygon class="cls-125" points="227.75 42.54 227.98 45.97 228.01 45.97 227.78 42.54 227.75 42.54"/>
            <polygon class="cls-126" points="227.72 42.54 227.95 45.97 227.98 45.97 227.75 42.54 227.72 42.54"/>
            <polygon class="cls-127" points="227.69 42.54 227.92 45.98 227.95 45.97 227.72 42.54 227.69 42.54"/>
            <polygon class="cls-128" points="227.66 42.55 227.89 45.98 227.92 45.98 227.69 42.54 227.66 42.55"/>
            <polygon class="cls-129" points="227.63 42.55 227.86 45.98 227.89 45.98 227.66 42.55 227.63 42.55"/>
            <polygon class="cls-130" points="227.6 42.55 227.83 45.98 227.86 45.98 227.63 42.55 227.6 42.55"/>
            <polygon class="cls-131" points="227.57 42.55 227.8 45.98 227.83 45.98 227.6 42.55 227.57 42.55"/>
            <polygon class="cls-132" points="227.54 42.56 227.77 45.99 227.8 45.98 227.57 42.55 227.54 42.56"/>
            <polygon class="cls-133" points="227.51 42.56 227.75 45.99 227.77 45.99 227.54 42.56 227.51 42.56"/>
            <polygon class="cls-134" points="227.48 42.56 227.72 45.99 227.75 45.99 227.51 42.56 227.48 42.56"/>
            <polygon class="cls-135" points="227.45 42.56 227.69 45.99 227.72 45.99 227.48 42.56 227.45 42.56"/>
            <polygon class="cls-136" points="227.42 42.56 227.66 46 227.69 45.99 227.45 42.56 227.42 42.56"/>
            <polygon class="cls-137" points="227.39 42.57 227.63 46 227.66 46 227.42 42.56 227.39 42.57"/>
            <polygon class="cls-138" points="227.36 42.57 227.6 46 227.63 46 227.39 42.57 227.36 42.57"/>
            <polygon class="cls-139" points="227.33 42.57 227.57 46 227.6 46 227.36 42.57 227.33 42.57"/>
            <polygon class="cls-140" points="227.3 42.58 227.54 46.01 227.57 46 227.33 42.57 227.3 42.58"/>
            <polygon class="cls-141" points="227.27 42.58 227.51 46.01 227.54 46.01 227.3 42.58 227.27 42.58"/>
            <polygon class="cls-142" points="227.24 42.58 227.48 46.01 227.51 46.01 227.27 42.58 227.24 42.58"/>
            <polygon class="cls-143" points="227.21 42.58 227.45 46.01 227.48 46.01 227.24 42.58 227.21 42.58"/>
            <polygon class="cls-144" points="227.18 42.58 227.42 46.02 227.45 46.01 227.21 42.58 227.18 42.58"/>
            <polygon class="cls-145" points="227.15 42.59 227.39 46.02 227.42 46.02 227.18 42.58 227.15 42.59"/>
            <polygon class="cls-146" points="227.12 42.59 227.36 46.02 227.39 46.02 227.15 42.59 227.12 42.59"/>
            <polygon class="cls-147" points="227.09 42.59 227.33 46.02 227.36 46.02 227.12 42.59 227.09 42.59"/>
            <polygon class="cls-148" points="227.06 42.59 227.3 46.02 227.33 46.02 227.09 42.59 227.06 42.59"/>
            <polygon class="cls-149" points="227.03 42.6 227.27 46.03 227.3 46.02 227.06 42.59 227.03 42.6"/>
            <polygon class="cls-150" points="227 42.6 227.24 46.03 227.27 46.03 227.03 42.6 227 42.6"/>
            <polygon class="cls-151" points="226.97 42.6 227.21 46.03 227.24 46.03 227 42.6 226.97 42.6"/>
            <polygon class="cls-152" points="226.94 42.6 227.18 46.03 227.21 46.03 226.97 42.6 226.94 42.6"/>
            <polygon class="cls-153" points="226.91 42.61 227.15 46.04 227.18 46.03 226.94 42.6 226.91 42.61"/>
            <polygon class="cls-154" points="226.88 42.61 227.12 46.04 227.15 46.04 226.91 42.61 226.88 42.61"/>
            <polygon class="cls-155" points="226.85 42.61 227.09 46.04 227.12 46.04 226.88 42.61 226.85 42.61"/>
            <polygon class="cls-156" points="226.82 42.61 227.06 46.04 227.09 46.04 226.85 42.61 226.82 42.61"/>
            <polygon class="cls-157" points="226.8 42.62 227.03 46.05 227.06 46.04 226.82 42.61 226.8 42.62"/>
            <polygon class="cls-158" points="226.77 42.62 227 46.05 227.03 46.05 226.8 42.62 226.77 42.62"/>
            <polygon class="cls-159" points="226.74 42.62 226.97 46.05 227 46.05 226.77 42.62 226.74 42.62"/>
            <polygon class="cls-160" points="226.71 42.62 226.94 46.05 226.97 46.05 226.74 42.62 226.71 42.62"/>
            <polygon class="cls-161" points="226.68 42.63 226.91 46.06 226.94 46.05 226.71 42.62 226.68 42.63"/>
            <polygon class="cls-162" points="226.65 42.63 226.88 46.06 226.91 46.06 226.68 42.63 226.65 42.63"/>
            <polygon class="cls-163" points="226.62 42.63 226.85 46.06 226.88 46.06 226.65 42.63 226.62 42.63"/>
            <polygon class="cls-164" points="226.59 42.63 226.82 46.06 226.85 46.06 226.62 42.63 226.59 42.63"/>
            <polygon class="cls-165" points="226.56 42.63 226.79 46.07 226.82 46.06 226.59 42.63 226.56 42.63"/>
            <polygon class="cls-166" points="226.53 42.64 226.77 46.07 226.79 46.07 226.56 42.63 226.53 42.64"/>
            <polygon class="cls-167" points="226.5 42.64 226.74 46.07 226.77 46.07 226.53 42.64 226.5 42.64"/>
            <polygon class="cls-168" points="226.47 42.64 226.71 46.07 226.74 46.07 226.5 42.64 226.47 42.64"/>
            <polygon class="cls-169" points="226.44 42.64 226.68 46.08 226.71 46.07 226.47 42.64 226.44 42.64"/>
            <polygon class="cls-170" points="226.41 42.65 226.65 46.08 226.68 46.08 226.44 42.64 226.41 42.65"/>
            <polygon class="cls-171" points="226.38 42.65 226.62 46.08 226.65 46.08 226.41 42.65 226.38 42.65"/>
            <polygon class="cls-172" points="226.35 42.65 226.59 46.08 226.62 46.08 226.38 42.65 226.35 42.65"/>
            <polygon class="cls-173" points="226.32 42.65 226.56 46.09 226.59 46.08 226.35 42.65 226.32 42.65"/>
            <polygon class="cls-174" points="226.29 42.66 226.53 46.09 226.56 46.09 226.32 42.65 226.29 42.66"/>
            <polygon class="cls-175" points="226.26 42.66 226.5 46.09 226.53 46.09 226.29 42.66 226.26 42.66"/>
            <polygon class="cls-176" points="226.23 42.66 226.47 46.09 226.5 46.09 226.26 42.66 226.23 42.66"/>
            <polygon class="cls-177" points="226.2 42.66 226.44 46.09 226.47 46.09 226.23 42.66 226.2 42.66"/>
            <polygon class="cls-178" points="226.17 42.67 226.41 46.1 226.44 46.09 226.2 42.66 226.17 42.67"/>
            <polygon class="cls-179" points="226.14 42.67 226.38 46.1 226.41 46.1 226.17 42.67 226.14 42.67"/>
            <polygon class="cls-180" points="226.11 42.67 226.35 46.1 226.38 46.1 226.14 42.67 226.11 42.67"/>
            <polygon class="cls-181" points="226.08 42.67 226.32 46.1 226.35 46.1 226.11 42.67 226.08 42.67"/>
            <polygon class="cls-182" points="226.05 42.67 226.29 46.11 226.32 46.1 226.08 42.67 226.05 42.67"/>
            <polygon class="cls-183" points="226.02 42.68 226.26 46.11 226.29 46.11 226.05 42.67 226.02 42.68"/>
            <polygon class="cls-184" points="226 42.68 226.23 46.11 226.26 46.11 226.02 42.68 226 42.68"/>
            <polygon class="cls-185" points="225.97 42.68 226.52 44.16 226.67 46.08 226.23 46.11 226 42.68 225.97 42.68"/>
            <polygon class="cls-185" points="226.17 44.19 225.99 43.03 226.08 43.02 226.17 44.19"/>
          </g>
        </g>
        <g>
          <path class="cls-214" d="M244.52,28.72s-7.79-15.22-18.28-14.3a7.54,7.54,0,0,1,5.86-1.29c3.37.7,13,6.7,15.05,15.38C245.28,29.67,244.52,28.72,244.52,28.72Z" transform="translate(-5.07 -9.71)"/>
          <path class="cls-215" d="M246,27.3c5.85-.29,7,6.91,7,6.91,1.71,5,.87,7.91-.73,9.6a4.53,4.53,0,0,1-7.59-1.67c-.46-1.36-.91-2.65-1.14-3.09C242.94,38,240.14,27.6,246,27.3Z" transform="translate(-5.07 -9.71)"/>
        </g>
        <path class="cls-216" d="M245.93,29.21a2.62,2.62,0,0,1,3.13.78c5.29,6.85,2.5,12.9.52,13.51s-4.64-9.51-4.85-12.23A1.91,1.91,0,0,1,245.93,29.21Z" transform="translate(-5.07 -9.71)"/>
      </g>
    </g>
    <path class="cls-194" d="M163.52,288.9a.53.53,0,0,0,.34-.11l5.64-4a.6.6,0,0,0,.07-.92l-8-7.55,4.9-3.57a.6.6,0,0,0,.24-.59.59.59,0,0,0-.43-.47L151,267.48a.59.59,0,0,0-.54.12.58.58,0,0,0-.21.51l1.16,13.46a.61.61,0,0,0,.92.45l4.24-2.72,6.42,9.35a.61.61,0,0,0,.39.25Zm4.69-4.67-4.54,3.24-6.41-9.32a.59.59,0,0,0-.81-.17l-3.9,2.5-1-11.62,13.19,3.64-4.48,3.27a.58.58,0,0,0-.25.44.61.61,0,0,0,.19.48Z" transform="translate(-5.07 -9.71)"/>
    <g>
      <g>
        <polygon class="cls-217" points="53.93 123.64 48.67 129.09 47.24 123.19 53.93 123.64"/>
        <path class="cls-218" d="M37.52,106.61l2.27,27.09a1.88,1.88,0,0,0,.7,1.32,1.91,1.91,0,0,0,1.44.42L69,132.14a.77.77,0,0,0,.37-1.38Z" transform="translate(-5.07 -9.71)"/>
        <polygon class="cls-219" points="53.92 123.64 32.45 96.9 49.55 124.19 48.16 125.76 53.92 123.64"/>
        <polygon class="cls-220" points="46.96 124.49 48.67 129.09 49.55 124.19 46.96 124.49"/>
      </g>
      <g>
        <polygon class="cls-221" points="21.48 196.91 16.23 202.36 14.8 196.46 21.48 196.91"/>
        <path class="cls-222" d="M5.07,179.88,7.34,207a2,2,0,0,0,.7,1.33,1.94,1.94,0,0,0,1.44.42l27.11-3.31A.76.76,0,0,0,37,204Z" transform="translate(-5.07 -9.71)"/>
        <polygon class="cls-223" points="21.48 196.91 0 170.17 17.11 197.46 15.71 199.03 21.48 196.91"/>
        <polygon class="cls-224" points="14.51 197.76 16.23 202.36 17.11 197.46 14.51 197.76"/>
      </g>
      <g>
        <polygon class="cls-225" points="34.75 153.25 27.15 161.14 25.08 152.6 34.75 153.25"/>
        <path class="cls-226" d="M8.73,124.25,12,163.46A2.76,2.76,0,0,0,15.11,166l39.25-4.78a1.11,1.11,0,0,0,.53-2Z" transform="translate(-5.07 -9.71)"/>
        <polygon class="cls-227" points="34.75 153.25 3.66 114.54 28.42 154.04 26.4 156.32 34.75 153.25"/>
        <polygon class="cls-228" points="24.66 154.48 27.15 161.14 28.42 154.04 24.66 154.48"/>
      </g>
    </g>
    <path class="cls-229" d="M253.46,356.48h.91a.46.46,0,1,0,0-.91h-3a.48.48,0,0,0-.46.45.44.44,0,0,0,.45.46Zm3.9,0h0l2.3,0a.46.46,0,1,0,0-.92l-2.3.05a.46.46,0,0,0-.45.46A.46.46,0,0,0,257.36,356.45Zm-9,0a.46.46,0,0,0,.46-.45.45.45,0,0,0-.45-.46l-3-.08a.46.46,0,0,0,0,.91l3,.08Zm-6-.19a.46.46,0,0,0,0-.91l-3-.15a.44.44,0,0,0-.48.43.45.45,0,0,0,.43.48l3,.15Zm-6-.34a.44.44,0,0,0,.45-.42.45.45,0,0,0-.42-.49l-3-.23a.47.47,0,0,0-.5.42.47.47,0,0,0,.42.5l3,.22Zm-6-.48a.46.46,0,0,0,0-.92c-1-.09-2-.19-3-.3a.48.48,0,0,0-.51.41.46.46,0,0,0,.41.5c1,.11,2,.21,3,.3Zm-5.94-.64a.45.45,0,0,0,.45-.4.46.46,0,0,0-.4-.51l-3-.38a.46.46,0,0,0-.51.4.45.45,0,0,0,.39.51l3,.38Zm-5.93-.79a.44.44,0,0,0,.45-.39.45.45,0,0,0-.38-.52c-1-.14-2-.29-2.95-.45a.46.46,0,0,0-.14.9l3,.46Zm-5.9-.94a.46.46,0,0,0,.08-.91c-1-.17-2-.34-2.94-.53a.46.46,0,0,0-.53.37.45.45,0,0,0,.36.53c1,.19,2,.36,2.95.53Zm-5.88-1.1a.45.45,0,0,0,.45-.36.46.46,0,0,0-.36-.54l-2.92-.61a.46.46,0,0,0-.19.9c1,.2,2,.41,2.93.6ZM201,350.7a.45.45,0,0,0,.44-.36.44.44,0,0,0-.34-.54c-1-.22-1.94-.45-2.9-.69a.48.48,0,0,0-.56.34.46.46,0,0,0,.34.55c1,.24,1.94.47,2.92.69Zm-5.81-1.41a.46.46,0,0,0,.11-.9l-2.88-.76a.46.46,0,0,0-.24.88l2.89.77Zm-5.77-1.56a.46.46,0,0,0,.12-.9c-1-.27-1.91-.55-2.86-.84a.46.46,0,1,0-.26.88l2.87.84ZM183.69,346a.46.46,0,0,0,.14-.9L181,344.2a.45.45,0,0,0-.57.29.46.46,0,0,0,.29.58l2.85.92ZM178,344.13a.46.46,0,0,0,.15-.89c-.95-.32-1.88-.65-2.82-1a.46.46,0,0,0-.58.27.46.46,0,0,0,.27.59l2.83,1Zm-5.63-2a.46.46,0,0,0,.17-.88c-.94-.35-1.87-.71-2.79-1.07a.46.46,0,1,0-.33.85l2.79,1.07Zm-5.56-2.18a.45.45,0,0,0,.42-.29A.44.44,0,0,0,167,339l-2.75-1.15a.46.46,0,0,0-.6.25.46.46,0,0,0,.24.6l2.77,1.15A.47.47,0,0,0,166.83,339.92Zm-5.51-2.33a.46.46,0,0,0,.19-.88l-2.72-1.22a.47.47,0,0,0-.61.23.45.45,0,0,0,.23.6c.9.42,1.81.82,2.73,1.23A.58.58,0,0,0,161.32,337.59Zm-5.44-2.48a.46.46,0,0,0,.42-.27.45.45,0,0,0-.22-.6l-2.69-1.3a.46.46,0,0,0-.61.21.45.45,0,0,0,.21.61c.89.44,1.79.87,2.7,1.3A.45.45,0,0,0,155.88,335.11Zm-5.37-2.63a.46.46,0,0,0,.21-.87l-2.65-1.36a.46.46,0,1,0-.43.81c.89.46,1.77.92,2.67,1.37A.49.49,0,0,0,150.51,332.48Zm-5.29-2.77a.46.46,0,0,0,.4-.24.45.45,0,0,0-.19-.62c-.87-.48-1.75-1-2.61-1.44a.46.46,0,0,0-.62.18.45.45,0,0,0,.17.62c.87.49,1.75,1,2.63,1.44A.43.43,0,0,0,145.22,329.71ZM140,326.8a.47.47,0,0,0,.4-.23.46.46,0,0,0-.17-.63l-2.58-1.5a.45.45,0,0,0-.62.16.46.46,0,0,0,.16.63l2.59,1.51A.46.46,0,0,0,140,326.8Zm-5.14-3.05a.46.46,0,0,0,.24-.85c-.85-.52-1.7-1-2.54-1.57a.46.46,0,0,0-.48.78c.84.53,1.69,1.05,2.54,1.57A.44.44,0,0,0,134.85,323.75Zm-5.06-3.18a.44.44,0,0,0,.38-.21.45.45,0,0,0-.14-.63l-2.49-1.64a.46.46,0,0,0-.51.76l2.51,1.65A.45.45,0,0,0,129.79,320.57Zm-5-3.31a.44.44,0,0,0,.37-.2.45.45,0,0,0-.11-.63c-.83-.57-1.65-1.13-2.46-1.7a.45.45,0,0,0-.52.74c.81.58,1.63,1.14,2.46,1.71A.5.5,0,0,0,124.81,317.26Zm-4.9-3.44a.44.44,0,0,0,.37-.19.45.45,0,0,0-.1-.63l-2.41-1.77a.46.46,0,0,0-.64.1.45.45,0,0,0,.1.64l2.42,1.77A.5.5,0,0,0,119.91,313.82Zm-4.8-3.56a.44.44,0,0,0,.36-.18.45.45,0,0,0-.09-.64L113,307.62a.46.46,0,0,0-.64.08.45.45,0,0,0,.08.64q1.17.93,2.37,1.83A.47.47,0,0,0,115.11,310.26Zm-4.72-3.67a.48.48,0,0,0,.36-.17.48.48,0,0,0-.07-.65l-2.32-1.87a.46.46,0,0,0-.65.06.45.45,0,0,0,.07.64l2.32,1.89A.46.46,0,0,0,110.39,306.59Zm-4.62-3.79a.47.47,0,0,0,.35-.17.46.46,0,0,0-.06-.64c-.77-.64-1.52-1.29-2.27-1.93a.46.46,0,0,0-.65,0,.47.47,0,0,0,0,.65c.75.65,1.51,1.29,2.28,1.94A.48.48,0,0,0,105.77,302.8Zm-4.54-3.9a.48.48,0,0,0,.35-.16.47.47,0,0,0,0-.64l-2.23-2a.46.46,0,1,0-.61.68l2.23,2A.46.46,0,0,0,101.23,298.9Zm-4.44-4a.45.45,0,0,0,.34-.15.46.46,0,0,0,0-.65l-2.18-2a.45.45,0,0,0-.64,0,.46.46,0,0,0,0,.65l2.18,2A.47.47,0,0,0,96.79,294.89Zm-4.34-4.11a.46.46,0,0,0,.32-.79c-.72-.7-1.43-1.39-2.13-2.09a.47.47,0,0,0-.65,0,.46.46,0,0,0,0,.65l2.14,2.1A.5.5,0,0,0,92.45,290.78Zm-4.25-4.21a.45.45,0,0,0,.32-.14.46.46,0,0,0,0-.64l-2.09-2.14a.46.46,0,0,0-.66.63c.69.72,1.39,1.43,2.1,2.15A.45.45,0,0,0,88.2,286.57Zm-4.15-4.31a.43.43,0,0,0,.31-.13.44.44,0,0,0,0-.64l-2-2.19a.47.47,0,0,0-.65,0,.45.45,0,0,0,0,.64q1,1.09,2,2.19A.44.44,0,0,0,84.05,282.26Zm-4-4.4a.42.42,0,0,0,.3-.12.45.45,0,0,0,0-.64c-.67-.75-1.34-1.49-2-2.23a.45.45,0,0,0-.64,0,.46.46,0,0,0,0,.64c.66.74,1.32,1.49,2,2.24A.45.45,0,0,0,80,277.86Zm-4-4.49a.46.46,0,0,0,.3-.11.47.47,0,0,0,0-.65c-.66-.76-1.3-1.51-1.94-2.27a.45.45,0,0,0-.64,0,.46.46,0,0,0-.06.64q1,1.14,2,2.28A.43.43,0,0,0,76,273.37Zm-3.85-4.58a.46.46,0,0,0,.29-.1.46.46,0,0,0,.06-.64c-.64-.78-1.27-1.55-1.88-2.32a.46.46,0,0,0-.65-.07.47.47,0,0,0-.07.64c.62.77,1.25,1.55,1.9,2.33A.44.44,0,0,0,72.19,268.79Zm-3.75-4.66a.51.51,0,0,0,.28-.09.46.46,0,0,0,.07-.65L67,261a.46.46,0,1,0-.72.56c.6.78,1.21,1.57,1.84,2.36A.46.46,0,0,0,68.44,264.13Zm-3.65-4.74a.45.45,0,0,0,.36-.73c-.61-.8-1.2-1.6-1.78-2.39a.46.46,0,0,0-.74.54c.58.79,1.18,1.59,1.79,2.4A.46.46,0,0,0,64.79,259.39Zm-3.55-4.82a.56.56,0,0,0,.27-.08.46.46,0,0,0,.1-.64c-.59-.82-1.17-1.63-1.73-2.44a.46.46,0,0,0-.75.53c.57.8,1.14,1.62,1.74,2.44A.44.44,0,0,0,61.24,254.57Zm-3.44-4.9a.42.42,0,0,0,.26-.08.45.45,0,0,0,.12-.63c-.58-.84-1.14-1.66-1.68-2.47a.45.45,0,1,0-.76.5l1.68,2.49A.47.47,0,0,0,57.8,249.67Zm-3.33-5a.45.45,0,0,0,.25-.07.47.47,0,0,0,.13-.64c-.56-.85-1.1-1.69-1.62-2.51a.45.45,0,0,0-.63-.14.47.47,0,0,0-.14.63l1.63,2.52A.43.43,0,0,0,54.47,244.7Zm-3.21-5a.55.55,0,0,0,.24-.07.45.45,0,0,0,.14-.63l-1.56-2.55a.45.45,0,0,0-.62-.16.46.46,0,0,0-.16.63c.5.83,1,1.68,1.57,2.56A.44.44,0,0,0,51.26,239.65Zm-3.1-5.13a.39.39,0,0,0,.23-.07.46.46,0,0,0,.17-.62c-.53-.9-1-1.77-1.5-2.59a.45.45,0,1,0-.79.45c.47.83,1,1.69,1.5,2.6A.45.45,0,0,0,48.16,234.52Zm-2.95-5.22a.54.54,0,0,0,.21-.05.45.45,0,0,0,.19-.62c-.53-1-1-1.84-1.42-2.64a.46.46,0,1,0-.81.43c.42.8.9,1.69,1.42,2.65A.47.47,0,0,0,45.21,229.3ZM42.41,224a.53.53,0,0,0,.2-.05.44.44,0,0,0,.2-.61c-.87-1.73-1.3-2.7-1.31-2.71a.45.45,0,0,0-.6-.23.46.46,0,0,0-.23.61s.45,1,1.33,2.74A.45.45,0,0,0,42.41,224Z" transform="translate(-5.07 -9.71)"/>
    <path class="cls-229" d="M267.91,337.35h0l3,0a.46.46,0,0,0,0-.91l-3,0a.46.46,0,0,0,0,.92Zm-3,0a.46.46,0,0,0,0-.91l-3-.05a.46.46,0,0,0,0,.92l3,0Zm9-.07H274a.47.47,0,0,0,.45-.47.46.46,0,0,0-.46-.45h-.14a.45.45,0,0,0-.44.47A.45.45,0,0,0,273.88,337.26Zm-14.94-.06a.46.46,0,0,0,0-.91l-3-.13a.49.49,0,0,0-.48.44.47.47,0,0,0,.44.48l3,.12Zm-6-.28a.46.46,0,0,0,0-.92c-1-.06-2-.12-3-.2a.46.46,0,0,0-.07.92l3,.19Zm-6-.44a.46.46,0,0,0,0-.91l-3-.28a.47.47,0,0,0-.5.41.46.46,0,0,0,.41.5l3,.28Zm-5.94-.59a.46.46,0,0,0,.05-.91l-3-.35a.44.44,0,0,0-.51.39.45.45,0,0,0,.39.51q1.49.2,3,.36Zm-5.93-.74a.46.46,0,0,0,.45-.4.45.45,0,0,0-.39-.51l-2.95-.43a.45.45,0,0,0-.52.38.45.45,0,0,0,.38.52l3,.43Zm-5.91-.91a.45.45,0,0,0,.07-.9l-2.94-.51a.45.45,0,0,0-.53.37.47.47,0,0,0,.37.53l2.95.51Zm-5.89-1.06a.45.45,0,0,0,.09-.9l-2.92-.59a.46.46,0,0,0-.54.35.44.44,0,0,0,.35.54c1,.21,1.95.4,2.94.6ZM217.48,332a.46.46,0,0,0,.1-.91c-1-.21-1.94-.44-2.91-.66a.46.46,0,0,0-.55.34.47.47,0,0,0,.34.55l2.92.67Zm-5.81-1.38a.46.46,0,0,0,.11-.9c-1-.24-1.93-.49-2.89-.75a.46.46,0,0,0-.24.89l2.9.75Zm-5.78-1.54a.45.45,0,0,0,.12-.89l-2.87-.83a.46.46,0,0,0-.25.88l2.87.83Zm-5.74-1.69a.46.46,0,0,0,.14-.89l-2.84-.9a.46.46,0,0,0-.58.29.44.44,0,0,0,.29.57l2.86.91A.3.3,0,0,0,200.15,327.36Zm-5.68-1.85a.45.45,0,0,0,.43-.31.46.46,0,0,0-.28-.58c-1-.32-1.89-.64-2.82-1a.45.45,0,0,0-.58.28.45.45,0,0,0,.27.58c.94.34,1.88.67,2.83,1A.39.39,0,0,0,194.47,325.51Zm-5.63-2a.46.46,0,0,0,.43-.3.48.48,0,0,0-.27-.59q-1.41-.51-2.79-1.05a.46.46,0,0,0-.33.85l2.8,1.06A.41.41,0,0,0,188.84,323.51Zm-5.58-2.16a.45.45,0,0,0,.17-.88l-2.76-1.13a.44.44,0,0,0-.59.24.46.46,0,0,0,.24.6c.92.39,1.84.77,2.77,1.14Zm-5.51-2.3a.48.48,0,0,0,.42-.28.46.46,0,0,0-.24-.6L175.2,317a.45.45,0,0,0-.6.23.46.46,0,0,0,.23.61l2.74,1.21A.58.58,0,0,0,177.75,319.05Zm-5.45-2.46a.46.46,0,0,0,.41-.26.46.46,0,0,0-.22-.61l-2.69-1.28a.46.46,0,1,0-.4.82l2.7,1.29A.48.48,0,0,0,172.3,316.59Zm-5.39-2.6a.45.45,0,0,0,.41-.25.46.46,0,0,0-.2-.62c-.89-.44-1.78-.89-2.66-1.35a.46.46,0,1,0-.42.81c.88.46,1.77.91,2.67,1.36A.53.53,0,0,0,166.91,314Zm-5.31-2.74A.46.46,0,0,0,162,311a.46.46,0,0,0-.19-.61L159.19,309a.46.46,0,0,0-.62.18.47.47,0,0,0,.18.63l2.64,1.42A.42.42,0,0,0,161.6,311.25Zm-5.24-2.89a.45.45,0,0,0,.23-.85c-.87-.49-1.73-1-2.59-1.49a.46.46,0,0,0-.46.79l2.6,1.49A.46.46,0,0,0,156.36,308.36Zm-5.16-3a.44.44,0,0,0,.39-.22.46.46,0,0,0-.15-.63c-.86-.52-1.71-1-2.55-1.56a.46.46,0,1,0-.48.78c.85.53,1.7,1,2.56,1.56A.39.39,0,0,0,151.2,305.35Zm-5.08-3.15a.45.45,0,0,0,.38-.21.44.44,0,0,0-.14-.63l-2.5-1.62a.45.45,0,1,0-.5.76c.83.55,1.67,1.09,2.51,1.63A.45.45,0,0,0,146.12,302.2Zm-5-3.28a.45.45,0,0,0,.25-.83l-2.47-1.68a.45.45,0,0,0-.63.11.46.46,0,0,0,.12.64l2.47,1.69A.48.48,0,0,0,141.12,298.92Zm-4.92-3.39a.46.46,0,0,0,.26-.83L134,293a.46.46,0,1,0-.54.74l2.43,1.74A.44.44,0,0,0,136.2,295.53ZM131.36,292a.46.46,0,0,0,.37-.18.45.45,0,0,0-.1-.64l-2.38-1.8a.45.45,0,0,0-.64.08.46.46,0,0,0,.09.64c.79.61,1.58,1.21,2.39,1.81A.44.44,0,0,0,131.36,292Zm-4.75-3.63a.44.44,0,0,0,.36-.18.46.46,0,0,0-.08-.64l-2.34-1.85a.46.46,0,0,0-.57.71l2.35,1.86A.48.48,0,0,0,126.61,288.38ZM122,284.63a.44.44,0,0,0,.35-.16.47.47,0,0,0-.06-.65c-.78-.63-1.54-1.27-2.3-1.9a.45.45,0,0,0-.59.69c.76.65,1.53,1.28,2.31,1.92A.43.43,0,0,0,122,284.63Zm-4.58-3.85a.45.45,0,0,0,.34-.15.46.46,0,0,0,0-.65c-.76-.65-1.51-1.3-2.25-2a.46.46,0,1,0-.61.69l2.26,2A.43.43,0,0,0,117.37,280.78Zm-4.49-3.95a.45.45,0,0,0,.34-.15.47.47,0,0,0,0-.65c-.74-.66-1.48-1.33-2.21-2a.46.46,0,0,0-.65,0,.47.47,0,0,0,0,.65l2.22,2A.42.42,0,0,0,112.88,276.83Zm-4.4-4.05a.47.47,0,0,0,.33-.14.46.46,0,0,0,0-.65c-.73-.68-1.45-1.37-2.17-2.06a.46.46,0,0,0-.63.66c.72.69,1.44,1.38,2.17,2.06A.43.43,0,0,0,108.48,272.78Zm-4.31-4.15a.45.45,0,0,0,.32-.78l-2.12-2.1a.45.45,0,1,0-.64.64c.7.71,1.41,1.41,2.12,2.11A.45.45,0,0,0,104.17,268.63ZM100,264.39a.44.44,0,0,0,.32-.13.46.46,0,0,0,0-.64c-.7-.72-1.39-1.43-2.07-2.15a.46.46,0,0,0-.67.63l2.08,2.16A.46.46,0,0,0,100,264.39Zm-4.13-4.32a.47.47,0,0,0,.31-.12.45.45,0,0,0,0-.65l-2-2.19a.46.46,0,0,0-.68.62q1,1.09,2,2.19A.44.44,0,0,0,95.82,260.07Zm-4-4.41a.47.47,0,0,0,.31-.12.46.46,0,0,0,0-.64c-.67-.75-1.33-1.49-2-2.24a.48.48,0,0,0-.65,0,.46.46,0,0,0,0,.65l2,2.24A.45.45,0,0,0,91.78,255.66Zm-4-4.49a.5.5,0,0,0,.3-.11.46.46,0,0,0,0-.65c-.65-.76-1.3-1.51-1.93-2.27a.46.46,0,0,0-.65,0,.45.45,0,0,0,0,.64L87.48,251A.48.48,0,0,0,87.83,251.17ZM84,246.6a.48.48,0,0,0,.29-.11.46.46,0,0,0,.06-.64q-1-1.15-1.89-2.31a.46.46,0,1,0-.71.58c.62.77,1.26,1.54,1.9,2.31A.46.46,0,0,0,84,246.6ZM80.2,242a.42.42,0,0,0,.28-.1.45.45,0,0,0,.07-.64l-1.85-2.34a.45.45,0,0,0-.64-.08.46.46,0,0,0-.08.64c.61.78,1.23,1.57,1.86,2.35A.43.43,0,0,0,80.2,242Zm-3.68-4.71a.41.41,0,0,0,.27-.1.46.46,0,0,0,.09-.64c-.61-.79-1.21-1.59-1.81-2.38a.46.46,0,1,0-.73.55l1.81,2.39A.46.46,0,0,0,76.52,237.24Zm-3.6-4.79a.46.46,0,0,0,.37-.72l-1.76-2.42a.46.46,0,0,0-.74.54c.58.8,1.17,1.61,1.77,2.42A.44.44,0,0,0,72.92,232.45Zm-3.5-4.85a.5.5,0,0,0,.27-.08.47.47,0,0,0,.11-.64l-1.72-2.45a.44.44,0,0,0-.63-.11.45.45,0,0,0-.12.63l1.72,2.46A.47.47,0,0,0,69.42,227.6ZM66,222.68a.41.41,0,0,0,.25-.08.45.45,0,0,0,.12-.63c-.56-.83-1.12-1.66-1.66-2.48A.46.46,0,1,0,64,220c.55.82,1.11,1.65,1.68,2.48A.46.46,0,0,0,66,222.68Zm-3.32-5a.47.47,0,0,0,.25-.07.46.46,0,0,0,.13-.64c-.55-.84-1.09-1.68-1.62-2.51a.46.46,0,0,0-.77.5c.53.83,1.07,1.67,1.63,2.51A.43.43,0,0,0,62.7,217.7Zm-3.22-5a.44.44,0,0,0,.24-.07.46.46,0,0,0,.14-.63l-1.57-2.54a.45.45,0,0,0-.63-.15.45.45,0,0,0-.15.63c.51.83,1,1.68,1.58,2.54A.44.44,0,0,0,59.48,212.66Zm-3.13-5.11a.46.46,0,0,0,.23-.06.46.46,0,0,0,.16-.63l-1.53-2.57a.45.45,0,0,0-.62-.16.46.46,0,0,0-.17.62L56,207.33A.45.45,0,0,0,56.35,207.55Zm-3-5.16a.46.46,0,0,0,.22-.06.45.45,0,0,0,.17-.62c-.51-.89-1-1.76-1.47-2.6a.47.47,0,0,0-.63-.18.46.46,0,0,0-.17.62l1.48,2.61A.45.45,0,0,0,53.32,202.39Zm-2.93-5.22a.46.46,0,0,0,.4-.68c-.5-.9-1-1.78-1.42-2.63a.46.46,0,0,0-.62-.19.45.45,0,0,0-.19.62c.45.85.93,1.73,1.43,2.64A.46.46,0,0,0,50.39,197.17Zm-2.82-5.29a.41.41,0,0,0,.21,0,.46.46,0,0,0,.19-.62c-.48-.92-.94-1.81-1.36-2.66a.47.47,0,0,0-.62-.2.46.46,0,0,0-.2.61l1.37,2.68A.46.46,0,0,0,47.57,191.88Zm-2.71-5.35a.46.46,0,0,0,.41-.66c-.48-1-.91-1.88-1.3-2.7a.45.45,0,1,0-.82.39c.39.82.82,1.73,1.3,2.71A.45.45,0,0,0,44.86,186.53Zm-2.56-5.44a.46.46,0,0,0,.19,0,.44.44,0,0,0,.22-.6c-.8-1.77-1.2-2.75-1.2-2.76a.46.46,0,0,0-.6-.25.46.46,0,0,0-.25.59s.41,1,1.22,2.8A.47.47,0,0,0,42.3,181.09Z" transform="translate(-5.07 -9.71)"/>
    <path class="cls-229" d="M242.11,312.78a.46.46,0,0,0,.45-.42.45.45,0,0,0-.41-.49l-1.88-.18a.46.46,0,0,0-.09.91l1.88.18Zm-4.86-.5a.45.45,0,0,0,.45-.4.46.46,0,0,0-.4-.51l-3-.35a.44.44,0,0,0-.51.39.45.45,0,0,0,.39.51c1,.13,2,.25,3,.36Zm-5.93-.75a.46.46,0,0,0,.45-.4.45.45,0,0,0-.39-.51l-2.95-.44a.46.46,0,0,0-.52.38.45.45,0,0,0,.38.52c1,.16,2,.3,3,.44Zm-5.91-.92a.46.46,0,0,0,.08-.91l-2.94-.52a.45.45,0,0,0-.53.36.46.46,0,0,0,.36.54l3,.52Zm-5.88-1.09a.45.45,0,0,0,.09-.9L216.7,308a.46.46,0,0,0-.54.35.45.45,0,0,0,.35.54l2.93.61Zm-5.84-1.26a.46.46,0,0,0,.45-.35.47.47,0,0,0-.35-.55c-1-.22-1.94-.46-2.9-.69a.46.46,0,0,0-.55.33.45.45,0,0,0,.33.55l2.92.7Zm-5.8-1.43a.45.45,0,0,0,.44-.34.46.46,0,0,0-.33-.56l-2.88-.77a.45.45,0,1,0-.24.87l2.89.79Zm-5.76-1.6a.46.46,0,0,0,.44-.33.47.47,0,0,0-.31-.57l-2.85-.86a.46.46,0,0,0-.58.3.46.46,0,0,0,.3.57c1,.3,1.91.59,2.87.87Zm-5.71-1.78a.45.45,0,0,0,.14-.89l-2.82-.95a.46.46,0,1,0-.3.86c.94.33,1.89.65,2.84,1A.34.34,0,0,0,196.42,303.45Zm-5.65-1.95a.45.45,0,0,0,.16-.88l-2.8-1a.45.45,0,1,0-.32.85c.93.36,1.86.7,2.81,1.05Zm-5.59-2.12a.46.46,0,0,0,.17-.88l-2.76-1.12a.46.46,0,0,0-.6.24.47.47,0,0,0,.25.6c.92.38,1.84.76,2.78,1.13A.45.45,0,0,0,185.18,299.38Zm-5.51-2.29a.46.46,0,0,0,.18-.88c-.92-.4-1.83-.8-2.73-1.21a.46.46,0,0,0-.38.84l2.74,1.21A.58.58,0,0,0,179.67,297.09Zm-5.45-2.47a.45.45,0,0,0,.41-.26.46.46,0,0,0-.22-.61c-.9-.42-1.79-.85-2.68-1.29a.47.47,0,0,0-.62.21.46.46,0,0,0,.21.61l2.7,1.3A.48.48,0,0,0,174.22,294.62ZM168.85,292a.45.45,0,0,0,.41-.25.46.46,0,0,0-.2-.61c-.89-.45-1.77-.91-2.65-1.38a.47.47,0,0,0-.62.19.46.46,0,0,0,.2.62c.88.47,1.76.93,2.65,1.38A.41.41,0,0,0,168.85,292Zm-5.28-2.79a.47.47,0,0,0,.4-.24.46.46,0,0,0-.18-.62l-2.61-1.45a.45.45,0,0,0-.62.17.46.46,0,0,0,.17.62c.87.49,1.74,1,2.62,1.46A.43.43,0,0,0,163.57,289.2Zm-5.2-3a.45.45,0,0,0,.23-.85c-.86-.5-1.71-1-2.55-1.53a.45.45,0,0,0-.63.15.46.46,0,0,0,.15.63c.85.52,1.71,1,2.57,1.54A.46.46,0,0,0,158.37,286.24Zm-5.1-3.11a.45.45,0,0,0,.38-.21.44.44,0,0,0-.14-.63L151,280.68a.45.45,0,1,0-.5.76l2.52,1.62A.45.45,0,0,0,153.27,283.13Zm-5-3.27a.45.45,0,0,0,.25-.83l-2.46-1.69a.45.45,0,0,0-.63.12.44.44,0,0,0,.11.63c.82.57,1.64,1.14,2.47,1.7A.48.48,0,0,0,148.26,279.86Zm-4.91-3.41a.44.44,0,0,0,.37-.19.46.46,0,0,0-.1-.64c-.81-.58-1.62-1.16-2.41-1.75a.46.46,0,1,0-.55.73l2.43,1.77A.5.5,0,0,0,143.35,276.45Zm-4.81-3.56a.46.46,0,0,0,.28-.82l-2.36-1.82a.45.45,0,0,0-.64.08.46.46,0,0,0,.08.64l2.37,1.83A.46.46,0,0,0,138.54,272.89Zm-4.7-3.69a.46.46,0,0,0,.36-.17.45.45,0,0,0-.07-.64l-2.3-1.89a.46.46,0,1,0-.59.7l2.32,1.9A.42.42,0,0,0,133.84,269.2Zm-4.59-3.83a.44.44,0,0,0,.35-.16.46.46,0,0,0,0-.64c-.76-.65-1.51-1.3-2.25-2a.47.47,0,0,0-.65,0,.46.46,0,0,0,0,.65l2.26,2A.43.43,0,0,0,129.25,265.37Zm-4.49-3.95a.45.45,0,0,0,.34-.15.46.46,0,0,0,0-.65l-2.2-2a.44.44,0,0,0-.64,0,.46.46,0,0,0,0,.64l2.21,2A.42.42,0,0,0,124.76,261.42Zm-4.37-4.08a.43.43,0,0,0,.33-.14.46.46,0,0,0,0-.64c-.73-.69-1.44-1.39-2.15-2.08a.45.45,0,0,0-.64,0,.46.46,0,0,0,0,.65l2.15,2.09A.49.49,0,0,0,120.39,257.34Zm-4.26-4.19a.45.45,0,0,0,.32-.13.46.46,0,0,0,0-.65l-2.09-2.13a.45.45,0,1,0-.65.63c.69.72,1.39,1.43,2.09,2.15A.46.46,0,0,0,116.13,253.15Zm-4.16-4.3a.46.46,0,0,0,.34-.77c-.69-.73-1.36-1.46-2-2.19a.46.46,0,0,0-.68.62q1,1.1,2,2.19A.44.44,0,0,0,112,248.85Zm-4-4.41a.47.47,0,0,0,.31-.12.45.45,0,0,0,0-.64c-.66-.75-1.32-1.49-2-2.24a.46.46,0,0,0-.64-.05.47.47,0,0,0,0,.65c.65.75,1.32,1.5,2,2.25A.46.46,0,0,0,107.93,244.44ZM104,239.93a.46.46,0,0,0,.34-.76l-1.91-2.28a.46.46,0,0,0-.71.58l1.93,2.3A.48.48,0,0,0,104,239.93Zm-3.82-4.61a.46.46,0,0,0,.29-.1.45.45,0,0,0,.07-.64q-.94-1.17-1.86-2.34a.47.47,0,0,0-.65-.07.46.46,0,0,0-.07.64c.61.78,1.24,1.56,1.87,2.34A.46.46,0,0,0,100.19,235.32Zm-3.7-4.7a.49.49,0,0,0,.28-.09.46.46,0,0,0,.08-.64l-1.8-2.38a.46.46,0,0,0-.64-.09.45.45,0,0,0-.1.64l1.82,2.38A.44.44,0,0,0,96.49,230.62Zm-3.59-4.78a.46.46,0,0,0,.37-.73c-.59-.81-1.18-1.61-1.75-2.42a.46.46,0,0,0-.64-.1.45.45,0,0,0-.11.63l1.76,2.43A.47.47,0,0,0,92.9,225.84ZM89.42,221a.42.42,0,0,0,.26-.08.45.45,0,0,0,.11-.64L88.1,217.8a.45.45,0,0,0-.75.51c.55.82,1.12,1.64,1.7,2.47A.45.45,0,0,0,89.42,221ZM86.05,216a.5.5,0,0,0,.26-.08.45.45,0,0,0,.12-.63l-1.64-2.5a.45.45,0,1,0-.76.5l1.64,2.5A.46.46,0,0,0,86.05,216Zm-3.25-5a.42.42,0,0,0,.24-.07.46.46,0,0,0,.14-.63l-1.58-2.53a.45.45,0,0,0-.63-.15.46.46,0,0,0-.15.63c.52.84,1.05,1.69,1.59,2.54A.48.48,0,0,0,82.8,211Zm-3.15-5.09a.44.44,0,0,0,.24-.07.45.45,0,0,0,.15-.62c-.52-.86-1-1.72-1.53-2.57a.45.45,0,1,0-.78.46q.75,1.29,1.53,2.58A.47.47,0,0,0,79.65,205.92Zm-3-5.16a.46.46,0,0,0,.22-.06.45.45,0,0,0,.17-.62c-.5-.87-1-1.74-1.47-2.6a.45.45,0,0,0-.62-.17.46.46,0,0,0-.18.62c.48.86,1,1.73,1.48,2.6A.45.45,0,0,0,76.62,200.76Zm-2.93-5.22a.42.42,0,0,0,.22,0,.46.46,0,0,0,.18-.62l-1.42-2.63a.45.45,0,0,0-.61-.19.45.45,0,0,0-.19.62c.46.87.94,1.75,1.42,2.64A.45.45,0,0,0,73.69,195.54Zm-2.81-5.28a.54.54,0,0,0,.21,0,.46.46,0,0,0,.19-.62c-.46-.89-.92-1.78-1.36-2.65a.46.46,0,0,0-.61-.21.47.47,0,0,0-.21.62L70.47,190A.46.46,0,0,0,70.88,190.26Zm-2.7-5.34a.39.39,0,0,0,.2,0,.45.45,0,0,0,.2-.61c-.44-.9-.88-1.8-1.3-2.68a.46.46,0,0,0-.61-.22.47.47,0,0,0-.22.61q.64,1.34,1.32,2.7A.44.44,0,0,0,68.18,184.92Zm-2.59-5.4a.43.43,0,0,0,.19,0,.45.45,0,0,0,.22-.61c-.43-.92-.85-1.82-1.25-2.71a.46.46,0,1,0-.83.38c.4.89.82,1.8,1.25,2.72A.45.45,0,0,0,65.59,179.52Zm-2.48-5.45a.43.43,0,0,0,.19,0,.45.45,0,0,0,.23-.6c-.41-.93-.81-1.85-1.19-2.74a.46.46,0,1,0-.84.36c.38.9.78,1.81,1.19,2.75A.47.47,0,0,0,63.11,174.07Zm-2.35-5.5a.47.47,0,0,0,.17,0,.45.45,0,0,0,.25-.6c-.39-1-.77-1.87-1.13-2.76a.45.45,0,0,0-.59-.26.46.46,0,0,0-.26.6c.36.89.74,1.82,1.14,2.77A.45.45,0,0,0,60.76,168.57ZM58.53,163a.45.45,0,0,0,.42-.62c-.37-1-.73-1.91-1.06-2.79a.46.46,0,0,0-.59-.27.47.47,0,0,0-.27.59c.34.89.69,1.82,1.07,2.8A.46.46,0,0,0,58.53,163Zm-2.1-5.61a.41.41,0,0,0,.16,0,.46.46,0,0,0,.27-.59c-.36-1-.69-2-1-2.82a.46.46,0,0,0-.87.29l1,2.84A.47.47,0,0,0,56.43,157.39ZM54.5,151.7a.35.35,0,0,0,.14,0,.46.46,0,0,0,.3-.57c-.59-1.85-.88-2.87-.88-2.88a.46.46,0,0,0-.56-.32.45.45,0,0,0-.32.56s.29,1,.89,2.92A.46.46,0,0,0,54.5,151.7Z" transform="translate(-5.07 -9.71)"/>
  </g>
</svg>
